<?xml version="1.0" standalone="no"?>
<!DOCTYPE svg PUBLIC "-//W3C//DTD SVG 1.1//EN" "http://www.w3.org/Graphics/SVG/1.1/DTD/svg11.dtd" >
<svg xmlns="http://www.w3.org/2000/svg" xmlns:xlink="http://www.w3.org/1999/xlink" version="1.1">
<metadata></metadata>
<defs>
<font id="caveatregular" horiz-adv-x="921" >
<font-face units-per-em="2048" ascent="1638" descent="-410" />
<missing-glyph horiz-adv-x="495" />
<glyph horiz-adv-x="0" />
<glyph unicode="&#xd;" horiz-adv-x="495" />
<glyph horiz-adv-x="0" />
<glyph horiz-adv-x="0" />
<glyph unicode=" "  horiz-adv-x="495" />
<glyph unicode="&#x09;" horiz-adv-x="495" />
<glyph unicode="&#xa0;" horiz-adv-x="495" />
<glyph unicode="!" horiz-adv-x="430" d="M143 88q0 45 70 92q41 25 59 25q10 0 50 -15q55 -33 55 -75q0 -25 -21.5 -49.5t-62.5 -45.5q-40 -14 -60 -14q-27 0 -61 25q-29 29 -29 57zM319 461q0 53 19 123q29 57 29 86q10 35 32.5 89t36.5 83q8 0 17.5 14t9.5 29q0 18 7 37.5t15 27.5q0 6 8.5 21.5t8.5 21.5 q0 4 5 13.5t5 15.5q37 61 106.5 231t71.5 197q6 35 37 29q10 8 33 8l28 -33q14 -14 17.5 -29.5t3.5 -46.5q-2 -31 -18.5 -66.5t-39 -74.5t-30.5 -55l-27 -49q-33 -57 -32 -68q0 -8 -10.5 -29.5t-16.5 -36.5q-18 -31 -41 -76.5t-23 -54.5q-2 -4 -5 -14t-11 -18q-6 0 -8 -9.5 t-2 -13.5q0 -10 -10.5 -41t-28.5 -67q-70 -199 -76 -283q-4 -49 -7 -57.5t-20 -16.5q-38 -8 -61 22.5t-23 90.5z" />
<glyph unicode="&#x22;" horiz-adv-x="485" d="M360 915v9q0 18 21 45q78 127 98 184q2 16 12.5 57t10.5 76v8q0 20 6 37t18 10q8 -4 35 -16t40 -28.5t9 -36.5q-4 -47 -32 -130q-10 -25 -17 -45q-10 -41 -35.5 -77.5t-68.5 -85.5q0 -4 -6.5 -7.5t-17.5 -6.5t-25 -7h-19q-8 0 -14 3t-15 11zM606 915v9q0 18 21 45 q78 127 98 184q2 16 12.5 57t10.5 76v8q0 20 6 37t18 10q8 -4 35 -16t40 -28.5t9 -36.5q-4 -47 -33 -130q-10 -25 -16 -45q-10 -41 -36 -77.5t-69 -85.5q0 -4 -6 -7.5t-17 -6.5t-26 -7h-18q-8 0 -14.5 3t-14.5 11z" />
<glyph unicode="#" horiz-adv-x="1144" d="M156 432q0 12 22.5 19.5t79.5 13.5q29 8 174 14q14 41 20.5 57.5t8.5 20.5q8 0 14 13.5t6 29.5q0 18 7.5 37.5t15.5 28.5q0 6 5 22.5t5 22.5q0 4 5 15t5 17q4 6 7.5 14.5t7.5 16.5h-115q-41 0 -72 10q-29 0 -40 6.5t-19 22.5q-12 18 -12 29q0 12 22.5 19t79.5 13 q31 8 205 15q72 178 153.5 396t81.5 237q0 33 33 32q10 10 33 11l33 -33q14 -14 18 -29.5t4 -46.5t-8 -53.5t-41 -91.5q-6 -14 -16.5 -34t-22.5 -48q-6 -20 -47 -109l-52.5 -122.5t-43.5 -104.5q82 4 282 8h47q72 180 152 391t80 230q0 33 33 32q10 10 32 11l33 -33 q14 -14 18.5 -29.5t4.5 -46.5t-8.5 -53.5t-40.5 -91.5q-6 -14 -16.5 -34t-22.5 -48l-23 -51q-86 -201 -117 -275h101q53 0 71.5 -5t40.5 -26q25 -24 25 -47q0 -18 -15.5 -26t-41.5 -4l-129 -11q-4 0 -24.5 -1t-72.5 -1q-20 -41 -51 -112.5t-31 -79.5q0 -23 -10 -33 q-6 0 -8 -9t-2 -13q0 -6 -10 -43q61 2 133 2q53 0 71.5 -5.5t40.5 -25.5q25 -25 25 -47q0 -18 -15.5 -26.5t-41.5 -4.5l-129 -10q-4 0 -31 -1t-92 -1q-70 -229 -112 -379t-42 -193q0 -53 -3 -66.5t-17 -21.5q-6 -2 -21 -2q-33 0 -51 33t-18 90q0 47 12 109q23 59 22 86 q4 25 37 130t70 212l-330 -4l-18 -60q-10 -37 -49 -168t-61.5 -220t-22.5 -118q0 -53 -3.5 -66.5t-17.5 -21.5q-6 -2 -20 -2q-33 0 -51.5 33t-18.5 90q0 47 12 109q23 59 23 86q8 41 104 336h-96q-41 0 -72 10q-29 0 -40 6t-19 22q-12 18 -12 29zM557 483q92 4 330 9l24 65 q8 0 14.5 13.5t6.5 29.5q0 18 7 37.5t15 28.5q0 6 5.5 22.5t5.5 22.5q0 4 5 15t5 17q10 21 16 37l-323 -4q-25 -51 -51.5 -115.5t-26.5 -70.5q0 -23 -10 -33q-6 0 -8.5 -9t-2.5 -13q0 -10 -12 -52z" />
<glyph unicode="$" d="M113 258q0 12 27.5 34.5t58.5 22.5q16 0 37 -10q-18 -41 -19 -57q0 -20 19.5 -31.5t68.5 -19.5q20 -2 55 -2q37 0 58 2q152 346 168 372q8 0 18 14.5t12 28.5q0 10 5 27q-47 74 -82 94q-6 6 -16.5 25.5t-14.5 21.5q-2 2 -6 8.5t-10 16.5q-16 27 -17 57q0 41 25.5 87 t72.5 87q23 27 82.5 69t71.5 42q4 2 16.5 6t30.5 12q18 4 50 13.5t57 9.5l14 4q135 283 135 303q6 16 15.5 22.5t25.5 4.5q12 12 33 4l29 -29q18 -31 14 -80q-4 -20 -12.5 -38.5t-17.5 -35t-15 -26.5q-29 -45 -68 -117v-2q45 -10 85 -37.5t40 -56.5q0 -25 -31 -47 q-23 -4 -65 16q-49 23 -84 27q-47 -82 -92 -164t-45 -86q0 -10 -33 -64l-57 -104q41 -39 41 -45v-8q4 0 32.5 -40t28.5 -48q2 -2 6 -10.5t12 -20.5q10 -6 19.5 -62.5t9.5 -87.5q0 -25 -23.5 -56.5t-58.5 -57.5q-43 -33 -124 -74t-140 -51l-57 -12q-90 -221 -101 -279 q-4 -49 -9 -64.5t-23 -19.5q-66 -14 -66 74q0 51 31 157q31 43 35 91l12 32q-109 -4 -131 13q-18 6 -43 24q-43 20 -65.5 48t-24.5 73zM537 207q35 8 41 12q59 18 106 44t61 50q20 18 24.5 30.5t4.5 30v23.5q-2 47 -10 66.5t-51 87.5q0 6 -15 20l-12 -14q-6 0 -9 -9t-3 -13 q0 -10 -11.5 -38t-31.5 -59zM596 874q10 -39 35 -69l47 -49q53 89 168 331q-94 -23 -152 -86q-49 -31 -73.5 -65.5t-24.5 -61.5z" />
<glyph unicode="%" horiz-adv-x="1228" d="M203 -127q0 66 69 162q45 37 52 57q16 29 202 236q125 141 131 151h2q8 0 17.5 10.5t13.5 24.5q6 16 20.5 28.5t28.5 16.5q4 8 10.5 16.5t8.5 14.5q0 4 8 13t10 15q55 47 292 290t247 263q10 18 22 19q4 0 17 -4q8 4 16 4t16 -4q0 -2 3.5 -12.5t11.5 -26.5q8 -14 8 -31 q0 -18 -14 -41q-14 -27 -29.5 -45t-67.5 -63l-61 -56q-18 -20 -139 -137q-123 -115 -125 -123q-23 -4 -41 -41l-39 -39q-109 -104 -111 -112q-6 -8 -32 -19q-2 2 -5.5 -3t-3.5 -7q0 -8 -19.5 -32.5t-49.5 -51.5q-102 -123 -223 -276.5t-144 -196.5q-16 -39 -25.5 -51 t-23.5 -15q-53 11 -53 66zM416 772q0 12 2 19q4 12 3 22t-1 14q-8 8 -4 12.5t6 8.5q10 0 6 18q-4 12 13.5 57.5t41.5 84.5q16 29 51 72.5t64 66.5q41 35 71.5 51t67.5 25q27 8 45 8q20 0 45 -27q45 -18 61.5 -49t16.5 -94q0 -104 -86 -232q-39 -53 -71.5 -82.5t-85.5 -60.5 q-37 -25 -66 -35t-64 -12q-20 0 -32.5 6t-30.5 25q-53 53 -53 102zM514 791q0 -25 11.5 -39.5t31.5 -14.5q53 0 133 86q37 43 59.5 81t43.5 95q8 33 8 66q0 47 -10 53q-14 8 -33 8q-37 0 -72 -32q-45 -37 -80 -92.5t-78 -147.5q-14 -31 -14 -63zM702 14q0 12 3 19 q4 12 3 22.5t-1 14.5q-8 8 -4 12t6 8q10 0 6 19q-4 12 13 57t42 84q16 29 51 73t64 66q41 35 71.5 51.5t67.5 24.5q27 8 45 8q20 0 45 -27q45 -18 61.5 -48.5t16.5 -94.5q0 -104 -86 -231q-39 -53 -72 -83t-86 -61q-37 -25 -65.5 -35t-63.5 -12q-20 0 -32.5 6.5t-30.5 24.5 q-53 53 -54 102zM799 35q0 -25 11 -39t32 -14q53 0 133 86q37 43 59.5 80.5t42.5 95.5q8 33 8 65q0 47 -10 53q-14 8 -33 9q-37 0 -71 -33q-45 -37 -80 -92.5t-78 -147.5q-14 -31 -14 -63z" />
<glyph unicode="&#x26;" horiz-adv-x="1155" d="M143 176q0 27 11 68q12 39 115.5 176t203.5 237q-39 55 -57.5 103.5t-18.5 97.5q0 102 86 254q25 41 70 90t83 82t42 27q6 -10 14 -11q4 0 9.5 2.5t9.5 2.5q8 4 24 4q49 0 115 -21q80 -10 107.5 -18t50.5 -35q78 -59 77 -129q0 -27 -43 -82t-110 -117 q-23 -27 -48.5 -52.5t-33.5 -31.5q0 -10 -11.5 -23.5t-25.5 -19.5q-47 -41 -108.5 -98t-63.5 -64q-2 -8 51 -81.5t111.5 -142t70.5 -68.5q76 74 146 131q51 45 143 129q41 45 66.5 69.5t38.5 24.5q10 0 26 -16q29 -6 29 -35q0 -16 -6 -31.5t-10 -22.5q-39 -53 -125 -128.5 t-101 -90.5q-68 -59 -127 -118q6 -8 28 -33t48 -49q70 -72 105.5 -99.5t83.5 -42.5q66 -23 96.5 -53.5t30.5 -75.5q0 -24 -33 -24q-35 0 -93.5 24.5t-107.5 53.5q-37 10 -106.5 73.5t-151.5 161.5q-141 -78 -194.5 -103.5t-131.5 -47.5q-23 -2 -65 -3q-98 0 -182 29 q-23 6 -66 40t-61 54q-10 6 -11 33zM303 199q0 -37 37 -62q43 -14 94 -14q66 0 136.5 28.5t160.5 88.5l39 28l-51 60l-60 73q-25 35 -41 56q-25 23 -42 48t-21 34q-10 0 -50 -43t-59 -74q-37 -29 -59 -56.5t-40.5 -57t-27.5 -42.5q-16 -35 -16 -67zM520 868q0 -76 53 -137 q17 18 101 90q119 98 191.5 173t72.5 132q0 10 -2 17q-8 14 -67.5 37.5t-92.5 21.5q-39 2 -90 -41t-102 -117q-63 -90 -64 -176z" />
<glyph unicode="'" horiz-adv-x="239" d="M340 915v9q0 18 20 45q78 127 99 184q2 16 12 57t10 76v8q0 20 6.5 37t18.5 10q8 -4 34.5 -16t40 -28.5t9.5 -36.5q-4 -47 -33 -130q-10 -25 -16 -45q-10 -41 -36 -77.5t-69 -85.5q0 -4 -6 -7.5t-17.5 -6.5t-25.5 -7h-18q-8 0 -14.5 3t-14.5 11z" />
<glyph unicode="(" horiz-adv-x="675" d="M303 182q0 137 41 289q25 84 29 135q4 14 71 170q78 176 99 234q43 94 154.5 254.5t148.5 189.5q4 4 24.5 22.5t36.5 22.5q8 20 32 35.5t44 15.5q35 18 57 19q23 0 37.5 -18.5t24.5 -57.5l4 -25q0 -12 -8 -17t-41 -21q-27 -10 -55.5 -25.5t-40.5 -30.5q-18 -25 -41 -46 t-35 -30q-37 -14 -37 -32q-4 -10 -22.5 -44t-51.5 -75q-41 -66 -55 -92q-10 -18 -53 -90q-6 -10 -22.5 -41t-39.5 -58q0 -10 -7 -32.5t-24 -47.5q-12 -45 -49 -120q-25 -51 -52.5 -140.5t-27.5 -117.5q-6 0 -11 -25t-11 -84l-10 -74q-4 -135 16.5 -204.5t77.5 -131.5 q25 -20 47 -30.5t51 -12.5l70 -43q-10 -39 -24.5 -53t-39.5 -14q-14 0 -22 2q-86 16 -153.5 77.5t-94.5 149.5q-37 84 -37 217z" />
<glyph unicode=")" horiz-adv-x="675" d="M63 -168q0 4 1.5 17.5t9.5 25.5q2 -2 9 -5t21 -3q16 0 29 4q39 -2 55.5 7t49.5 46q6 12 24 33q59 82 68 106q29 20 43 38t30 44q0 45 37 105q27 59 39 78q25 49 25 55q2 4 7 18.5t3 30.5q12 6 21.5 27.5t7.5 44.5q2 8 19.5 50t19.5 83q33 104 43 184t20 254l4 109 q2 27 2 63q0 31 -4 48.5t-16 37.5q-20 66 -35 66q-6 0 -11 10t-5 27q0 16 4 26v2q0 10 9 18.5t23 6.5q12 0 30 -11.5t26 -19.5q8 8 25.5 -20.5t37.5 -85.5q18 -41 23.5 -61.5t5.5 -57.5l-4 -86l-4 -68q-2 -102 -18.5 -231t-39.5 -238q-27 -106 -93 -277t-97 -220 q8 2 -70 -111l-80 -123q-41 -55 -94 -91t-96 -36q-14 0 -21 2q-82 23 -84 78z" />
<glyph unicode="*" horiz-adv-x="743" d="M385 883q0 25 6 43q20 25 114.5 120t110.5 107q16 14 17 23q0 6 -17 20l-8 8t-5 8.5t3 4.5q0 2 -2 7t-8 7q-12 18 -12 35v20q-12 10 -13 45q0 29 7 35q2 0 6 -2t12 -8q8 0 20.5 -19.5t20.5 -29.5q16 -33 29.5 -48.5t27.5 -15.5l17.5 35t17.5 57q16 23 29.5 44.5 t25.5 39.5q18 31 25 41q4 10 11 20.5t9 12.5q0 4 5.5 12t11.5 11q12 16 18 19t10 -1q6 -8 16.5 -18.5t14.5 -22.5l21 -33l-27 -35q-29 -41 -48.5 -81.5t-29.5 -69.5t-6 -29q6 2 23.5 9.5t35.5 11.5q25 12 45.5 17t22.5 5q20 0 49 19q18 6 29 6q10 0 20 -6q14 -14 21.5 -38 t7.5 -38q-72 -37 -127 -53q-129 -39 -133 -54q-10 0 -10 -10q0 -8 10 -24q2 -12 4 -36t2 -36q10 -39 15.5 -61.5t7.5 -28.5q6 0 7 3t1 9q0 8 18 8q8 0 20.5 -19.5t6.5 -23.5v-12q4 0 4 -6q0 -12 -12.5 -32.5t-18.5 -20.5q-20 -13 -48 10.5t-50 64.5q-12 31 -18 54l-19 49 l-4 75q-4 4 -66.5 -46t-142.5 -130q-47 -43 -67.5 -57t-32.5 -14q-16 0 -22.5 8t-6.5 14q-2 4 -2 21z" />
<glyph unicode="+" horiz-adv-x="913" d="M221 432q0 12 22.5 19.5t80.5 13.5q70 14 213 20l-5 185q0 53 5.5 71.5t25.5 40.5q25 25 47 25q18 0 26.5 -15.5t4.5 -41.5l10 -129l4 -132l185 5q53 0 71.5 -5.5t40.5 -25.5q25 -24 25 -47q0 -18 -15.5 -26.5t-41.5 -4.5l-129 -10l-132 -4l3 -176q0 -41 -11 -72 q0 -29 -6 -40t-22 -20q-18 -12 -29 -12q-12 0 -19.5 22.5t-13.5 80.5q-14 70 -20 213l-176 -2q-41 0 -72 10q-29 0 -40 6t-20 22q-12 18 -12 29z" />
<glyph unicode="," horiz-adv-x="405" d="M68 -141q0 12 8 23.5t20 25.5q35 35 76 84t55 76q14 45 31 120q0 41 10 52q12 12 23 12q25 0 37 -92q4 -29 4 -43q0 -47 -35 -129q-8 -20 -50 -70.5t-50 -50.5q-10 0 -29 -19q-6 -6 -23.5 -8t-38.5 -2q-22 0 -26 2t-12 19z" />
<glyph unicode="-" horiz-adv-x="667" d="M221 432q0 12 22.5 19.5t80.5 13.5q72 16 130 22.5t140 6.5q53 0 71.5 -5.5t41.5 -25.5q25 -25 24 -47q0 -18 -15.5 -26.5t-41.5 -4.5l-129 -10q-12 0 -66.5 -5t-113.5 -5q-41 0 -72 10q-29 0 -40 6t-20 22q-12 18 -12 29z" />
<glyph unicode="." horiz-adv-x="405" d="M164 174q0 45 69 92q41 25 60 25q10 0 49 -15q55 -33 55 -75q0 -25 -21.5 -49.5t-62.5 -45.5q-39 -14 -59 -14q-29 0 -61 25q-29 29 -29 57z" />
<glyph unicode="/" horiz-adv-x="675" d="M66 -109q0 63 43 156q6 12 20 38t18 42q16 37 184.5 342t180.5 322q8 -2 16.5 10t12.5 28q4 18 15 36t19 22q4 8 11.5 22.5t9.5 20.5q0 4 7 14t9 17q45 55 170 252.5t131 222.5q6 31 41 24q10 8 33 4q2 -2 7 -12t18 -27q12 -14 12 -39q0 -16 -6 -38q-6 -31 -18.5 -50.5 t-59.5 -80.5l-55 -74l-45 -62q-29 -35 -29 -41q-4 -8 -14.5 -23.5t-22.5 -37.5q-23 -29 -75 -102.5t-54 -81.5q-2 -4 -5 -13.5t-13 -15.5q-6 2 -10.5 -7t-4.5 -14q0 -16 -53 -100q-92 -168 -233.5 -438t-151.5 -318q-10 -49 -16 -63t-21 -19q-35 -2 -53 20.5t-18 63.5z" />
<glyph unicode="0" d="M289 440q0 18 4 60q23 129 97.5 257t174.5 214q53 47 97.5 72.5t103.5 39.5q29 8 90 9q39 0 81 -16.5t70.5 -40t28.5 -44.5q0 -18 -3 -22t-17 2h-21l21 -60q8 -18 14 -44.5t6 -49.5q0 -37 -22.5 -142.5t-38.5 -142.5q-8 -16 -8 -43l-52 -112q-8 -6 -12 -14.5t2 -14.5 q0 -8 -21.5 -46t-27.5 -38q-2 0 -6 -1t-4 -7q0 -8 -27.5 -43t-62.5 -70q-31 -33 -91.5 -66.5t-91.5 -33.5q-22 0 -75.5 28.5t-83.5 55.5q-57 55 -91 140t-34 173zM399 391q0 -51 6.5 -79.5t22.5 -59.5q8 -14 26.5 -34.5t22.5 -27.5q14 -14 23.5 -19t23.5 -5q16 0 43 6 q49 0 78 29q39 27 87 83t71 107q20 29 33.5 59.5t44.5 120.5q14 20 21 52t7 59q0 90 11 127q0 57 -2.5 72.5t-16.5 31.5q-23 18 -49 19q-14 0 -53 -15.5t-56 -25.5q-12 -4 -18 -4q-12 0 -21.5 5t-9.5 13q0 14 -12 15q-16 0 -45 -25t-62 -64q-33 -33 -60.5 -72.5t-27.5 -47.5 q0 -6 -7 -22.5t-11 -26.5q-14 -23 -38.5 -79.5t-31.5 -80.5v-111z" />
<glyph unicode="1" d="M338 711q0 12 6 24q8 2 74 49q74 53 84 58q4 0 22.5 15t34.5 26q6 8 96 71l109 80q172 106 188 103q10 -2 34 -19.5t26 -34.5q4 -8 4 -14q0 -14 -17 -51q-18 -39 -66 -180.5t-73 -223.5q-14 -53 -43 -131q-6 -18 -17.5 -52t-19.5 -69q-18 -45 -40.5 -124.5t-34.5 -135.5 l-21 -61q-18 -55 -27 -61q-18 -15 -65 32q-12 10 -12 25q0 10 16 86q4 29 8 41q10 49 25.5 105.5t19.5 72.5q16 8 74 201q31 111 70 227q18 57 28 100t15 56q-18 -10 -79 -46t-114 -77q-4 -2 -78 -55q-16 -10 -43.5 -31t-46.5 -31q-31 -25 -50 -38t-28 -13q-4 0 -20 8 q-39 35 -39 68z" />
<glyph unicode="2" d="M248 129q0 14 6 32.5t12 18.5q6 -6 34 32t30 48q2 8 13 15.5t15 9.5q10 16 30 35.5t26 27.5q8 10 30.5 34t40.5 42q49 45 72 70q106 115 111 133l8 8t16 12q31 20 58 47q2 14 22.5 45t40.5 52q16 23 29.5 50t19.5 48l4 18q0 8 -10 13.5t-23.5 9.5t-21.5 6q-47 14 -82 14 q-76 0 -156 -55q-29 -6 -45 -14q-37 -12 -47 -11q-6 2 -18 18.5t-23 26.5l-20 43l63 35q127 84 222 84q33 0 57 -8q18 0 36.5 -4t22.5 -6q25 2 65 -39t60 -84q25 -37 25 -76q0 -61 -66 -158q-45 -53 -137 -153t-113 -117q-25 -12 -119 -118.5t-85 -106.5v-4q0 12 128 31.5 t197 19.5q23 0 31 -4q4 -8 7 -7t3 3q2 8 29 8q47 0 110 -18q6 -2 21.5 -6.5t22 -8.5t6.5 -8q2 -2 7 -11t15 -22q18 -14 19 -24q0 -14 -35 -15q-25 0 -82 11q-53 0 -88 -7q-6 -4 -38 -5t-48 -1q-10 2 -29 2q-47 0 -133 -28q-45 -18 -147.5 -45t-120.5 -21q-15 6 -41.5 28.5 t-34.5 41.5q-2 2 -2 12z" />
<glyph unicode="3" d="M295 119q2 23 7 30t22 7l43 -4q45 -8 73 -9q92 0 188.5 35t145.5 84q49 47 49 98q0 57 -63 101q-39 27 -119 49t-123 18q-6 -2 -16 -2q-20 0 -51 19q-18 20 -37 57q-2 10 11 20.5t64.5 40t133.5 72.5q125 70 179 103.5t85 58.5q16 20 26.5 36.5t10.5 24.5t-12.5 14.5 t-41.5 12.5q-59 6 -108 6q-37 0 -37 -6h-8q-14 6 -79 -8t-67 -23q-2 -6 -43 -20t-51 -14q-16 4 -35.5 38.5t-13.5 49.5q6 18 127 75q39 10 130 15.5t134 1.5q184 -20 209 -154q6 -20 6 -37q0 -23 -15 -42t-63 -62l-49 -33q-68 -43 -133 -80q-4 -4 -51 -35q-53 -33 -53 -39 q4 -4 19.5 -13t31.5 -23q53 -18 102 -60.5t76 -79.5q25 -55 25 -106q0 -66 -38 -122t-114 -101q-55 -31 -131 -53.5t-143 -26.5q-82 0 -144.5 25.5t-58.5 60.5z" />
<glyph unicode="4" d="M373 592q0 29 10 37q10 23 19.5 41t15.5 32q23 45 22 52q0 4 5.5 13t5.5 15q18 39 113 179.5t126 171.5q18 8 35.5 12t24.5 -2q8 -18 16 -51t2 -33q-2 0 -6 -2t-4 -8q0 -12 -66 -91q-119 -162 -186 -286q-27 -78 -27 -99q0 -10 6 -16q12 -4 31 -4q49 0 133 25 q98 20 121 30q16 0 29.5 6.5t13.5 14.5q0 6 15.5 37.5t19.5 46.5l31 61q41 86 57 113q37 80 49 112q14 35 23.5 52.5t13.5 17.5q10 0 24.5 -8t20.5 -23q8 -8 13 -16t5 -18t-12 -35q-6 -25 -14 -45.5t-23 -46.5l-32 -64q-53 -104 -122 -261t-91 -228q-27 -76 -43.5 -129.5 t-16.5 -77.5q0 -18 10 -39q2 -37 -18.5 -63.5t-42.5 -26.5q-25 0 -31 26q-14 16 -14 41q0 23 18 103q12 72 33 149l14 66q14 33 23.5 64.5t11.5 39.5q-8 0 -33.5 -4t-56.5 -16q-74 -18 -121 -19q-45 0 -74.5 16.5t-52.5 53.5q-10 10 -17 34.5t-7 49.5z" />
<glyph unicode="5" d="M266 180q8 18 33 19q14 0 26.5 -7.5t14.5 -19.5q4 -16 29.5 -25.5t64.5 -9.5q82 0 181.5 55.5t152.5 124.5q16 35 29.5 91.5t13.5 87.5q0 18 -6 18q0 4 -3 16.5t-9 28.5q-10 29 -47 61.5t-72 47.5q-57 8 -86 8q-25 0 -35 -2l-31 -2q-20 0 -34.5 2t-18.5 2q-16 4 -49 31.5 t-33 42.5q6 31 61.5 119.5t100.5 134.5q59 63 132 97t150 34q76 0 104 -8.5t52 -41.5q14 -27 14 -47q0 -16 -8 -26.5t-22 -10.5q-12 0 -25 7q-23 14 -65 14q-47 0 -119 -21q-43 -16 -91 -52t-59 -58q-4 -4 -10 -11.5t-12 -5.5q-2 -2 -7 -9t-5 -13q-6 -6 -10.5 -12t-7.5 -7.5 t-7 5.5l-2 -21v-10q0 -12 9 -18.5t38 -8.5q57 -8 83 -16t73 -37q70 -41 108.5 -118t38.5 -169q0 -18 -4 -59q-6 -51 -13 -73.5t-34 -63.5q-72 -98 -186.5 -161t-214.5 -63q-61 0 -107 29q-14 10 -25.5 23.5t-11.5 21.5q-4 8 -8 10t-10 2q-8 -4 -16.5 28t-4.5 46z" />
<glyph unicode="6" d="M242 262q0 23 18 115q18 84 30.5 122t47.5 87q14 41 36.5 86t33.5 57q8 10 29.5 42t43.5 54l56 74q29 18 38 33q37 43 119 93t142 56q25 8 43 9q23 0 18 -11l8 -8t21 -8q6 -2 13 -15.5t11 -19.5q4 -18 -2 -30.5t-33 -36.5q-29 -20 -40 -23.5t-19 6.5q2 6 -6 10t-12 4 q-20 4 -97 -45t-120 -98q-45 -41 -52 -57q-23 -23 -42 -46.5t-25 -31.5q2 -8 16 -8q12 0 24.5 6t14.5 10q0 8 46 21.5t93 17.5q12 4 25 4q16 0 78 -12q47 -10 63.5 -18.5t38.5 -36.5q39 -37 54.5 -73t15.5 -85q0 -41 -7.5 -66.5t-27.5 -52.5q-27 -43 -71 -97t-68 -71 q-8 -4 -14.5 -8t-8.5 -6q-4 -23 -97 -74t-159 -68q-49 -14 -90 -14q-63 0 -111 47q-31 23 -44 44.5t-19 60.5q-12 41 -12 61zM330 236q0 -20 8 -31q2 -23 12 -30t31 -11q41 -8 49 -8q27 0 80 22q45 12 53 10q8 6 34 22.5t62 39.5q98 63 159 141t61 137q0 10 -2 17v4 q0 10 -5.5 28.5t-5.5 22.5q-8 0 -23.5 4t-33.5 8q-25 4 -37 4q-33 0 -160 -28q-10 -2 -25.5 -6t-35.5 -9q-14 -4 -34.5 -13t-35.5 -13q-29 -23 -55 -29q-25 -2 -41 -39t-39 -139q-16 -88 -16 -104z" />
<glyph unicode="7" d="M379 41q-14 68 143 365q45 72 45 86q0 8 -11 10t-30 2q-10 2 -38.5 8t-34.5 14q-39 20 -39 43q0 12 14 15q20 4 21 12q0 6 -25 14l22 -4l103 -2q37 0 53 -2q6 -2 16 -2q14 0 22.5 7t21 22.5t18.5 23.5l39 62q41 57 74 114q111 158 110 201q0 29 -41 29q-33 0 -72.5 -11.5 t-125.5 -43.5q-45 -18 -79 -30.5t-50 -12.5q-18 0 -29 8q-14 2 -21.5 16t-7.5 33q0 14 2 20q8 37 269 103q66 10 112 10q78 0 92 -27q2 -2 6.5 -5t6.5 3q6 -2 13 -17t15 -32q4 -8 16.5 -30.5t12.5 -38.5q0 -8 -4 -29q-6 -20 -20.5 -43t-22.5 -31t-13.5 -17.5t-7.5 -11.5 q-2 -6 -13 -15t-19 -19q-2 -6 -9.5 -17.5t-9.5 -17.5l-112 -170q-29 -27 -29 -39t26 -25q72 -33 89 -82v-18q0 -23 -11 -29q-8 -12 -28 -12q-25 0 -31 10q-8 16 -46 31.5t-50 15.5q-10 -6 -35 -39q-16 -23 -68 -124l-53 -97q-2 -6 -11 -20.5t-14 -24.5q-8 -14 -14 -42.5 t-6 -51.5q0 -20 6 -20q4 2 10 2q18 0 25 -29q10 -14 -6.5 -34.5t-43 -33t-48.5 -8.5q-45 8 -74 78z" />
<glyph unicode="8" d="M254 66q0 8 4 36q0 72 25 111q25 70 102.5 186.5t134.5 188.5q23 27 23 43q0 12 -12.5 32.5t-30.5 47.5q-6 16 -15.5 30.5t-5.5 14.5q-2 2 -6 8t-10 20q-31 29 -31 88t31 117q33 74 72.5 112t101.5 46q57 -8 144 -25.5t134 -38.5q37 -14 86.5 -54t53.5 -56q0 -4 6 -13.5 t10 -17.5q12 -27 12 -68q0 -59 -22 -94q-51 -57 -72 -65q-6 -4 -21.5 -18.5t-31.5 -18.5q-27 -35 -37 -35q-10 6 -17.5 7t-7.5 -7q-2 -8 -55 -31.5t-65 -17.5h-2q-10 0 -23 -8q-10 2 -3 -15.5t34 -50.5q80 -150 80 -231q0 -39 -17 -62q-39 -88 -84 -145t-71 -53l-29 -19 q-4 -12 -16.5 -18t-24.5 -4l-6 2q-23 0 -57 -23q-27 -18 -65 -28.5t-71 -10.5q-27 0 -39 6q-18 3 -36.5 16t-44.5 38q-4 8 -14.5 30.5t-10.5 47.5zM375 76q0 -33 18 -37q27 -2 92.5 28.5t116.5 65.5q61 51 91 96t30 93q0 31 -12 57q-41 84 -52 98q-18 29 -41 41 q-4 -2 -18 -14t-22 -31q-37 -45 -58 -84l-45 -45q0 -6 -12 -34.5t-29 -59.5q-29 -49 -44 -95t-15 -79zM543 838q0 -37 16 -68q16 -6 23.5 -18.5t7.5 -16.5q0 -6 4 -12t12 -6q2 -8 13.5 -16.5t27.5 -8.5q27 0 64 23q51 45 86 45q25 0 32 -19q4 -8 48.5 19.5t76.5 60.5 q8 12 12.5 23.5t4.5 23.5l-4 33q2 31 -13.5 47.5t-79.5 40.5q-90 33 -161 33q-125 0 -158 -117q-12 -37 -12 -67z" />
<glyph unicode="9" d="M430 788q0 37 10.5 65t40.5 77q63 94 147.5 159.5t164.5 79.5q29 4 53 5q63 0 94 -13q45 -18 84 -80.5t29 -97.5q-12 -63 -30.5 -99t-47.5 -67q-47 -41 -119 -182t-123 -287q-39 -111 -39 -192q0 -35 11 -35q6 0 22 -6t21 -6q6 -8 6 -17q0 -8 -11 -35q-10 -29 -49 -71.5 t-53 -40.5t-32.5 18.5t-18.5 24.5q2 6 0 8t-8 2q-2 4 -5.5 16.5t-1.5 24.5q0 8 2.5 27.5t2.5 42.5q4 55 35.5 168.5t66.5 216.5q27 70 27 84q0 20 -29 20q-14 0 -25 -2q-12 -2 -32 -2q-80 0 -136.5 57.5t-56.5 136.5zM539 760q0 -20 10 -35q20 -23 57 -23q55 0 123 48.5 t117 123.5l39 52q25 31 28 35q31 35 31 53q0 14 -12 26q-14 25 -47 25q-20 0 -70 -16q-31 -6 -58.5 -19.5t-72.5 -42.5q-12 -12 -33 -8q-2 0 -5 -2t-3 -8q2 -2 2 -8q0 -18 -27 -39q-39 -39 -59 -83t-20 -79z" />
<glyph unicode=":" horiz-adv-x="405" d="M176 174q0 45 70 92q41 25 59 25q10 0 49 -15q55 -33 56 -75q0 -25 -21.5 -49.5t-62.5 -45.5q-40 -14 -60 -14q-27 0 -61 25q-29 29 -29 57zM319 604q0 45 70 92q41 25 60 25q10 0 49 -14q55 -33 55 -76q0 -25 -21.5 -49.5t-62.5 -44.5q-39 -15 -59 -15q-29 0 -62 25 q-29 29 -29 57z" />
<glyph unicode=";" horiz-adv-x="405" d="M82 -141q0 12 8 23.5t21 25.5q35 35 75.5 84t55.5 76q14 45 30 120q0 41 11 52q12 12 22 12q25 0 37 -92q4 -29 4 -43q0 -47 -35 -129q-8 -20 -50 -70.5t-50 -50.5q-10 0 -29 -19q-6 -6 -23.5 -8t-37.5 -2q-21 0 -26 3t-13 18zM319 604q0 45 70 92q41 25 60 25 q10 0 49 -14q55 -33 55 -76q0 -25 -21.5 -49.5t-62.5 -44.5q-39 -15 -59 -15q-29 0 -62 25q-29 29 -29 57z" />
<glyph unicode="&#x3c;" horiz-adv-x="913" d="M252 485q16 2 46 22.5t36 22.5q33 27 94 65t166 95q96 45 132 70.5t44 32.5q45 35 61 32h9q12 0 24 -12q10 -12 26.5 -19.5t25 -12.5t8.5 -15q-2 -4 -11.5 -18.5t-21.5 -22.5l-57 -31q-94 -43 -242 -131l-76 -43q-59 -33 -82.5 -53.5t-19.5 -46.5q18 -41 115.5 -92.5 t252.5 -98.5q66 -16 111 -40.5t45 -47.5q0 -12 -18 -22q-4 -2 -28 -8.5t-61 -6.5t-75 9l-41 10q-63 16 -94 28.5t-62 34.5q-72 23 -120 58t-97 90l-76 90z" />
<glyph unicode="=" horiz-adv-x="913" d="M219 340q0 12 26.5 19.5t94.5 13.5q150 29 354 28q63 0 84 -5t43 -25q27 -25 27 -47q0 -16 -16.5 -25.5t-43.5 -5.5l-178 -10q-154 -10 -229 -11q-41 1 -84 11q-31 0 -42 6t-19 22q-16 20 -17 29zM332 631q0 12 26.5 19t94.5 14q150 29 354 28q63 0 83.5 -5t43.5 -25 q29 -25 29 -48q0 -14 -12.5 -23t-32.5 -9l-17 2l-158 -11q-154 -10 -249 -10q-41 0 -86 10q-29 0 -40.5 6.5t-19.5 22.5q-16 20 -16 29z" />
<glyph unicode="&#x3e;" horiz-adv-x="913" d="M295 154q2 4 10 17t21 24l59 24q113 45 254 115q29 16 76 37q61 29 86.5 48t23.5 48q-16 43 -110 99.5t-246 113.5q-63 23 -105 49.5t-42 46.5q0 16 20 25q4 0 21.5 4t44.5 4q45 0 100 -16l55 -19q55 -18 81 -29.5t54 -35.5q68 -29 113 -67t92 -99l70 -94l10 -62 q-16 -2 -49 -19.5t-37 -19.5q-29 -20 -86 -50t-145 -71l-37 -18q-86 -33 -127 -58.5t-58 -33.5q-16 -12 -35.5 -21.5t-27.5 -7.5h-4q-12 0 -18.5 7t-8.5 9q-10 12 -26.5 20.5t-24.5 14.5t-4 15z" />
<glyph unicode="?" horiz-adv-x="765" d="M305 88q0 45 70 92q41 25 59 25q10 0 49 -15q55 -33 56 -75q0 -25 -21.5 -49.5t-62.5 -45.5q-40 -14 -60 -14q-27 0 -61 25q-29 29 -29 57zM451 467q0 23 6 45q0 10 18 51q16 37 21 51q23 39 68.5 91.5t80.5 76.5l35 25q0 8 28.5 30.5t49.5 32.5q8 6 28.5 20.5t38.5 31.5 q45 45 67.5 85t33 80.5t30.5 139.5l2 73q0 27 -5 41.5t-21 26.5q-25 12 -53 12q-70 0 -148 -54t-115 -136q-14 -37 -14 -53q0 -10 6 -27q0 -12 5 -30.5t5 -24.5q-6 -2 -34 -2q-55 0 -76 10q-2 4 -8 13t-13 20q-8 12 -10 24.5t-1 25.5t1 28q25 74 73 143t120 106 q41 18 67.5 31.5t34.5 18.5q4 0 20.5 1t47.5 5h10h12q20 0 21 -9h59q39 -10 79 -32.5t60 -46.5q12 -39 13 -95q0 -102 -39 -222t-101 -187l-45 -41q-100 -90 -127 -121q-66 -37 -120 -111.5t-82 -156.5q-12 -29 -21.5 -44.5t-18 -18.5t-28.5 -3q-31 2 -46 24.5t-15 51.5z " />
<glyph unicode="@" horiz-adv-x="1316" d="M199 131q-4 53 11 137t38 127q0 8 3 16.5t5 16.5q0 12 14.5 41t32.5 55l31 43q100 133 154.5 193.5t156.5 132.5q59 45 146.5 83t156.5 48l19 2l69 -4q61 -6 118.5 -31.5t100.5 -66.5q125 -98 160 -254q8 -41 8 -90q0 -53 -6 -102.5t-18 -74.5q-43 -92 -124 -181 t-126 -101q-33 0 -83 14.5t-73 34.5q4 0 -39 25q-4 -4 -17 -17.5t-34 -32.5q-41 -41 -98 -66.5t-84 -19.5q-63 16 -87 30.5t-65 70.5q-14 37 -14 69q0 33 20 101q12 53 33 93t58 93q33 47 70.5 77t97.5 54q25 12 73 12q43 0 74 -20q18 -2 44 -35t40 -65q6 -31 6 -45t-6 -50 q-4 -12 -6 -23l-4 -22q-6 -31 -15 -61q-12 -33 -12 -49q0 -6 4 -19q-2 -10 29 -24.5t47 -14.5q12 0 33.5 11.5t40.5 33.5q10 12 45 48t54 69t32 76q4 33 4 70q0 111 -51.5 203t-153.5 135q-41 16 -113 16q-102 0 -178 -33q-53 -18 -156.5 -100t-154.5 -142 q-170 -205 -201 -421q-2 -16 -2 -45q0 -53 19 -91q45 -90 145 -153q117 -47 246 -39q16 -4 21 -10t3 -23l17 -33q0 -18 -7.5 -26t-25.5 -17q-39 -16 -96 -16q-142 0 -277 106q-63 59 -112 144q-16 23 -27.5 60.5t-13.5 76.5zM659 213q25 -47 68 -47q18 0 35 8 q33 21 72.5 57.5t48.5 59.5l16 33q43 68 53 129q0 2 17 45q0 14 -3 21t-20 18h2q-45 10 -67 10q-25 0 -50 -10q-39 -16 -80.5 -77t-68.5 -132.5t-23 -114.5z" />
<glyph unicode="A" horiz-adv-x="1028" d="M100 -18q0 20 17.5 58t60.5 120q12 27 47 94q119 227 119 248q-2 4 -2 12q0 20 33 37q47 47 78 100q20 45 55 107.5t86 148.5q25 43 74 125q76 135 194 295q46 62 77 62h1q39 0 87 -36t67 -81q8 -14 8 -62q0 -63 -15 -215q-4 -27 -8 -84q-6 -92 -18 -196 q-23 -229 -33 -358.5t-10 -241.5q0 -57 2 -84v-15l-2 -47q-12 -12 -37 -12q-29 0 -55.5 13.5t-30.5 31.5q-2 2 -6 4t-4 19l2 45l6 114l10 332l-26 -2q-41 0 -182.5 -16.5t-176.5 -26.5q-18 0 -45 -24.5t-47 -63.5q-6 -20 -28.5 -58t-22.5 -44q-12 -8 -21.5 -21.5 t-11.5 -17.5q0 -23 -42 -115t-83 -154l-43 -65l-33 24q-23 12 -32 22.5t-9 27.5zM565 592q13 2 53.5 9t73.5 9q147 35 180 35q14 0 27 -6q6 -8 13.5 -11t9.5 -3q4 12 25.5 222t23.5 279l6 103q-12 0 -53 -47t-91.5 -122t-89.5 -153q-20 -37 -39.5 -68.5t-27.5 -31.5 q-14 -15 -68 -111q-45 -81 -45 -99q0 -4 2 -5z" />
<glyph unicode="B" horiz-adv-x="1064" d="M186 172q10 18 17.5 36.5t15.5 51.5q27 80 155 397.5t199 479.5q37 84 37 111q0 10 -6 12q0 6 -6 18t-4 18q0 12 58 37q50 22 75 22q4 0 8 -1h13q27 0 26 10q4 0 38 4q17 2 35.5 2t37.5 -2q137 -12 213 -80q73 -65 73 -171v-9q-2 -51 -71.5 -150.5t-138.5 -162.5 q-33 -29 -75 -61t-55 -40l52 -18q100 -37 158.5 -91.5t80.5 -144.5q4 -20 4 -37q0 -45 -15 -102t-34 -100q-12 -12 -20 -26.5t-10 -18.5q-2 -8 -37 -62.5t-62 -87.5q-102 -88 -182 -117q-86 -39 -195 -39q-100 0 -151 33q-66 41 -97.5 72t-31.5 57q0 27 35 47q10 6 35.5 -11 t50.5 -42q53 -49 139 -49q37 0 98 14q84 25 148.5 72t124.5 121q37 49 55 108.5t18 112.5q0 66 -24 96q-82 111 -234 111q-66 0 -123 -17l-118 -24q-4 -2 -18.5 -5t-45.5 -89t-80 -226q-43 -125 -67.5 -175t-44.5 -50t-50 45q-22 35 -22 62q0 29 18 59zM520 672 q23 4 91.5 17t95.5 24q4 2 25.5 13t43.5 34q49 45 121 134t104 150q51 84 52 123q0 27 -23 50q-26 32 -121 32h-6q-66 0 -112 -12q-29 -8 -42.5 -19.5t-13.5 -33.5q0 -31 -33 -64q-2 -12 -9 -23.5t-9 -13.5q0 -6 -25 -61q-33 -63 -61 -143q-78 -184 -78 -207z" />
<glyph unicode="C" horiz-adv-x="966" d="M236 248q0 121 14 206t49 173l18 43q33 84 48 110q35 80 122 207q78 119 123 173t87 87t155 111q47 35 109 35q51 0 95 -26t66 -73q23 -39 23 -104q0 -92 -41 -192.5t-105 -157.5q-20 -18 -38 -19q-23 0 -60 33q-18 35 -20 41t8 8q18 23 54 87.5t48 101.5q4 12 8 41 q16 72 17 96q0 25 -15 39q-6 6 -16 6q-16 0 -57 -21q-49 -20 -125 -91.5t-137 -155.5q-94 -123 -144.5 -203t-77.5 -162l-22 -53q2 -8 -6 -41t-19 -53q-28 -115 -28 -228v-8q0 -88 15 -155.5t44 -92.5q16 -14 49 -14q41 0 101.5 20.5t148.5 59.5q47 18 89 42.5t63 45.5 q53 39 86 39q23 8 30 8q4 0 5 -5t1 -13q0 -29 -30.5 -63t-81.5 -64q-41 -41 -98 -64q-66 -47 -153 -84t-159 -37q-16 0 -41 4q-63 23 -103 51.5t-67 94.5q-32 89 -32 210v7z" />
<glyph unicode="D" horiz-adv-x="1183" d="M166 -18q0 31 29 22q20 -10 45 -41q25 -25 53.5 -36t68.5 -11q14 0 56 4q49 8 114.5 30.5t96.5 47.5q98 68 160.5 108.5t78.5 51.5q4 10 43 24l56 54q53 57 69 69q2 14 7.5 29.5t5.5 23.5q25 27 73.5 128.5t67.5 175.5q18 96 18 169q0 125 -44 210t-128 157 q-43 35 -142 77q-87 37 -110 37q-3 0 -6 -1q-10 -2 -55 -118t-123 -333l-65 -182q-8 -33 -18.5 -61.5t-16.5 -51.5q-27 -76 -27 -86q-23 -35 -36 -91t-29 -191q-18 -68 -17 -62q-8 -35 -14 -57.5t-12 -20.5l-9 -8q0 -12 -18 -12q-16 0 -36.5 9t-33.5 22q-8 29 -8 41 q0 27 16 81q16 70 54.5 196t64.5 206q14 35 41 131q23 76 50.5 155.5t39.5 100.5q4 14 28 81.5t56 149.5l15 68l-23 10q-18 -6 -33 -6q-10 0 -22 6q-20 -6 -56 17.5t-40 44.5q-4 6 -5.5 18t-1.5 16q4 20 82 38t170 18q39 0 60 -2q37 -2 70.5 -12.5t82.5 -30.5l49 -19 q66 -25 141 -86t133 -144t79 -169q6 -27 12 -74t6 -84q0 -43 -8 -53q-6 -8 -6 -20.5t8 -14.5q-4 -12 -14.5 -45t-22.5 -70q-12 -129 -115 -303q-10 0 -16 -3t2 -5q0 -10 -22 -39q-6 -4 -25.5 -29.5t-28.5 -31.5q-2 -14 -12 -23.5t-18 -9.5l-3 -1q-4 -1 -4 -7 q-37 -53 -134 -131t-173 -111q-20 -14 -47.5 -26.5t-38.5 -16.5q-16 -14 -82.5 -39.5t-107.5 -34.5q-54 -8 -70 -8q-41 0 -98 17q-27 8 -39 18t-27.5 29.5t-23.5 29.5q-37 51 -37 91z" />
<glyph unicode="E" horiz-adv-x="1083" d="M168 285q0 59 20.5 140t44.5 132q45 109 199 348q8 8 11 11.5t2 4.5l-1 1q0 14 60 127q35 37 35 63q0 14 -7 23q-1 1 -1 4q0 12 39 46q46 40 116 79q55 43 109 43q16 0 27.5 -5.5t13.5 -15.5q0 -4 12 -4q19 0 70 12q37 8 53 11q8 10 42 17t95 15q16 -1 33 -1t35 1 q34 2 45 4q16 6 35.5 -5t33.5 -44q6 -14 6 -26q0 -23 -27.5 -36t-94.5 -22q-68 -8 -84 -10q-113 -12 -238 -39q-80 -16 -116 -40.5t-81 -94.5q-14 -10 -36.5 -52t-45.5 -87q-6 -8 -14 -20.5t-20 -26.5q-59 -80 -82 -116t-17 -44q6 -2 23.5 -6t30.5 -6q18 10 51 14t47 8 q326 84 369 90q18 12 34 12q37 0 66 -49q6 -12 6 -22q0 -18 -28.5 -34.5t-108.5 -40t-193 -54.5l-65 -19q-133 -39 -207 -39q-63 0 -62 35q-3 2 -6 2q-17 0 -39 -47q-26 -55 -44.5 -136t-18.5 -136q0 -29 6 -45q18 -51 46 -78t93 -45q14 -2 36 -4t50 -2q41 0 82 16 q104 18 179 41t92 33q12 6 20 8t16 2l-2 -4v-1t2 -1q6 0 37 35q36 29 96 55q39 17 53 17q8 0 9 -5q4 -12 4 -20q0 -39 -48 -93.5t-130 -101.5q-100 -53 -224 -78.5t-239 -27.5q-45 2 -84 22.5t-88 59.5l-41 28q-37 37 -56.5 77t-31.5 104q-4 25 -4 43z" />
<glyph unicode="F" horiz-adv-x="929" d="M168 20q0 16 12 54q16 74 60.5 211t78.5 207q14 25 22.5 51t10.5 35q10 37 13 43l-3 20q0 8 4.5 16.5t14.5 18.5q29 25 61 96l78 223l25 70q2 8 8 28.5t6 28.5t-4 8q-16 -4 -66 -6q-25 -4 -37 -5t-18 -3h-14q-39 0 -39 29q4 33 23.5 54.5t50.5 23.5l80 18q18 4 49.5 11.5 t44.5 2.5q27 18 26 29q0 10 10.5 16.5t24.5 6.5q29 0 41 -19q8 -12 35 -12q41 0 143 22q16 2 56.5 5.5t66.5 3.5q37 0 60 -7q18 4 32.5 4.5t24.5 2.5q35 0 43 6q18 -4 41.5 -7t34 -7.5t18.5 -10.5q6 -8 6 -14t-2 -8l-4 2q2 0 7 -3t12 -10q31 -16 20 -47q-2 -12 -9 -17 t-34 -6h-20q-22 0 -50 1q-78 10 -135 10q-86 0 -235 -20q-37 -2 -69 -10.5t-40 -10.5q-10 0 -30.5 -30.5t-36.5 -77.5q-12 -18 -43 -97.5t-41 -103.5q-45 -119 -52 -129q25 -8 99 -8q106 0 282 16q70 13 97 13q9 0 12 -2q12 -8 21.5 -30t9.5 -40q0 -10 -4 -19 q-6 -14 -44 -22.5t-135 -18.5q-90 -8 -262 -8q-90 0 -106 4q-4 -2 -11.5 -12t-7.5 -25q-37 -66 -108.5 -254t-71.5 -225q-14 -37 -22 -84q-2 -8 -6.5 -22.5t-8.5 -18.5q0 -6 -14 -6q-12 0 -27.5 6t-25.5 19q-14 12 -21.5 20t-7.5 20z" />
<glyph unicode="G" horiz-adv-x="997" d="M236 166v11q0 237 83 499q37 109 90.5 228.5t90.5 182.5q57 94 126.5 166t112.5 97q27 14 73 26.5t97 12.5q41 0 76 -9q49 -12 96 -33.5t64 -35.5q8 -12 19.5 -28.5t17.5 -29t6 -26.5q2 -20 -17.5 -49t-40.5 -29q-12 0 -24 14q-20 31 -41 46.5t-43.5 25.5t-32.5 16 q-27 16 -74 17q-37 0 -74.5 -11.5t-64.5 -33.5q-37 -33 -90 -97.5t-82 -119.5q-123 -215 -174 -406q-16 -59 -36.5 -149.5t-26.5 -135.5q-12 -76 -13 -137q0 -76 26 -115.5t85 -39.5q41 0 100 20q68 8 154 79t143 161q92 172 92 231q0 41 -39 41q-41 4 -102 4q-41 0 -63.5 2 t-40.5 12q-14 23 -15 39q0 25 27 52q29 12 113 12q119 0 186 -33q63 -31 63 -125q0 -45 -8 -80q-18 -80 -125 -239q-47 -66 -140 -142.5t-151 -99.5q-113 -51 -202 -51q-63 0 -107 31q-55 34 -87 97q-28 55 -28 114q0 9 1 18z" />
<glyph unicode="H" horiz-adv-x="1153" d="M168 -86q0 14 2 23q6 6 11 31.5t5 45.5q6 12 10.5 25.5t10.5 38.5q16 90 75.5 303t73.5 227v23q0 6 4.5 24.5t18.5 38.5q8 25 13 48.5t7 35.5q8 10 27.5 61.5t26.5 67.5q14 39 35.5 91.5t29.5 68.5v10q4 4 21.5 42t29.5 65q14 33 76 170q6 14 19.5 35.5t13.5 29.5 q8 14 29 15q18 0 37.5 -13.5t29.5 -34.5l21 -32l-74 -148q-31 -53 -53.5 -102t-22.5 -57q-8 -20 -31.5 -84t-38.5 -109q-10 -31 -24 -64.5t-21 -48.5q-16 -37 -16 -41q0 8 246 9q39 0 138 2t124 6l106 10l70 211q20 72 90 279q31 88 49.5 113.5t44.5 25.5q10 0 30 -9.5 t26 -23.5q23 -23 22 -47q0 -29 -33 -80q-25 -43 -69 -162q-18 -55 -23 -63q0 -43 -20 -64q-8 -8 -28.5 -58t-20.5 -58q0 -16 -6.5 -36t-14.5 -28l-14 -49q-72 -260 -113 -361q0 -10 -10 -36.5t-10 -36.5q-4 -14 -18.5 -57.5t-14.5 -51.5q-4 -23 -16 -72q-31 -139 -31 -151 q-4 -4 -12 -4t-25.5 6t-26.5 10q-49 27 -49 62q0 23 19 59q6 10 39 133l18 76q12 33 55 195q35 125 39 129v20q-6 10 -149 10q-162 0 -297 -16h-97h-53q-10 -23 -62 -189.5t-59 -209.5q-14 -68 -44.5 -188t-47.5 -175q-4 2 -16 6t-27 4q-25 6 -40 26.5t-15 47.5z" />
<glyph unicode="I" horiz-adv-x="819" d="M98 25q4 53 170 55l109 2l20 41q16 47 47 151q10 39 43 132q63 197 68 212q10 25 32.5 99t35.5 121q80 248 80 292q0 9 -3 9h-9q-27 1 -102 -7q-91 -10 -102 -16q-6 -8 -20 -8q-12 0 -26.5 9t-18.5 22q-2 8 -2 22t12 23q23 18 99.5 41.5t148.5 31.5q35 4 70.5 15.5 t54.5 27.5q40 13 68 13h4q14 -10 69 -10q47 0 72 2q74 8 125 8q39 0 56.5 -8.5t27.5 -26.5q8 -33 8 -43q0 -37 -41 -37h-4q-35 -8 -168 -12q-145 -12 -156 -29q-10 -10 -15 -18.5t-11 -16.5q2 -8 -9.5 -52t-27.5 -89l-37 -109q-57 -178 -74 -219q-14 -35 -20 -71 q-35 -121 -57.5 -192t-34.5 -114q-39 -115 -60 -192l117 10q121 12 158 12q29 0 40 -6t17 -24q25 -31 25 -51q0 -25 -39 -35q-32 -8 -95 -8h-26q-94 -4 -156.5 -7.5t-84 -9.5t-25.5 -20q0 -16 -19 -17q-20 0 -39 9q-22 31 -143 31q-20 0 -43 -1l-19 -2q-39 0 -67.5 18.5 t-22.5 41.5z" />
<glyph unicode="J" horiz-adv-x="626" d="M-80 -260q0 12 6 31q10 37 27 36q8 0 23.5 -11t27.5 -27q41 -35 78 -35q74 0 156 127l53 119q115 252 129 294q0 2 2 8.5t8 14.5q2 8 11.5 34.5t15.5 55.5l86 244q8 41 23.5 89t27.5 81q8 16 61 176q25 78 43 133q8 25 31 98q20 63 20 77q0 2 -1 3l-115 -20 q-23 -10 -55 -11q-20 0 -34 4.5t-12 10.5v10q-10 -8 -27.5 11.5t-15.5 35.5q0 16 40 29.5t106 21.5l147 21q10 8 51 -7.5t58 -31.5q16 -23 16 -45q0 -29 -17.5 -81t-78.5 -218l-68 -191q-49 -150 -75 -211q-8 -27 -23 -65q-35 -100 -51 -160q-25 -57 -53 -155 q0 -16 -8.5 -37t-18.5 -31l-49 -121l-19 -49q-4 -12 -21 -55t-32 -64q-6 -16 -22.5 -42.5t-16.5 -33.5q0 -2 -2 -7t-8 -5l-7 -7t-5 -13q-10 -25 -63.5 -76t-86.5 -66q-36 -14 -65 -14q-47 0 -94.5 21.5t-81.5 60.5q-20 20 -21 43z" />
<glyph unicode="K" horiz-adv-x="1019" d="M168 -37q0 14 10 51q-2 27 4 51.5t6 28.5q14 0 15 33q0 16 18 72l19 63l24 60q23 57 23 61q0 27 26 68q8 25 14.5 53t6.5 47q4 10 22.5 47t26.5 74q2 10 7 22.5t11 30.5l68 184l31 70q4 10 27.5 63.5t31.5 53.5v22q0 8 23 53l24 50q16 27 25.5 52t11.5 34q2 4 8 14t15 18 q23 16 41 17q29 0 49 -41q14 -29 14 -51q0 -20 -18 -50q-70 -150 -140.5 -307t-70.5 -182l69 51q53 53 170 142l252 204q57 29 135 90q20 12 32.5 22.5t21.5 14.5q12 10 49 36t47 24q23 10 49.5 -21t22.5 -57q4 -21 -9.5 -36t-58.5 -40q-92 -45 -104 -68q-10 -8 -46 -34.5 t-90 -65.5q-80 -53 -138 -100t-77 -72q-6 0 -15 -6t-15 -4q-4 -2 -18.5 -12.5t-20.5 -18.5q-6 -16 -19.5 -31.5t-32.5 -13.5q-39 -20 -153 -113q14 -158 80 -276q59 -131 121 -193q43 -47 80.5 -73.5t58.5 -26.5q18 -6 51 -28.5t35 -36.5q2 -4 2 -17q0 -31 -10 -45 q-8 -14 -14.5 -21.5t-20.5 -7.5q-23 0 -55 17h-2q-33 0 -111 62q-80 64 -123 116q-55 80 -95 145.5t-61 143.5q-8 37 -30 110q-14 39 -17 56v39l-24 -62q-2 -6 -25.5 -67.5t-66.5 -217.5l-33 -106q-47 -147 -62.5 -186t-31.5 -39q-8 0 -21.5 9l-19.5 13q-16 10 -22.5 18.5 t-6.5 20.5z" />
<glyph unicode="L" horiz-adv-x="872" d="M207 268q0 49 6 56q6 4 6 27q0 15 14 65q10 27 10 49q0 8 -1 14q2 4 7 14.5t13 20.5q10 10 11 21.5t-1 15.5v2q0 8 5.5 21.5t11.5 21.5q6 6 11 16.5t7 14.5q2 14 32 91t40 93v4q8 20 22 43q4 29 29 80q47 104 132 240.5t134 183.5q20 23 33.5 32t26.5 9q18 0 47 -29 q24 -24 24 -62q0 -26 -8 -26q-27 -18 -106.5 -133t-128.5 -205q-27 -57 -46.5 -96l-25.5 -51l-8 -19q-49 -104 -92 -225q-10 -12 -13.5 -25.5t-3.5 -17.5q-4 2 -7 -11.5t-7 -23.5q-14 -12 -14 -59q-23 -55 -37 -139q-11 -66 -12 -105q0 -11 1 -20q8 -68 113 -109 q47 -18 70 -18q14 -2 43.5 2t68.5 10h-2q10 2 113 25q49 6 82 18q61 18 80 18q12 0 16 -4q16 -12 17 -30l-5 -19q-6 -16 -65 -49t-115 -49q-43 -18 -99 -28.5t-110 -10.5q-55 0 -82 10q-79 21 -145 81t-84 128q-8 61 -8 137z" />
<glyph unicode="M" horiz-adv-x="1474" d="M70 -20q0 14 13 46.5t38 86.5q63 125 84 141q25 33 28 72q27 37 76 133q31 49 73 122.5t75 141.5l57 100q80 139 128 215t73 101q33 39 33 61q0 43 17 79t36 32q25 0 40 -5.5t31 -25.5q4 -6 13.5 -19.5t14.5 -28.5t5 -38q0 -25 -6 -61q-2 -27 -16 -121q-8 -45 -9 -56 q-53 -162 -95 -404.5t-42 -340.5q0 -23 4 -31q14 -10 25.5 -2t34.5 53q27 49 90 127q4 6 80 136q188 309 366 620l54 84q31 49 59.5 91t44.5 54q20 16 39 17q39 0 69.5 -47t30.5 -119q0 -55 -22.5 -169t-59.5 -228q-12 -57 -34.5 -143.5t-47.5 -155.5q-4 -35 -16 -88 q-2 -10 -11 -62q-6 -36 -6 -57q0 -9 1 -15q-31 -55 -31 -221l-6 -47q-4 -57 -8 -77.5t-13 -18.5q-4 2 -12 2q-14 0 -14 -12q-1 -8 -15 -8q-10 0 -24.5 8t-22.5 22q-16 35 -16 86l2 84q63 373 149 750q29 100 48.5 190t23.5 115q0 6 -11 -5t-21.5 -26.5t-8.5 -21.5l-51 -76 q-12 -12 -57 -94q-31 -66 -56 -103l-57 -108q-63 -117 -78 -142q-20 -31 -59 -106q-20 -49 -74 -117q-16 -23 -31.5 -49.5t-19.5 -34.5q0 -10 -42 -69.5t-77 -98.5q-47 -49 -77.5 -70.5t-57.5 -21.5q-35 0 -76 39q-27 29 -38 68t-11 96q0 51 14 172q2 10 39 219 q39 211 47 231q2 12 2 29q0 18 -6 19q-6 0 -22 -27q-6 -8 -73 -114.5t-142 -272.5q-119 -219 -176.5 -328.5t-83.5 -156.5q-35 -68 -41 -74q-31 0 -78 51q-6 12 -6 23z" />
<glyph unicode="N" horiz-adv-x="1226" d="M168 -72q0 14 7 40t11 40q18 72 50 137q16 39 32.5 86.5t26.5 102.5q41 94 72.5 183t40.5 114q2 10 45 100q35 68 63 129q10 29 51 152q29 92 51.5 147t57.5 111q37 61 88 61q25 0 44 -15.5t30 -45.5q16 -39 25 -95.5t14 -189.5q2 -41 2 -121v-194q0 -104 4 -172t18 -117 q16 -94 45 -203.5t45 -109.5q25 0 82 146t146 503q12 41 28.5 118.5t24.5 151.5q23 84 44 175t21 100q0 10 1 20t-1 25q8 0 17.5 26.5t9.5 48.5q0 59 29 88q6 14 30 15q25 0 48.5 -13.5t31.5 -31.5q1 -4 1 -9q0 -57 -58 -305q0 -25 -29 -147q-18 -70 -28 -133 q-8 -59 -19.5 -102.5t-19.5 -41.5q-84 -360 -215 -659q-59 -141 -131 -141q-49 0 -101 65q-55 72 -76.5 145.5t-56.5 258.5q-35 96 -35 223q0 74 10 172l9 141q-2 82 -5.5 114t-11.5 32t-24.5 -37t-46.5 -125q-33 -82 -91 -217l-53 -131q-37 -74 -55 -150 q-86 -223 -143 -409l-19 -58q-31 -82 -59 -82q-20 0 -47 29q-31 30 -31 55z" />
<glyph unicode="O" horiz-adv-x="1015" d="M236 162q0 57 10 143t20 137q8 8 9 24.5t-1 20.5q0 6 11 41q25 76 34 127q55 168 108.5 268.5t119.5 188.5q88 90 138 132t112 71q80 47 114 47q6 0 19 -4q115 -25 172 -93.5t84 -211.5q18 -125 18 -189q0 -102 -37 -206.5t-133 -262.5q-111 -217 -261 -348t-284 -131 q-72 0 -131 43q-71 55 -93.5 87t-26.5 79q-2 10 -2 37zM352 133q0 -18 3 -28.5t13.5 -23.5t18.5 -28q10 -16 32.5 -26.5t47.5 -10.5q14 0 22 2q70 9 132.5 55t154.5 152q80 92 114 139.5t60.5 113t65.5 200.5q23 86 30 134t7 116l-2 133q-2 35 -14.5 72.5t-28.5 56.5 q-31 35 -80 35q-31 0 -60 -15q-39 -16 -114.5 -95t-136 -162t-60.5 -107q0 -2 -2 -12.5t-8 -18.5q-35 -37 -78 -149.5t-76 -243.5t-37 -219z" />
<glyph unicode="P" horiz-adv-x="950" d="M168 -35q0 47 70 248q14 57 30 111q14 37 15 55q0 16 5 37.5t5 29.5q25 0 45 84q8 31 14 52.5t8 33.5q4 6 9.5 18.5t9.5 22.5q16 49 39 95q25 92 58.5 193.5t55.5 150.5l25 61q2 6 9 23.5t7 25.5t-6 13q-10 6 -10 20q0 27 49 70q25 31 42.5 40t47.5 9l66 -4q25 -2 131 -2 q23 -10 53 -21q61 -20 62 -28q0 -10 7 -14.5t21 -6.5q20 0 64.5 -46t66.5 -95q14 -33 21.5 -54.5t7.5 -50.5q0 -31 -4 -49q-4 -33 -10 -63.5t-15 -38.5q-33 -25 -32 -43q0 -16 -52.5 -86t-99.5 -115q-53 -61 -127 -109q-231 -104 -329 -104h-9q-66 -10 -80 -17.5t-22 -33.5 q-10 -27 -19.5 -55.5t-9.5 -36.5q-12 -23 -54 -152t-57 -192q-8 -27 -18 -33t-33 -6q-10 0 -21 7t-20 19q-16 12 -16 37zM475 555.5q-2 -12.5 4 -18.5q4 -5 27 -5q27 0 71 8.5t85 24.5q74 25 163 80q27 18 67 55t77 84q12 20 49 97q16 29 31.5 73.5t15.5 79.5q0 16 -2 25 q-10 53 -54 99t-102 63q-43 8 -78 8q-27 0 -61 -6q-33 -10 -48 -28.5t-40 -78.5q-47 -90 -86 -196q-37 -137 -74 -227.5t-43 -104.5v-8q0 -12 -2 -24.5z" />
<glyph unicode="Q" horiz-adv-x="1028" d="M236 236q0 106 30 253q20 78 67.5 216.5t55.5 138.5q6 6 6 35q0 23 63.5 123t112.5 143q68 90 197 155q20 12 64.5 29t74.5 19q17 1 32 1q77 0 119 -25q52 -30 93 -112q29 -33 38 -62.5t15 -82.5q0 -12 4 -41q0 -72 -19.5 -179.5t-49 -187t-56.5 -79.5q-2 0 -7 -2.5 t-5 -10.5q1 -4 1 -9q0 -19 -10 -58q-13 -51 -42 -107q-88 -236 -205 -373q20 -45 33 -61q4 -14 24 -47q25 -37 31 -57q47 -72 47 -93q0 -12 -13 -17t-42 -3h-5q-29 0 -60 22q-33 25 -42 54q-12 12 -14 23.5t-4 15.5q-8 4 -22.5 22.5t-20.5 38.5l-6 14q-103 -79 -210 -79h-3 q-23 0 -35 2q-49 8 -104.5 46t-75.5 81q-57 117 -57 254zM362 201q0 -59 13 -115q4 -55 26.5 -86t59.5 -31q18 0 28 4q84 12 164 93l-37 67q-61 121 -71 133q-6 6 -6 17q0 14 10 24q8 18 15 24.5t20 6.5q4 0 41 -8q47 0 86 -99q6 -23 26 -67q123 174 224 452l24 64 q39 92 62.5 174t25.5 174q4 25 4 64q0 55 -18.5 85.5t-59.5 49.5q-31 10 -57 10q-98 0 -201.5 -97.5t-175.5 -275.5q-104 -221 -153.5 -380.5t-49.5 -282.5z" />
<glyph unicode="R" horiz-adv-x="1099" d="M168 -74q0 18 33 92l24 56q12 74 60 170q14 49 166 418l36 90l23 53q55 139 149 346q10 31 11 39q0 27 -35 27q-23 27 -23 49q0 23 21 30l106 43q72 16 140 17q137 0 249 -60q183 -108 183 -245q0 -49 -23 -105q-33 -82 -166 -193.5t-248 -160.5q-45 -20 -104 -41 t-117 -39q-34 -8 -68 -8h-14l4 -4q47 -104 183 -254q63 -74 173.5 -169t190.5 -134q8 -8 8 -25q0 -18 -11 -39.5t-19 -23.5q-4 -2 -10.5 -4.5t-14.5 -2.5q-29 0 -82 35q-96 57 -186 134t-197 200q-47 55 -74.5 97t-58.5 114l-4 -12q-61 -209 -186 -539q-10 -25 -31 -24 q-23 0 -55 26l-14.5 14.5t-14.5 17.5t-4 15zM571 616q84 6 238 70q147 68 264 169q111 96 111 189v9q0 39 -41 82t-84 55q-125 29 -168 29q-37 0 -58.5 -15.5t-29.5 -48.5q0 -6 -27 -59q-59 -129 -76 -176l-47 -97q-66 -131 -79 -163.5t-3 -43.5z" />
<glyph unicode="S" horiz-adv-x="995" d="M268 131q0 6 7.5 10t17.5 11q12 10 26 10q8 0 15.5 -9.5t19.5 -31.5q25 -43 84.5 -68.5t134.5 -25.5q92 0 172 36q53 23 78 44.5t25 48.5q0 25 -23 59q-6 16 -17 29.5t-32 31.5q-12 10 -47 46q-33 12 -67 32l-44 21q-55 25 -127.5 85t-97.5 105q-29 27 -45 74t-16 102 q0 74 30 136q25 55 109 153t129 129l53 51q2 8 6.5 9.5t6.5 1.5q6 4 42.5 19t77.5 54q139 68 224.5 97.5t140.5 29.5q78 -4 132 -48t65 -116q4 -12 4 -36q0 -74 -53.5 -159t-120.5 -124q-51 -23 -72 -23q-14 0 -19.5 10.5t-3.5 32.5q0 18 13.5 42t60.5 77q84 121 84 180 q0 35 -31 37q-6 2 -18 2q-30 0 -96 -12q-90 -16 -90 -27q0 -2 -1 -7q-1 -3 -8 -3q-11 0 -151 -85q-144 -87 -148 -97q-2 -10 -15 -21.5t-32 -19.5q-39 -23 -71.5 -66t-77.5 -122q-25 -35 -40.5 -76t-15.5 -74q0 -23 7 -39q10 -35 63 -85t133 -97q104 -59 175 -115.5 t89 -95.5q47 -66 48 -145q0 -29 -7 -54q-16 -35 -51 -69q-33 -32 -56 -31h-3q-20 -6 -34.5 -15.5t-25.5 -13.5q-24 -14 -108 -23q-58 -6 -111 -6q-23 0 -45 1l-82 24l2 6q0 20 -34 23q-43 27 -77 69.5t-46 75.5q-14 33 -15 35z" />
<glyph unicode="T" horiz-adv-x="937" d="M352 1178q6 25 25.5 37t60.5 18q18 4 72 12l55 10l70 9q119 18 252 24q55 2 93 5t50 5q29 -2 93.5 -10t93.5 -18q45 -10 66.5 -28.5t31.5 -53.5q2 -9 2 -19q0 -8 -5 -13t-11.5 -7t-8.5 -4q-45 -14 -73 -15q-20 0 -48 11q-20 18 -48.5 26.5t-118.5 14.5q-59 -6 -105 -6 q-14 -76 -47 -136q-8 -39 -23 -69q-14 -41 -12 -47q-6 -8 -39 -103.5t-61 -185.5q-20 -63 -31 -92q-10 -20 -25.5 -64.5t-21.5 -62.5l-51 -142q-16 -31 -40 -97t-38 -120l-21 -71q-10 -37 -17 -55.5t-11 -20.5t-21 0q-16 0 -35.5 25.5t-19.5 50.5q0 45 32 151.5t60 169.5 q8 37 15.5 59.5t9.5 32.5q6 8 19.5 44t21.5 67q6 37 127 412l14 43q18 31 35 77q16 10 16 43q0 6 7.5 16.5t7.5 14.5q4 4 9 19.5t13 23.5v2l-33 -2l-100 -10l-45 -4q-119 -10 -137 -15q-17 -1 -31 -1q-37 -1 -56 7q-26 10 -18 42z" />
<glyph unicode="U" horiz-adv-x="987" d="M254 231q0 127 41 332q31 150 105.5 357.5t152.5 345.5q45 78 69.5 102.5t49.5 20.5q33 -8 51 -32t18 -50q0 -43 -41 -70q-16 -18 -44.5 -72.5t-37.5 -68.5l-49 -92q-72 -205 -105.5 -315.5t-53.5 -233.5q-29 -137 -36 -202t-7 -101.5v-47.5q6 -12 16 -31.5t18.5 -28.5 t18.5 -11q20 -10 51 -10q55 0 115 34q8 16 23.5 25.5t19.5 11.5q4 -6 6 -6q6 0 10 14v2q0 10 19 29q20 8 67 63.5t87 115t40 71.5q0 10 11.5 22.5t15.5 16.5q14 14 72.5 124.5t107.5 213.5q31 100 85 282.5t64 233.5q4 27 12.5 45t10.5 25q14 4 44 -11.5t38 -19.5 q10 -12 9 -35q0 -25 -17 -102q-10 -41 -27 -123q-33 -129 -78 -244t-116 -276q-8 -18 -18.5 -40t-20.5 -49v-12q-25 -14 -39 -43q-6 -10 -15.5 -27.5t-19.5 -23.5q-6 -18 -11 -30.5t-8 -16.5q-2 -12 -18 -22.5t-20 -12.5q-8 -4 -12.5 -18.5t-8.5 -18.5q-74 -109 -165 -198 t-171 -117q-41 -16 -71 -17q-27 0 -41 5q-101 36 -149 115t-48 222z" />
<glyph unicode="V" horiz-adv-x="1003" d="M389 319q4 57 4 76q4 88 11.5 162t23.5 191q-1 10 -1 25q0 30 5 77q6 37 6 65q0 16 -2 23q10 33 19 102q6 61 18 105l6 43q8 57 8 74q-2 10 -2 28q0 74 39 92q12 6 39 7q18 0 29 -7q27 -16 27 -54q0 -6 -1 -13q2 -8 3 -37q0 -55 -9.5 -138t-25.5 -155q-29 -139 -39 -342 l-12 -213q-8 -152 -9 -180q0 -33 2 -45q0 -18 8.5 -62.5t18.5 -44.5q16 2 32.5 33t37.5 80q4 8 7 19.5t9 21.5q68 131 102 227q35 82 78 154q45 82 66 131q25 61 104 211q10 16 52 79.5t90 153.5q61 100 94 136t63 36q8 2 19 2q6 0 11 -4t9 -10t8 -10q16 -27 17 -47 q0 -25 -21.5 -65t-72.5 -116q-57 -86 -134 -215t-110 -190q-6 -16 -17.5 -45t-25.5 -47q-18 -18 -54 -86t-69 -135l-150 -344q-16 -47 -28 -76q-18 -37 -19 -47q-18 -29 -49 -48.5t-55 -19.5q-8 0 -17 4q-10 2 -14 11.5t-8 33.5q0 20 -12.5 31.5t-46.5 19.5q-23 23 -33 51.5 t-15.5 85t-13.5 205.5z" />
<glyph unicode="W" horiz-adv-x="1474" d="M295 16q-2 13 -2 33q-1 59 13 177q18 159 36 266q14 98 64 323l45 221q12 31 38 123l19 68q2 37 16.5 54t34.5 17q29 0 49 -26q33 -37 33 -88q0 -41 -18 -84q-92 -225 -148 -594q-19 -121 -37 -259q-12 -95 -13 -126q0 -14 3 -15q16 -4 45 26t51 79q139 231 326 594 q4 6 90 168l49 92q6 12 15.5 27.5t19.5 31.5q45 84 70.5 125t40.5 47q35 -2 57 -17t39 -52q2 -10 -3 -34t-14 -44q-4 -12 -19 -61.5t-26 -98.5q-39 -102 -57 -198q-14 -74 -31 -144q-35 -158 -52 -260t-19 -184v-25q0 -84 12 -117q6 -20 31 -20q18 0 30 14q59 78 98.5 137.5 t84.5 141.5q125 233 297 641q66 188 89 245.5t54 73.5q12 8 25 9q23 0 41 -17q8 -8 15 -26.5t5 -40.5q-20 -72 -95 -267.5t-116 -283.5q-8 -14 -33 -56q-4 -6 -17 -29.5t-13 -35.5q0 -20 -107.5 -214t-159.5 -259q-68 -86 -136 -134.5t-95 -48.5q-27 -2 -48.5 11.5 t-29.5 34.5q-12 12 -26.5 36.5t-18.5 46.5q-8 98 -8 144q0 57 6 155q6 94 23.5 177.5t48.5 203.5q12 39 18 67t0 28q-10 -2 -36.5 -52.5t-53.5 -107.5q-12 -23 -23.5 -48.5t-23.5 -47.5q-57 -127 -211 -385q-18 -23 -51 -72q-63 -96 -105 -133q-51 -49 -102 -49 q-37 0 -62 24q-26 32 -26 62q0 10 4 30z" />
<glyph unicode="X" horiz-adv-x="1073" d="M113 -27q0 14 7 30.5t9 23.5q14 31 31.5 50t81.5 77l71 67l60 55l43 43q2 6 16 22.5t29 35.5q45 35 190 180q-8 39 -20 121q-10 68 -22.5 122t-16.5 58q-2 6 2 10t6 4q4 4 4 9q0 4 -4 10t-6 12q-4 12 -12.5 58.5t-14.5 105.5q-18 174 -22 199q-4 4 -5 11t-1 9q6 16 26 37 q18 12 37 12q37 0 64.5 -41t27.5 -102q0 -53 13 -66q-1 -3 -1 -16q0 -22 4 -74q7 -82 13 -102q-8 -25 0 -35q2 -12 6 -42t2 -40t6 -42t13 -46l16 -57l33 37l47 49q98 98 155 164q111 131 164.5 199.5t77.5 119.5q4 10 15.5 34.5t19.5 33t18 8.5q58 -3 58 -66q0 -74 -74 -180 q-47 -47 -53 -80q-45 -53 -116 -134t-85 -91q-49 -43 -100.5 -91t-63.5 -65q-6 -8 -22.5 -26.5t-26.5 -22.5l-10 -16q23 -100 47 -167t68 -155q25 -51 54 -92t54 -55q6 -6 23 -6q18 0 20 6q6 1 11 1q40 0 44 -81q6 -20 -24.5 -36.5t-71.5 -16.5l-20 2q-41 4 -80 41t-84 118 q-96 135 -158 326q-45 -43 -49 -49q-59 -57 -231.5 -244.5t-182.5 -210.5q-14 -25 -43 -24q-10 0 -16 2q-8 -4 -12 -4q-10 0 -19 4q-2 2 -5 12t-7 31q-8 10 -8 26z" />
<glyph unicode="Y" horiz-adv-x="1032" d="M451 -63q0 14 12 55l16 61q2 49 19.5 117t42.5 111q0 31 20.5 95t42.5 120l35 98l-35 43q-45 68 -67.5 120t-32.5 126q-23 82 -23 172q0 29 4 159q2 88 20.5 123t20.5 41q12 12 21 13q23 0 40 -51q15 -47 15 -107v-14q12 -449 103 -506q16 -4 20 -4q23 0 48.5 23.5 t100.5 105.5l46 49q33 35 174 196q82 96 132 151.5t79 72.5q6 10 16 16t17.5 8t9.5 2q8 -2 12 -11t9 -26.5t13 -29.5q9 -19 7 -37q-2 -12 -20.5 -29.5t-25.5 -23.5q-45 -39 -143 -141.5t-156 -174.5q-82 -94 -149.5 -166.5t-97.5 -103.5q-2 -4 -41 -43q-20 -72 -37 -144 l-41 -133q-10 -31 -28.5 -97.5t-31.5 -96.5q-6 -25 -12 -48.5t-12 -45.5q-12 -47 -21.5 -78t-17.5 -40t-25 -3q-8 2 -61 39q-18 20 -18 37z" />
<glyph unicode="Z" horiz-adv-x="1069" d="M127 0q0 25 11.5 50.5t29.5 43.5q98 106 204.5 212t315.5 292q111 96 167 149.5t138 139.5q170 178 191 254q4 10 4 28q0 37 -40 47.5t-147 18.5q-70 4 -100 4q-80 0 -146.5 -8t-164.5 -25l-8 -2q-14 0 -29.5 10.5t-15.5 18.5q8 12 8 18q0 14 -17 25q-4 12 -4 18 q0 14 21 35q14 8 73 14q47 6 64 9q66 10 201 10q55 0 112 -4l60 -6q121 -10 182 -27.5t84 -69.5q12 -31 12 -53q0 -29 -24 -88q-10 -33 -15 -41q-37 -70 -145.5 -196.5t-222.5 -231.5q-258 -242 -387 -350q-125 -109 -230 -207q-14 -18 -14 -29q0 -22 64 -22h6q72 0 133 14 q6 2 37.5 8.5t80.5 8.5q82 4 121 8q51 2 127 6t111 4q14 0 24.5 -6t28.5 -31q27 -8 27 -26t-29 -41q-10 0 -21.5 -2.5t-25.5 -4.5q-92 -16 -145 -16h-11q-9 1 -22 1q-69 0 -240 -19q-98 -16 -237 -17q-53 0 -74 2q-64 4 -93.5 15.5t-29.5 58.5z" />
<glyph unicode="[" horiz-adv-x="675" d="M121 -211q0 20 18 49q10 6 18.5 22.5t8.5 30.5q0 37 57.5 242t73.5 229q0 12 16.5 49.5t46.5 84.5q63 207 167 461.5t153 330.5l10 40t6 32q0 41 21.5 58.5t79.5 17.5l80 8q66 6 108.5 14t112.5 31q25 4 60.5 19.5t39.5 15.5q20 4 27 4q18 0 39 -31q25 -31 24 -43 q0 -10 -10 -17t-37 -20q-55 -18 -149.5 -39.5t-159.5 -29.5q-37 -10 -65.5 -19.5t-35.5 -15.5q-18 -33 -55 -104.5t-37 -78.5q-10 -10 -59 -111t-55 -134l-21 -49q-55 -135 -63 -162q-16 -39 -31 -90q-16 -55 -31 -88q0 -12 -6 -35t-14 -37q-23 -37 -37 -92 q-6 -10 -15.5 -26.5t-9.5 -22.5q0 -23 -10 -54q-4 -6 -6 -16t-2 -12q-6 -10 -17 -43q-14 -55 -26 -84q-39 -117 -39 -156l-10 -57l61 12q221 31 287 31q39 8 57 8q12 0 23.5 -7t23.5 -22q2 -4 7.5 -16t6.5 -18.5t-3 -10.5q-12 -16 -228 -47h-76q0 -8 -18 -13t-49 -5 q-23 -12 -68 -23l-43 -14q-45 -18 -63 -19q-16 0 -39 19q-45 18 -45 53z" />
<glyph unicode="\" horiz-adv-x="675" d="M354 1251q-4 102 17.5 164t64.5 62q10 0 27 -7q12 -12 12 -34q0 -18 -6 -56q-2 -51 63 -487q39 -264 39 -275q12 -41 16.5 -73.5t0.5 -40.5v-8q0 -14 6 -17q12 -12 12 -30q-2 -8 21.5 -95.5t40.5 -117.5q0 -20 3 -45t3 -29t14 -47t21 -76q14 -41 34 -78q8 -18 14.5 -33.5 t6.5 -27.5q0 -10 -2 -17q2 -25 -4 -42t-27 -29l-37 -25q-8 0 -16 3t-10 9q-37 8 -29 37q-2 27 -50 215.5t-71 253.5q0 6 -2 16.5t0 18.5q0 2 -7 17.5t-3 27.5q-14 10 -10 61q-4 49 -19 50q-20 109 -66 370.5t-44 298.5q2 14 -4.5 41t-8.5 45z" />
<glyph unicode="]" horiz-adv-x="675" d="M-96 -168l24 10q14 18 118 37t128 12q4 0 25.5 -3t44.5 -1l73 7l21 55q10 55 10 84q12 8 19.5 25.5t5.5 29.5l28 90l13 41q2 27 24 90q25 82 29 107l25 73q18 53 26 89q2 14 8 32.5t9 26.5q16 45 18 68q20 70 78 237q90 274 104 322q18 37 30.5 76.5t14.5 52.5l-139 -11 q-213 -14 -244 -14q-20 0 -20 6q-4 4 -8 6t-9 2h-2q-8 0 -15 9.5t-9 21.5q-2 25 66.5 43.5t191.5 34.5q66 8 102 8q23 0 33 -2t12 -2q76 20 135 21q31 0 41 -9q8 0 20.5 -12t12.5 -31q16 -33 17 -37q0 -6 -13 -22q-20 -29 -60 -115t-38 -98q0 -16 -14 -18q-2 0 -6.5 -3.5 t-4.5 -11.5q2 -16 -7 -46t-17 -30q-2 0 -6 -3t-4 -11q0 -25 -21 -78q-18 -61 -38.5 -111.5t-22.5 -60.5q-2 -4 -7.5 -16t-9.5 -27q-8 -18 -17 -56t-11 -69q-16 -25 -30.5 -59.5t-21.5 -54.5q-6 -20 -9 -36t-3 -22q0 -12 -20.5 -84.5t-34.5 -99.5q-2 -16 -11.5 -56t-25.5 -87 q-25 -127 -33 -144q0 -4 -9 -14t-9 -17v-16q0 -18 -10 -27q-4 -8 -5.5 -18t-1.5 -14q6 0 4 -3t-2 -5q-8 0 -8 -41q0 -51 -11 -67.5t-48 -16.5q-12 0 -62 4q-76 8 -71.5 3t0.5 -3h-21q-31 0 -47 4q-10 -2 -55 -2q-41 0 -62 4q-25 -2 -59.5 3t-38.5 5q-4 2 -13 8t-18 17z" />
<glyph unicode="^" horiz-adv-x="913" d="M262 649q0 31 31 117l35 72q29 61 53 90q41 72 129 143.5t147 65.5q35 -4 92.5 -120t127.5 -286l24 -57q6 -12 6 -25q0 -25 -17.5 -43t-37.5 -18q-25 0 -31 28q-10 33 -26.5 69t-46.5 103q-16 33 -25 54q-29 45 -51 96q-25 49 -36 63.5t-30 8.5q-45 -16 -107.5 -91 t-119.5 -204q-35 -104 -80 -105q-8 0 -25 8q-12 10 -12 31z" />
<glyph unicode="_" horiz-adv-x="913" d="M96 51q0 12 22.5 19.5t80.5 13.5q61 14 231 21.5t285 7.5q53 0 71.5 -5.5t40.5 -25.5q25 -25 25 -47q0 -18 -15.5 -26.5t-41.5 -4.5l-129 -10q-68 -2 -200 -6t-226 -4q-41 0 -72 10q-29 0 -40 6t-19 23q-12 18 -13 28z" />
<glyph unicode="`" horiz-adv-x="722" d="M543 1153q0 16 6 25q41 37 59 36q16 0 27 -12q18 -10 46 -62.5t49.5 -109.5t21.5 -74q2 -10 -11.5 -29.5t-29.5 -23.5q-19 -12 -27 -12t-14 10t-15 35q-4 6 -37 59q-37 59 -56 95t-19 63z" />
<glyph unicode="a" horiz-adv-x="894" d="M172 170q0 33 32 111.5t83 171.5q12 12 31.5 42.5t25.5 34.5q0 8 6 15.5t15 7.5v12q0 18 67.5 89t110.5 98q50 34 101 34h3q37 0 64 -20q10 -12 94 -88l76 -68l-37 -102q-18 -55 -19 -100q0 -78 45 -150q10 -23 41 -43t62 -25q45 -8 45 -45q0 -41 -37 -49q-8 -2 -25 -2 q-121 0 -208 170q-8 12 -21.5 45t-15.5 45q-12 -16 -30.5 -38.5t-35.5 -39.5q-223 -223 -352 -223q-41 0 -74 21q-6 12 -19.5 25.5t-13.5 17.5q0 23 -10 35q-4 4 -4 18zM293 188q0 -10 21.5 -6t53 20.5t64.5 43.5q176 152 254 264l45 74q-20 43 -42.5 62.5t-41.5 19.5 q-43 0 -135 -107.5t-168 -253.5q-18 -35 -32.5 -70.5t-18.5 -46.5z" />
<glyph unicode="b" horiz-adv-x="890" d="M248 266q0 12 11 54t17 63q16 78 42 162t36 92q2 4 9.5 22.5t7.5 38.5q4 18 13 42t9 28q10 8 66 162q0 8 45 108q68 154 82 197q18 27 32 55q23 41 33 45q16 4 42 -6t40 -31q10 -14 10 -20q0 -10 -11 -38t-25.5 -56.5t-20.5 -42.5l-51 -107q-55 -117 -90 -208t-74 -208 l-37 -100l-10 -45l51 49q25 18 90 76q14 12 25.5 21.5t17.5 15.5q25 16 72 36.5t65 24.5q41 10 91 11q43 0 71.5 -20.5t55.5 -65.5q18 -37 18 -80q0 -63 -33 -119q-10 -8 -20 -21.5t-10 -21.5q-2 -12 -35 -55t-72 -86q-53 -55 -140 -110.5t-145 -76.5q-12 -2 -46 -7t-48 -9 q-41 4 -50 10t-22 33q-16 16 -19 26.5t-1 20.5q25 0 29 8q0 6 7 8t15 0h7q54 -1 152 57q104 62 210 158q59 76 82.5 119t23.5 70q0 16 -6 30t-43 15q-63 0 -131 -45q-88 -55 -141 -101.5t-99 -107.5q-20 -27 -40.5 -67t-26.5 -52q0 -8 -23.5 -20.5t-40.5 -12.5 q-10 4 -23 16.5t-16 28.5q-4 4 -13 10.5t-12 12.5t-3 14z" />
<glyph unicode="c" horiz-adv-x="727" d="M211 197q-1 13 -1 27q0 82 41 196q48 133 122 223q51 59 88 96t67 49q43 18 97 19q37 -8 72.5 -30.5t35.5 -45.5l10 -10q12 0 22.5 -29.5t10.5 -64.5q0 -29 -10 -49q-8 -39 -27.5 -68t-38.5 -29q-23 0 -22 -12q0 -8 -8 -8q-10 0 -24.5 12t-20.5 29q0 6 8 34.5t16 63.5 q6 25 6 43q0 41 -30 41q-16 0 -33 -8q-82 -45 -145.5 -143.5t-106.5 -270.5q-10 -45 -10 -72q0 -20 3 -32.5t7 -14.5q10 -4 43 -4q76 0 106 19q66 35 146 94q8 6 24.5 21.5t30.5 21.5q14 23 26.5 28t39.5 5q27 -8 43 -21.5t0 -21.5q-6 0 -8.5 -4.5t-2.5 -6.5 q4 -10 -32.5 -51t-81.5 -76.5t-62 -35.5q-8 0 -14 -2.5t-6 -10.5t-62.5 -37.5t-101.5 -37.5q-29 -5 -43 -5q-76 0 -125 47.5t-49 131.5z" />
<glyph unicode="d" horiz-adv-x="804" d="M201 209q0 76 41 179.5t102 170.5q88 133 197 133q51 0 102 -30q51 -20 59 -21q12 0 18.5 10.5t12.5 36.5q23 94 43 158q45 135 78 217t80 180q20 43 35.5 56.5t34.5 11.5q45 0 69 -62q6 -14 6 -28t-12 -39q-53 -92 -131 -301t-121 -363q-18 -68 -31.5 -194.5 t-13.5 -210.5q0 -37 4 -54q10 -35 10 -61q0 -20 -10 -27.5t-33 -9.5q-9 -2 -17 -2q-37 0 -52 47q-29 80 -29 168q0 25 2 35l4 43l-80 -64q-66 -57 -130 -85.5t-117 -28.5q-35 6 -67 29.5t-46 56.5q-8 16 -8 49zM315 223q-1 -4 -1 -8q0 -31 42 -31q25 0 39 4q47 11 115 62 q12 8 59 43t72 74t35 88q2 37 -7.5 60.5t-35.5 45.5q-20 14 -51 14q-55 0 -103 -45q-55 -49 -98 -126.5t-66 -180.5z" />
<glyph unicode="e" horiz-adv-x="665" d="M217 293q0 20 4 82q6 76 50 157.5t109.5 146t129.5 89.5q33 20 59 20q14 0 28.5 -2t31.5 -4q45 -6 68.5 -17t39.5 -34q51 -51 51 -119q-8 -49 -63 -112.5t-133 -102.5q-37 -12 -84 -12q-63 0 -102 27q-18 6 -29 6q-18 0 -27.5 -24.5t-17.5 -90.5q-2 -14 -2 -41 q0 -104 69 -115q47 -10 68 -10q25 0 55 17l39 22q12 6 22.5 16.5l18.5 18.5q4 4 12.5 13t15.5 12.5t13 3.5q8 0 18.5 -9.5t16.5 -13.5q18 0 8 -25.5t-44 -59.5t-77 -60q-51 -45 -123 -45q-51 0 -97 24.5t-77 67.5q-27 33 -39 73.5t-12 100.5zM406 512q10 -18 79 -18 q47 0 78 12q35 14 71 51t36 61q0 25 -18.5 41.5t-51.5 16.5q-25 0 -37 -4q-29 -8 -67.5 -44t-67.5 -73t-22 -43z" />
<glyph unicode="f" horiz-adv-x="595" d="M160 -115l4 52q10 31 10 71q0 16 14.5 103.5t22.5 126.5l6 24q16 68 25 125q16 51 27.5 101.5t11.5 68.5q0 37 28 53q2 16 31 68q49 139 72.5 199.5t50.5 105.5q37 102 59 129q14 35 78 102.5t113 108.5q45 25 72.5 32t68.5 7q35 0 48 -7t44 -36q27 -31 32 -41t5 -39 q-8 -43 -41 -110.5t-49 -69.5q-6 -2 -16 -2q-31 0 -31 51q0 12 -6 24.5t-9 16.5q0 31 15 51q6 12 6 23q0 10 -7 13t-22 -1q-18 -10 -91 -72.5t-73 -75.5q-2 -4 -11 -21t-27 -40q-37 -51 -37 -63q0 -27 -13 -27q-2 -4 -9 -23.5t-19 -42.5q-8 -18 -20.5 -40.5t-20.5 -30.5h2 q-6 -16 -22.5 -60.5t-16.5 -50.5q0 -8 29 -8q63 0 145 22q27 8 39 9q14 0 41 -9q23 -14 37 -46.5t6 -45.5q-2 -8 -44 -22.5t-87 -22.5q-63 -14 -105 -20q-10 -2 -64 -12.5t-54 -18.5q-8 0 -14.5 -8t-6.5 -17q0 -29 -8 -43q-10 -31 -36 -134t-26 -128q-16 -20 -16 -73 q-12 -23 -12 -52q0 -12 -2 -20q0 -10 -4 -49t-4 -72l-7 -59q-2 -25 -6 -45.5t-14 -30.5q-12 -8 -26.5 3t-45.5 46q-12 12 -16 23.5t-4 29.5z" />
<glyph unicode="g" horiz-adv-x="727" d="M145 -129q4 4 15 4q14 0 30.5 -9t20.5 -22q8 -23 34.5 -59.5t39.5 -38.5q33 -16 55 -16q18 0 35 12q33 27 56.5 69t51.5 134l17 59q49 180 71 234q10 33 21 51l-37 -33q-25 -23 -51.5 -43t-54.5 -33q-14 -18 -72 -18q-41 0 -82 12q-43 23 -53.5 35t-28.5 57q-8 16 -8 51 q0 88 41 189q39 80 123 170t145 108q25 12 45 13q23 0 47 -9q33 -4 51.5 -14t61.5 -47q49 -49 72 -109q12 -24 12 -47q0 -31 -25 -61q-6 -10 -22.5 -31.5t-28.5 -44t-18 -51.5q-8 -47 -50 -201l-22 -80l-33 -127q-92 -317 -184 -366q-27 -10 -51 -10q-45 0 -93.5 29.5 t-82.5 80.5q-20 29 -40 91q-13 40 -13 57q0 11 5 14zM346 264q63 2 115.5 37t103.5 115q35 47 49 101q12 42 12 85q0 11 -1 23q-2 29 -8.5 40t-22.5 11q-39 0 -90 -37t-98 -96q-31 -41 -52 -99q-24 -67 -24 -124q0 -50 16 -56z" />
<glyph unicode="h" horiz-adv-x="950" d="M193 168q0 8 14 76l18 67q20 84 37 140q8 51 31.5 108t28.5 70q16 59 63 184l61 166q72 195 86 238l33 90q0 33 33 32q29 0 48.5 -31.5t19.5 -72.5q0 -31 -13 -59q-29 -61 -62.5 -154.5t-43.5 -122.5q-70 -197 -101 -262q0 -8 -6 -28.5t-14 -37.5l-23 -45q0 -6 -22 -86 q-29 -88 -35 -129q10 18 43 56.5t62 62.5q113 96 139 115q25 14 41 26.5t22 16.5q0 10 23 10q8 0 9 2t1 10q0 14 47 25.5t84 11.5q25 0 39 -10t37 -45q35 -49 35 -107q0 -33 -13 -67q0 -16 -5 -50t-5 -59l-12 -65h33q14 0 27.5 -4t17.5 -7q18 -23 33 -22q18 0 18 -14 q0 -8 -8 -20.5t-23 -20.5q-53 -33 -90 -33q-35 0 -72 33q-45 45 -45 108q0 33 13 78l6 66q4 49 4 61q0 47 -23 47q-29 0 -109.5 -50t-166.5 -125t-137 -151q-31 -39 -52.5 -58t-39.5 -21h-13q-31 0 -47 14t-21 22.5t-5 20.5z" />
<glyph unicode="i" horiz-adv-x="382" d="M199 147q0 29 10 50q0 11 4 25t4 21q0 15 16 64q37 82 99 289q0 10 8 17.5t25 9.5q16 4 22 4q12 0 21.5 -9.5t25.5 -33.5q12 -12 12 -37q0 -39 -26 -94q-27 -59 -35 -103q-25 -55 -39 -102q-4 -12 -12 -49t-23 -60q-12 -57 -22 -79.5t-23 -22.5q-14 0 -39 29 q-28 28 -28 81zM401 981q16 2 38 36t20 56q0 8 6 15.5t14 9.5q16 10 29 10q35 0 63 -49q12 -27 13 -47q0 -18 -10.5 -38t-36.5 -50q-35 -47 -66 -47q-20 0 -45 20q-14 14 -24.5 49t-0.5 35z" />
<glyph unicode="j" horiz-adv-x="417" d="M-164 -233q0 41 23 40q14 0 26.5 -14t12.5 -37q0 -33 15 -56.5t40 -23.5q23 -8 60.5 13.5t60.5 56.5q27 37 78 138.5t75 166.5q25 86 74 314l10 47q6 47 17.5 90t13.5 53q0 51 14 80q0 27 5.5 53.5t5.5 32.5q4 4 12 4q12 0 27.5 -7t25.5 -18q16 -16 20.5 -25t4.5 -28 q0 -29 -8 -78l-7 -63q0 -25 -20.5 -125t-38.5 -174q-10 -39 -14 -51q-12 -43 -17 -68q-2 -16 -26 -84q-25 -59 -29 -84q-6 -43 -49 -133q-16 -39 -57 -101.5t-68 -82.5q-43 -45 -111 -45q-74 0 -125 53q-23 35 -37 79t-14 77zM428 1044q0 53 43 105q29 35 66 35q25 0 49 -19 q23 -35 22 -57q0 -18 -22 -53q-37 -39 -61.5 -57.5t-43.5 -18.5q-20 0 -35 14q-18 22 -18 51z" />
<glyph unicode="k" horiz-adv-x="747" d="M152 131l28 86l39 123q18 27 29.5 64.5t13.5 44.5q20 39 82 188l39 94q57 123 94 221l33 76l39 90q72 174 80 203q0 16 7 24.5t15 8.5q10 10 33 10q10 0 32.5 -32t22.5 -54q0 -35 -32.5 -126t-88.5 -202q-185 -398 -185 -443q0 -4 1 -5q8 4 35 17t55 34q18 10 34.5 21.5 t29.5 19.5q63 43 78 47q12 8 47 29q37 25 39 26q25 12 41 13q12 0 22 -8.5t25 -24.5q12 -14 12 -29q0 -14 -16.5 -29.5t-55.5 -39.5q-27 -18 -55.5 -35t-54.5 -33q-147 -90 -152 -96q4 -8 19.5 -37t29.5 -49l31 -54q25 -35 25 -45q18 -51 50 -79.5t68 -28.5q18 0 43 10 q31 12 50 12q29 0 38 -32q6 -12 7 -19q0 -8 -29 -37q-53 -53 -109 -53q-18 0 -43 10h-3q-30 0 -74 41q-46 43 -127 150q0 8 -23 53q-8 18 -18.5 33.5t-14.5 21.5q0 8 -9 21.5t-13 21.5q-23 6 -36 -4t-24.5 -28.5t-17.5 -26.5q-20 -53 -41 -130q-16 -58 -16 -85q0 -9 1 -14 q0 -33 -10 -44.5t-43 -11.5q-24 8 -50.5 48t-26.5 73z" />
<glyph unicode="l" horiz-adv-x="346" d="M176 121q0 47 12 108q23 59 23 86q6 39 42 140.5t46 122.5q8 0 14 13t6 30q0 18 7.5 37.5t15.5 27.5q0 6 5 22.5t5 22.5q0 4 5 15.5t5 17.5q33 63 115 285.5t82 246.5q0 33 33 33q10 10 33 10l32 -32q14 -14 18.5 -29.5t4.5 -46.5t-8 -53.5t-41 -92.5q-6 -14 -16.5 -33.5 t-22.5 -47.5q-4 -10 -33 -74q-20 -41 -20 -47t-8.5 -25.5t-14.5 -40.5q-16 -33 -52 -116t-36 -91q0 -23 -10 -32q-6 0 -8 -9.5t-2 -13.5q0 -20 -33 -109l-19 -59q-39 -133 -54 -194.5t-15 -104.5q0 -51 -3 -65.5t-18 -22.5q-6 -2 -20 -2q-33 0 -51.5 32.5t-18.5 90.5z" />
<glyph unicode="m" horiz-adv-x="1146" d="M188 188q0 33 25 136q18 70 20 86l11 41q4 27 18 63.5t49 116.5q20 57 21 86q0 27 18.5 42t40.5 15q29 0 49.5 -22.5t20.5 -59.5q0 -35 -17 -71l-22 -56q-16 -33 -42 -105.5t-26 -80.5q2 -6 14.5 3t28.5 24q18 18 43 36q61 57 146.5 110.5t130.5 68.5q27 0 40 -7.5 t29.5 -25t24.5 -25.5q18 -18 18 -53q0 -10 -4 -27q-8 -29 -21 -69.5t-20 -59.5q14 12 51 43t68 58q102 80 162 80q43 0 74 -46q18 -18 22 -37.5t4 -52v-51.5q2 -14 2 -49q2 -16 5.5 -63.5t9.5 -53.5q10 -12 69 -22q37 -6 37 -33q0 -18 -26 -37q-27 -16 -66 -16q-37 0 -68 12 q-28 10 -53.5 50t-25.5 130l2 94q0 25 -3.5 35.5t-11.5 10.5q-27 0 -113.5 -70t-174.5 -166q-10 -10 -28 -29.5t-32 -29t-26 -9.5q-18 0 -35 15l-23 18q-14 12 -14 29l4 18l47 135q45 104 53 132t-2 26q-18 -2 -51 -19.5t-41 -33.5q-4 0 -26.5 -21.5t-38.5 -31.5 q-18 -27 -91 -97l-49 -47q-31 -25 -86 -100q-29 -37 -33 -37q-63 0 -79 62q-8 14 -9 38z" />
<glyph unicode="n" d="M213 193q0 16 13.5 75.5t21.5 75.5q6 0 18.5 25.5t22.5 40.5q6 31 53 141q29 49 40 82t15 82v4q0 8 6.5 13t12.5 5q14 10 26 11q27 0 54 -33q30 -38 30 -79q0 -56 -67 -171q-6 -14 -17.5 -41t-11.5 -37l115 78q16 18 88 65.5t100 53.5q47 22 61 22h1q25 0 66.5 -37 t49.5 -61q0 -23 4 -33q10 -41 11 -96q0 -37 -5.5 -66.5t-13.5 -33.5q0 -2 2 -6.5t9 -4.5v-10q-16 0 -4 -35t32 -53q20 -20 21 -41q0 -25 -37 -35q-41 0 -67.5 17.5t-45.5 58.5q-18 66 -18 131q0 31 6 43q8 8 7 36t-1 40q-2 47 -29 47q-18 0 -41 -14q-115 -72 -192.5 -123 t-149.5 -115q-29 -33 -43 -57.5t-20 -33.5t-17 -9q-12 -4 -16 -4q-10 0 -24.5 11t-18.5 15q-8 8 -26.5 27.5t-20.5 28.5z" />
<glyph unicode="o" horiz-adv-x="722" d="M197 279.5q0 3.5 4 6.5t6 7q12 0 8 22q-1 3 -1 6q0 19 18 67q20 56 51 104q23 37 66.5 92t78.5 84q49 43 88 63.5t86 30.5q41 10 55 10t25.5 -7t30.5 -26q55 -25 76.5 -62.5t21.5 -117.5q0 -133 -109 -289q-47 -68 -88 -103.5t-108 -76.5q-43 -31 -79 -44t-81 -15 q-24 0 -38.5 8t-41.5 31q-67 71 -67 129q0 16 2 22q6 14 5 28.5t-1 18.5q-8 8 -8 11.5zM313 205q0 -31 15.5 -49.5t42.5 -18.5q68 0 172 111q49 55 78.5 104t56.5 125q10 35 10 84q0 61 -16 70q-20 10 -41 10q-45 0 -94 -41q-59 -51 -106.5 -126t-96.5 -185q-20 -43 -21 -84 z" />
<glyph unicode="p" horiz-adv-x="774" d="M72 -408q0 14 10 70q22 82 22 116q0 13 4.5 32.5t6.5 35.5q8 14 15 44t7 53q0 10 7.5 23.5t17.5 21.5q0 12 6 37.5t8 35.5q10 55 80 262t119 334q23 51 33 94.5t10 67.5q0 8 5 15.5t17 19.5q14 14 27 14q10 0 22.5 -8t24.5 -18q12 -18 19.5 -34.5t7.5 -35.5q0 -6 -4 -39 q0 -43 -18.5 -70.5t-14.5 -25.5q92 43 164 43q86 0 134 -55.5t48 -143.5q0 -37 -21.5 -89t-42.5 -70q-12 0 -32 -43q-27 -33 -88 -69q-51 -29 -76 -29q-6 0 -10 1q-2 0 -6.5 -2t-4.5 -10t-69.5 -30.5t-114.5 -22.5q-25 0 -37 3t-24 13q-14 -14 -15 -27q0 -23 -20.5 -82 t-32.5 -59q-2 -2 -5 -8t5 -14q0 -6 -2 -29t-10 -35q0 -18 -6.5 -50t-14.5 -48q0 -25 -7 -48.5t-15 -23.5q-12 -4 -13 -59q-2 -51 -20 -80t-43 -29l-16 -2q-16 0 -27 19q-10 14 -10 34zM360 248q0 -23 13 -23q30 0 123.5 32t130.5 62q43 37 69.5 79t26.5 85q0 33 -18 60 q-14 23 -50 22q-41 0 -97 -28.5t-103 -75.5q-37 -37 -66 -105.5t-29 -107.5z" />
<glyph unicode="q" horiz-adv-x="772" d="M209 324q0 31 32.5 93t77.5 124q23 39 91.5 97t115.5 87q20 12 66 33q37 23 53 22q31 8 74 8q45 0 67 -8q25 -16 47.5 -53t30.5 -78q0 -35 -8 -61.5t-47 -112.5q-29 -45 -52.5 -93t-23.5 -58q-10 -27 -88 -197q-2 -14 -16 -64q-35 -127 -60 -241q-16 -98 -16 -158 q0 -66 16 -92q4 -16 -3 -25.5t-23 -9.5t-39 12q-27 19 -37 34.5t-18 54.5q-4 18 -5 65q0 94 28 230.5t75 269.5q8 14 11 31.5t1 27.5q-102 -49 -149.5 -66.5t-79.5 -17.5q-41 0 -81 48t-40 98zM334 305q21 -6 41 -6q53 0 107.5 34t119.5 95q51 47 94 129q35 67 35 96 q0 6 -2 11q-4 8 -16 8q-25 0 -69 -21.5t-91 -58.5q-147 -113 -197 -227z" />
<glyph unicode="r" horiz-adv-x="737" d="M215 125q0 18 2 31q6 70 31 161l10 41q6 51 71.5 215t106.5 224q16 10 35 10q27 0 45 -19q12 -8 12 -30q0 -20 -15 -60.5t-52 -117.5q-8 -16 -27.5 -61.5t-19.5 -53.5q0 -4 2 -4q4 0 8 3t8 5q23 39 110 106.5t120 83.5q14 8 36.5 16.5t30.5 12.5q33 16 78 17 q29 0 50.5 -9.5t29.5 -27.5q2 -14 11 -22.5t13 -10.5q6 0 8.5 -5t2.5 -7q0 -14 -16.5 -17.5t-59.5 -5.5q-23 -2 -47.5 -10t-48.5 -21q-115 -66 -171.5 -102.5t-113.5 -99.5q-23 -25 -59 -88q-14 -14 -30 -75t-16 -75q-2 -6 -8 -23.5t-18 -33.5q-25 -33 -41 -33q-18 0 -49 33 q-17 12 -23 22t-6 31z" />
<glyph unicode="s" horiz-adv-x="698" d="M211 82v14t6 13.5t23 3.5q35 0 110 -9q45 0 102.5 11.5t63.5 25.5q6 0 6 2q0 4 -16 21q-4 0 -18.5 7t-18.5 7q0 8 -18.5 21.5t-40.5 23.5q-59 49 -84 72.5t-19 34.5v10q-14 0 -31.5 40t-17.5 75q0 37 32 102.5t72 106.5q57 53 148.5 112.5t144.5 75.5q35 14 70 14 q33 0 55 -14q27 -16 52.5 -47t33.5 -55q0 -45 -9 -87t-28 -42q-2 0 -6 -2.5t-4 -10.5t-8 -21.5t-23 -25.5q-45 -33 -73 -33q-23 0 -29 23q-4 4 -8 12t-10 8q-2 0 -7.5 7.5t-5.5 19.5q0 6 5.5 13t7.5 10q12 0 40.5 48t28.5 64q0 12 -3 14.5t-19 2.5q-160 -72 -199 -109 q-6 -12 -9 -16t-11 -4q0 2 -1 2q-10 0 -108 -142q-4 -4 -9 -24.5t-5 -34.5q-4 -16 -4 -19q0 -8 7 -16t19.5 -17.5t24.5 -19.5q106 -80 148 -120t50 -66q27 -41 27 -74q0 -25 -18.5 -43t-55.5 -35q-23 -10 -76 -17t-104 -7q-29 0 -61 4q-37 14 -72 41.5t-47 48.5z" />
<glyph unicode="t" horiz-adv-x="677" d="M238 213q0 49 5 102.5t13 85.5l37 109l29 82l55 119l-82 22q-14 2 -23.5 14.5t-9.5 22.5q0 16 17.5 40t27.5 24q6 -2 33 -3q61 0 92 7q20 8 29 32q8 16 19.5 41t21.5 45q6 12 19.5 38t33.5 59q4 6 18.5 29.5t34.5 39.5q14 14 35 15q20 0 53 -27q4 -6 11.5 -16.5 t7.5 -18.5t-17 -35q-12 -25 -23 -44t-20 -33q-25 -41 -34 -62q-20 -27 -21 -41q0 -14 27 -14q29 0 96 12q29 4 39 4q72 0 78 -59q2 -12 2 -29q0 -29 -19.5 -35t-87.5 -6q-66 -10 -135 -10q-12 0 -27.5 -1t-31.5 -5t-23.5 -12.5t-15.5 -26.5q-6 -6 -29 -47q-29 -59 -37 -72 q-55 -164 -82 -336q-4 -33 -4 -41q0 -31 20.5 -43t69.5 -12q70 0 121 14q61 27 92 45q18 10 33.5 19.5t22.5 13.5q6 12 14 12q16 0 29 -32q0 -33 -14.5 -57.5t-71.5 -57.5q-119 -76 -238 -76q-33 0 -61 6q-33 6 -67 44t-44 71q0 4 -4 9t-6 7q-8 6 -8 68z" />
<glyph unicode="u" horiz-adv-x="757" d="M229 203q0 23 7 49q4 76 21 145.5t67 177.5q66 129 94 173q10 4 26 4q20 0 34 -12.5t16 -32.5q6 -8 6 -23q0 -51 -62 -168q-80 -193 -80 -266q0 -43 25 -51q10 -6 23 -6q51 0 122.5 69.5t137.5 222.5q29 70 34 144q-2 6 -2 18q0 37 37 60q8 12 22.5 19t18.5 -1l33 2 q6 2 12 -11.5t13 -17.5q14 -12 14 -45q0 -68 -60 -207q-39 -82 -52 -126t-16 -84q0 -78 60 -130q20 -14 24.5 -30.5t2.5 -44.5q-4 -18 -23.5 -29.5t-42.5 -11.5q-27 0 -47 14q-48 47 -73 139q-4 12 -4.5 43t-0.5 43q-12 -31 -45 -55q-47 -47 -94 -70q-72 -47 -117 -47 q-41 0 -77 45q-27 23 -40.5 45.5t-13.5 55.5z" />
<glyph unicode="v" horiz-adv-x="677" d="M225 657q0 37 31 56q8 6 23.5 9t25.5 1q45 -16 82 -250q6 -59 18.5 -106.5t14.5 -55.5q6 -12 14 -25.5t19 -13.5q6 0 14 9q39 39 84 98q49 68 67 90q23 35 60 82q6 8 28.5 39t43 52.5t34.5 25.5q6 2 19 2q35 0 35 -29q0 -27 -37 -80q-12 -16 -25.5 -44t-17.5 -32 q-23 -45 -83.5 -127t-80.5 -102q-4 -4 -34 -28.5t-54 -59.5q-66 -61 -94 -62q-18 0 -37 19q-23 16 -56.5 137t-52.5 234q-8 43 -33 116q-8 33 -8 45z" />
<glyph unicode="w" horiz-adv-x="1058" d="M260 317l2 37q0 74 10.5 123t12.5 62q4 10 8 35.5t16 72.5q16 72 33 88q16 16 39 17q14 0 26.5 -7.5t20.5 -19.5q12 -12 12 -59q0 -35 -6 -68t-16 -47q-6 -12 -19 -119q-8 -78 -12 -100q-2 -8 -2 -25q0 -47 29 -47q47 0 133 125q57 82 80.5 128t48.5 118q10 31 19.5 53.5 t17.5 28.5q10 8 28 8q20 0 50 -19q25 -25 25 -57q0 -35 -25 -84t-45.5 -136t-20.5 -136q0 -37 9 -46.5t30 -9.5q57 0 137 82q37 37 97.5 130.5t60.5 109.5q0 12 18 35q10 14 19.5 24.5t27.5 20.5l17 4q16 0 39 -23q8 -8 10 -25.5t2 -39.5q-10 -37 -34.5 -95.5t-39.5 -74.5 q-39 -31 -65 -76q-49 -59 -77 -82.5t-36 -32.5q-41 -41 -89 -63.5t-91 -22.5t-70 21q-63 33 -63 111q0 14 -4.5 26t-6.5 17q-31 0 -49 -33q-29 -51 -98.5 -102.5t-106.5 -51.5q-43 0 -72.5 67.5t-29.5 157.5z" />
<glyph unicode="x" horiz-adv-x="702" d="M115 147q10 14 52 58.5t89 85.5l131 129l-22 78q-37 80 -54 129q-12 16 -19 27.5t-7 19.5t16 31q23 23 35 22q10 0 29 -12q16 0 52 -68.5t36 -95.5t18 -27q20 0 80 39q23 20 36 34.5t17 18.5q25 18 77 55.5t67 43.5q10 6 16 6q25 0 47.5 -26.5t22.5 -55.5 q0 -25 -12.5 -39t-53.5 -37q-10 -8 -63.5 -47t-133.5 -106l-53 -43l33 -56q33 -66 53 -75q16 -23 81 -72t73 -49q6 0 19.5 -8.5t23.5 -12.5q25 -25 24 -55q0 -33 -24 -33q-33 0 -43 12q-12 0 -29.5 6.5t-36.5 14.5q-43 18 -125 90t-82 96q0 6 -2 8.5t-8 2.5q-2 2 -7 8t-5 14 t-6 14.5t-15 6.5q-10 -8 -42.5 -36t-67.5 -63q-66 -66 -90.5 -87t-38.5 -21q-25 0 -56.5 25.5t-31.5 49.5z" />
<glyph unicode="y" horiz-adv-x="698" d="M-98 -317q-2 14 10 30.5t27 16.5q10 0 16 -9q16 -12 48 -23t69 -11q14 0 39 4q41 8 86 49t82 90q70 102 149 256q-29 8 -55.5 40t-42 66.5t-11.5 51.5v22q-18 0 -29 70t-11 162q0 35 4 88q8 33 9 81t1 62v8q0 25 5 35t17 19q16 8 33 8q57 0 58 -152q0 -23 -5 -88 q-2 -29 -2 -86q0 -106 18.5 -188t55.5 -113l12 29q23 59 35 75q29 59 33 76q4 14 22 47l27 56q4 12 26.5 78.5t45.5 107.5q8 16 24.5 48t26.5 46.5t23 18.5q16 14 26 14q8 0 29 -12q33 -33 33 -68q0 -37 -50 -129q-16 -47 -35.5 -88t-29.5 -53l-47 -109q-31 -68 -76 -157 q-55 -115 -78 -170l-26 -43q-102 -164 -158 -230q-113 -100 -174 -117q-27 -8 -64 -8q-68 0 -128 30t-68 69z" />
<glyph unicode="z" horiz-adv-x="645" d="M53 104q0 27 72 101q78 96 154 157q45 35 213 150q61 49 88.5 68.5t42.5 29.5q-71 7 -118 7q-19 0 -34 -1q-45 0 -68.5 1t-37.5 6h-31q-20 0 -64.5 21.5t-46.5 39.5q4 2 15.5 8t17.5 15l16.5 11t16.5 7t10 -4q10 0 45 1t82 3q119 -2 174 -7t82 -16.5t57 -37.5 q27 -27 27 -56q0 -31 -29 -63q-2 -2 -12 -14.5t-16 -12.5l-99 -63q-20 -14 -61 -39q-53 -33 -62 -43q-18 -8 -35.5 -20.5t-27.5 -22.5q-10 -12 -30.5 -31.5t-43.5 -34.5q-25 -20 -60.5 -55t-45.5 -47q0 2 95 11q66 6 121 6q25 0 48 -1l143 4q35 2 80 2q43 0 62 -8 q18 -6 33.5 -28.5t9.5 -32.5q-10 0 -66.5 -6.5t-124.5 -8.5q-53 -4 -252 -28q-31 -6 -106 -15q-92 -14 -135 -14q-29 0 -45.5 7t-36.5 28q-16 12 -17 26z" />
<glyph unicode="{" horiz-adv-x="675" d="M289 -61q12 10 14 29.5t2 23.5q8 33 41 128t55 140q23 43 39.5 87t16.5 65q0 33 -27 54t-76 32q-47 0 -47 32q0 12 6 27q6 20 25.5 33.5t42.5 13.5q12 0 18 -2q47 0 109.5 67.5t91.5 157.5q25 66 37 128.5t20 162.5q8 117 39 183.5t107 140.5q23 27 45 43t41.5 25.5 t25.5 13.5q45 16 86 16q35 0 52 -10q14 -6 31.5 -41t9.5 -41q-8 0 -27.5 -5t-46.5 -5q-78 -18 -148 -80q-41 -51 -55 -76t-18 -59q-20 -53 -25.5 -81t-15.5 -122q-10 -104 -17.5 -139t-33.5 -101q-29 -78 -62 -132t-80 -95q-39 -25 -39 -33q0 -6 17 -26q0 -4 10 -28t10 -40 q8 -25 8 -39q0 -29 -15 -72t-52 -127q-39 -78 -39 -112q-14 -20 -39 -113q-8 -39 -13 -66.5t-7 -39.5q0 -29 51 -29q8 0 41 4q41 8 43 8q16 0 30 -20q16 -16 17 -27q0 -23 -58 -41q-51 -27 -106 -26q-43 0 -64 14q-18 28 -18 16q-4 2 -14.5 8.5t-18.5 18.5q-16 20 -19 39.5 t-1 58.5v58z" />
<glyph unicode="|" horiz-adv-x="675" d="M217 -166q0 47 12 109q23 59 23 86q8 39 84 274.5t86 253.5q8 0 14 13.5t6 29.5q0 18 7.5 37.5t15.5 28.5q0 6 5 22.5t5 22.5q0 4 5 15t5 17q35 66 167 410t132 369q0 33 33 32q10 10 33 11l33 -33q14 -14 18 -29.5t4 -46.5t-8 -53.5t-41 -91.5q-6 -14 -16.5 -34 t-22.5 -48l-57 -133q-98 -223 -98 -234q0 -6 -8.5 -25.5t-14.5 -39.5q-16 -33 -52 -116t-36 -91q0 -23 -10 -33q-6 0 -8.5 -9t-2.5 -13q0 -20 -32 -109l-29 -92q-8 -31 -50 -169t-66.5 -236.5t-24.5 -127.5q0 -53 -3 -66.5t-18 -21.5q-6 -2 -20 -2q-33 0 -51.5 33t-18.5 90z " />
<glyph unicode="}" horiz-adv-x="675" d="M160 -178q0 8 5 14t7 8q8 -6 11 -7t3 7l25.5 8.5t50.5 18.5q59 10 88 24.5t43.5 41t24.5 81.5q16 66 16 76q0 4 2 40t2 91q0 49 -2 76q-4 68 -4 141q0 37 4 54.5t15 38.5q20 18 20 45q0 14 -2 22q-14 31 -14 64q0 39 22 57l29 31q41 43 60.5 67.5t41.5 69.5q51 82 90 166 t56 145v21q4 12 4 22q0 35 -33 84q-16 33 -41 48.5t-78 31.5q-35 6 -35 33q0 16 17 37q12 23 47 22q37 0 55 -18q16 -16 31 -17q10 0 52 -42t58 -70q6 -6 13.5 -33t11.5 -53q8 -41 8 -49q0 -20 -24 -95q-29 -90 -52.5 -153.5t-33.5 -75.5q-6 -4 -14.5 -8t-8.5 -10 q0 -14 -38 -77t-64 -89q-8 -8 -14.5 -21.5t-8.5 -17.5l-14 -8q-14 -10 -14 -25q0 -8 14 -47q2 -16 12 -34.5t17 -29.5q0 -12 -2.5 -20t-8.5 -8q-27 -14 -37 -25.5t-15 -39t-5 -87.5l2 -88q2 -66 -2 -138.5t-12 -90.5q-33 -143 -47 -144q-2 0 -5.5 -2t-1.5 -6 q0 -45 -65.5 -75.5t-149.5 -30.5q-49 0 -80.5 14t-31.5 35z" />
<glyph unicode="~" horiz-adv-x="913" d="M211 485q2 25 54 71t145 81q8 2 24 2q39 0 78 -15.5t68 -43.5q41 -37 70.5 -55.5t58.5 -18.5q10 0 34 8q16 2 48 12.5t49 18.5l53 14q10 16 25 19q2 6 28 8l19 4q27 0 18 -41q0 -20 -33 -60l-41 -18q-27 -6 -62.5 -23.5t-49.5 -23.5q-37 -12 -66 -12q-43 0 -80 14t-80 43 q-16 10 -49 35.5t-67 38.5q-12 4 -21 4q-18 0 -31.5 -8.5t-37.5 -28.5q-37 -37 -64 -39q-4 -14 -19.5 -28.5t-21.5 -4.5q-23 6 -37 20.5t-12 26.5z" />
<glyph unicode="&#xa2;" d="M373 -37q0 51 30 158q31 43 35 90q10 37 88 182q-12 4 -32.5 21.5t-30.5 38.5q-29 41 -29 110q0 104 60 250q23 47 75 124t70 87q6 2 28.5 11t51.5 24q29 14 67 14q39 0 78 -22q61 121 108.5 224t49.5 118q6 16 15.5 22t25.5 4q12 12 33 4l28 -28q19 -31 15 -80 q-4 -20 -12.5 -39t-17.5 -35t-15 -27q-29 -45 -68 -116q-18 -35 -74 -119q27 -37 19 -61q-2 -6 -23.5 -27t-34.5 -33q-14 -14 -39 -8q0 -10 -32 -64q-27 -47 -65 -118.5t-40 -77.5q0 -14 -18 -33q-6 0 -9 -9t-3 -13l-5 -21q92 14 152 37q47 31 90 31q14 0 21 -2 q27 -12 26 -29q0 -29 -59 -62q-35 -18 -59.5 -36.5t-24.5 -28.5q-4 0 -16.5 -5t-16.5 -3q-23 -2 -70 -14.5t-61 -20.5q-25 -10 -49 -10q-10 -23 -24.5 -55.5t-32.5 -73.5q-100 -219 -107 -269q-4 -49 -9 -64t-24 -20q-66 -14 -65 74zM549 578q0 -23 5 -45.5t11 -28.5 q2 -2 17 -2l36 67q8 0 18.5 14.5t12.5 28.5q0 18 7.5 38t17.5 26q0 6 9 22.5t9 20.5q2 4 7.5 10t5.5 14q28 43 102 193l-23 14q-16 0 -45.5 -28.5t-58.5 -71.5q-47 -49 -80 -121t-47 -123q-4 -8 -4 -28z" />
<glyph unicode="&#xa3;" d="M49 33q0 35 22.5 53t78.5 25q55 4 86.5 9t39 10t17.5 24q31 100 57 272q6 68 31 162q-37 2 -88 2q-41 0 -72 10q-29 0 -40 6t-19 23q-12 18 -12 28q0 12 22.5 19.5t79.5 13.5q35 8 160 12q41 135 90 238q88 180 167 284.5t156 116.5q27 8 60 9q84 0 141 -54q2 12 21.5 -7 t39 -52t21.5 -53q6 -20 12 -34.5t8 -19.5q9 -6 8 -20t-1 -18q-2 -16 -12.5 -28.5t-39.5 -35.5q-25 -12 -47 -12q-29 0 -43 21.5t-10 64.5q4 37 -16.5 82t-48.5 53q-20 8 -51 -8.5t-83 -57.5q-14 -25 -28.5 -40t-18.5 -17q-4 -8 -19.5 -33.5t-35.5 -64.5q-49 -100 -123 -316 l189 -2q53 0 71.5 -5t40.5 -25q25 -25 25 -47q0 -18 -15.5 -26.5t-42.5 -4.5l-129 -10l-178 4q-33 -98 -37 -115l-14 -98q-25 -145 -31 -217l4 -52l74 -24q16 -6 56 -23.5t71 -21.5q53 -35 123 -35q49 0 89 12.5t44 28.5q8 0 15.5 9t7.5 20q8 0 22 5t27 5q51 0 51 -37 q0 -29 -33 -68t-90 -71q-49 -25 -117 -25q-100 0 -176 51q-8 8 -26.5 16.5t-32.5 8.5q-10 8 -60 12q-33 4 -45 8q-39 8 -63 9q-25 0 -51 -9q-43 -14 -101 -14q-72 0 -125 21.5t-53 52.5z" />
<glyph unicode="&#xa5;" d="M195 305q0 12 22.5 19.5t79.5 13.5q51 12 215 12q23 74 51 146l10 28l-137 4q-41 0 -71 11q-29 0 -40.5 6t-19.5 22q-12 18 -12 29q0 12 22.5 19.5t79.5 13.5q37 8 166 12q-43 66 -65.5 118t-32.5 124q-23 82 -23 172q0 29 4 159q2 88 20.5 123t20.5 41q12 12 21 13 q23 0 40 -51.5t15 -120.5q12 -449 103 -506q16 -4 20 -4q23 0 48.5 23.5t101.5 105.5l45 49q33 35 174 196q82 96 132 151.5t79 72.5q6 10 16 16t17.5 8t9.5 2q8 -2 12 -11t9 -26.5t13 -29.5q9 -19 7 -37q-2 -12 -20.5 -29.5t-24.5 -23.5q-45 -39 -143.5 -141.5 t-155.5 -174.5q-106 -123 -201 -221q35 -2 88 -2t71.5 -5t41.5 -26q25 -25 24 -47q0 -18 -15.5 -26.5t-41.5 -4.5l-129 -10l-135 2l-29 -117l-16 -55q53 -2 131 -2q53 0 71.5 -5t40.5 -26q25 -25 25 -47q0 -18 -15.5 -26.5t-42.5 -3.5q-6 -2 -52 0t-81 4l-108 6 q-41 -137 -53 -172q-6 -25 -12.5 -48.5t-12.5 -45.5q-12 -47 -21.5 -78t-17.5 -40t-25 -3q-8 2 -61 39q-18 20 -18 37q0 14 12 55l16 61q2 39 14.5 92.5t30.5 98.5q-129 -6 -145 -6q-41 0 -72 10q-29 0 -40 6t-19 22q-12 18 -12 29z" />
<glyph unicode="&#xa8;" horiz-adv-x="722" d="M506 987q18 63 41 82q4 4 13 13.5t15 11.5q16 10 29 10q33 0 49 -49q14 -25 15 -39q0 -14 -8.5 -28.5t-26.5 -39.5q-35 -47 -64 -47q-16 0 -32 21q-15 14 -25 34.5t-6 30.5zM768 987q18 63 41 82q4 4 13 13.5t16 11.5q16 10 28 10q33 0 49 -49q14 -25 15 -39 q0 -14 -8.5 -28.5t-26.5 -39.5q-35 -47 -64 -47q-16 0 -32 21q-15 14 -25 34.5t-6 30.5z" />
<glyph unicode="&#xa9;" horiz-adv-x="1015" d="M326 582q0 59 4 71q6 6 6 12.5t-2 8.5q-4 8 -4 20q0 37 23.5 102.5t53 123t39.5 63.5q4 0 4.5 7t2.5 7q10 14 76.5 55.5t121.5 69.5q78 39 152 39q160 0 291 -184q6 -20 25.5 -52t19.5 -40q27 -39 40 -97.5t5 -66.5q2 -4 1 -13.5t1 -13.5q4 -4 4 -37q0 -41 -7 -93 t-14 -54q-2 0 -5 -3t1 -5q4 -4 -20.5 -31t-40.5 -29v-2t6 -4q6 -4 -32 -45t-90 -83t-93 -56l-16 -16q-14 -20 -64.5 -36t-89.5 -12q-135 -4 -224 49.5t-126 157.5q-20 35 -33 97q-4 25 -8 40q-2 2 -3 10.5t-3 10.5q-2 4 -2 29zM424 606q0 -29 25 -69q-2 -20 6 -50t6 -34 q2 -12 24.5 -44t52 -61t52.5 -35q22 -18 65 -18q80 0 191 61q53 25 116.5 79t61.5 81l-2 8q0 23 14 29q18 16 29.5 63.5t11.5 98.5q0 55 -14 82q0 2 -10.5 16t-8.5 25q0 14 -11 33.5t-66 97.5q-88 68 -176 67q-37 0 -58.5 -8t-23.5 -8q-119 -35 -175.5 -112t-78.5 -171 q-31 -94 -31 -131zM563 571q0 76 43 162q8 37 36 76t60 80q2 2 15.5 7t42.5 15q14 4 26.5 7.5t16.5 3.5q33 -2 65.5 -20.5t51 -43t12.5 -43.5q-4 -6 -15.5 -18.5t-15.5 -22.5t-16 -10t-21.5 10t-11.5 29q-27 35 -53 35q-27 0 -51.5 -27t-32.5 -55q-29 -33 -38 -87.5 t-11 -64.5q-2 -8 -2 -24q0 -41 10 -45q29 -8 43 -9q66 0 168 78q10 6 14 6q6 0 13.5 -15t15.5 -17q-2 -35 -25.5 -63t-52.5 -40q-8 0 -17.5 -3t-15.5 -3q-16 -2 -44 -8t-48 -15q-17 -6 -29 -6q-20 0 -71 15q-4 0 -17.5 12t-25.5 27q-18 29 -19 77z" />
<glyph unicode="&#xab;" horiz-adv-x="1323" d="M252 485q16 4 38.5 22.5t24.5 20.5q27 33 71 74t155 135q82 61 113.5 94t37.5 39q41 45 53 45q6 2 15 3q10 0 20 -9q12 -8 29.5 -13t27 -8t11.5 -14q0 -4 -6 -19t-19 -26l-53 -43q-76 -57 -207 -174q-92 -84 -123.5 -120.5t-25.5 -71.5q23 -53 101.5 -130t207.5 -149 q57 -29 95 -60.5t38 -53.5q0 -16 -25 -23l-32 -2q-55 0 -127 31l-37 20q-61 31 -88 47.5t-51 46.5q-66 37 -105 81t-76 110l-49 86zM662 485q16 4 38.5 22.5t24.5 20.5q27 33 71 74t154 135q82 61 114 94t38 39q41 45 53 45q6 2 14 3q10 0 21 -9q12 -8 29.5 -13t26.5 -8 t11 -14q0 -4 -6 -19t-18 -26l-53 -43q-76 -57 -207 -174q-92 -84 -124 -120.5t-26 -71.5q23 -53 102 -130t208 -149q57 -29 95 -60.5t38 -53.5q0 -16 -25 -23l-33 -2q-55 0 -127 31l-37 20q-61 31 -87.5 47.5t-51.5 46.5q-66 37 -104.5 81t-75.5 110l-49 86z" />
<glyph unicode="&#xad;" horiz-adv-x="667" d="M221 432q0 12 22.5 19.5t80.5 13.5q72 16 130 22.5t140 6.5q53 0 71.5 -5.5t41.5 -25.5q25 -25 24 -47q0 -18 -15.5 -26.5t-41.5 -4.5l-129 -10q-12 0 -66.5 -5t-113.5 -5q-41 0 -72 10q-29 0 -40 6t-20 22q-12 18 -12 29z" />
<glyph unicode="&#xae;" horiz-adv-x="1015" d="M326 582q0 59 4 71q6 6 6 12.5t-2 8.5q-4 8 -4 20q0 37 23.5 102.5t53 123t39.5 63.5q4 0 4.5 7t2.5 7q10 14 76.5 55.5t121.5 69.5q78 39 152 39q160 0 291 -184q6 -20 25.5 -52t19.5 -40q27 -39 40 -97.5t5 -66.5q2 -4 1 -13.5t1 -13.5q4 -4 4 -37q0 -41 -7 -93 t-14 -54q-2 0 -5 -3t1 -5q4 -4 -20.5 -31t-40.5 -29v-2t6 -4q6 -4 -32 -45t-90 -83t-93 -56l-16 -16q-14 -20 -64.5 -36t-89.5 -12q-135 -4 -224 49.5t-126 157.5q-20 35 -33 97q-4 25 -8 40q-2 2 -3 10.5t-3 10.5q-2 4 -2 29zM424 606q0 -29 25 -69q-2 -20 6 -50t6 -34 q2 -12 24.5 -44t52 -61t52.5 -35q22 -18 65 -18q80 0 191 61q53 25 116.5 79t61.5 81l-2 8q0 23 14 29q18 16 29.5 63.5t11.5 98.5q0 55 -14 82q0 2 -10.5 16t-8.5 25q0 14 -11 33.5t-66 97.5q-88 68 -176 67q-37 0 -58.5 -8t-23.5 -8q-119 -35 -175.5 -112t-78.5 -171 q-31 -94 -31 -131zM549 477q0 25 17.5 71t21.5 56q0 45 8 45q6 39 19.5 76t52.5 90q0 14 2 22.5t2 14.5q0 10 -10 20q-6 6 -7 15q0 12 23 28q0 18 47 19l37 -2q6 0 21.5 -2t22.5 -5t13 -7q27 -2 52.5 -14.5t25.5 -18.5q16 -14 26.5 -36t12.5 -38q0 -27 -4 -41t-25 -41 q-33 -61 -102 -111l-25 -26q4 -12 32 -43t42 -37l16 4q14 0 15 -22q0 -12 -2 -23q-2 -4 -7.5 -13t-8.5 -13.5t-7 -4.5q-8 0 -33 19q-23 4 -32 10t-27 25q-12 10 -31.5 25.5t-50.5 39.5l-6 1t-23 3l-16 -43q0 -25 -12 -67q-8 -25 -33 -25q-18 0 -32.5 14.5t-14.5 34.5z M702 645q31 8 58.5 30.5t38.5 43.5q12 6 41 45q4 8 6 18.5t2 30.5q4 8 4 12q0 8 -10 15q-8 8 -29.5 15t-30.5 9l-5 -4q-5 -4 -21 -20q-2 -4 -7.5 -25.5t-19.5 -28.5q-43 -137 -27 -141z" />
<glyph unicode="&#xb4;" horiz-adv-x="722" d="M684 989q4 18 88 108.5t113 100.5q10 6 18 6q29 0 66 -63q8 -18 -19.5 -48t-85.5 -77q-70 -57 -86 -80q-10 -18 -20 -29.5t-19 -11.5q-8 0 -28 14q-15 13 -22 40.5t-5 39.5z" />
<glyph unicode="&#xb8;" horiz-adv-x="722" d="M90 -295q0 18 13.5 32.5t31.5 14.5q10 0 17 -2q14 -4 60 -19.5t77 -15.5q41 0 55 29q8 10 8 27q0 25 -35 63q-8 10 -31.5 40t-45.5 50q-23 31 -23 51q0 27 35 57.5t125 76.5l67 -48q-57 -29 -85.5 -50t-28.5 -46q2 -4 41 -53q23 -25 42 -52.5t25 -52.5t6 -45 q0 -51 -31.5 -82.5t-84.5 -44.5q-10 -2 -35 -2q-72 0 -168 29q-35 12 -35 43z" />
<glyph unicode="&#xbb;" horiz-adv-x="1449" d="M373 889q0 16 24 22l33 2q55 0 127 -30l37 -21q61 -31 88 -47t51 -47q66 -37 105 -81t75 -109l50 -86l14 -62q-16 -4 -39 -22.5t-25 -20.5q-27 -33 -70.5 -74t-154.5 -135q-82 -61 -113.5 -94t-37.5 -39q-41 -45 -54 -45q-6 -2 -14 -2q-10 0 -20 8q-12 8 -30 13.5 t-27 8.5t-11 13q0 4 6 19.5t19 25.5l53 43q76 57 207 174q92 84 123.5 121t25.5 72q-23 53 -101.5 129.5t-207.5 148.5q-57 29 -95 60.5t-38 54.5zM782 889q0 16 25 22l33 2q55 0 127 -30l37 -21q61 -31 87.5 -47t51.5 -47q66 -37 104.5 -81t75.5 -109l49 -86l14 -62 q-16 -4 -38.5 -22.5t-24.5 -20.5q-27 -33 -71 -74t-154 -135q-82 -61 -114 -94t-38 -39q-41 -45 -53 -45q-6 -2 -14 -2q-10 0 -21 8q-12 8 -29.5 13.5t-26.5 8.5t-11 13q0 4 6 19.5t18 25.5l53 43q76 57 207 174q92 84 124 121t26 72q-23 53 -102 129.5t-208 148.5 q-57 29 -95 60.5t-38 54.5z" />
<glyph unicode="&#x2c6;" horiz-adv-x="722" d="M457 944q0 23 16 45q16 20 85 79.5t108 80.5q16 14 32 14q18 0 31 -18q33 -27 86 -81t76 -79q10 -12 10 -35q0 -18 -10 -33.5t-27 -15.5q-29 0 -59 39q-41 49 -111 109q-43 -25 -91 -67t-56 -48q-28 -29 -55 -29q-16 0 -25.5 11.5t-9.5 27.5z" />
<glyph unicode="&#x2da;" horiz-adv-x="722" d="M606 987q0 66 40 130.5t102 64.5q70 0 112.5 -31t42.5 -88q0 -82 -44 -150.5t-116 -68.5q-123 0 -137 143zM684 995q0 -23 17.5 -46t33.5 -23q37 0 58.5 22.5t21.5 67.5q0 82 -53 82q-78 0 -78 -103z" />
<glyph unicode="&#x2dc;" horiz-adv-x="722" d="M395 950q2 27 35 72t94 76q16 4 29 4q29 0 60.5 -11.5t56.5 -33.5q12 -12 35.5 -34t39 -31t29.5 -9q6 0 31 8q23 6 72 33q41 27 73 39q20 8 37 -10.5t12 -38.5q0 -10 -14 -30.5t-31 -29.5q-86 -49 -116.5 -62t-44.5 -13q-33 0 -55.5 10t-44 25.5t-31.5 21.5 q-8 4 -29 23.5t-41.5 34t-34.5 14.5t-24.5 -8.5t-24.5 -26.5q-8 -12 -19.5 -23.5t-25.5 -13.5q-2 -12 -12.5 -26.5t-14.5 -4.5q-18 6 -30.5 19.5t-10.5 25.5z" />
<glyph unicode="&#x400;" horiz-adv-x="1122" d="M168 285q0 59 20.5 140t44.5 132q45 109 199 348q8 8 11 11.5t2 4.5l-1 1q0 14 60 127q35 37 35 63q0 14 -7 23q-8 10 38 50t116 79q55 43 109 43q16 0 27.5 -5.5t13.5 -15.5q0 -12 82 8q37 8 53 11q8 10 42 17t95 15q33 -2 67.5 0t45.5 4q16 6 35.5 -5t33.5 -44 q6 -14 6 -26q0 -23 -27.5 -36t-94.5 -22q-68 -8 -84 -10q-113 -12 -238 -39q-80 -16 -116 -40.5t-81 -94.5q-14 -10 -36.5 -52t-45.5 -87q-6 -8 -14 -20.5t-20 -26.5q-59 -80 -82 -116t-17 -44q6 -2 23.5 -6t30.5 -6q18 10 51 14t47 8q326 84 369 90q18 12 34 13 q37 0 66 -50q6 -12 6 -22q0 -18 -28.5 -34.5t-108.5 -40t-193 -54.5l-65 -19q-133 -39 -207 -39q-63 0 -62 35q-20 10 -45.5 -45t-44 -136t-18.5 -136q0 -29 6 -45q18 -51 46 -78t93 -45q14 -2 36 -4t50 -2q41 0 82 16q104 18 179 41t92 33q12 6 20 8t16 2l-2 -4v-1t2 -1 q6 0 37 35q35 29 95.5 55.5t62.5 11.5q4 -12 4 -20q0 -39 -48 -93.5t-130 -101.5q-100 -53 -224 -78.5t-239 -27.5q-45 2 -84 22.5t-88 59.5l-41 28q-37 37 -56.5 77t-31.5 104q-4 25 -4 43zM952 1706q0 16 6 25q41 37 60 36q16 0 26 -12q18 -10 46 -62.5t49.5 -109.5 t21.5 -74q2 -10 -11 -29.5t-30 -23.5q-18 -12 -26 -12t-14.5 10t-14.5 35q-4 6 -37 59q-37 59 -56.5 95t-19.5 63z" />
<glyph unicode="&#x401;" horiz-adv-x="1122" d="M168 285q0 59 20.5 140t44.5 132q45 109 199 348q8 8 11 11.5t2 4.5l-1 1q0 14 60 127q35 37 35 63q0 14 -7 23q-8 10 38 50t116 79q55 43 109 43q16 0 27.5 -5.5t13.5 -15.5q0 -12 82 8q37 8 53 11q8 10 42 17t95 15q33 -2 67.5 0t45.5 4q16 6 35.5 -5t33.5 -44 q6 -14 6 -26q0 -23 -27.5 -36t-94.5 -22q-68 -8 -84 -10q-113 -12 -238 -39q-80 -16 -116 -40.5t-81 -94.5q-14 -10 -36.5 -52t-45.5 -87q-6 -8 -14 -20.5t-20 -26.5q-59 -80 -82 -116t-17 -44q6 -2 23.5 -6t30.5 -6q18 10 51 14t47 8q326 84 369 90q18 12 34 13 q37 0 66 -50q6 -12 6 -22q0 -18 -28.5 -34.5t-108.5 -40t-193 -54.5l-65 -19q-133 -39 -207 -39q-63 0 -62 35q-20 10 -45.5 -45t-44 -136t-18.5 -136q0 -29 6 -45q18 -51 46 -78t93 -45q14 -2 36 -4t50 -2q41 0 82 16q104 18 179 41t92 33q12 6 20 8t16 2l-2 -4v-1t2 -1 q6 0 37 35q35 29 95.5 55.5t62.5 11.5q4 -12 4 -20q0 -39 -48 -93.5t-130 -101.5q-100 -53 -224 -78.5t-239 -27.5q-45 2 -84 22.5t-88 59.5l-41 28q-37 37 -56.5 77t-31.5 104q-4 25 -4 43zM872 1602q18 63 41 81l13.5 13.5t15.5 11.5q12 10 29 10q35 0 51 -49 q14 -25 14 -39t-8 -28.5t-27 -38.5q-35 -47 -65 -47q-18 0 -33 20q-14 14 -24.5 34.5t-6.5 31.5zM1137 1602q18 63 41 81q4 4 14 13.5t16 11.5q12 10 29 10q33 0 49 -49q14 -25 14 -39t-8 -28.5t-26 -38.5q-35 -47 -64 -47q-20 0 -35 20q-14 14 -24 34.5t-6 31.5z" />
<glyph unicode="&#x402;" horiz-adv-x="1253" d="M397 1272l49 28q27 10 58 18.5t47 12.5q57 16 141 33q61 14 88 22q14 6 47 11q23 2 36.5 6t21.5 14q10 -6 14 -6q6 0 13.5 4t9.5 2q8 -4 22 -4q6 0 37 6h8h19q20 0 28 4q14 8 76 14.5t113 6.5h135q20 0 35.5 -4t30 -10.5t30.5 -12.5q20 -8 35.5 -21.5t36.5 -41.5v-8 q0 -16 -3 -27.5t-7 -13.5q-18 -10 -45 -21q-12 8 -25 21q-31 20 -60.5 20t-37.5 4t-29 4q-18 0 -27 -4q-16 -6 -53 -6q-18 0 -73.5 -1t-75.5 -9q-8 -4 -19 -4l-18 2q-37 0 -72 -25l-25 -53q-47 -98 -97 -211t-75 -193l19 11q53 37 158 57q29 0 73.5 4t50.5 10q16 -4 29.5 -7 t24.5 -5q39 -4 65 -20q10 -6 47 -31t41 -43q16 -41 17 -105q0 -47 -8 -141q-8 -14 -9.5 -34.5t-3.5 -30.5q-6 -45 -26 -109q-14 -45 -44 -124t-53 -126l-18 -39q-37 -82 -63.5 -135t-67.5 -113q-66 -92 -169.5 -197.5t-152.5 -119.5q-10 -2 -20 -7t-17 -5l-49 10 q-41 14 -47 51q2 8 17 12q29 6 52 21.5t44.5 33t30.5 23.5q47 39 104 107l29 35q37 45 92 130t57 99q39 74 59.5 121t59.5 153l49 177q37 111 37 208q0 37 -2 58q-16 18 -34.5 26.5t-51.5 8.5q-23 0 -46.5 -4.5t-31.5 -6.5q-12 -4 -41 -8q-61 -8 -128.5 -44t-117.5 -89 q-18 -20 -34.5 -69.5t-26.5 -98.5q-2 -10 -6 -21.5t-6 -17.5q-2 -8 -6.5 -20.5t-6.5 -26.5q-6 -37 -37.5 -174t-46.5 -176q-10 -25 -30.5 -38t-42.5 -9q-8 0 -27.5 12t-28.5 21l60 215l12 57q4 16 15.5 65.5t25.5 88.5q4 16 14.5 60t22.5 73q14 41 22 71q6 25 17 58 q16 55 69 211l41 112q16 43 19 53q4 14 11 28.5t26 58.5q20 59 22 65q0 2 -2 9t-8 11.5t-18 4.5l-19 -2l-123 -33q-70 -16 -149 -51q-14 -12 -35 -13q-18 0 -34.5 11.5t-24.5 27.5q-8 18 -8.5 41t-0.5 27z" />
<glyph unicode="&#x403;" horiz-adv-x="940" d="M168 -6q12 82 22 117q18 59 31 127q6 31 17 75l47 97q12 57 34.5 118.5t26.5 75.5q31 90 62 160q4 12 34 92q8 23 27.5 71t32.5 74q12 27 14 39q-27 -2 -55.5 8.5t-34.5 24.5l-12 74q18 14 84 24l43 17q23 8 71 20q285 66 316 66q10 0 34.5 1t45.5 9q2 2 48 2t66 8 q12 4 42 5t44 8q4 4 19 4l35 -2q26 -15 39.5 -29t21.5 -35v-39q-10 -6 -35.5 -24.5t-42.5 -22.5q-18 -2 -47 -18q-27 -14 -47 -15q-12 0 -29 7q-8 6 -19 7t-18 1q-14 31 -30 41q-20 -8 -64 -8q-43 0 -63 -11q-63 -4 -119 -20q-33 -8 -49 -10q-45 -8 -74 -21 q-18 -37 -55 -113q-53 -111 -88 -211l-109 -292q-12 -23 -46 -127.5t-38 -132.5q-6 -37 -18.5 -80t-16.5 -62q-4 -12 -13 -47t-11 -70q0 -6 -5 -14t-7 -14q-14 6 -68 6q-23 10 -43 39zM414 1147zM950 1542q4 18 88 108.5t113 100.5q10 6 18 6q29 0 66 -63q8 -18 -19.5 -48 t-85.5 -77q-70 -57 -86 -80q-10 -18 -20 -29.5t-18 -11.5q-6 0 -29 14q-14 13 -21.5 40.5t-5.5 39.5z" />
<glyph unicode="&#x404;" horiz-adv-x="987" d="M180 184q6 10 8 23.5t0 23.5q-4 12 -4 25q0 63 51.5 209.5t135.5 333.5q49 109 142 235.5t190.5 224t156.5 121.5q35 14 55 15q70 0 131.5 -36t100.5 -89q20 -39 32.5 -96.5t12.5 -110.5q0 -47 -12 -82q-4 -10 -12.5 -28.5t-17.5 -24.5t-28 -8q-8 -4 -25.5 2t-39.5 20 q-8 8 -19.5 16.5t-15.5 10.5q0 6 3 27.5t11 41.5q18 53 19 105q0 51 -17.5 88t-50.5 45q-47 2 -123 -51.5t-145 -141.5q-209 -256 -295 -475q-45 -123 -72.5 -233.5t-34.5 -173.5q6 -25 7 -43q0 -18 -9 -19q4 -25 23.5 -61.5t40.5 -57.5q14 -14 45 -14l16 2q35 -6 117 13.5 t102 35.5q6 2 27 8.5t35 6.5q16 8 53 25.5t60 33.5q53 25 102 37t65 8q-2 -2 -7 -11t-11 -30q-14 -20 -65.5 -64t-59.5 -46q-31 -4 -84 -39q-133 -82 -237 -84q-23 -6 -48 -6q-57 0 -122.5 28.5t-116.5 73.5q-18 31 -47 103.5t-23 82.5zM356 637q0 14 20.5 21t73.5 13 q78 12 132.5 17.5t126.5 5.5q49 0 66.5 -4t39.5 -21q20 -23 21 -45q0 -39 -54 -33q-61 -6 -123 -6l-45 -2q-98 -6 -123 -6q-40 0 -65 8q-29 0 -40 5.5t-19 19.5q-10 20 -11 27z" />
<glyph unicode="&#x405;" horiz-adv-x="995" d="M268 131q0 6 7.5 10t17.5 11q12 10 26 10q8 0 15.5 -9.5t19.5 -31.5q25 -43 84.5 -68.5t134.5 -25.5q92 0 172 36q53 23 78 44.5t25 48.5q0 25 -23 59q-6 16 -17 29.5t-32 31.5q-12 10 -47 46q-33 12 -67 32l-44 21q-55 25 -127.5 85t-97.5 105q-29 27 -45 74t-16 102 q0 74 30 136q25 55 109 153t129 129l53 51q2 8 6.5 9.5t6.5 1.5q6 4 42.5 19t77.5 54q139 68 224.5 97.5t140.5 29.5q78 -4 132 -48t65 -116q4 -12 4 -36q0 -74 -53.5 -159t-120.5 -124q-51 -23 -72 -23q-14 0 -19.5 10.5t-3.5 32.5q0 18 13.5 42t60.5 77q84 121 84 180 q0 35 -31 37q-23 6 -113.5 -10t-90.5 -27q0 -2 -1 -7t-8 -3q-8 2 -151.5 -85t-147.5 -97q-2 -10 -15 -21.5t-32 -19.5q-39 -23 -71.5 -66t-77.5 -122q-25 -35 -40.5 -76t-15.5 -74q0 -23 7 -39q10 -35 63 -85t133 -97q104 -59 175 -115.5t89 -95.5q47 -66 48 -145 q0 -29 -7 -54q-16 -35 -51 -68.5t-59 -31.5q-20 -6 -34.5 -15.5t-25.5 -13.5q-23 -14 -107.5 -23t-156.5 -5l-82 24l2 6q0 20 -34 23q-43 27 -77 69.5t-46 75.5q-14 33 -15 35z" />
<glyph unicode="&#x406;" horiz-adv-x="819" d="M98 25q4 53 170 55l109 2l20 41q16 47 47 151q10 39 43 132q63 197 68 212q10 25 32.5 99t35.5 121q96 297 77 301q-20 2 -111 -7.5t-102 -15.5q-6 -8 -20 -8q-12 0 -26.5 9t-18.5 22q-2 8 -2 22t12 23q23 18 99.5 41.5t148.5 31.5q35 4 70.5 15.5t54.5 27.5q43 14 72 13 q14 -10 69 -10q47 0 72 2q74 8 125 8q39 0 56.5 -8.5t27.5 -26.5q8 -33 8 -43q0 -39 -45 -37q-35 -8 -168 -12q-145 -12 -156 -29q-10 -10 -15 -18.5t-11 -16.5q2 -8 -9.5 -52t-27.5 -89l-37 -109q-57 -178 -74 -219q-14 -35 -20 -71q-35 -121 -57.5 -192t-34.5 -114 q-39 -115 -60 -192l117 10q121 12 158 12q29 0 40 -6t17 -24q25 -31 25 -51q0 -25 -39 -35t-121 -8q-94 -4 -156.5 -7.5t-84 -9.5t-25.5 -20q0 -16 -19 -17q-20 0 -39 9q-26 36 -186 30l-19 -2q-39 0 -67.5 18.5t-22.5 41.5z" />
<glyph unicode="&#x407;" horiz-adv-x="819" d="M98 25q4 53 170 55l109 2l20 41q16 47 47 151q10 39 43 132q63 197 68 212q10 25 32.5 99t35.5 121q96 297 77 301q-20 2 -111 -7.5t-102 -15.5q-6 -8 -20 -8q-12 0 -26.5 9t-18.5 22q-2 8 -2 22t12 23q23 18 99.5 41.5t148.5 31.5q35 4 70.5 15.5t54.5 27.5q43 14 72 13 q14 -10 69 -10q47 0 72 2q74 8 125 8q39 0 56.5 -8.5t27.5 -26.5q8 -33 8 -43q0 -39 -45 -37q-35 -8 -168 -12q-145 -12 -156 -29q-10 -10 -15 -18.5t-11 -16.5q2 -8 -9.5 -52t-27.5 -89l-37 -109q-57 -178 -74 -219q-14 -35 -20 -71q-35 -121 -57.5 -192t-34.5 -114 q-39 -115 -60 -192l117 10q121 12 158 12q29 0 40 -6t17 -24q25 -31 25 -51q0 -25 -39 -35t-121 -8q-94 -4 -156.5 -7.5t-84 -9.5t-25.5 -20q0 -16 -19 -17q-20 0 -39 9q-26 36 -186 30l-19 -2q-39 0 -67.5 18.5t-22.5 41.5zM688 1602q18 63 41 81l13.5 13.5t15.5 11.5 q12 10 29 10q35 0 51 -49q14 -25 14 -39t-8 -28.5t-27 -38.5q-35 -47 -65 -47q-18 0 -33 20q-14 14 -24.5 34.5t-6.5 31.5zM953 1602q18 63 41 81q4 4 14 13.5t16 11.5q12 10 29 10q33 0 49 -49q14 -25 14 -39t-8 -28.5t-26 -38.5q-35 -47 -64 -47q-20 0 -35 20 q-14 14 -24 34.5t-6 31.5z" />
<glyph unicode="&#x408;" horiz-adv-x="626" d="M-80 -260q0 12 6 31q10 37 27 36q8 0 23.5 -11t27.5 -27q41 -35 78 -35q74 0 156 127l53 119q115 252 129 294q0 2 2 8.5t8 14.5q2 8 11.5 34.5t15.5 55.5l86 244q8 41 23.5 89t27.5 81q8 16 61 176q25 78 43 133q8 25 31 98.5t19 79.5l-115 -20q-23 -10 -55 -11 q-20 0 -34 4.5t-12 10.5v10q-10 -8 -27.5 11.5t-15.5 35.5q0 16 40 29.5t106 21.5l147 21q10 8 51 -7.5t58 -31.5q16 -23 16 -45q0 -29 -17.5 -81t-78.5 -218l-68 -191q-49 -150 -75 -211q-8 -27 -23 -65q-35 -100 -51 -160q-25 -57 -53 -155q0 -16 -8.5 -37t-18.5 -31 l-49 -121l-19 -49q-4 -12 -21 -55t-32 -64q-6 -16 -22.5 -42.5t-16.5 -33.5q0 -2 -2 -7t-8 -5l-7 -7t-5 -13q-10 -25 -63.5 -76t-86.5 -66q-36 -14 -65 -14q-47 0 -94.5 21.5t-81.5 60.5q-20 20 -21 43z" />
<glyph unicode="&#x409;" horiz-adv-x="1759" d="M121 47q10 4 26.5 16.5t32.5 14.5q16 6 60 49q29 33 41 39q12 20 33.5 40.5t29.5 29.5q35 37 70 85t63 93l29 43l61 80q0 25 11.5 35t13.5 18q29 86 78 162q4 6 5 24.5t9 24.5q10 8 15.5 35.5t17.5 44.5q-6 -6 37 92l18 41l68 203q10 33 20 59q-14 4 -60 -5t-71 -22 q-6 -4 -20 -4q-27 0 -53.5 29t-39.5 65q14 29 43 37q33 12 72 19q41 10 53 14q14 4 41 4h43l27 31h68l32 -29q18 -2 75.5 -10t74.5 -21q25 -16 69 -41q72 -39 106 -74.5t52 -115.5q12 -45 12 -127q0 -66 -8 -94q-4 -12 -5 -40t-7 -42q-20 -66 -45 -164q-29 -119 -59 -209 q-27 -72 -84 -211q-37 -90 -50 -139q27 -20 62 -34.5t61 -14.5q12 0 21 4q18 8 45 8q4 0 20.5 2t30.5 10q92 53 147.5 108.5t122.5 162.5q33 55 43.5 96t10.5 94v68q-53 115 -177 170q-20 8 -32 8q-6 0 -19 -4q-4 -2 -14 -2q-29 0 -43 43q23 68 65 67q18 0 31 -10 q37 -2 96.5 -30.5t65.5 -34.5q4 -14 24.5 -27.5t24.5 -22.5q4 -8 18.5 -19t16.5 -17q4 -23 31 -76q20 -39 31.5 -68.5t11.5 -60.5q0 -18 -2 -27q-4 -14 -9 -51q-6 -43 -13 -69.5t-21 -53.5q-12 -43 -37 -79t-66 -85l-31 -37l-73 -75q-82 -57 -122 -78t-72 -25t-120 -8 q-68 -6 -121 19.5t-95 57.5t-54 42q-4 20 -4 37q0 45 17.5 95t35.5 69q0 6 37 94q92 217 78 209q14 37 25.5 69.5t15.5 44.5q8 12 24.5 87t14.5 81q14 23 18 99.5t4 85.5q2 10 2 30q0 53 -21.5 98.5t-66.5 69.5q-4 2 -36.5 17.5t-28.5 15.5q-16 -2 -45 5t-43 7q-8 0 -25 -4 q-4 -10 -9 -36.5t-11 -45.5q-4 -16 -44 -123.5t-59 -154.5q-94 -262 -123 -295q-6 -8 -9 -20.5t-5 -18.5q-37 -84 -137 -242l-23 -37q-16 -35 -50 -78.5t-101 -127.5q-74 -74 -86 -89q-57 -66 -127 -65q-14 0 -43 8q-8 12 -19.5 23.5t-15.5 24t-4 36.5z" />
<glyph unicode="&#x40a;" horiz-adv-x="1492" d="M170 -20q16 43 41 157q4 14 7 33.5t5 30.5q2 6 7.5 40.5t19.5 65.5q0 29 16 86q12 53 13 58q2 16 14 45q14 31 16 55q14 51 33.5 102.5t19.5 53.5q61 184 123 348q43 109 99.5 227.5t93.5 159.5q8 2 24 2q63 0 78 -68q-2 -27 -13 -50t-32 -60q-31 -51 -43 -86 q6 16 -39 -82.5t-65 -149.5l-25 -65l-35 -95h7q6 0 13 4.5t11 6.5q-14 0 37 15t112.5 28.5t84.5 11.5q10 0 41.5 5t25.5 1q6 4 21 4q8 0 21 -2t26 0q12 4 18 4q10 0 23.5 -4t19.5 -6q8 -2 25 -2l53 2l84 221l43 111q55 129 74 203q6 20 30.5 33.5t44.5 5.5q66 -16 66 -66 q0 -16 -6 -35q-20 -57 -93 -234t-108 -259q61 -14 70 -19q98 -33 160.5 -85t113.5 -134q51 -78 51 -195q0 -68 -19 -134t-54 -119q-57 -84 -160 -156q-61 -43 -92 -56.5t-78 -21.5q-86 -18 -121 -29l-74 -8q-14 -4 -38.5 1t-42.5 5q-37 -2 -84 9l-50 6q-55 2 -61 67 q6 8 16.5 23.5t20.5 25t26 11.5q10 -18 27.5 -24.5t42.5 -8.5q14 -2 47 -2q100 0 223 31q80 20 159 70t104 104q43 66 56 94t21 82q6 29 7 55q0 78 -36 143.5t-100 92.5q-84 33 -109.5 40t-68.5 7q-33 -66 -80 -211q-31 -90 -49 -164l-24 -82q-12 -47 -23 -104 q-4 -37 -10 -64t-20.5 -37t-43.5 -10q-12 0 -30.5 7t-26.5 7q-16 25 -16 39q0 12 8 23q8 78 23.5 141t17.5 72q23 86 63 202q18 51 39 115q4 18 16.5 43t18.5 39q-20 8 -59 8q-45 0 -76 -10q-14 0 -54 -1t-61 -11q-53 2 -92 -14.5t-72 -39t-43 -28.5q-18 2 -30.5 9 t-23.5 18.5t-19 17.5q-4 -2 -8.5 -3t-4.5 -3l-104 -348l-6 -46q-12 -78 -15 -88q-12 -49 -18 -92q-6 -37 -15.5 -74.5t-23.5 -66.5q-8 -18 -28.5 -26.5t-39.5 -2.5q-35 8 -50 16.5t-9 37.5z" />
<glyph unicode="&#x40b;" horiz-adv-x="1402" d="M410 1260q0 20 20 24q43 6 123 39t90 37l111 29l174 36l61 9q23 6 66 10l264 20h4q8 0 21.5 -5t27.5 -1q16 4 52 -7t51 -34q18 -29 18 -49q0 -14 -4 -20t-41 -7l-143 2q-115 0 -136 -10l-90 -8l-90 -178q-2 -8 -15 -41t-24 -55q-53 -111 -61 -152q-2 -10 -9.5 -22.5 t-11.5 -18.5l-2 -12q0 -6 5.5 -11.5t7.5 -9.5q37 29 55 41q78 59 135 95t131 59q23 8 51 8q49 0 94.5 -20.5t61.5 -49.5q33 -14 47 -49q12 -31 12 -63q0 -37 -12 -84t-16 -64q-14 -47 -43 -123l-19 -49q4 16 -67 -198q-27 -76 -68 -201q4 14 -21.5 -62.5t-33.5 -84.5 q-8 -14 -31 -25q-29 6 -58.5 23.5t-29.5 37.5q0 31 6 45q63 143 146 400l18 51q29 84 35 121q25 47 48 129t19 121q-10 23 -43 22q-61 6 -157.5 -50t-163.5 -122q-10 -8 -53 -50t-62 -67q-45 -53 -72 -104q-33 -55 -40 -66q-10 -10 -13.5 -25t-5.5 -20l-61 -278 q-6 -29 -11.5 -71t-7.5 -46q-14 -31 -24 -31t-29 13q-8 2 -33.5 12t-34.5 23q-4 16 -4 26q0 23 8.5 49.5t12.5 38.5q2 16 10 39q12 37 14 55q2 8 7.5 37t17.5 54q4 45 20.5 96t22.5 69q78 274 113 367q39 104 81 201q16 39 51.5 125t39.5 108q-4 2 -8.5 4t-16.5 2 q-45 -8 -49 -10q-61 -12 -94 -21.5t-121 -39.5q-14 -4 -101 -41q-57 -27 -65 -29q-4 -2 -10 -2q-14 0 -19 10q-16 35 -23 54.5t-5 44.5z" />
<glyph unicode="&#x40c;" horiz-adv-x="1019" d="M168 -37q0 14 10 51q-2 27 4 51.5t6 28.5q14 0 15 33q0 16 18 72l19 63l24 60q23 57 23 61q0 27 26 68q8 25 14.5 53t6.5 47q4 10 22.5 47t26.5 74q2 10 7 22.5t11 30.5l68 184l31 70q4 10 27.5 63.5t31.5 53.5v22q0 8 23 53l24 50q16 27 25.5 52t11.5 34q2 4 8 14t15 18 q23 16 41 17q29 0 49 -41q14 -29 14 -51q0 -20 -18 -50q-70 -150 -140.5 -307t-70.5 -182l69 51q53 53 170 142l252 204q57 29 135 90q20 12 32.5 22.5t21.5 14.5q12 10 49 36t47 24q23 10 49.5 -21t22.5 -57q4 -21 -9.5 -36t-58.5 -40q-92 -45 -104 -68q-10 -8 -46 -34.5 t-90 -65.5q-80 -53 -138 -100t-77 -72q-6 0 -15 -6t-15 -4q-4 -2 -18.5 -12.5t-20.5 -18.5q-6 -16 -19.5 -31.5t-32.5 -13.5q-39 -20 -153 -113q14 -158 80 -276q59 -131 121 -193q43 -47 80.5 -73.5t58.5 -26.5q18 -6 51 -28.5t35 -36.5q2 -4 2 -17q0 -31 -10 -45 q-8 -14 -14.5 -21.5t-20.5 -7.5q-23 0 -55 17q-33 -2 -113 61.5t-123 116.5q-55 80 -95 145.5t-61 143.5q-8 37 -30 110q-14 39 -17 56v39l-24 -62q-2 -6 -25.5 -67.5t-66.5 -217.5l-33 -106q-47 -147 -62.5 -186t-31.5 -39q-8 0 -21.5 9l-19.5 13q-16 10 -22.5 18.5 t-6.5 20.5zM950 1542q4 18 88 108.5t113 100.5q10 6 18 6q29 0 66 -63q8 -18 -19.5 -48t-85.5 -77q-70 -57 -86 -80q-10 -18 -20 -29.5t-18 -11.5q-6 0 -29 14q-14 13 -21.5 40.5t-5.5 39.5z" />
<glyph unicode="&#x40d;" horiz-adv-x="1292" d="M188 49q0 23 14.5 60.5t18.5 50.5q29 98 33 133q16 74 61 217q4 16 22.5 77.5t22.5 117.5q37 63 70 155l35 88q14 31 35 96q25 74 41 109q18 35 22 43q37 74 59.5 125t24.5 88q0 25 25 25q23 0 51.5 -17.5t30.5 -27.5q8 -29 8 -48q0 -16 -6 -34l-170 -433l-187 -493 q-29 -90 -28 -131q0 -39 26 -25l414 414q68 72 133 156q14 6 180 194l88 101l261 276l38 12q23 4 45.5 -19.5t22.5 -51.5q0 -16 -4 -25l-53 -145q-211 -573 -217 -580q-29 -72 -86.5 -217t-88.5 -231q-20 -55 -43 -103q-23 -39 -38 -115q-6 -25 -24.5 -43t-33.5 -10 q-78 29 -78 84q0 14 2 21q2 0 80 188l78 186q152 383 154 402q10 23 20 52.5t17 43.5q27 80 43 111q18 39 32.5 74.5t14.5 60.5q-123 -133 -390.5 -421t-390.5 -417q-14 -12 -79 -71q-55 -55 -86 -78q-12 -10 -62.5 -51t-71.5 -41q-47 8 -66.5 24.5t-19.5 42.5zM952 1706 q0 16 6 25q41 37 60 36q16 0 26 -12q18 -10 46 -62.5t49.5 -109.5t21.5 -74q2 -10 -11 -29.5t-30 -23.5q-18 -12 -26 -12t-14.5 10t-14.5 35q-4 6 -37 59q-37 59 -56.5 95t-19.5 63z" />
<glyph unicode="&#x40e;" horiz-adv-x="1048" d="M348 -47l4 16q4 10 73 80t107 107q10 10 49.5 53t67.5 88q-82 70 -121 205q-4 12 -11 32.5t-5 36.5l-35 181q4 12 4 18q0 8 -3 22.5t-5 24.5l-6 357l4 59q2 27 5 66.5t5 52.5v28.5t7.5 33.5t25.5 13q27 4 52.5 -13t38.5 -40.5t5 -36.5q-10 -18 -10 -53q0 -29 -2 -41 q-4 -43 -7 -117.5t-3 -154.5q0 -61 2 -82q16 -172 20 -187q2 -53 37 -167.5t62 -163.5l28 35q8 12 29 36q35 47 43 68q10 23 45 80q25 37 35 57q8 16 39 68q35 61 41 71l133 252q18 57 31 90q4 12 29.5 87t33.5 137q4 12 9 17t18 5q8 0 19 1t20 -1q26 -6 43.5 -29.5 t17.5 -54.5q0 -14 -2 -22q-4 -12 -11 -28.5t-14 -35.5q-12 -25 -39.5 -90t-44.5 -102q-61 -152 -75 -172q-49 -94 -90 -164q-66 -117 -146 -238q-18 -29 -75.5 -105.5t-82.5 -105.5q-33 -49 -69.5 -89t-106.5 -109q-88 -92 -108 -113q-14 -20 -39 -20q-14 0 -31 10 q-41 23 -41 47zM711 1673q0 18 8 33q4 8 19.5 13t23.5 1q33 -12 50.5 -26.5t21.5 -36.5q8 -14 8 -29q10 -27 21.5 -39t29.5 -12q8 0 37 8q98 33 153 78l105 80l2 2q8 4 16 4q18 0 25 -6q12 -12 15 -22.5t3 -21.5v-16l-2 -4q4 -12 -25.5 -47t-66.5 -59q-47 -33 -153 -76 q-16 -8 -44 -10t-38 -4q-146 -14 -207 170q-2 6 -2 20z" />
<glyph unicode="&#x40f;" horiz-adv-x="1128" d="M279 70q2 43 7 83t5 56q2 10 4 33.5t12 42.5q2 8 3 31.5t9 35.5q2 39 32 139.5t50 147.5l91 254q6 18 19 50t24 54q2 6 5 17.5t35 87.5l29 63q8 31 25 60q16 29 24 55q2 10 17.5 15t27.5 1q39 -18 55.5 -33.5t16.5 -37.5q0 -25 -22 -76l-97 -217q-31 -74 -41 -103 q-55 -137 -80 -221q-2 -4 -63 -203.5t-33 -191.5q-12 -29 -12 -82q0 -33 -4 -49q37 -23 127 -23q61 0 96 11l168 12q10 4 35 4h33q23 0 34 4t15 16q10 55 35 125q29 82 34 123q4 25 14.5 51.5t14.5 36.5l27 84q2 8 11 37t36 84q37 106 53 162q4 12 12 48t27 63q6 33 35 108 l18 53l78 222q8 31 39 45q6 -2 17.5 -9.5t23.5 -9.5q47 -12 59 -65q-29 -76 -94 -236q-102 -297 -133 -395q-14 -51 -64 -182q-6 -12 -11 -36t-9 -36q-4 -18 -16 -45q-6 -20 -18.5 -57t-14.5 -48q-2 -6 -7.5 -33.5t-21.5 -50.5q2 -29 -16 -69q-6 -14 -15 -43 q-2 -14 -11 -25.5t-23 -15.5q-12 -2 -38 -8.5t-44 -3.5q-10 2 -33 2q-80 0 -148 -27l-28 -102q0 8 -36 -72t-71 -119q-8 -8 -24 -8q-25 0 -49.5 15.5t-30.5 31.5q-2 4 -2 12q0 12 10 27.5t14 26.5q2 8 5.5 27.5t15.5 29.5q8 8 13 27.5t9 27.5q6 10 10.5 36t4.5 46 q-8 2 -27 2l-74 -2q-35 0 -51 8q-18 10 -33 8q-25 -2 -44 6.5t-46 26.5q-31 23 -30 60z" />
<glyph unicode="&#x410;" horiz-adv-x="1028" d="M100 -18q0 20 17.5 58t60.5 120q12 27 47 94q119 227 119 248q-2 4 -2 12q0 20 33 37q47 47 78 100q20 45 55 107.5t86 148.5q25 43 74 125q76 135 194 295q47 63 78 62q39 0 87 -36t67 -81q8 -14 8 -62q0 -63 -15 -215q-4 -27 -8 -84q-6 -92 -18 -196 q-23 -229 -33 -358.5t-10 -241.5q0 -57 2 -84v-15l-2 -47q-12 -12 -37 -12q-29 0 -55.5 13.5t-30.5 31.5q-2 2 -6 4t-4 19l2 45l6 114l10 332l-26 -2q-41 0 -182.5 -16.5t-176.5 -26.5q-18 0 -45 -24.5t-47 -63.5q-6 -20 -28.5 -58t-22.5 -44q-12 -8 -21.5 -21.5 t-11.5 -17.5q0 -23 -42 -115t-83 -154l-43 -65l-33 24q-23 12 -32 22.5t-9 27.5zM565 592q13 2 53.5 9t73.5 9q147 35 180 35q14 0 27 -6q6 -8 13.5 -11t9.5 -3q4 12 25.5 222t23.5 279l6 103q-12 0 -53 -47t-91.5 -122t-89.5 -153q-20 -37 -39.5 -68.5t-27.5 -31.5 q-14 -14 -67.5 -110.5t-43.5 -104.5z" />
<glyph unicode="&#x411;" horiz-adv-x="1042" d="M248 166l24 170q6 12 10.5 38.5t10.5 39.5q-2 25 53 182l16 49q6 31 31 82l19 41q16 55 27.5 86t23.5 53q14 23 35 72l120 274q-20 10 -36.5 40t-16.5 55v4q0 8 7.5 14t17.5 10l63 2q23 0 33 -2h6q8 0 18.5 4t24.5 0q16 -4 27 -4q25 0 45 10l115 7q68 6 94 6q8 0 104.5 8 t104.5 10t22 2q25 0 37 -11t25 -34q4 -12 13 -29.5t3 -19.5q-18 -25 -43 -25q-12 0 -25 7q-14 4 -181 -8.5t-279 -26.5q-18 -10 -31.5 -27.5t-30.5 -46.5q-12 -23 -62 -132.5t-69 -150.5q-6 -8 -6 -14q0 -16 59 -16q10 0 33 -7.5t35 -5.5q20 4 104 -22.5t109 -42.5 q55 -35 86 -62.5t51 -64.5q25 -53 37 -92t8 -82q0 -20 -12 -76.5t-25 -79.5q-41 -72 -102 -139q-31 -37 -71 -64.5t-97 -54.5q-59 -29 -77.5 -36t-59.5 -15l-88 -23q-23 -14 -48.5 -17t-64.5 -3h-69q-25 0 -61 12.5t-50 26.5q-20 27 -34.5 73t-12.5 56zM377 172 q0 -53 14 -66q16 0 56 1.5t73 9.5q139 37 214 69.5t140 106.5q51 57 77 108.5t40 118.5q4 20 4 29q0 18 -8 55q-8 23 -10 43q-18 43 -35.5 58.5t-36 21.5t-28.5 10q-31 25 -140 41q-20 4 -83.5 13.5t-92.5 9.5q-59 -141 -88 -223q-53 -160 -74 -242q-10 -33 -16 -80t-6 -84z M604 915zM733 778h4h-4z" />
<glyph unicode="&#x412;" horiz-adv-x="1048" d="M168 115q0 27 18 57q10 18 17.5 36.5t15.5 51.5q27 80 155 397.5t199 479.5q51 117 31 123q0 6 -6 18t-4 18q0 12 57.5 37t83.5 21h13q27 0 26 10q4 0 38 4t73 0q137 -12 213 -79.5t73 -180.5q-2 -51 -71.5 -150.5t-138.5 -162.5q-33 -29 -75 -61t-55 -40l52 -18 q100 -37 158.5 -91.5t80.5 -144.5q4 -20 4 -37q0 -45 -15 -102t-34 -100q-12 -12 -20 -26.5t-10 -18.5q-2 -8 -37 -62.5t-62 -87.5q-102 -88 -182 -117q-86 -39 -195 -39q-100 0 -151 33q-66 41 -97.5 72t-31.5 57q0 27 35 47q10 6 35.5 -11t50.5 -42q53 -49 139 -49 q37 0 98 14q84 25 148.5 72t124.5 121q37 49 55 108.5t18 112.5q0 66 -24 96q-82 111 -234 111q-66 0 -123 -17l-118 -24q-4 -2 -18.5 -5t-45.5 -89t-80 -226q-43 -125 -67.5 -175t-44.5 -50t-50 45q-23 37 -22 64zM520 672q23 4 91.5 17t95.5 24q4 2 25.5 13t43.5 34 q49 45 121 134t104 150q51 84 52 123q0 27 -23 50q-27 33 -127 32q-66 0 -112 -12q-29 -8 -42.5 -19.5t-13.5 -33.5q0 -31 -33 -64q-2 -12 -9 -23.5t-9 -13.5q0 -6 -25 -61q-33 -63 -61 -143q-78 -184 -78 -207z" />
<glyph unicode="&#x413;" horiz-adv-x="940" d="M168 -6q12 82 22 117q18 59 31 127q6 31 17 75l47 97q12 57 34.5 118.5t26.5 75.5q31 90 62 160q4 12 34 92q8 23 27.5 71t32.5 74q12 27 14 39q-27 -2 -55.5 8.5t-34.5 24.5l-12 74q18 14 84 24l43 17q23 8 71 20q285 66 316 66q10 0 34.5 1t45.5 9q2 2 48 2t66 8 q12 4 42 5t44 8q4 4 19 4l35 -2q26 -15 39.5 -29t21.5 -35v-39q-10 -6 -35.5 -24.5t-42.5 -22.5q-18 -2 -47 -18q-27 -14 -47 -15q-12 0 -29 7q-8 6 -19 7t-18 1q-14 31 -30 41q-20 -8 -64 -8q-43 0 -63 -11q-63 -4 -119 -20q-33 -8 -49 -10q-45 -8 -74 -21 q-18 -37 -55 -113q-53 -111 -88 -211l-109 -292q-12 -23 -46 -127.5t-38 -132.5q-6 -37 -18.5 -80t-16.5 -62q-4 -12 -13 -47t-11 -70q0 -6 -5 -14t-7 -14q-14 6 -68 6q-23 10 -43 39zM414 1147z" />
<glyph unicode="&#x414;" horiz-adv-x="1480" d="M76 -309q0 -8 18.5 57.5t26.5 116.5l35 153q-8 12 0 27.5t28 40.5l138 23q45 10 110.5 73.5t108.5 122.5q109 143 167 280.5t142 391.5q23 59 49 145q16 14 25.5 54.5t9.5 68.5q-14 6 -31.5 4t-28.5 0q-25 12 -39 37t-14 51q0 14 2 21q8 2 23.5 -1t34.5 -3q23 0 39 4 q10 2 94 14t94 19q143 14 228 19t186 5q33 0 63.5 -20.5t36.5 -42.5q2 -57 -86 -335t-166 -458q-14 -45 -51 -139l-31 -82l-43 -141q2 -6 6 -15.5t11 -9.5l30 4q18 4 40 8t30 9.5t18 15.5l3 1t8 1q6 0 22 -4q39 -12 63.5 -39t24.5 -47q-6 -88 -51 -195.5t-117 -240.5 q-6 -16 -6 -29v-4q0 -4 -22 -37q-6 -6 -17 -6q-16 0 -38.5 21.5t-37.5 39.5q-4 16 -4 25q0 27 31 88q8 16 43 81.5t55.5 114t26.5 80.5l-14 17q-16 -10 -226 -17q-20 0 -32.5 -1t-16.5 -1q-10 8 -20 9q-14 0 -29 -5l-129 -4h-25q-14 0 -22 -2q-41 -8 -70 -8q-33 0 -59 -4 l-123 -12q-76 -6 -135.5 -12.5t-75.5 -8.5q-41 0 -72.5 -16.5t-44.5 -18.5q-31 -111 -75 -292l-13 -48q-4 -31 -53 -45q-37 39 -48 57.5t-5 43.5zM76 -309zM553 129q63 0 298.5 20.5t252.5 24.5q14 76 33.5 130t60.5 155q6 2 62.5 151.5t85.5 231.5l18 51q63 182 90 267 t35 140q-33 6 -90 7q-86 0 -179.5 -12.5t-136.5 -30.5l-39 -97q-2 -8 -65.5 -215t-188 -469t-237.5 -354z" />
<glyph unicode="&#x415;" horiz-adv-x="1122" d="M168 285q0 59 20.5 140t44.5 132q45 109 199 348q8 8 11 11.5t2 4.5l-1 1q0 14 60 127q35 37 35 63q0 14 -7 23q-8 10 38 50t116 79q55 43 109 43q16 0 27.5 -5.5t13.5 -15.5q0 -12 82 8q37 8 53 11q8 10 42 17t95 15q33 -2 67.5 0t45.5 4q16 6 35.5 -5t33.5 -44 q6 -14 6 -26q0 -23 -27.5 -36t-94.5 -22q-68 -8 -84 -10q-113 -12 -238 -39q-80 -16 -116 -40.5t-81 -94.5q-14 -10 -36.5 -52t-45.5 -87q-6 -8 -14 -20.5t-20 -26.5q-59 -80 -82 -116t-17 -44q6 -2 23.5 -6t30.5 -6q18 10 51 14t47 8q326 84 369 90q18 12 34 13 q37 0 66 -50q6 -12 6 -22q0 -18 -28.5 -34.5t-108.5 -40t-193 -54.5l-65 -19q-133 -39 -207 -39q-63 0 -62 35q-20 10 -45.5 -45t-44 -136t-18.5 -136q0 -29 6 -45q18 -51 46 -78t93 -45q14 -2 36 -4t50 -2q41 0 82 16q104 18 179 41t92 33q12 6 20 8t16 2l-2 -4v-1t2 -1 q6 0 37 35q35 29 95.5 55.5t62.5 11.5q4 -12 4 -20q0 -39 -48 -93.5t-130 -101.5q-100 -53 -224 -78.5t-239 -27.5q-45 2 -84 22.5t-88 59.5l-41 28q-37 37 -56.5 77t-31.5 104q-4 25 -4 43z" />
<glyph unicode="&#x416;" horiz-adv-x="1691" d="M84 63q0 10 14 23q12 14 127 88q23 14 51.5 32.5t53.5 37.5l69 43q14 8 78 46t80 54q2 2 43 33l238 180q51 35 71 94q-10 20 -59 99t-70 108q-113 135 -106 129q-4 6 -77 111.5t-77 113.5q-25 31 -38 52.5t-15 48.5q12 20 37 20q10 0 18 -4q12 -6 42 -16t44 -31 q12 -14 29.5 -30.5t36.5 -47.5l266 -377q10 -12 39 -56t35 -56q4 -12 12 -13q8 0 18.5 14.5t14.5 18.5q-2 27 14 84l12 39q49 147 62 207q6 37 24 59q8 14 12.5 37t6.5 35q2 8 9 48t28 75q6 2 18 2q20 0 35.5 -12.5t28 -30.5t22.5 -29l2 -22q0 -27 -12 -43l-29 -97 q-4 -23 -19.5 -73.5t-31.5 -95.5q-4 -12 -8 -25.5t-8 -28.5q-6 -43 -21 -69q-8 -45 -28 -109l-17 -59q0 -2 1 -4l1 -2q8 0 35 34l82 78q270 270 348 326q133 133 223 164q12 -10 29.5 -23.5t30 -27t16.5 -31.5q-31 -57 -65 -80q-53 -27 -110.5 -72t-72.5 -57 q-39 -25 -119.5 -99.5t-121.5 -115.5q-12 -12 -59.5 -50t-88.5 -96q4 -6 21 -39q25 -53 45 -73q16 -29 64 -100.5t83 -122.5q14 -33 45 -68q29 -37 39 -57q10 -8 27.5 -28t36.5 -28q14 -6 23 -21.5t24 -49.5q-12 -35 -24.5 -42.5t-65.5 -11.5q-33 8 -72 42t-61 73 q-53 76 -132 205l-73 117q-4 20 -21.5 45.5t-21.5 38.5q-4 12 -10.5 18t-18.5 8q-14 2 -24.5 12.5t-20.5 25.5t-21 28q-18 -63 -53 -146l-26 -65q-2 -6 -13.5 -21.5t-11.5 -27.5q0 -4 -39 -121q-51 -143 -67 -199q-2 -8 -7.5 -22.5t-9.5 -21.5t-12 -11q-20 -14 -41 -14 q-8 0 -21 4q-30 8 -47.5 36.5t-7.5 45.5l19 49q14 45 24 63q14 27 23.5 61.5t13.5 45.5q39 121 70 184q10 20 30 78q4 12 10.5 28.5t14.5 36.5q-80 -49 -113 -86q-63 -63 -133 -116q-51 -39 -106 -88q-2 -6 -88 -61.5t-138 -86.5q-53 -33 -75 -51q-61 -45 -113 -70 q-27 -16 -45 -16q-12 0 -30.5 9t-35.5 15q0 6 -9 20.5t-9 24.5z" />
<glyph unicode="&#x417;" horiz-adv-x="1116" d="M211 258q0 25 14 45q27 41 56 59q23 12 34 13q8 0 20.5 -5t22.5 -8q16 -2 21.5 -9t10.5 -23.5t11 -28.5q-16 -25 -28.5 -38t-30.5 -21q35 -70 100 -119q27 -20 69 -34.5t73 -14.5q12 0 18 2l6 2q6 0 18.5 -4t20.5 0q8 2 36 3t50 11q133 39 223 154q35 47 48.5 87t15.5 99 q4 27 -2 52.5t-13.5 49t-11.5 33.5q-4 14 -20.5 23.5t-24.5 17.5q-20 6 -57 18.5t-68 12.5q-33 0 -61 -10q-33 -8 -37 -9q-14 0 -30.5 9.5t-20.5 11.5q-20 8 -38 33.5t-18 48.5q0 8 5 16q10 18 29.5 26.5t39.5 4.5q8 -2 27 -2q35 0 80 18q27 10 86 52.5t61 48.5 q59 70 92 117t56 110q23 39 22 98q0 39 -12 66q-6 20 -38 33.5t-65 13.5q-16 0 -28 -4q-33 0 -99.5 -24.5t-80.5 -37.5q-4 -2 -61.5 -52t-78.5 -83q-8 -14 -41 -14q-10 0 -18 2t-12 4q-20 35 -21 59q0 33 29 70q35 45 62.5 73.5t64.5 49.5q16 10 55 32.5t72 33.5q8 2 46 15 t77 13q18 0 26 -2q63 -6 95 -22.5t100 -73.5q29 -18 43 -61.5t14 -98.5q0 -100 -35 -170q-8 -16 -34.5 -66.5t-55.5 -86.5q-37 -47 -78 -97q-4 -6 -32.5 -23.5t-48.5 -23.5q37 -14 85 -49t54 -57q57 -92 57 -213q0 -57 -12 -125q-20 -35 -58 -105q-27 -47 -57.5 -74.5 t-85.5 -64.5q-70 -45 -133 -63q-88 -25 -166 -25q-20 0 -53 4q-51 2 -90 15.5t-99 46.5q-61 35 -101 81t-79 111q-12 23 -12 43z" />
<glyph unicode="&#x418;" horiz-adv-x="1292" d="M188 49q0 23 14.5 60.5t18.5 50.5q29 98 33 133q16 74 61 217q4 16 22.5 77.5t22.5 117.5q37 63 70 155l35 88q14 31 35 96q25 74 41 109q18 35 22 43q37 74 59.5 125t24.5 88q0 25 25 25q23 0 51.5 -17.5t30.5 -27.5q8 -29 8 -48q0 -16 -6 -34l-170 -433l-187 -493 q-29 -90 -28 -131q0 -39 26 -25l414 414q68 72 133 156q14 6 180 194l88 101l261 276l38 12q23 4 45.5 -19.5t22.5 -51.5q0 -16 -4 -25l-53 -145q-211 -573 -217 -580q-29 -72 -86.5 -217t-88.5 -231q-20 -55 -43 -103q-23 -39 -38 -115q-6 -25 -24.5 -43t-33.5 -10 q-78 29 -78 84q0 14 2 21q2 0 80 188l78 186q152 383 154 402q10 23 20 52.5t17 43.5q27 80 43 111q18 39 32.5 74.5t14.5 60.5q-123 -133 -390.5 -421t-390.5 -417q-14 -12 -79 -71q-55 -55 -86 -78q-12 -10 -62.5 -51t-71.5 -41q-47 8 -66.5 24.5t-19.5 42.5z" />
<glyph unicode="&#x419;" horiz-adv-x="1292" d="M188 49q0 23 14.5 60.5t18.5 50.5q29 98 33 133q16 74 61 217q4 16 22.5 77.5t22.5 117.5q37 63 70 155l35 88q14 31 35 96q25 74 41 109q18 35 22 43q37 74 59.5 125t24.5 88q0 25 25 25q23 0 51.5 -17.5t30.5 -27.5q8 -29 8 -48q0 -16 -6 -34l-170 -433l-187 -493 q-29 -90 -28 -131q0 -39 26 -25l414 414q68 72 133 156q14 6 180 194l88 101l261 276l38 12q23 4 45.5 -19.5t22.5 -51.5q0 -16 -4 -25l-53 -145q-211 -573 -217 -580q-29 -72 -86.5 -217t-88.5 -231q-20 -55 -43 -103q-23 -39 -38 -115q-6 -25 -24.5 -43t-33.5 -10 q-78 29 -78 84q0 14 2 21q2 0 80 188l78 186q152 383 154 402q10 23 20 52.5t17 43.5q27 80 43 111q18 39 32.5 74.5t14.5 60.5q-123 -133 -390.5 -421t-390.5 -417q-14 -12 -79 -71q-55 -55 -86 -78q-12 -10 -62.5 -51t-71.5 -41q-47 8 -66.5 24.5t-19.5 42.5zM895 1673 q0 18 8 33q4 8 19.5 13t23.5 1q33 -12 50.5 -26.5t21.5 -36.5q8 -14 8 -29q10 -27 21.5 -39t29.5 -12q8 0 37 8q98 33 153 78l105 80l2 2q8 4 16 4q18 0 25 -6q12 -12 15 -22.5t3 -21.5v-16l-2 -4q4 -12 -25.5 -47t-66.5 -59q-47 -33 -153 -76q-16 -8 -44 -10t-38 -4 q-146 -14 -207 170q-2 6 -2 20z" />
<glyph unicode="&#x41a;" horiz-adv-x="1019" d="M168 -37q0 14 10 51q-2 27 4 51.5t6 28.5q14 0 15 33q0 16 18 72l19 63l24 60q23 57 23 61q0 27 26 68q8 25 14.5 53t6.5 47q4 10 22.5 47t26.5 74q2 10 7 22.5t11 30.5l68 184l31 70q4 10 27.5 63.5t31.5 53.5v22q0 8 23 53l24 50q16 27 25.5 52t11.5 34q2 4 8 14t15 18 q23 16 41 17q29 0 49 -41q14 -29 14 -51q0 -20 -18 -50q-70 -150 -140.5 -307t-70.5 -182l69 51q53 53 170 142l252 204q57 29 135 90q20 12 32.5 22.5t21.5 14.5q12 10 49 36t47 24q23 10 49.5 -21t22.5 -57q4 -21 -9.5 -36t-58.5 -40q-92 -45 -104 -68q-10 -8 -46 -34.5 t-90 -65.5q-80 -53 -138 -100t-77 -72q-6 0 -15 -6t-15 -4q-4 -2 -18.5 -12.5t-20.5 -18.5q-6 -16 -19.5 -31.5t-32.5 -13.5q-39 -20 -153 -113q14 -158 80 -276q59 -131 121 -193q43 -47 80.5 -73.5t58.5 -26.5q18 -6 51 -28.5t35 -36.5q2 -4 2 -17q0 -31 -10 -45 q-8 -14 -14.5 -21.5t-20.5 -7.5q-23 0 -55 17q-33 -2 -113 61.5t-123 116.5q-55 80 -95 145.5t-61 143.5q-8 37 -30 110q-14 39 -17 56v39l-24 -62q-2 -6 -25.5 -67.5t-66.5 -217.5l-33 -106q-47 -147 -62.5 -186t-31.5 -39q-8 0 -21.5 9l-19.5 13q-16 10 -22.5 18.5 t-6.5 20.5z" />
<glyph unicode="&#x41b;" horiz-adv-x="1239" d="M98 -2q14 37 54 37q12 0 28 16q27 27 66 68t45 47q57 63 145 186q23 33 78 129q6 10 16.5 30.5t21.5 35t26 24.5q6 37 10 46.5t12 15.5t12 8l-6 16q33 59 62 123q18 51 39 92q4 12 16 19.5t12 19.5q-2 27 90 226q8 20 25 53q-51 0 -131 -43l-51 -27q-33 -16 -58.5 -26.5 t-46.5 -10.5q-20 0 -45 9q-14 27 -14 57q0 55 43 72q238 90 229 84q104 27 189 59q31 2 99.5 10t76.5 15q41 2 84 -10.5t47 -26.5q4 -12 19.5 -22.5t19.5 -20.5l37 -29q2 0 8 -27.5t8 -52.5l2 -18q0 -37 -14.5 -105.5t-30.5 -127t-21 -58.5q-2 -16 -10 -49q-12 -45 -14 -68 q2 -6 -27 -98q-25 -88 -22 -88q-8 -63 -35 -148.5t-70 -208.5q-10 -29 -29.5 -86t-27.5 -90q-6 -10 -15.5 -35.5t-21.5 -37.5q-27 -27 -55 -27l-17 4q-41 16 -53 59q20 51 58 151.5t61 166.5q2 8 19.5 93t43.5 130q2 10 9.5 56.5t21.5 95.5l14 59q18 78 27 104l41 187 q6 20 13.5 73.5t11.5 102.5q-10 10 -2 23q-90 0 -209 -23q-14 -2 -24.5 -11t-14.5 -24q-2 -18 -46 -125.5t-69 -152.5q-43 -82 -74 -156l-20 -45q-20 -63 -94 -204.5t-129 -229.5q-80 -113 -174 -228q-31 -39 -77 -81.5t-73 -55.5q-10 -6 -24 -6q-31 0 -62 24.5t-33 55.5z " />
<glyph unicode="&#x41c;" horiz-adv-x="1474" d="M70 -20q0 14 13 46.5t38 86.5q63 125 84 141q25 33 28 72q27 37 76 133q31 49 73 122.5t75 141.5l57 100q80 139 128 215t73 101q33 39 33 61q0 43 17 79t36 32q25 0 40 -5.5t31 -25.5q4 -6 13.5 -19.5t14.5 -28.5t5 -38q0 -25 -6 -61q-2 -27 -16 -121q-8 -45 -9 -56 q-53 -162 -95 -404.5t-42 -340.5q0 -23 4 -31q14 -10 25.5 -2t34.5 53q27 49 90 127q4 6 80 136q188 309 366 620l54 84q31 49 59.5 91t44.5 54q20 16 39 17q39 0 69.5 -47t30.5 -119q0 -55 -22.5 -169t-59.5 -228q-12 -57 -34.5 -143.5t-47.5 -155.5q-4 -35 -16 -88 q-2 -10 -11 -62.5t-5 -71.5q-31 -55 -31 -221l-6 -47q-4 -57 -8 -77.5t-13 -18.5q-4 2 -12 2q-14 0 -14 -12q-1 -8 -15 -8q-10 0 -24.5 8t-22.5 22q-16 35 -16 86l2 84q63 373 149 750q29 100 48.5 190t23.5 115q0 6 -11 -5t-21.5 -26.5t-8.5 -21.5l-51 -76q-12 -12 -57 -94 q-31 -66 -56 -103l-57 -108q-63 -117 -78 -142q-20 -31 -59 -106q-20 -49 -74 -117q-16 -23 -31.5 -49.5t-19.5 -34.5q0 -10 -42 -69.5t-77 -98.5q-47 -49 -77.5 -70.5t-57.5 -21.5q-35 0 -76 39q-27 29 -38 68t-11 96q0 51 14 172q2 10 39 219q39 211 47 231q2 12 2 29 q0 18 -6 19q-6 0 -22 -27q-6 -8 -73 -114.5t-142 -272.5q-119 -219 -176.5 -328.5t-83.5 -156.5q-35 -68 -41 -74q-31 0 -78 51q-6 12 -6 23z" />
<glyph unicode="&#x41d;" horiz-adv-x="1155" d="M168 -86q0 14 2 23q6 6 11 31.5t5 45.5q6 12 10.5 25.5t10.5 38.5q16 90 75.5 303t73.5 227v23q0 6 4.5 24.5t18.5 38.5q8 25 13 48.5t7 35.5q8 10 27.5 61.5t26.5 67.5q14 39 35.5 91.5t29.5 68.5v10q4 4 21.5 42t29.5 65q14 33 76 170q6 14 19.5 35.5t13.5 29.5 q8 14 29 15q18 0 37.5 -13.5t29.5 -34.5l21 -32l-74 -148q-31 -53 -53.5 -102t-22.5 -57q-8 -20 -31.5 -84t-38.5 -109q-10 -31 -24 -64.5t-21 -48.5q-16 -37 -16 -41q0 8 246 9q39 0 138 2t124 6l106 10l70 211q20 72 90 279q31 88 49.5 113.5t44.5 25.5q10 0 30 -9.5 t26 -23.5q23 -23 22 -47q0 -29 -33 -80q-25 -43 -69 -162q-18 -55 -23 -63q0 -43 -20 -64q-8 -8 -28.5 -58t-20.5 -58q0 -16 -6.5 -36t-14.5 -28l-14 -49q-72 -260 -113 -361q0 -10 -10 -36.5t-10 -36.5q-4 -14 -18.5 -57.5t-14.5 -51.5q-4 -23 -16 -72q-31 -139 -31 -151 q-4 -4 -12 -4t-25.5 6t-26.5 10q-49 27 -49 62q0 23 19 59q6 10 39 133l18 76q12 33 55 195q35 125 39 129v20q-6 10 -149 10q-162 0 -297 -16h-97h-53q-10 -23 -62 -189.5t-59 -209.5q-14 -68 -44.5 -188t-47.5 -175q-4 2 -16 6t-27 4q-25 6 -40 26.5t-15 47.5z" />
<glyph unicode="&#x41e;" horiz-adv-x="1015" d="M236 162q0 57 10 143t20 137q8 8 9 24.5t-1 20.5q0 6 11 41q25 76 34 127q55 168 108.5 268.5t119.5 188.5q88 90 138 132t112 71q80 47 114 47q6 0 19 -4q115 -25 172 -93.5t84 -211.5q18 -125 18 -189q0 -102 -37 -206.5t-133 -262.5q-111 -217 -261 -348t-284 -131 q-72 0 -131 43q-71 55 -93.5 87t-26.5 79q-2 10 -2 37zM352 133q0 -18 3 -28.5t13.5 -23.5t18.5 -28q10 -16 32.5 -26.5t47.5 -10.5q14 0 22 2q70 9 132.5 55t154.5 152q80 92 114 139.5t60.5 113t65.5 200.5q23 86 30 134t7 116l-2 133q-2 35 -14.5 72.5t-28.5 56.5 q-31 35 -80 35q-31 0 -60 -15q-39 -16 -114.5 -95t-136 -162t-60.5 -107q0 -2 -2 -12.5t-8 -18.5q-35 -37 -78 -149.5t-76 -243.5t-37 -219z" />
<glyph unicode="&#x41f;" horiz-adv-x="1236" d="M168 14q6 18 16 41q20 55 27 80q8 39 27 98q94 303 127 383l77 218l72 208q51 111 72 185q2 4 2 12q0 6 -6.5 19.5t-6.5 29.5q-2 25 13.5 36t40.5 5q51 -14 172 -14q45 0 53 4q16 8 194.5 32.5t335.5 43.5l19 2q16 0 37.5 -4t29.5 -7q31 -6 54.5 -31.5t17.5 -56.5 q-8 -25 -45 -24q-12 0 -61 8q-4 0 -13.5 -39t-19.5 -63q-23 -29 -59.5 -143.5t-36.5 -149.5q-29 -43 -47 -129q-10 -43 -21 -70q-25 -84 -77 -278.5t-50 -194.5l-8 -74q-8 -68 -10 -94q2 -8 1 -14t-8 -8q-14 -14 -53 -15q-16 0 -31.5 4t-19.5 11q-2 6 -12 23.5t-6 35.5 q6 66 32 225q10 51 24.5 95.5t20.5 48.5l39 145q23 63 35 133q2 8 10.5 44t24.5 81q23 57 40 124t21 83q6 23 35 104q4 10 15.5 44t9.5 55l-135 -19l-123 -16l-142 -21q-111 -16 -116 -16q-35 -6 -35 -25q-49 -94 -88 -187t-53 -155q-8 -18 -68 -180q-37 -94 -35 -90 q-41 -137 -88 -258q-10 -23 -17 -43t-14 -59q-16 -43 -36 -138q-8 -27 -9.5 -40t-5.5 -33q-16 -33 -47 -33q-59 0 -75.5 16.5t-16.5 44.5z" />
<glyph unicode="&#x420;" horiz-adv-x="966" d="M168 -35q0 47 70 248q14 57 30 111q14 37 15 55q0 16 5 37.5t5 29.5q25 0 45 84q8 31 14 52.5t8 33.5q4 6 9.5 18.5t9.5 22.5q16 49 39 95q25 92 58.5 193.5t55.5 150.5l25 61q2 6 9 23.5t7 25.5t-6 13q-10 6 -10 20q0 27 49 70q25 31 42.5 40t47.5 9l66 -4q25 -2 131 -2 q23 -10 53 -21q61 -20 62 -28q0 -10 7 -14.5t21 -6.5q20 0 64.5 -46t66.5 -95q14 -33 21.5 -54.5t7.5 -50.5q0 -31 -4 -49q-4 -33 -10 -63.5t-15 -38.5q-33 -25 -32 -43q0 -16 -52.5 -86t-99.5 -115q-53 -61 -127 -109q-242 -109 -338 -104q-66 -10 -80 -17.5t-22 -33.5 q-10 -27 -19.5 -55.5t-9.5 -36.5q-12 -23 -54 -152t-57 -192q-8 -27 -18 -33t-33 -6q-10 0 -21 7t-20 19q-16 12 -16 37zM475 555.5q-2 -12.5 4 -18.5q4 -5 27 -5q27 0 71 8.5t85 24.5q74 25 163 80q27 18 67 55t77 84q12 20 49 97q16 29 31.5 73.5t15.5 79.5q0 16 -2 25 q-10 53 -54 99t-102 63q-43 8 -78 8q-27 0 -61 -6q-33 -10 -48 -28.5t-40 -78.5q-47 -90 -86 -196q-37 -137 -74 -227.5t-43 -104.5v-8q0 -12 -2 -24.5z" />
<glyph unicode="&#x421;" horiz-adv-x="987" d="M236 248q0 121 14 206t49 173l18 43q33 84 48 110q35 80 122 207q78 119 123 173t87 87t155 111q47 35 109 35q51 0 95 -26t66 -73q23 -39 23 -104q0 -92 -41 -192.5t-105 -157.5q-20 -18 -38 -19q-23 0 -60 33q-18 35 -20 41t8 8q18 23 54 87.5t48 101.5q4 12 8 41 q16 72 17 96q0 25 -15 39q-6 6 -16 6q-16 0 -57 -21q-49 -20 -125 -91.5t-137 -155.5q-94 -123 -144.5 -203t-77.5 -162l-22 -53q2 -8 -6 -41t-19 -53q-29 -119 -28 -236q0 -88 15 -155.5t44 -92.5q16 -14 49 -14q41 0 101.5 20.5t148.5 59.5q47 18 89 42.5t63 45.5 q53 39 86 39q23 8 30 8q4 0 5 -5t1 -13q0 -29 -30.5 -63t-81.5 -64q-41 -41 -98 -64q-66 -47 -153 -84t-159 -37q-16 0 -41 4q-63 23 -103 51.5t-67 94.5q-33 92 -32 217z" />
<glyph unicode="&#x422;" horiz-adv-x="937" d="M352 1178q6 25 25.5 37t60.5 18q18 4 72 12l55 10l70 9q119 18 252 24q55 2 93 5t50 5q29 -2 93.5 -10t93.5 -18q45 -10 66.5 -28.5t31.5 -53.5q2 -9 2 -19q0 -8 -5 -13t-11.5 -7t-8.5 -4q-45 -14 -73 -15q-20 0 -48 11q-20 18 -48.5 26.5t-118.5 14.5q-59 -6 -105 -6 q-14 -76 -47 -136q-8 -39 -23 -69q-14 -41 -12 -47q-6 -8 -39 -103.5t-61 -185.5q-20 -63 -31 -92q-10 -20 -25.5 -64.5t-21.5 -62.5l-51 -142q-16 -31 -40 -97t-38 -120l-21 -71q-10 -37 -17 -55.5t-11 -20.5t-21 0q-16 0 -35.5 25.5t-19.5 50.5q0 45 32 151.5t60 169.5 q8 37 15.5 59.5t9.5 32.5q6 8 19.5 44t21.5 67q6 37 127 412l14 43q18 31 35 77q16 10 16 43q0 6 7.5 16.5t7.5 14.5q4 4 9 19.5t13 23.5v2l-33 -2l-100 -10l-45 -4q-119 -10 -137 -15q-61 -4 -87 6.5t-18 41.5z" />
<glyph unicode="&#x423;" horiz-adv-x="1048" d="M348 -47l4 16q4 10 73 80t107 107q10 10 49.5 53t67.5 88q-82 70 -121 205q-4 12 -11 32.5t-5 36.5l-35 181q4 12 4 18q0 8 -3 22.5t-5 24.5l-6 357l4 59q2 27 5 66.5t5 52.5v28.5t7.5 33.5t25.5 13q27 4 52.5 -13t38.5 -40.5t5 -36.5q-10 -18 -10 -53q0 -29 -2 -41 q-4 -43 -7 -117.5t-3 -154.5q0 -61 2 -82q16 -172 20 -187q2 -53 37 -167.5t62 -163.5l28 35q8 12 29 36q35 47 43 68q10 23 45 80q25 37 35 57q8 16 39 68q35 61 41 71l133 252q18 57 31 90q4 12 29.5 87t33.5 137q4 12 9 17t18 5q8 0 19 1t20 -1q26 -6 43.5 -29.5 t17.5 -54.5q0 -14 -2 -22q-4 -12 -11 -28.5t-14 -35.5q-12 -25 -39.5 -90t-44.5 -102q-61 -152 -75 -172q-49 -94 -90 -164q-66 -117 -146 -238q-18 -29 -75.5 -105.5t-82.5 -105.5q-33 -49 -69.5 -89t-106.5 -109q-88 -92 -108 -113q-14 -20 -39 -20q-14 0 -31 10 q-41 23 -41 47z" />
<glyph unicode="&#x424;" horiz-adv-x="1337" d="M256 537q0 117 48 245.5t130 227.5q53 59 162 131l63 45q12 10 55.5 29.5t69.5 29.5q20 0 54 6q88 10 106 11l64 -5q14 0 24 43t21 121q4 14 8 47q0 16 13 25.5t32 5.5q20 -4 47 -26.5t25 -36.5q0 -4 4 -16.5t-2 -22.5l-41 -156q-4 -10 3 -12t9 0l2 2q12 6 25 6 q23 0 41 -29q20 -29 124 -88q61 -43 88 -67.5t44.5 -65.5t27.5 -117q2 -27 2 -67q0 -49 -5 -80t-21 -90l-13 -45q-23 -41 -41 -84q-31 -66 -58.5 -107t-96.5 -110q-20 -23 -49 -47.5t-41 -34.5q-43 -39 -152.5 -80t-169.5 -41q-31 0 -49 -2q-57 0 -68 -2l-10 8 q0 -74 -37 -256q-12 -23 -37 -22l-16 4q-25 6 -47.5 30.5t-20.5 44.5q20 78 25 109q12 61 23 90l-160 84q-55 41 -117.5 115.5t-77.5 152.5q-10 47 -10 97zM373 510q0 -49 14 -86t37 -72q57 -98 137 -125.5t82 -29.5q6 -6 6 12q4 33 14.5 89t20.5 79q0 6 78 226t119 317 q8 16 53 120.5t37 104.5q-10 2 -29 2q-33 0 -102 -17q-92 -20 -250 -145q-76 -59 -109 -129q-98 -184 -98 -274q-10 -33 -10 -72zM774 199q0 -4 25 -4t53.5 4t40.5 10q8 4 44 13t69 24q104 41 177.5 127t139.5 207q23 45 59 192q10 47 11 57q0 14 -2 21q-4 14 -6.5 31.5 t-2.5 25.5q-8 76 -73 117q-84 51 -118 68.5t-99 40.5q-4 -23 -11.5 -46.5t-21.5 -58.5l-39 -100q-27 -57 -96.5 -246.5t-85.5 -247.5l-19 -51q-25 -70 -28 -104q-10 -29 -17 -80z" />
<glyph unicode="&#x425;" horiz-adv-x="1073" d="M113 -27q0 14 7 30.5t9 23.5q14 31 31.5 50t81.5 77l71 67l60 55l43 43q2 6 16 22.5t29 35.5q45 35 190 180q-8 39 -20 121q-10 68 -22.5 122t-16.5 58q-2 6 2 10t6 4q4 4 4 9q0 4 -4 10t-6 12q-4 12 -12.5 58.5t-14.5 105.5q-18 174 -22 199q-4 4 -5 11t-1 9q6 16 26 37 q18 12 37 12q37 0 64.5 -41t27.5 -102q0 -53 13 -66q-4 -8 3 -90t13 -102q-8 -25 0 -35q2 -12 6 -42t2 -40t6 -42t13 -46l16 -57l33 37l47 49q98 98 155 164q111 131 164.5 199.5t77.5 119.5q4 10 15.5 34.5t19.5 33t18 8.5q58 -3 58 -66q0 -74 -74 -180q-47 -47 -53 -80 q-45 -53 -116 -134t-85 -91q-49 -43 -100.5 -91t-63.5 -65q-6 -8 -22.5 -26.5t-26.5 -22.5l-10 -16q23 -100 47 -167t68 -155q25 -51 54 -92t54 -55q6 -6 23 -6q18 0 20 6q51 12 55 -80q6 -20 -24.5 -36.5t-71.5 -16.5l-20 2q-41 4 -80 41t-84 118q-96 135 -158 326 q-45 -43 -49 -49q-59 -57 -231.5 -244.5t-182.5 -210.5q-14 -25 -43 -24q-10 0 -16 2q-8 -4 -12 -4q-10 0 -19 4q-2 2 -5 12t-7 31q-8 10 -8 26z" />
<glyph unicode="&#x426;" horiz-adv-x="1331" d="M266 199q0 18 8 32q14 98 61.5 245t78.5 218q25 55 55 146q35 100 63 155q20 53 86 193q18 41 19 61q0 12 10 19.5t21 3.5q23 -6 40 -19.5t48 -44.5v-8q0 -29 -17 -55q-16 -20 -58 -118.5t-44 -113.5q-16 -18 -92 -231t-105 -311q-29 -94 -41 -162q-4 -12 -4 -37 q0 -33 19 -61q8 -16 58 -26.5t99 -10.5q25 0 33 2l80 6q135 8 147 16q4 2 54 2h67q10 16 13.5 27.5t5.5 22t4 24.5q6 35 30.5 118t43.5 132q23 66 36 104.5t21 61.5q31 92 49 123q8 35 45 116q20 41 29 62q4 12 87 209.5t107 202.5q25 0 56.5 -23t33.5 -31q8 -18 -104 -266 q-55 -117 -127 -287q-47 -111 -68 -182q-8 -31 -24 -68q-6 -16 -25.5 -71.5t-21.5 -85.5q-12 -23 -19.5 -52.5t-9.5 -37.5q-6 -39 -18 -72q18 -14 34 -14q14 0 25 2q27 2 55.5 -8.5t34.5 -12.5q63 -20 70 -94q2 -12 2 -35q0 -53 -25 -108q-31 -76 -53 -107q-14 -29 -25 -65 q-2 -4 -5 -14.5t-6 -15.5t-9 -7q-12 -33 -20 -49q-12 -29 -17 -43q-13 -5 -33 -5q-18 0 -30.5 7.5t-26.5 19.5t-23 19q-2 6 -2 16q0 20 19 53q8 16 15 33.5t7 36.5q0 12 50 102l41 80q12 27 12 51q0 8 -4 29q-33 4 -99 4q-86 0 -110 -4q-106 -16 -142 -20.5t-47 -6.5 q-57 -8 -131 -8q-45 0 -67 2q-88 0 -168 19q-57 37 -86 74.5t-56 97.5q-10 25 -10 43z" />
<glyph unicode="&#x427;" horiz-adv-x="1073" d="M358 578q-8 82 50 303q14 49 41.5 133t44.5 129q55 111 77.5 174t44.5 141q2 10 6.5 13.5t16.5 3.5q35 0 72 -30t37 -61q0 -8 -7 -18q-25 -43 -67 -139l-45 -97l-70 -172q-8 -23 -24 -84q-20 -82 -35 -110q-2 -10 -15 -43q-2 -8 -11 -36t-9 -48q0 -16 6 -29 q16 -41 41 -51t72 -10q96 0 234 97t247 208l76 221q6 33 33 107q2 6 13 36.5t9 53.5q0 14 19.5 24.5t44.5 10.5q37 0 53 -23q12 -14 17 -24.5t5 -24.5t-6 -37l-74 -164l-34 -110q-6 -20 -13.5 -43t-15.5 -48q-29 -94 -47 -141q-23 -47 -74 -196l-49 -136q-20 -51 -61 -221 q-23 -92 -39 -151q2 -16 -11 -49q-2 -6 -6 -20.5t-4 -29.5q2 -14 -18.5 -30.5t-44.5 -16.5q-14 0 -27 6q-43 16 -43 50q0 12 6 35.5t10 37.5q4 10 9.5 26.5t11.5 41.5l20 94q6 27 24.5 105.5t29.5 97.5l104 280l18 52q-113 -98 -227.5 -173t-177.5 -75q-94 -4 -160.5 42 t-77.5 118z" />
<glyph unicode="&#x428;" horiz-adv-x="1654" d="M240 172q0 33 2 49q18 92 50 204t68 202q20 55 58.5 157.5t44.5 126.5q20 63 41 107q14 25 51 115q47 113 111 213q10 14 18 34.5t10 26.5q14 25 35 25q14 0 38 -12.5t36 -18.5q27 -16 26 -39q0 -14 -12 -31q-66 -102 -149 -264q-2 -6 -24.5 -53t-22.5 -64 q-20 -43 -123 -319l-25 -70q-49 -119 -72 -223l-14 -78l-16 -96q-2 -4 -2 -14q0 -18 12 -37q70 -33 174 -33q43 0 96.5 4t73.5 6q4 -2 43 -2q61 0 72 2q2 4 2 10q0 10 -17 23q-23 41 -22 59q0 16 12 44t19 44q14 61 123.5 356.5t148.5 391.5q31 70 44 110.5t32 114.5l14 43 q12 4 21 4q18 0 43 -10q20 -6 41.5 -23.5t21.5 -37.5q0 -8 -6 -21q4 4 -86 -227.5t-125 -321.5l-25 -63q-53 -152 -69 -205q-18 -59 -64 -217l-18 -60q18 -14 33 -14q10 0 20 8q53 0 134 10.5t137.5 20.5t60.5 12q14 6 30.5 10.5t30.5 10.5q4 10 15 45l12 45q16 43 33 96 q37 119 63 174q29 68 35 90q10 47 102 285q39 109 101.5 272.5t95.5 247.5q8 2 22 2q45 0 91 -41q4 -10 4 -32q0 -23 -13 -52q-72 -170 -231 -589q-33 -90 -51 -136q-8 -23 -36 -96.5t-46 -138.5q-10 -18 -35 -100t-22 -91q12 -14 -2.5 -37.5t-32.5 -31.5q-4 -2 -15.5 -7.5 t-21.5 3.5q-57 -20 -125 -35t-134.5 -26t-86.5 -15q-12 -2 -49 -2h-82q-61 0 -74 -6q-2 -2 -19 -2q-16 0 -61 4l-45 4q-49 0 -92 -2t-74 -4l-121 -4l-35 -2q-23 0 -38 10q-53 -4 -104.5 38t-61.5 95q-2 16 -2 49z" />
<glyph unicode="&#x429;" horiz-adv-x="1728" d="M168 270q6 98 18.5 179t40.5 157q20 59 53 157.5t31 96.5l45 119l88 209l15 49q8 37 18 53.5t35 32.5q27 -4 58.5 -26.5t45.5 -41.5l-47 -133q-8 -25 -40.5 -102.5t-49.5 -110.5q-33 -53 -108 -303q-12 -37 -20.5 -62.5t-12.5 -39.5q0 -45 -21 -123q-18 -66 -18 -109 q0 -25 10 -59q14 -37 36 -58.5t58 -25.5q47 -6 105 -6q66 0 130 5t81 11q8 4 24 4l37 -2q0 27 55.5 248t79.5 285q27 84 41 145q8 29 54 152q61 164 61 182q2 37 45 47q39 -12 62.5 -25.5t38.5 -39.5q-59 -125 -111 -295q-8 -33 -19 -56q-18 -59 -31.5 -108t-29.5 -109 l-31 -110q-18 -68 -32 -113l-11 -41q-29 -98 -28 -143q4 -2 28 -2q33 0 80 4t70 8l41 6q164 23 186 31q18 51 51 158q37 119 60 178l28 80q16 53 27 79l49 136q43 129 53 149q12 31 30 82t28 82q23 16 45 16q14 0 34.5 -11t45.5 -28q18 -12 14 -36q-12 -35 -44 -112 t-54 -130q-43 -111 -98.5 -264.5t-61.5 -177.5q-4 -27 -20.5 -84.5t-28.5 -94.5q16 0 28.5 2t22.5 5q35 10 74 10q88 0 88 -62q0 -33 -27 -92q-8 -16 -23.5 -55t-33.5 -66q-23 -39 -80 -158.5t-88 -195.5q-20 -57 -49 -78q-10 -6 -19 -6q-10 0 -24.5 5t-24.5 9 q-23 8 -30 23.5t-3 38.5q2 29 25 69l18 43l91 191q8 12 54 108.5t48 100.5q-8 8 -14 6q14 0 -50.5 -11.5t-80.5 -9.5l-97 -20q6 4 -151 -16l-289 -31q-18 -4 -66 -4q-66 0 -86 -8q-10 -4 -165 -4h-86q-51 -2 -97.5 17t-101.5 56q-20 29 -31 39q-29 35 -41 61.5t-10 73.5z " />
<glyph unicode="&#x42a;" horiz-adv-x="1167" d="M356 1217v6q0 31 33 32q33 4 80 16.5t66 20.5q18 8 77.5 16.5t92.5 8.5q20 10 51 10q20 0 30 -2q49 -8 103 -12q18 -2 28.5 -9.5t30.5 -29.5q8 -10 33 -35q6 -16 -8.5 -54t-42.5 -106q-29 -61 -33 -73l-27 -56q-27 -47 -26 -67l43 -6q33 -4 45 -9q98 -23 207 -110 q29 -29 67.5 -97.5t32.5 -91.5q-6 -16 -10 -59q-4 -59 -17 -94q-49 -115 -135 -210t-192 -147q-37 -20 -62.5 -31.5t-54.5 -15.5q-45 -18 -81 -26.5t-93 -5.5q-18 2 -41 2h-23.5t-68.5 12q-20 6 -40 20.5t-26 34.5q-4 10 -15 35t-9 45q2 6 5 23.5t9 31.5q41 113 131 317 t113 240l80 179q4 12 98 217l24 55q-53 4 -65 4q-35 0 -102 -10q-115 -20 -244 -62q-20 14 -45 25q-4 16 -9.5 33.5t-9.5 34.5zM514 113h113q14 0 91 25.5t99 37.5q141 92 201 178q43 70 72.5 132.5t29.5 97.5q0 12 -2 16q-8 39 -25.5 68.5t-56.5 44.5l-41 16 q-66 31 -106 33q-16 10 -54 9t-44 -1q-10 -14 -41 -80.5t-41 -91.5q0 -10 -11.5 -26.5t-13.5 -26.5q-53 -133 -102 -240q-35 -78 -47.5 -112.5t-20.5 -79.5z" />
<glyph unicode="&#x42b;" horiz-adv-x="1355" d="M168 117q0 63 33 180q16 66 14 55q33 119 86 246q51 150 107 279l84 192q27 63 98 197q18 33 20 37q6 10 21.5 40.5t23.5 59.5q2 18 10.5 27.5t17.5 15.5t15 12q23 -2 39.5 -11t31.5 -21.5t24 -18.5v-28.5t-3.5 -34t-13.5 -27.5q-111 -193 -127 -234q-4 -12 -41 -82 q102 -8 197.5 -89t157.5 -175q47 -76 47 -174q0 -74 -27 -146.5t-63 -123.5q-25 -31 -89.5 -90.5t-140.5 -110.5t-135 -65l-98 -23q-25 -4 -35 -4q-25 0 -66 8q-104 25 -188 109zM315 164q18 -18 46 -25.5t32 -9.5q7 -2 23 -2q43 0 96 22.5t96 53.5q55 33 120 89t95 114 q59 100 54 192q0 70 -15.5 112t-62.5 95q-29 33 -85.5 61.5t-138.5 61.5q-25 -53 -53 -131q-12 -25 -50 -122t-40 -104l-18 -57q-63 -197 -99 -350zM1110 96q0 8 4 33q18 84 131 406.5t139 359.5q14 20 19 49q4 16 35.5 99t42.5 112l22 55q4 12 21 78q31 18 55 19 q39 0 82 -54q6 -27 -7.5 -63.5t-15.5 -42.5q-35 -92 -79 -193q-121 -291 -140 -333q-14 -41 -42.5 -122t-47.5 -137q-33 -100 -57 -202q-29 -102 -37 -123q-15 -6 -35 -6q-29 0 -72 16q-18 25 -18 49z" />
<glyph unicode="&#x42c;" horiz-adv-x="913" d="M223 119q4 8 19 57q2 8 5 21.5t7 23.5l176 475l49 133q29 76 84 218.5t64 156.5q8 20 14 35.5t10 28.5q20 68 49 102q12 18 43 14q61 -12 82 -51q-8 -39 -18 -62.5t-37 -68.5v-4q0 -16 -16 -37q-59 -115 -103 -237q10 -2 40 -7.5t57 -15.5q72 -27 101.5 -42t70.5 -56 t59 -88t26.5 -89t12.5 -59q0 -104 -25 -159q-43 -102 -100 -181.5t-145 -146.5q-47 -39 -96.5 -66.5t-76.5 -31.5q-45 -19 -108 -19q-57 0 -107.5 15.5t-72.5 39.5l-29 33q-23 25 -31 38t-4 30zM369 129q0 -4 4 -16l94 -37l47 14q6 2 32.5 10.5t47.5 24.5q51 33 116.5 97.5 t94.5 101.5q45 74 65.5 123t20.5 114q0 57 -17 121q-14 55 -61 78q-39 27 -111 45q-4 2 -20 5t-27.5 11t-15.5 23q-33 -6 -90 -180l-19 -50q-18 -47 -40.5 -110.5t-38.5 -106.5q-4 -10 -19 -53q-14 -41 -34.5 -107.5t-26.5 -91.5z" />
<glyph unicode="&#x42d;" horiz-adv-x="991" d="M178 164q-6 10 15.5 38.5t31.5 33.5l56 -31q0 -33 29.5 -64.5t66.5 -46.5q6 -6 40 -10t48 -4q68 2 145.5 68.5t124.5 132.5q51 74 78 122q6 16 49 99q6 12 11.5 21t9.5 18q25 43 24 67q-18 6 -47 6q-37 0 -127 -12t-127 -12q-23 0 -33 2q-23 10 -34 30.5t-19 53.5 q-2 6 -2 18q0 27 25 37h155q16 2 67.5 8t90.5 6q45 0 82 -12l6 -2q6 0 12.5 5t8.5 14q2 18 6 31.5t6 23.5q16 70 14 104q6 57 6 119q2 14 2 35.5t5 56.5q0 37 -14.5 75t-45.5 50q-23 8 -63.5 19.5t-53.5 13.5q-6 4 -22 4q-37 0 -83 -29.5t-85 -66.5q10 -8 12 -16.5t-6 -10.5 q-33 -6 -49 -29q-10 -10 -29 -10q-29 0 -35 23q-2 14 -10 34.5t-8 28.5q0 18 18 39q66 82 166 141q4 2 25.5 6.5t30.5 12.5q4 4 10 4q4 0 12 -1t12 3q18 -6 84 -22q68 -16 107 -35t88 -76q33 -35 52.5 -104.5t19.5 -139.5q0 -35 -7 -63q-2 -4 -6 -60q-10 -147 -22 -170 q-2 -29 -23 -82q-16 -45 -20 -69q0 4 -36 -76t-50 -115q-45 -100 -118 -198.5t-148 -159.5q-39 -31 -86.5 -55.5t-69.5 -22.5q-12 2 -39 2l-57 -2q-33 0 -92.5 23.5t-69.5 33.5q-16 14 -51 48t-49 51q-10 8 -10.5 23.5t-4.5 21.5z" />
<glyph unicode="&#x42e;" horiz-adv-x="1470" d="M168 16q0 6 4 23q2 10 26.5 182t59.5 250q14 74 59 209q14 35 23 63q6 29 66 177q45 121 47 129q2 16 54 120.5t75 141.5q49 90 84 121q27 -2 39 -9.5t27.5 -24t25.5 -26.5q4 -12 -27 -70.5t-65 -119.5q-72 -127 -82 -152q-4 -10 -47 -109.5t-60 -158.5q18 -12 39 -12 q31 0 84 22q57 20 78 21q55 10 78 10q31 0 50 -9.5t42 -31.5q20 -2 32.5 17.5t28.5 60.5q23 59 41 84l31 53q106 184 162 254q66 86 186 135q23 12 45 12q27 0 45.5 -17.5t24.5 -49.5q18 -6 48 -15.5t47 -16.5t32 -22q27 -12 50.5 -49t33.5 -75.5t2 -51.5q4 6 -8.5 -86 t-24.5 -139q-14 -98 -111 -315l-24 -58q-43 -76 -104.5 -164t-110.5 -129q-80 -68 -140.5 -103.5t-115.5 -35.5q-47 0 -81 14.5t-73 40.5q-41 31 -67.5 90.5t-26.5 104.5q0 18 6 31q-2 4 -2 20q0 45 25 156q14 68 14 76q14 23 24.5 59.5t4.5 46.5q-16 14 -51 15 q-53 0 -142 -33l-80 -29q-43 -16 -81.5 -28.5t-69.5 -14.5q-18 -18 -24.5 -53t-8.5 -43l-20 -82q-10 -41 -31 -130t-19 -85q0 -14 -8 -55q-8 -49 -6 -72q2 -18 -6 -51q-6 -27 -6 -54q0 -31 -37 -30q-31 0 -55 18q-29 24 -29 53zM897 309q0 -117 66 -151q45 0 90 17.5 t69 41.5l82 84q59 57 94 101t84 137q43 72 59.5 112.5t31.5 93.5q14 61 38 125q23 61 28 120t5 140q2 31 -17.5 53.5t-43.5 18.5q-8 -2 -28.5 -5t-37 -10t-26.5 -20q-20 -23 -43 -26q-4 0 -14.5 2t-18.5 13t-23 32q-41 -29 -54 -43.5t-50 -65.5q-43 -59 -79 -127.5 t-42 -81.5q-90 -168 -141 -368q-29 -119 -29 -193z" />
<glyph unicode="&#x42f;" horiz-adv-x="1122" d="M193 16q20 27 30 33q29 18 121 98t137 123l107 107l45 45q27 25 47 48.5t51 64.5q-49 12 -99 36.5t-69 46.5q-82 90 -82 228q0 102 41 196q18 53 38 80t52 58q43 43 52 53q55 55 118.5 87t161.5 66q29 8 64 23q29 4 95 8t101 6q31 -12 40 -20t20 -14l39 32q6 -4 31.5 -16 t44 -31.5t22.5 -46.5q-53 -127 -88 -218t-82 -232q10 18 -19 -62q-6 -18 -31.5 -98t-23.5 -94q0 -14 -10 -26.5t-14 -21.5q6 -37 -46 -202q-16 -68 -43.5 -194t-29.5 -152q0 -6 -6.5 -22.5t4.5 -27.5q-23 -51 -19 -67q0 -37 -14 -46t-35.5 -8t-30.5 1l-63 61q2 37 14 100 q10 45 10 64q2 6 8.5 33.5t12.5 69.5t4 71q10 4 20.5 15.5t12.5 23.5l24 113q4 2 21.5 69.5t26.5 93.5q6 35 10 43q-8 10 -21 2q-37 -25 -67 -34q-23 -39 -84 -117q-43 -49 -66 -86q-18 -29 -155.5 -158t-163.5 -155l-95 -89q-37 -41 -104 -53q-39 31 -47 42t-18 50z M604 815q0 -33 5 -54.5t18 -45.5q2 -8 6 -17.5t8 -21.5q2 -12 23.5 -20.5t46.5 -8.5q10 0 30 4q18 6 58.5 18.5t73 26t61.5 31.5q25 12 49 12q37 0 59 -22l19 53l26 78q84 246 74 211q10 39 27 78q23 61 49 151q-14 20 -61 21q-33 0 -99 -13q-127 -25 -257 -110.5 t-179 -200.5q-20 -49 -29.5 -89t-7.5 -81z" />
<glyph unicode="&#x430;" horiz-adv-x="894" d="M172 170q0 33 32 111.5t83 171.5q12 12 31.5 42.5t25.5 34.5q0 8 6 15.5t15 7.5v12q0 18 67.5 89t110.5 98q51 35 104 34q37 0 64 -20q10 -12 94 -88l76 -68l-37 -102q-18 -55 -19 -100q0 -78 45 -150q10 -23 41 -43t62 -25q45 -8 45 -45q0 -41 -37 -49q-8 -2 -25 -2 q-121 0 -208 170q-8 12 -21.5 45t-15.5 45q-12 -16 -30.5 -38.5t-35.5 -39.5q-223 -223 -352 -223q-41 0 -74 21q-6 12 -19.5 25.5t-13.5 17.5q0 23 -10 35q-4 4 -4 18zM293 188q0 -10 21.5 -6t53 20.5t64.5 43.5q176 152 254 264l45 74q-20 43 -42.5 62.5t-41.5 19.5 q-43 0 -135 -107.5t-168 -253.5q-18 -35 -32.5 -70.5t-18.5 -46.5z" />
<glyph unicode="&#x431;" horiz-adv-x="630" d="M197 215q0 39 10 85t10 52q-2 16 8.5 36t14.5 28q43 84 73.5 133t87.5 113q6 4 20.5 16t27.5 16l47 -35q10 -14 10 -26q0 -6 -4 -23q-12 -37 -23 -51q-25 -23 -42 -50.5t-32.5 -57t-23.5 -45.5q0 -12 -15.5 -31t-15.5 -31q0 -18 -12 -59q-12 -27 -12 -68l2 -59 q20 -8 26 -8q16 0 35 18q41 33 58.5 59.5t31.5 65.5q6 10 11.5 23.5t13.5 27.5q23 43 40 113.5t17 115.5q0 18 -2 25v4l2 25q0 14 -12 24q8 8 8 35q0 20 -5 44t-11 34q-6 102 -6 166q0 86 12 149q2 8 26.5 44t42.5 55q35 29 94.5 47t104.5 14q-2 -2 21 -2q51 0 118 6 q23 4 38.5 9t49.5 26q8 6 13.5 7t13.5 -1l55 -47q-2 -59 -29.5 -86t-101.5 -35l-30 2q-8 0 -25 -4q-4 -2 -10 -2q-8 0 -18.5 3t-18.5 3q-16 0 -34.5 -3t-37.5 -3q-18 0 -26 2q-82 -25 -119 -59.5t-37 -110.5q4 -41 16 -110q18 -92 19 -156q2 -12 6 -23.5t4 -17.5 q0 -10 -6 -16q10 -51 10 -89q0 -45 -12 -69q-2 -12 -5 -53t-22 -78q-55 -113 -103 -181.5t-118 -115.5q-12 -8 -39 -14.5t-43 -10.5q-12 6 -40 21.5t-42 27.5q-66 59 -65 156z" />
<glyph unicode="&#x432;" horiz-adv-x="618" d="M193 188q0 10 4 23q39 225 63 285l33 79q10 33 6 74v8q0 27 20 45q35 27 56 70q14 35 45 94.5t45 77.5q23 31 41 60q4 6 29.5 43.5t58.5 64.5q39 66 154 158q49 41 61 53q6 6 37 13t39 10q16 4 55 14q12 6 46 -9.5t50 -33.5q33 -57 33 -90q0 -27 -12.5 -59.5 t-46.5 -106.5q-74 -147 -269 -281q-74 -66 -166 -114q-68 -35 -110 -50q-33 -10 -47 -47q-8 -18 -13.5 -44.5t-13.5 -35.5q-12 -12 -40.5 -137t-28.5 -170q0 -16 4 -28.5t18 -18.5q29 6 46.5 19.5t43.5 44.5q57 72 82 137q6 18 12.5 48t14.5 46q0 72 -2 93.5t-15 51.5 q10 6 17.5 13.5t19.5 5.5q47 -10 96 -57q14 -14 9 -35q-8 -66 -9 -94q-6 -14 -20 -64q-2 -27 -12 -51q-37 -76 -54 -103q-45 -84 -122 -143l-68 -41q-6 0 -40 -1t-64.5 14.5t-51.5 48.5q-14 27 -24 61.5t-10 58.5zM477 762q11 -2 25 -2q20 0 35 20q150 98 253 191.5 t128 158.5q8 16 22 42t18 49l-8 57q-59 -27 -93 -50.5t-85 -74.5t-154.5 -184t-140.5 -207z" />
<glyph unicode="&#x433;" horiz-adv-x="573" d="M168 49q-2 33 15.5 105.5t33.5 111.5l113 338q4 10 4 41q-2 6 -2 19q0 23 12 43t18 32l17 -2q6 0 17.5 1t19.5 -3q18 -4 95 10.5t99 26.5l74 2q25 0 37 -2q49 0 98 -63l-28 -41q-156 0 -207 -19q-16 -6 -56 -10q-39 -4 -55 -10q-14 -14 -31.5 -75.5t-21.5 -78.5l-14 -43 q-43 -121 -44 -119q2 23 -21.5 -50t-35.5 -118q-23 -92 -51 -143l-39 2q-14 14 -47 45z" />
<glyph unicode="&#x434;" horiz-adv-x="722" d="M225 301q0 43 16.5 84t45.5 98q18 51 82.5 126t136.5 110q57 31 98 31q25 0 47 -9q25 -6 37 -19t19 -17q16 16 29.5 74.5t13.5 125.5q0 127 -43 185q-68 96 -158 96q-35 0 -86 -21q-27 12 -45.5 41t-9.5 56q47 39 90 47q41 8 59 8q35 0 61 -17q102 -33 157.5 -94t77 -145 t26.5 -211q2 -18 2 -49q0 -27 -7 -94q-12 -16 -14 -41t-2 -29q0 -41 -8 -59q-2 -27 -16.5 -58t-14.5 -43q-59 -168 -171.5 -301t-244.5 -164q-10 -4 -53 17.5t-63 44.5q-20 25 -31.5 45t-11.5 47q-12 29 -15.5 58.5t-3.5 76.5zM348 258q0 -37 11.5 -69.5t31.5 -43.5 q29 -12 99.5 46.5t117.5 125.5q12 18 39 70.5t39 79.5q23 61 23 111q0 35 -13 47q-16 16 -43 16q-51 0 -125 -51q-25 -18 -48 -50t-29 -40q-20 -33 -33 -47v-4q0 -14 -11.5 -24.5t-15.5 -16.5q-23 -43 -33 -87.5t-10 -62.5z" />
<glyph unicode="&#x435;" horiz-adv-x="665" d="M217 293q0 20 4 82q6 76 50 157.5t109.5 146t129.5 89.5q33 20 59 20q14 0 28.5 -2t31.5 -4q45 -6 68.5 -17t39.5 -34q51 -51 51 -119q-8 -49 -63 -112.5t-133 -102.5q-37 -12 -84 -12q-63 0 -102 27q-18 6 -29 6q-18 0 -27.5 -24.5t-17.5 -90.5q-2 -14 -2 -41 q0 -104 69 -115q47 -10 68 -10q25 0 55 17l39 22q12 6 22.5 16.5l18.5 18.5q4 4 12.5 13t15.5 12.5t13 3.5q8 0 18.5 -9.5t16.5 -13.5q18 0 8 -25.5t-44 -59.5t-77 -60q-51 -45 -123 -45q-51 0 -97 24.5t-77 67.5q-27 33 -39 73.5t-12 100.5zM406 512q10 -18 79 -18 q47 0 78 12q35 14 71 51t36 61q0 25 -18.5 41.5t-51.5 16.5q-25 0 -37 -4q-29 -8 -67.5 -44t-67.5 -73t-22 -43z" />
<glyph unicode="&#x436;" horiz-adv-x="1097" d="M78 68q0 35 31 49q27 20 75.5 65t94.5 88q18 16 50.5 43t51.5 39q23 23 53 45q45 37 62 54l-31 53q-6 8 -23.5 39.5t-38.5 54.5q-10 14 -55 94q-4 8 -11 19.5t-15 25.5q10 31 47 31q25 0 49 -12q49 -45 76 -117q27 -41 44 -66.5t27 -42.5q16 -23 62 -94q10 53 28 131 q12 47 27 119q8 33 8 51l-2 17v6q0 20 6 28q2 8 8.5 14.5t16.5 6.5q6 0 18 -8q90 -59 76 -119l-27 -111q-35 -164 -38 -168l20 -4q104 68 150 105q37 29 107.5 94.5t111.5 108.5q20 18 26 22t29 8q25 -16 45 -39.5t25 -44.5v-6q0 -16 -11 -26q-34 -29 -109 -93.5t-108 -95.5 l-151 -123q0 -23 5 -36t16 -30.5t16 -25.5q33 -57 90 -110.5t67 -63.5q10 -18 -6 -26.5t-40.5 -11.5t-35.5 -7q-47 6 -103 75.5t-75 121.5q-31 39 -44 63.5t-30 73.5q-23 -25 -41 -68q-8 -29 -26 -71q-27 -63 -21 -64l2 -20q0 -16 -5 -25.5t-23 -28.5l-56 -2 q-35 23 -45 47.5t-10 55.5q8 16 35 70.5t39 107.5q-12 0 -60 -10q-20 -20 -37.5 -37t-33.5 -31q-76 -66 -127 -117q-86 -78 -125 -135q-12 -16 -37 -16q-14 0 -49 10z" />
<glyph unicode="&#x437;" horiz-adv-x="559" d="M-225 -446q0 14 9 40.5t23 45.5q88 104 248 159q4 2 17.5 8.5t25.5 6.5q6 0 10.5 7t8.5 10t12 -3q6 2 15.5 9t21.5 3q2 -2 66.5 17.5t89.5 27.5q4 53 4 82q0 90 -35 121q-20 20 -35.5 58t-24.5 55q10 37 43 51q66 33 159 108.5t157 163.5q25 35 24 62q0 53 -75 61 q-76 0 -199 -102q-16 -4 -21 -4q-33 0 -49 55q4 20 14.5 35.5t30.5 38.5l27 35q12 6 34.5 21t38 23.5t36.5 8.5q8 0 24.5 5t26.5 5q96 -4 151 -74q49 -63 49 -125q0 -70 -69 -188q-43 -66 -227 -188l-44 -31q25 -31 52.5 -109t27.5 -129q0 -12 -4 -28q16 -4 54 3t49 7 q8 -8 23.5 -22.5t23.5 -26t8 -21.5v-6q0 -10 -7 -18.5t-18 -10.5q-10 -2 -34 -2q-27 0 -57.5 -2t-55.5 -12q-14 -20 -28.5 -50t-20.5 -44q-29 -68 -61.5 -121t-94.5 -105q-27 -23 -53.5 -39t-40.5 -16q-68 -23 -121 -22q-96 -1 -166 69q-18 45 -24.5 54.5t-38.5 42.5z M-135 -477q25 -31 51 -31q1 -4 21 -4q33 0 77.5 10t77.5 29q61 37 125 131q27 41 37 76q-6 6 -16 6q-14 0 -35 -10.5t-27 -12.5q-8 -4 -19.5 -9t-27.5 -11q-59 -20 -121.5 -54t-93.5 -71q-20 -27 -49 -49z" />
<glyph unicode="&#x438;" horiz-adv-x="757" d="M229 203q0 23 7 49q4 76 21 145.5t67 177.5q66 129 94 173q10 4 26 4q20 0 34 -12.5t16 -32.5q6 -8 6 -23q0 -51 -62 -168q-80 -193 -80 -266q0 -43 25 -51q10 -6 23 -6q51 0 122.5 69.5t137.5 222.5q29 70 34 144q-2 6 -2 18q0 37 37 60q8 12 22.5 19t18.5 -1l33 2 q6 2 12 -11.5t13 -17.5q14 -12 14 -45q0 -68 -60 -207q-39 -82 -52 -126t-15 -84q0 -78 59 -130q20 -14 24.5 -30.5t2.5 -44.5q-4 -18 -23.5 -29.5t-42.5 -11.5q-27 0 -47 14q-48 47 -73 139q-4 12 -4.5 43t-0.5 43q-12 -31 -45 -55q-47 -47 -94 -70q-72 -47 -117 -47 q-41 0 -77 45q-27 23 -40.5 45.5t-13.5 55.5z" />
<glyph unicode="&#x439;" horiz-adv-x="854" d="M229 229q0 86 36 209t84 212t85 89q31 0 57 -67q6 -12 6 -21q0 -14 -16 -28q-31 -39 -72 -139.5t-64.5 -186.5t-8.5 -86q29 0 67.5 22.5t77.5 59.5q39 39 69.5 83t75.5 120q86 137 95 159q31 57 44 75t34 24h28q12 -2 29 -19q14 -6 17 -13t3 -20l-32 -75l-19 -43 q-2 -8 -22 -47q-47 -104 -72 -168t-37 -131q-2 -10 -2 -35q0 -61 12 -86q18 -37 37 -54q10 -8 10 -16q0 -14 -23.5 -28.5t-33.5 -14.5q-14 -8 -37.5 6.5t-46.5 42.5q-16 27 -19 55.5t-3 118.5q0 20 -9 21q-6 0 -28.5 -19.5t-55.5 -52.5q-53 -51 -98 -79.5t-74 -26.5 q-23 0 -48 30.5t-40 71.5q-6 25 -6 57zM492 1047q0 14 8 31q4 8 16.5 12t20.5 2q27 -10 41 -25.5t18 -38.5q6 -14 6 -28q16 -51 46 -51q6 0 30 8q86 35 129 78l86 79l2 2q8 4 15 5q14 0 20 -7q10 -12 12 -22t2 -20.5v-16.5l-2 -4q4 -12 -20.5 -48t-54.5 -59 q-39 -31 -129 -75q-14 -8 -37 -10.5t-33 -4.5q-125 -14 -172 170q-4 16 -4 23z" />
<glyph unicode="&#x43a;" horiz-adv-x="755" d="M193 160q0 23 10 49q4 18 28.5 85.5t38.5 108.5q10 27 34 91.5t26 76.5q6 27 37 76q41 72 51 119q4 14 21.5 27.5t35.5 13.5q23 0 37 -23q4 -2 12 -5t13 -9q20 -20 20 -47q0 -14 -10 -35q-14 -27 -31 -51q-27 -45 -44 -82t-40 -104q53 12 69.5 21t55.5 52q37 37 70 66 q125 121 133 131q16 25 28.5 38t32.5 19q29 -4 40 -10t50 -37q8 -8 9 -29q0 -39 -23 -55q-6 -4 -80 -63q-150 -125 -254 -197q45 -72 88 -160q4 -49 35 -67.5t86 -18.5q16 -8 21.5 -20t6.5 -26.5t3 -22.5q-18 -12 -36.5 -29.5t-31.5 -17.5q-14 0 -45 12q-28 10 -53 29.5 t-51 50.5q-25 29 -96.5 145.5t-79.5 130.5q-6 -16 -15.5 -35.5t-13.5 -35t-4 -39.5q-20 -29 -31.5 -73t-17.5 -63q-12 -45 -54 -73q-37 2 -71 45q-10 18 -10 41z" />
<glyph unicode="&#x43b;" horiz-adv-x="724" d="M53 68q0 14 9.5 22t13.5 12q6 8 27.5 12.5t27.5 10.5q8 6 41 28.5t58.5 46t41.5 48.5q53 76 113 180q18 35 48 95.5t34 78.5l-64 21q-4 4 -12 16t-9 20.5t-1 18.5q0 25 5 35t22 12q63 12 104 18q61 8 92 17q25 6 55 6q53 0 97 -18q31 -12 53 -50q29 -39 29 -77 q0 -14 -2 -27.5t-2 -28.5q0 -18 6 -37q-27 -98 -58 -180q-6 -16 -18 -55t-19 -68q-6 -31 -18 -57q-16 -47 -20 -76q-4 -23 -17.5 -34t-29 -18t-19.5 -9q-8 -4 -28.5 4t-34.5 22q-4 12 -5 33q0 16 9 45q37 119 100 344l23 78q6 18 6 43q0 18 -6 37q-33 12 -52 12 q-10 0 -22.5 -4t-22.5 -6q-20 -14 -24 -39q-39 -102 -80 -180t-64 -127q-8 -20 -47 -78q-25 -37 -35 -55l-22 -29q-10 -10 -35 -32.5t-35 -32.5l-63 -50q-12 -10 -44 -9t-42 1q-13 4 -34.5 27.5t-29.5 32.5z" />
<glyph unicode="&#x43c;" horiz-adv-x="1069" d="M129 184q6 2 14.5 7.5t12.5 9.5t6 10l155 227l27 39q10 20 55 78q4 10 40 55t48 52q10 6 17.5 21l9.5 19q6 33 43 33q12 0 18 -2l80 -61q-2 -8 -2 -27q0 -29 17 -86q-2 -6 -2 -18q0 -16 3 -31.5t3 -32.5q0 -12 -2 -18q0 -39 20 -39q14 0 35 20q57 72 217 232q59 59 64 65 q6 10 20 11q10 0 16 -5q29 -14 44.5 -24t37.5 -33q12 -14 13 -31q0 -10 -6 -20q-18 -43 -49 -169t-33 -177q0 -14 -3.5 -44t-3.5 -52q0 -45 9 -80q10 -39 10 -66q0 -20 -9.5 -28.5t-33.5 -12.5q-12 6 -30.5 21.5t-35.5 25.5q-4 16 -15 52t-9 65q0 10 -5 33.5t1 36.5l-2 24 q0 74 34 230q-6 8 -11 10t-13 -6q-27 -25 -78 -84q-4 -4 -16.5 -13.5t-12.5 -23.5l-73 -98q-8 -12 -31 -42t-33 -61q-6 -16 -19.5 -27.5t-15.5 -13.5q-10 4 -23.5 8t-21.5 11.5t-20 19.5q-41 39 -33 74q-2 20 -1 40.5t1 37.5q2 25 2 73q0 94 -10 117q-23 -2 -31 -6t-20 -25 q-4 -8 -23.5 -37.5t-50.5 -72.5q-31 -47 -79 -121t-46 -72q-25 -29 -41 -73q-23 -51 -45 -29q-43 23 -63 39q-18 33 -21 65z" />
<glyph unicode="&#x43d;" horiz-adv-x="843" d="M193 59l32 158q6 18 13.5 51t15.5 54l22 63q25 72 46 117l43 121q6 14 27.5 78.5t25.5 74.5q8 23 33 23q33 2 56 -15.5t25 -42.5q0 -6 -2 -19t-4 -20l-106 -260v-16q8 -6 29 -6q16 0 49.5 6t42.5 6q18 2 55 4t74 2q29 0 30 -2l23 66q33 100 70 162q2 6 8 23.5t14 39.5 q22 12 45 12q29 0 50.5 -17t21.5 -44q0 -4 -4 -21q6 27 -43 -87.5t-54 -123.5v-6q29 0 38.5 -17t7.5 -46q-18 -4 -35 -14.5t-27 -10.5q-6 0 -14 -6t-10 -14q-4 -8 -15 -64l-37 -147q-4 -14 -14 -24.5t-18 -12.5q-8 2 -32 11t-32 14.5t-16 11.5v12q0 29 10 60q16 49 33 137 q-16 6 -82 -5.5t-72 -11.5q-12 -6 -49 -6q-59 0 -84 10l-12 -6q-4 -18 -13 -41q-23 -63 -22 -94q-4 -29 -8 -47q-4 -20 -9 -61q-2 -57 -38 -58q-23 0 -50 17q-14 8 -38 32z" />
<glyph unicode="&#x43e;" horiz-adv-x="722" d="M197 279.5q0 3.5 4 6.5t6 7q12 0 8 22q-4 16 16.5 72.5t51.5 104.5q23 37 66.5 92t78.5 84q49 43 88 63.5t86 30.5q41 10 55 10t25.5 -7t30.5 -26q55 -25 76.5 -62.5t21.5 -117.5q0 -133 -109 -289q-47 -68 -88 -103.5t-108 -76.5q-43 -31 -79 -44t-81 -15q-24 0 -38.5 8 t-41.5 31q-68 72 -67 131q0 14 2 20q6 14 5 28.5t-1 18.5q-8 8 -8 11.5zM313 205q0 -31 15.5 -49.5t42.5 -18.5q68 0 172 111q49 55 78.5 104t56.5 125q10 35 10 84q0 61 -16 70q-20 10 -41 10q-45 0 -94 -41q-59 -51 -106.5 -126t-96.5 -185q-20 -43 -21 -84z" />
<glyph unicode="&#x43f;" horiz-adv-x="798" d="M193 104q-2 33 22.5 120t42.5 126q6 39 35 123q23 68 24 76q20 90 39 149q6 18 9.5 35t8.5 23t27 18q27 -10 45 -10q16 0 33 10q6 2 17.5 1t25.5 -1h47q49 0 64 2q20 2 57 -6t55 -8q72 -29 108 -58.5t34 -82.5q-2 -20 -4 -59.5t-17 -65.5q-2 -12 -30 -97 q-43 -111 -48 -149q-2 -8 -10 -24.5t-8 -28.5q0 -23 -7 -54.5t-20 -46.5q-16 -16 -36 -16q-29 0 -51.5 21.5t-20.5 48.5q0 49 8 122q16 16 17.5 34t1.5 22q27 66 51 156.5t24 142.5q0 20 -2 26q-49 0 -135 -6t-96 -6q-8 -2 -14.5 -9t-6.5 -14q-6 -39 -30 -102 q-4 -14 -14.5 -44t-14.5 -52q-2 -10 -31 -94q-49 -129 -51 -166q-16 -29 -16 -80q-2 -16 -14.5 -21.5t-45.5 -13.5q-14 2 -25.5 12.5t-24.5 24.5t-23 22z" />
<glyph unicode="&#x440;" horiz-adv-x="774" d="M72 -408q0 14 10 70q23 86 22 119q0 10 4.5 29.5t6.5 35.5q8 14 15 44t7 53q0 10 7.5 23.5t17.5 21.5q0 12 6 37.5t8 35.5q10 55 80 262t119 334q23 51 33 94.5t10 67.5q0 8 5 15.5t17 19.5q14 14 27 14q10 0 22.5 -8t24.5 -18q12 -18 19.5 -34.5t7.5 -35.5q0 -6 -4 -39 q0 -43 -18.5 -70.5t-14.5 -25.5q92 43 164 43q86 0 134 -55.5t48 -143.5q0 -37 -21.5 -89t-42.5 -70q-12 0 -32 -43q-27 -33 -88.5 -69t-85.5 -28q-2 0 -6.5 -2t-4.5 -10t-69.5 -30.5t-114.5 -22.5q-25 0 -37 3t-24 13q-14 -14 -15 -27q0 -23 -20.5 -82t-32.5 -59 q-2 -2 -5 -8t5 -14q0 -6 -2 -29t-10 -35q0 -18 -6.5 -50t-14.5 -48q0 -25 -7 -48.5t-15 -23.5q-12 -4 -13 -59q-2 -51 -20 -80t-43 -29l-16 -2q-16 0 -27 19q-10 14 -10 34zM360 248q0 -23 13 -23q30 0 123.5 32t130.5 62q43 37 69.5 79t26.5 85q0 33 -18 60q-14 23 -50 22 q-41 0 -97 -28.5t-103 -75.5q-37 -37 -66 -105.5t-29 -107.5z" />
<glyph unicode="&#x441;" horiz-adv-x="727" d="M211 197q-8 90 40 223t122 223q51 59 88 96t67 49q43 18 97 19q37 -8 72.5 -30.5t35.5 -45.5l10 -10q12 0 22.5 -29.5t10.5 -64.5q0 -29 -10 -49q-8 -39 -27.5 -68t-38.5 -29q-23 0 -22 -12q0 -8 -8 -8q-10 0 -24.5 12t-20.5 29q0 6 8 34.5t16 63.5q6 25 6 43 q0 41 -30 41q-16 0 -33 -8q-82 -45 -145.5 -143.5t-106.5 -270.5q-10 -45 -10 -72q0 -20 3 -32.5t7 -14.5q10 -4 43 -4q76 0 106 19q66 35 146 94q8 6 24.5 21.5t30.5 21.5q14 23 26.5 28t39.5 5q27 -8 43 -21.5t0 -21.5q-6 0 -8.5 -4.5t-2.5 -6.5q4 -10 -32.5 -51 t-81.5 -76.5t-62 -35.5q-8 0 -14 -2.5t-6 -10.5t-62.5 -37.5t-101.5 -37.5q-29 -5 -43 -5q-76 0 -125 47.5t-49 131.5z" />
<glyph unicode="&#x442;" horiz-adv-x="1042" d="M211 199q0 31 18.5 123t40.5 172q18 35 33.5 72.5t15.5 45.5q8 43 20.5 92.5t18.5 55.5q14 14 33 14q31 0 45 -33q23 -23 22 -57q0 -39 -22 -100q-35 -76 -76 -222q43 47 62 74q49 70 127 156q63 70 143 70q94 -16 108 -158q0 -25 -4 -60.5t-6 -46.5q8 12 42 53.5 t83 84.5q45 35 84 34q33 0 57 -26q43 -25 61.5 -69t18.5 -112q0 -35 -2 -55q-4 -41 -4 -51q0 -39 15 -78q8 -6 8 -18q0 -14 -9.5 -27.5t-17.5 -13.5q-39 0 -74.5 21.5t-35.5 68.5v127q0 96 -15 108q-31 16 -105.5 -67.5t-144.5 -198.5q-23 -37 -37 -57.5t-22 -20.5 q-6 0 -21 11q-63 18 -63 71q0 6 4 27q20 68 41 150.5t33 140.5q-6 12 -21 12q-20 0 -47 -20q-51 -35 -131 -166q-100 -154 -139 -187q-14 -25 -25.5 -38t-21.5 -13q-8 0 -31 12q-59 35 -59 99z" />
<glyph unicode="&#x443;" horiz-adv-x="698" d="M-98 -317q-2 14 10 30.5t27 16.5q10 0 16 -9q16 -12 48 -23t69 -11q14 0 39 4q41 8 86 49t82 90q70 102 149 256q-29 8 -55.5 40t-42 66.5t-11.5 51.5v22q-18 0 -29 70t-11 162q0 35 4 88q8 33 9 81t1 62v8q0 25 5 35t17 19q16 8 33 8q57 0 58 -152q0 -23 -5 -88 q-2 -29 -2 -86q0 -106 18.5 -188t55.5 -113l12 29q23 59 35 75q29 59 33 76q4 14 22 47l27 56q4 12 26.5 78.5t45.5 107.5q8 16 24.5 48t26.5 46.5t23 18.5q16 14 26 14q8 0 29 -12q33 -33 33 -68q0 -37 -50 -129q-16 -47 -35.5 -88t-29.5 -53l-47 -109q-31 -68 -76 -157 q-55 -115 -78 -170l-26 -43q-102 -164 -158 -230q-113 -100 -174 -117q-27 -8 -64 -8q-68 0 -128 30t-68 69z" />
<glyph unicode="&#x444;" horiz-adv-x="1112" d="M172 129q0 59 16 115q37 113 55.5 160t55.5 104q8 12 29.5 46t46.5 58q20 18 38.5 34t32.5 30q80 27 109 26q27 0 48.5 -12t51.5 -43q2 -8 2 -67l2 -68q12 -4 16.5 27.5t6.5 40.5q31 98 45 125q33 70 70 174q6 27 30 51q53 -14 78 -51q0 -61 -11 -92t-32 -64 q-23 -33 -28 -66q0 -6 -27 -63t-31 -68l148 90q10 4 37 21q31 16 51 24.5t45 8.5q18 0 28 -2q29 -4 70 -35t57 -66q17 -32 17 -75q0 -59 -29 -112.5t-92 -150.5l-125 -106q8 2 -70 -14q-59 -16 -92 -17q-39 0 -71.5 25.5t-77.5 93.5l-19 -6q-10 -23 -26 -72l-97 -293 q-23 -59 -33 -104t-28 -148q-2 -23 -6 -41t-14 -30q-6 0 -17.5 -1t-25.5 1q-29 2 -45.5 22.5t-16.5 48.5q0 31 16 50q-2 16 -2 36q0 18 2 29q14 29 21 47l25 70q92 248 106 344l-78 -64q-6 -6 -30.5 -28.5t-38.5 -30.5q-12 -2 -54 -21q-20 -14 -47 -22q-20 4 -42.5 17.5 t-35.5 31.5q-14 31 -14 82zM287 199q0 -14 12 -27q25 -2 63.5 24.5t110.5 84.5l57 45q18 14 24.5 30.5t6.5 40t4 31.5q8 28 8 102q0 68 -10 80q-47 -25 -57 -34t-68 -70q-31 -37 -51 -80q-16 -41 -61 -129q-16 -33 -27.5 -57.5t-11.5 -40.5zM688 301q12 -8 17.5 -8h9.5 q20 -45 41.5 -63.5t66.5 -18.5q55 0 102.5 28.5t71.5 57.5q25 16 56.5 67.5t33.5 65.5q3 8 12 41t9 57q0 29 -21 29q-51 -14 -83.5 -30.5t-77.5 -51.5l-119 -88q-43 -43 -82 -35q-16 -8 -23.5 -19t-13.5 -32z" />
<glyph unicode="&#x445;" horiz-adv-x="702" d="M115 147q10 14 52 58.5t89 85.5l131 129l-22 78q-37 80 -54 129q-12 16 -19 27.5t-7 19.5t16 31q23 23 35 22q10 0 29 -12q16 0 52 -68.5t36 -95.5t18 -27q20 0 80 39q23 20 36 34.5t17 18.5q25 18 77 55.5t67 43.5q10 6 16 6q25 0 47.5 -26.5t22.5 -55.5 q0 -25 -12.5 -39t-53.5 -37q-10 -8 -63.5 -47t-133.5 -106l-53 -43l33 -56q33 -66 53 -75q16 -23 81 -72t73 -49q6 0 19.5 -8.5t23.5 -12.5q25 -25 24 -55q0 -33 -24 -33q-33 0 -43 12q-12 0 -29.5 6.5t-36.5 14.5q-43 18 -125 90t-82 96q0 6 -2 8.5t-8 2.5q-2 2 -7 8t-5 14 t-6 14.5t-15 6.5q-10 -8 -42.5 -36t-67.5 -63q-66 -66 -90.5 -87t-38.5 -21q-25 0 -56.5 25.5t-31.5 49.5z" />
<glyph unicode="&#x446;" horiz-adv-x="849" d="M170 166l2 22q2 23 19.5 69t27.5 69q59 115 82 198l14 43q33 88 35 109q10 63 66 82q29 -6 69 -35q8 -8 9 -27q0 -25 -17 -80q-10 -31 -61 -151l-35 -82q-16 -43 -30.5 -82t-24.5 -70l-27 -77q-2 -4 -2 -11q0 -18 22 -30q23 -8 54 -9q41 0 87 13.5t79.5 30t33.5 22.5 q2 14 10.5 43t21.5 65.5t22 59.5l26 76l58 164q0 51 21.5 94t51.5 55h15q29 0 41 -12q4 -4 17 -15.5t20.5 -24.5t9.5 -30q-6 -8 -13.5 -32.5t-15.5 -37.5q-29 -45 -27 -71q2 4 -28 -74q-31 -72 -25 -59l-59 -158l67 8h28t41 -5t38 -17q8 0 17.5 -32t13.5 -46 q-16 -68 -117 -254q-10 -18 -39 -55q-20 -35 -49 -35q-27 0 -53 39q0 29 26 116q4 12 36 75t32 81v4q0 8 -5 12.5t-14 1.5q-4 0 -20 -7t-27 -11q-61 -29 -78 -29q-47 -23 -118 -45l-43 -14q-102 -2 -147.5 5t-74.5 28q-63 45 -63 133z" />
<glyph unicode="&#x447;" horiz-adv-x="675" d="M219 428q0 51 25 100l51 105q18 35 51 104q6 12 18.5 30.5t16.5 33.5q2 8 13.5 19t21.5 11q53 -4 76 -38q12 -14 12 -31q0 -20 -17 -39q-63 -86 -131 -231q-18 -33 -18 -66q0 -10 2 -16q33 0 94.5 45t157.5 125l49 41q47 39 82 94q18 35 63 37q31 -14 39 -19 q8 -16 17.5 -33.5t9.5 -27.5q0 -18 -29 -49q-14 -2 -56 -62.5t-65 -103.5q-6 -10 -15 -21.5t-17 -25.5l-78 -189q-2 -8 -4 -20.5t-2 -30.5q0 -16 4 -23q10 0 17 2.5t16 2.5q12 0 16 -11q10 -35 10 -43q0 -20 -28 -51q-23 -23 -43 -22q-10 0 -27 6q-48 20 -64 49 q-18 27 -18 82q0 39 2 61q2 12 23.5 80t31.5 94q-18 -4 -33.5 -14t-29.5 -21q-20 -20 -55 -40.5t-64 -30.5q-8 -4 -18 -4q-23 0 -50.5 15t-39.5 40q-10 25 -15 55q-2 10 -2 31z" />
<glyph unicode="&#x448;" horiz-adv-x="1206" d="M186 215q-6 63 23 133l49 111l31 65q66 160 117 160q25 -2 39 -14.5t28 -33t25 -32.5q-8 -39 -39 -76q-49 -47 -74 -127l-20 -45q-25 -49 -35 -75q-29 -51 -29 -74q0 -14 12 -14q35 0 119 88q33 33 33 32q39 39 63 72q12 12 50 66q47 68 67 90q37 47 49 86q8 37 51 30 q29 -16 45.5 -31.5t30.5 -45.5q8 -18 -5 -55.5t-42 -94.5q-16 -31 -25.5 -67.5t-11.5 -47.5l-10 -41l-2 -14q0 -18 14 -51q29 10 46.5 23.5t29.5 27.5t16 19q31 39 64 59q4 12 14.5 23.5t14.5 15.5q27 23 32 43l80 94q10 10 18.5 26.5t12.5 22.5q18 33 31.5 48.5t29.5 9.5 q63 -23 84 -86q0 -18 -22 -86q-4 -18 -15.5 -56.5t-15.5 -64.5q-8 -49 -8 -74q0 -33 10 -70q10 -6 25 -6q10 0 29.5 4t33.5 4q14 -20 15 -51q0 -14 -7 -45q-43 -25 -77 -22q-29 4 -41.5 12t-26.5 25.5t-27 27.5q-51 45 -59 166q-14 4 -72 -68q-74 -88 -116 -125 q-41 -37 -88 -36q-16 0 -27 2q-10 6 -45 41q-16 27 -39 41q-23 61 -27 82q-6 23 -6 40q0 18 8 33q-8 2 -20 -10t-25 -31q-4 -6 -21.5 -28.5t-37.5 -36.5q-27 -20 -84 -78q-51 -51 -72 -68h-65q-13 11 -41.5 34.5t-43 51t-18.5 72.5z" />
<glyph unicode="&#x449;" horiz-adv-x="1044" d="M217 221q-6 16 26.5 148.5t51.5 173.5q10 18 15 32.5t9 22.5q10 31 23 55q12 23 23.5 51.5t15.5 40.5q6 2 18.5 9.5t20.5 5.5q53 -8 70.5 -30.5t17.5 -74.5q-102 -152 -131 -317q-10 -23 -21.5 -73t-13.5 -77q59 -51 107 -51q31 0 75 23q10 57 37 118.5t35 79.5 q6 16 13 46t14 42q14 29 24 68t8 61q-6 27 7.5 40.5t35.5 13.5q18 0 41 -10.5t37 -26.5q6 -25 6 -49q0 -35 -18 -72q-16 -51 -50 -143t-52 -140q4 -4 20 -4q47 0 152 23q10 2 33.5 71.5t45 149.5t19.5 80q4 16 20.5 68.5t26.5 78.5q16 37 43 39q14 0 21.5 -1t14.5 -5t17 -8 q18 -8 30.5 -27.5t12.5 -38.5q0 -14 -4 -20q-12 -25 -30.5 -63.5t-20.5 -49.5l-21 -67q-39 -117 -51 -183q41 8 53 9q35 0 41 -27q0 -12 8.5 -22.5t12.5 -18.5q2 -12 2 -35q0 -37 -14 -94q-8 -33 -9 -43q2 -20 -9 -44t-15 -32q-29 -61 -63.5 -84.5t-92.5 -23.5 q-39 20 -31 61q31 31 61 100.5t30 116.5q0 20 -4 27q-39 -16 -142.5 -40t-126.5 -20q-10 -4 -44 -14t-56 -12q-37 -10 -129 -10q-27 0 -105 4q-35 0 -64.5 32.5t-68.5 92.5q-2 14 -3 34.5t-5 32.5z" />
<glyph unicode="&#x44a;" horiz-adv-x="655" d="M195 733q2 16 20 28.5t57 31.5q8 2 44 17t65 13q35 10 68 11q41 0 76.5 -14.5t58.5 -43.5v-41.5t-5.5 -47t-21.5 -50.5q-29 -53 -45 -78l-29 -49l54 4q8 2 24 2q70 0 110 -46t40 -116q0 -80 -52 -157q-8 -10 -24.5 -37t-34.5 -43q-92 -76 -138 -104.5t-110 -28.5 q-33 4 -56.5 16t-59.5 37q-6 6 -20.5 46t-14.5 75q0 10 4 24.5t4 24.5l22 94q16 45 84 160q147 223 148 254q-37 12 -43 12q-10 0 -20.5 -3l-24.5 -7q-29 -10 -59.5 -27.5t-59.5 -36.5q-49 12 -61 80zM313 94q10 -2 26.5 -4t29.5 2q49 17 88 46.5t84 86.5q49 49 49 127 q0 31 -10 62q-6 18 -18.5 24t-29.5 2l-112 -28l-21 -37q-51 -90 -53 -99q-16 -41 -26.5 -94t-6.5 -88z" />
<glyph unicode="&#x44b;" horiz-adv-x="1081" d="M225 115q0 16 2 26q4 12 6.5 23.5t4.5 21.5q4 14 11 44t13 46q37 96 41 113q41 113 66.5 174.5t46.5 91.5l45 117q37 -4 54 -15.5t42 -49.5q-2 -16 -86 -220q-57 -133 -57 -143q0 -2 24.5 28.5t67.5 65.5q45 45 131 86q27 10 47.5 13.5t26.5 5.5q47 0 78.5 -23.5 t46 -56.5t14.5 -57q10 -45 10 -78q0 -23 -6 -47q-16 -39 -45 -83t-66 -69q-29 -29 -82 -59.5t-96 -42.5q-65 -19 -94 -19q-35 0 -65 29q-6 6 -11.5 19.5t-11.5 15.5v8q0 23 29 33q20 -12 51 -13q49 0 105.5 30t86.5 75q84 100 88 172q0 18 -4 27.5t-22 31.5 q-76 -25 -115 -63q-92 -78 -126 -116t-85 -122q-33 -41 -57 -41l2 -12q0 -31 -31 -37q-45 10 -62.5 23.5t-17.5 46.5zM897 76q0 31 10.5 67.5t14.5 55.5q10 41 39 123q18 51 22 65q18 41 37 109q12 43 41 125q10 35 22 112q18 20 41 21q31 0 78 -47q10 -27 10 -45 q0 -14 -10 -39q-16 -35 -67 -183q-4 -27 -39 -125q-35 -100 -45 -141q-18 -47 -31 -131v-8q0 -27 -29 -41q-74 10 -94 82z" />
<glyph unicode="&#x44c;" horiz-adv-x="667" d="M199 188q0 55 26.5 138.5t55.5 138.5q2 18 17 45t19 39q8 27 52.5 103.5t68.5 103.5q2 25 20.5 46t24.5 32q6 -2 20.5 -8.5t31.5 -24.5q6 -10 21 -24.5t22 -35.5q0 -20 -17.5 -41.5t-21.5 -27.5q-23 -27 -35 -47.5t-21 -30.5q-14 -18 -30 -45q33 -14 45 -14 q25 2 53.5 -11.5t46.5 -17.5q33 -12 77 -58.5t54 -74.5q23 -45 23 -72q0 -10 -2 -16q-6 -18 -7 -39q-8 -12 -27.5 -40t-38 -46.5t-46.5 -34.5q-141 -84 -269 -78q-8 0 -19 -4t-19 2q-33 0 -51.5 14.5t-33 33t-20.5 26.5q-20 29 -20 69zM311 197l2 -29l23 -2q25 0 57.5 8 t50.5 12q53 8 112.5 53.5t74.5 92.5q4 12 4 20q0 31 -21 45q-6 4 -23.5 16.5t-33.5 18.5t-33 6h-4q-4 0 -22 6q-10 4 -33 5q-20 0 -31 -5q-6 -2 -20.5 -6t-21.5 -13t-7 -26q0 -4 -10 -14q-8 -8 -45 -125l-17 -53q-2 -4 -2 -10z" />
<glyph unicode="&#x44d;" horiz-adv-x="630" d="M96 104q18 18 39 19q12 0 31 -6q23 -8 47 -8q25 0 43 8q8 4 25.5 5t25.5 3q55 20 122 57t103 80q4 4 12.5 25.5t6.5 29.5q-18 0 -60 -6t-69 -12q-8 -2 -23 -2q-31 0 -49 16.5t-33 51.5q-2 4 -2 10q0 10 10.5 23.5t16.5 25.5q10 2 27 2q18 0 26 -6q8 -4 11 -4q6 0 15 5 t17 1t14.5 -5t30 2t76.5 7q27 0 33 18q8 23 8 56q0 12 -4 69q-10 31 -19.5 42.5t-29.5 25.5q-14 2 -39 2q-84 0 -111 -37q-39 -29 -78 -29q-25 0 -26 15q0 4 -5 28.5t-5 42.5q0 23 10 23q14 16 27.5 36.5t29 30t43.5 11.5q51 10 84 10q49 0 101 -20q23 -6 55.5 -34t40.5 -50 q33 -27 57 -148q-23 -156 -65 -248q-23 -51 -41.5 -75.5t-53.5 -59.5l-100 -63q-61 -39 -83.5 -49.5t-63.5 -10.5q-29 -12 -66 -11t-49 1q-59 -2 -89 25.5t-24 76.5z" />
<glyph unicode="&#x44e;" horiz-adv-x="1079" d="M193 80q8 12 8 35v51q0 16 1 40.5t-1 57.5q-6 61 47 94q25 14 38 33t21 49l33 138l-4 -21q0 -10 29 125v6q0 8 4 26.5t4 28.5q0 43 45 54q43 -14 52 -19.5t40 -40.5q0 -12 -4 -35.5t-10 -39.5q-8 -27 -33 -113q-4 -29 -17 -66q0 -4 -5 -17t-1 -28l158 25h4q8 0 21.5 -5 t23.5 -7l29 57q70 131 96 168q33 47 78 76q37 37 100 36l74 -69q41 4 53 4q29 0 49.5 -9t36.5 -30q4 -6 5 -15.5t-3 -13.5l-53 -47q8 -16 15.5 -31.5t13.5 -29.5q0 -6 -5.5 -20.5t-0.5 -24.5q10 -18 10 -43q0 -10 -2 -29.5t0 -32.5q4 -14 -12.5 -57t-20.5 -57 q-4 -18 -13.5 -35t-13.5 -23q-20 -33 -26 -51q-2 -4 -9.5 -8t-11.5 -6q-47 -53 -96 -84q-49 -35 -81 -41t-109 -6q-39 20 -52.5 29.5t-19.5 21.5q-18 25 -29 35q0 27 -20 55q2 6 2 14q0 14 -3 25.5t-3 23.5v117q-16 4 -21 4q-8 0 -18.5 -6t-18.5 -4q-29 -14 -64.5 -22.5 t-43.5 -10.5q-20 -6 -41 -16t-27 -19q-20 -20 -24 -55q0 -12 -19 -63q-20 -78 -20 -76q0 -12 -9.5 -35.5t-17.5 -28.5q-20 -14 -37 -14q-6 0 -18 4q-43 41 -53 72zM743 272q0 -39 6.5 -64.5t8.5 -37.5q2 -18 35 -18q18 0 32 6q37 16 74 51t86 106q33 63 38 88t5 99 q-2 43 -17.5 73.5t-36 58.5t-30.5 42q-12 -16 -41 -45q-29 -31 -49 -57.5t-41 -69.5q-4 -10 -10 -22.5t-12 -24.5q-27 -51 -39.5 -91t-8.5 -94z" />
<glyph unicode="&#x44f;" horiz-adv-x="743" d="M137 100q4 14 14.5 27.5t24.5 13.5q8 0 19 -6q4 0 8 -4t10 -8q68 31 114 80t103 137q-35 10 -68.5 32.5t-48.5 47.5q-18 31 -26 76t-11 51q8 18 25 76q8 33 18.5 57.5t34.5 56.5q31 41 86.5 77t77.5 36q16 -6 44 1t40 3q8 -2 14.5 -1t12.5 -1q61 -12 96 -31.5t45 -64.5 q-4 -14 -12 -50t-18.5 -65t-24.5 -53l-25 -51q-37 -74 -63 -109l4 -12q27 -6 54.5 -9.5t37.5 -5.5q25 -6 47.5 -24.5t30.5 -24.5v-8q0 -12 -8 -27q-25 -49 -39 -73q-10 -18 -24.5 -46t-31.5 -65q-6 -12 -14 -49q-14 -45 -16 -51q-23 -23 -29 -23q-2 0 -8 3t-19 3 q-29 6 -39 31q-2 8 -9 21.5t-7 23.5q0 23 21 55q10 20 26 62q8 23 29 67q4 4 6 10.5t2 12.5h-14l-62 10l-22.5 -15t-24.5 -34q-8 -8 -39 -49q-20 -33 -49 -61q-68 -72 -108 -107q-45 -33 -84 -33q-47 0 -70 27q-18 29 -31 63zM385 526q0 -41 18.5 -68.5t51.5 -27.5 q14 0 28 6q19 4 70 76t57 90q8 18 28.5 73.5t31.5 84.5q-27 18 -47 18q-6 0 -35 -8q-154 -45 -197 -192q-6 -27 -6 -52z" />
<glyph unicode="&#x450;" horiz-adv-x="665" d="M217 293q0 20 4 82q6 76 50 157.5t109.5 146t129.5 89.5q33 20 59 20q14 0 28.5 -2t31.5 -4q45 -6 68.5 -17t39.5 -34q51 -51 51 -119q-8 -49 -63 -112.5t-133 -102.5q-37 -12 -84 -12q-63 0 -102 27q-18 6 -29 6q-18 0 -27.5 -24.5t-17.5 -90.5q-2 -14 -2 -41 q0 -104 69 -115q47 -10 68 -10q25 0 55 17l39 22q12 6 22.5 16.5l18.5 18.5q4 4 12.5 13t15.5 12.5t13 3.5q8 0 18.5 -9.5t16.5 -13.5q18 0 8 -25.5t-44 -59.5t-77 -60q-51 -45 -123 -45q-51 0 -97 24.5t-77 67.5q-27 33 -39 73.5t-12 100.5zM406 512q10 -18 79 -18 q47 0 78 12q35 14 71 51t36 61q0 25 -18.5 41.5t-51.5 16.5q-25 0 -37 -4q-29 -8 -67.5 -44t-67.5 -73t-22 -43zM543 1153q0 16 6 25q41 37 59 36q16 0 27 -12q18 -10 46 -62.5t49.5 -109.5t21.5 -74q2 -10 -11.5 -29.5t-29.5 -23.5q-19 -12 -27 -12t-14 10t-15 35 q-4 6 -37 59q-37 59 -56 95t-19 63z" />
<glyph unicode="&#x451;" horiz-adv-x="665" d="M217 293q0 20 4 82q6 76 50 157.5t109.5 146t129.5 89.5q33 20 59 20q14 0 28.5 -2t31.5 -4q45 -6 68.5 -17t39.5 -34q51 -51 51 -119q-8 -49 -63 -112.5t-133 -102.5q-37 -12 -84 -12q-63 0 -102 27q-18 6 -29 6q-18 0 -27.5 -24.5t-17.5 -90.5q-2 -14 -2 -41 q0 -104 69 -115q47 -10 68 -10q25 0 55 17l39 22q12 6 22.5 16.5l18.5 18.5q4 4 12.5 13t15.5 12.5t13 3.5q8 0 18.5 -9.5t16.5 -13.5q18 0 8 -25.5t-44 -59.5t-77 -60q-51 -45 -123 -45q-51 0 -97 24.5t-77 67.5q-27 33 -39 73.5t-12 100.5zM406 512q10 -18 79 -18 q47 0 78 12q35 14 71 51t36 61q0 25 -18.5 41.5t-51.5 16.5q-25 0 -37 -4q-29 -8 -67.5 -44t-67.5 -73t-22 -43zM506 987q18 63 41 82q4 4 13 13.5t15 11.5q16 10 29 10q33 0 49 -49q14 -25 15 -39q0 -14 -8.5 -28.5t-26.5 -39.5q-35 -47 -64 -47q-16 0 -32 21 q-15 14 -25 34.5t-6 30.5zM768 987q18 63 41 82q4 4 13 13.5t16 11.5q16 10 28 10q33 0 49 -49q14 -25 15 -39q0 -14 -8.5 -28.5t-26.5 -39.5q-35 -47 -64 -47q-16 0 -32 21q-15 14 -25 34.5t-6 30.5z" />
<glyph unicode="&#x452;" horiz-adv-x="849" d="M231 952q8 41 56 45q43 2 170 45q14 4 24.5 7.5t18.5 5.5q23 4 35 32q29 82 63 166q14 25 16 37q2 14 25 37q8 4 14 4q10 0 29.5 -7t30.5 -7q18 -25 18 -51q0 -16 -10 -41l-21 -62q-16 -41 -32 -90l57 10l51 9q47 0 67.5 -10.5t35.5 -43.5q2 -2 2 -6q0 -12 -15 -35 q-8 -10 -27.5 -18t-35.5 -8q-8 0 -17 4q-4 4 -20 4q-12 0 -16 -2q-27 -12 -62 -11t-45 1q-35 -4 -41 -33l-37 -105q-45 -123 -63 -186q-78 -258 -78 -299q0 -8 4 -8q8 0 31 47q20 31 102 102.5t101 81.5q57 33 129 51q2 0 18 -3t20 3q50 -18 68 -40.5t18 -61.5q0 -12 -4 -57 l-34 -219q-12 -86 -80 -291q-18 -55 -49 -117q-4 -8 -21 -45q-29 -63 -53 -98q-4 -4 -41 -48t-49 -49q-27 -33 -62 -51t-67 -18q-23 0 -39 8q-25 12 -41.5 39t-16.5 53q0 14 2 21q2 -2 14.5 -20.5t33.5 -18.5q18 0 32 12q66 47 120 111.5t58 99.5q23 43 42.5 98.5t25.5 73.5 q10 29 41 136.5t41 150.5q12 61 12 182q-10 16 -24 16q-10 0 -21 -10q-12 -10 -33.5 -25.5t-35.5 -29.5l-189 -209q-23 -33 -37 -44t-53 -20q-20 -25 -32.5 -33t-21.5 -11t-16 -5q-45 25 -45 84q0 96 66 289q4 16 10 32.5t8 31.5q10 59 33 124.5t27 79.5q31 88 49 158 l-10 10l-111 -35q-23 -4 -61 -8q-23 23 -33 34t-17 26q-6 14 -2 28z" />
<glyph unicode="&#x453;" horiz-adv-x="622" d="M168 49q-2 33 15.5 105.5t33.5 111.5l113 338q4 10 4 41q-2 6 -2 19q0 23 12 43t18 32l17 -2q6 0 17.5 1t19.5 -3q18 -4 95 10.5t99 26.5l74 2q25 0 37 -2q49 0 98 -63l-28 -41q-156 0 -207 -19q-16 -6 -56 -10q-39 -4 -55 -10q-14 -14 -31.5 -75.5t-21.5 -78.5l-14 -43 q-43 -121 -44 -119q2 23 -21.5 -50t-35.5 -118q-23 -92 -51 -143l-39 2q-14 14 -47 45zM582 989q4 18 88 108.5t113 100.5q10 6 18 6q29 0 66 -63q8 -18 -19.5 -48t-85.5 -77q-70 -57 -86 -80q-10 -18 -20 -29.5t-19 -11.5q-8 0 -28 14q-15 13 -22 40.5t-5 39.5z" />
<glyph unicode="&#x454;" horiz-adv-x="686" d="M170 240q6 66 15.5 112.5t29.5 87.5q74 143 170 238q18 23 39 24q33 29 64.5 42.5t72.5 17.5q10 4 22.5 7t18.5 3q16 -4 49 -11t54.5 -20.5t50.5 -42.5q27 -31 34 -62.5t9 -107.5q2 -43 -41 -71l-13 12q-6 4 -17 6t-17 8q-8 8 -18.5 24.5t-20.5 29.5q12 31 19 61.5 t9 34.5q-2 16 -13 22.5t-28 1.5l-10 -8q-63 0 -104 -39q-23 -8 -61 -40.5t-97 -90.5q-12 -10 -21.5 -20t-17.5 -17l80 17l82 16q10 4 31 4q20 0 34 -8q25 -14 39 -47q10 -20 11 -25q0 -6 -7.5 -16t-19.5 -23q-6 0 -17.5 -1t-17.5 1l-80 -10h-143q-12 -8 -16.5 -19.5 t-8.5 -30.5t-10 -30q-2 -43 1 -69.5t20 -53.5q16 -6 45 -6q35 0 49 6q33 12 89 43t83 52q14 8 57 47q6 -2 15 -2q8 0 12 1t6 1q37 -37 55 -51l2 -21q0 -49 -43 -74l-47 -26q-47 -33 -82 -45q-18 -4 -37.5 -16.5t-33.5 -18.5q-10 -4 -43 -10.5t-45 -12.5q-28 -10 -46 -10 q-20 0 -53 14q-53 23 -67 52l-31 49q-4 6 -11 16t-16 23q0 -10 -6 26.5t-8 55.5z" />
<glyph unicode="&#x455;" horiz-adv-x="698" d="M211 82v14t6 13.5t23 3.5q35 0 110 -9q45 0 102.5 11.5t63.5 25.5q6 0 6 2q0 4 -16 21q-4 0 -18.5 7t-18.5 7q0 8 -18.5 21.5t-40.5 23.5q-59 49 -84 72.5t-19 34.5v10q-14 0 -31.5 40t-17.5 75q0 37 32 102.5t72 106.5q57 53 148.5 112.5t144.5 75.5q35 14 70 14 q33 0 55 -14q27 -16 52.5 -47t33.5 -55q0 -45 -9 -87t-28 -42q-2 0 -6 -2.5t-4 -10.5t-8 -21.5t-23 -25.5q-45 -33 -73 -33q-23 0 -29 23q-4 4 -8 12t-10 8q-2 0 -7.5 7.5t-5.5 19.5q0 6 5.5 13t7.5 10q12 0 40.5 48t28.5 64q0 12 -3 14.5t-19 2.5q-160 -72 -199 -109 q-6 -12 -9 -16t-11 -4q0 18 -109 -140q-4 -4 -9 -24.5t-5 -34.5q-4 -16 -4 -19q0 -8 7 -16t19.5 -17.5t24.5 -19.5q106 -80 148 -120t50 -66q27 -41 27 -74q0 -25 -18.5 -43t-55.5 -35q-23 -10 -76 -17t-104 -7q-29 0 -61 4q-37 14 -72 41.5t-47 48.5z" />
<glyph unicode="&#x456;" horiz-adv-x="382" d="M199 147q0 29 10 50q0 10 4 24.5t4 18.5q-2 12 16 67q37 82 99 289q0 10 8 17.5t25 9.5q16 4 22 4q12 0 21.5 -9.5t25.5 -33.5q12 -12 12 -37q0 -39 -26 -94q-27 -59 -35 -103q-25 -55 -39 -102q-4 -12 -12 -49t-23 -60q-12 -57 -22 -79.5t-23 -22.5q-14 0 -39 29 q-28 28 -28 81zM401 981q16 2 38 36t20 56q0 8 6 15.5t14 9.5q16 10 29 10q35 0 63 -49q12 -27 13 -47q0 -18 -10.5 -38t-36.5 -50q-35 -47 -66 -47q-20 0 -45 20q-14 14 -24.5 49t-0.5 35z" />
<glyph unicode="&#x457;" horiz-adv-x="382" d="M199 147q0 29 10 50q0 10 4 24.5t4 18.5q-2 12 16 67q37 82 99 289q0 10 8 17.5t25 9.5q16 4 22 4q12 0 21.5 -9.5t25.5 -33.5q12 -12 12 -37q0 -39 -26 -94q-27 -59 -35 -103q-25 -55 -39 -102q-4 -12 -12 -49t-23 -60q-12 -57 -22 -79.5t-23 -22.5q-14 0 -39 29 q-28 28 -28 81zM291 987q18 63 41 82q4 4 13 13.5t15 11.5q16 10 29 10q33 0 49 -49q14 -25 15 -39q0 -14 -8.5 -28.5t-26.5 -39.5q-35 -47 -64 -47q-16 0 -32 21q-15 14 -25 34.5t-6 30.5zM553 987q18 63 41 82q4 4 13 13.5t16 11.5q16 10 28 10q33 0 49 -49q14 -25 15 -39 q0 -14 -8.5 -28.5t-26.5 -39.5q-35 -47 -64 -47q-16 0 -32 21q-15 14 -25 34.5t-6 30.5z" />
<glyph unicode="&#x458;" horiz-adv-x="417" d="M-164 -233q0 41 23 40q14 0 26.5 -14t12.5 -37q0 -33 15 -56.5t40 -23.5q23 -8 60.5 13.5t60.5 56.5q27 37 78 138.5t75 166.5q25 86 74 314l10 47q6 47 17.5 90t13.5 53q0 51 14 80q0 27 5.5 53.5t5.5 32.5q4 4 12 4q12 0 27.5 -7t25.5 -18q16 -16 20.5 -25t4.5 -28 q0 -29 -8 -78l-7 -63q0 -25 -20.5 -125t-38.5 -174q-10 -39 -14 -51q-12 -43 -17 -68q-2 -16 -26 -84q-25 -59 -29 -84q-6 -43 -49 -133q-16 -39 -57 -101.5t-68 -82.5q-43 -45 -111 -45q-74 0 -125 53q-23 35 -37 79t-14 77zM428 1044q0 53 43 105q29 35 66 35q25 0 49 -19 q23 -35 22 -57q0 -18 -22 -53q-37 -39 -61.5 -57.5t-43.5 -18.5q-20 0 -35 14q-18 22 -18 51z" />
<glyph unicode="&#x459;" horiz-adv-x="1038" d="M82 84q0 12 11 25.5t13 19.5q4 2 21.5 6t36.5 19q20 18 53 59q10 14 35 43q41 41 110 168q27 47 39 68q4 6 8.5 24.5t18.5 24.5q12 33 25 47q4 4 5 14t1 16q-14 12 -33.5 28t-29 30t-17.5 43l37 26q92 16 190 17q74 0 117 -33q39 -8 54.5 -36.5t21.5 -74.5l5 -20t3 -20 q0 -6 -4 -19l-10 -63l-17 -84q25 4 33 4q10 0 22 -6q8 -4 17 -4l24 2q14 2 39 -7.5t35 -9.5q8 0 21.5 -11t25.5 -11l31 -39q23 -25 33 -46.5t26 -72.5q-25 -78 -109.5 -137.5t-170.5 -85.5q-23 -6 -52.5 -6h-45.5h-13q-31 0 -55 12q-49 20 -83 63t-24 68q4 10 7.5 27.5 t5.5 23.5q12 23 22 64q8 33 17 53l22 53q12 37 21 53q6 16 21.5 60.5t24.5 82.5t9 70q0 20 -2 29h-33q-29 0 -43 -6q-16 -45 -43 -92t-33 -60q-12 -20 -32 -61q-53 -98 -86 -146q-18 -49 -76 -114q-39 -49 -47 -62q-14 -20 -38 -44.5t-34 -35.5q-20 -4 -29 -4 q-33 0 -56.5 17.5t-45.5 50.5zM676 117q0 -18 14 -29q33 -2 63.5 7t71.5 28l47 20q14 14 35 30.5t35 32t23 38.5q2 14 -3.5 26.5t-15.5 24.5t-16 22q-45 16 -64 17q-20 0 -37 -8q-4 -4 -42.5 -3t-49.5 1q-29 -80 -45 -133.5t-16 -73.5z" />
<glyph unicode="&#x45a;" horiz-adv-x="956" d="M150 121q0 51 22 119q27 104 33 135q6 25 20 61q4 16 10.5 37t6.5 43q14 27 36.5 99.5t22.5 74.5t2 15.5t49 19.5q63 -10 64 -88q-14 -20 -21.5 -39.5t-9.5 -28.5q-4 -12 -12 -27.5t-11 -37.5v-2q0 -10 11.5 -16.5t19.5 -2.5q6 6 23 6l108 -2q66 0 90 11q20 80 78 241 q8 29 15.5 41.5t25.5 22.5l12 2q20 0 46 -21q23 -23 22 -47q0 -8 -4 -24q-6 -18 -13.5 -47t-19.5 -45q-4 -12 -8 -21.5t-6 -17.5q-27 -53 -23 -101q74 -14 138 -73q53 -45 69.5 -71t28.5 -83q4 -82 -62.5 -159t-148.5 -105q-18 -6 -43 -6q-27 0 -88 10q-39 6 -45 4 q-8 -8 -21.5 -7t-17.5 1q-8 4 -25.5 17.5t-23.5 19.5q-6 16 -6 32q0 23 18 84l70 230l-88 -2q-37 -4 -48 0l-120 -23q-14 -10 -19 -24q-6 -27 -28 -105l-15 -53l-18 -102q0 -12 -13 -19q-35 -4 -59 17.5t-24 56.5zM612 94q41 -10 58 -10q16 0 37 6q53 12 112 78q12 10 41 63 q6 16 6 29q0 23 -20 43q-23 18 -64 43t-51 23q-8 6 -18 6q-18 0 -29 -21q-4 -12 -15.5 -36.5t-13.5 -38.5q0 -29 -16 -85.5t-18 -70.5z" />
<glyph unicode="&#x45b;" horiz-adv-x="878" d="M207 193q0 29 14 75l64 209q6 27 37 101l28 79q4 14 33 76l18 43q12 27 16.5 39t4.5 35q-6 6 -19 6q-8 0 -18 -2t-14 0q-8 -6 -33 -5t-43 1q-6 23 -13.5 35t-11.5 51v6q0 10 6.5 19.5t14.5 13.5q14 8 35 8q12 0 18 -2q29 -6 51 -6q33 0 88 18q29 68 47 121l25 66 q10 20 17.5 36.5t7.5 30.5q2 14 11 39t15 27q33 12 51 6q35 -10 58 -37q6 -23 -9.5 -63.5t-48.5 -112.5q-31 -61 -45 -105l11 -10q31 4 68.5 20.5t56.5 22.5q43 12 63 13q18 0 31.5 -6.5t36.5 -22.5q8 -6 8 -17q0 -10 -8 -18q-18 -20 -29.5 -27.5t-28.5 -11.5 q-217 -59 -229 -59q-29 -2 -39 -31l-57 -152q-82 -211 -111 -301q8 -12 16 -12q6 0 13 14q29 37 75 80q53 49 80 86q20 10 33.5 25.5t15.5 19.5t15.5 19.5t32.5 23.5q14 12 39.5 35t37.5 33q43 25 63.5 33t39.5 8l26 -2q8 -6 20.5 -18.5t25.5 -20.5q23 -20 24 -55 q2 -18 8 -50t4 -55q-6 -16 -12 -39.5t-16 -46.5q-2 -8 -5 -28.5t-14 -32.5l-28 -139q-6 -31 -7 -48q0 -12 5.5 -37.5t5.5 -58.5l-49 -24q-31 14 -54.5 45.5t-23.5 62.5l-2 51q0 14 2 23q6 23 6 43q8 59 24 86q4 10 6.5 30.5t8.5 28.5q10 14 17 50t7 69q0 23 -2 33 q-12 4 -20 4q-14 0 -21 -10q-4 -6 -75.5 -69.5t-149.5 -160.5l-80 -84q-18 -25 -59 -85t-47 -74q-4 -10 -22.5 -23.5t-24.5 -11.5q-20 6 -41 6q-35 4 -56 16q-20 14 -20 52z" />
<glyph unicode="&#x45c;" horiz-adv-x="806" d="M193 160q0 23 10 49q4 18 28.5 85.5t38.5 108.5q10 27 34 91.5t26 76.5q6 27 37 76q41 72 51 119q4 14 21.5 27.5t35.5 13.5q23 0 37 -23q4 -2 12 -5t13 -9q20 -20 20 -47q0 -14 -10 -35q-14 -27 -31 -51q-27 -45 -44 -82t-40 -104q53 12 69.5 21t55.5 52q37 37 70 66 q125 121 133 131q16 25 28.5 38t32.5 19q29 -4 40 -10t50 -37q8 -8 9 -29q0 -39 -23 -55q-6 -4 -80 -63q-150 -125 -254 -197q45 -72 88 -160q4 -49 35 -67.5t86 -18.5q16 -8 21.5 -20t6.5 -26.5t3 -22.5q-18 -12 -36.5 -29.5t-31.5 -17.5q-14 0 -45 12q-28 10 -53 29.5 t-51 50.5q-25 29 -96.5 145.5t-79.5 130.5q-6 -16 -15.5 -35.5t-13.5 -35t-4 -39.5q-20 -29 -31.5 -73t-17.5 -63q-12 -45 -54 -73q-37 2 -71 45q-10 18 -10 41zM684 989q4 18 88 108.5t113 100.5q10 6 18 6q29 0 66 -63q8 -18 -19.5 -48t-85.5 -77q-70 -57 -86 -80 q-10 -18 -20 -29.5t-19 -11.5q-8 0 -28 14q-15 13 -22 40.5t-5 39.5z" />
<glyph unicode="&#x45d;" horiz-adv-x="778" d="M221 229q0 86 36 209t84 212t85 89q31 0 57 -67q6 -12 6 -21q0 -14 -16 -28q-31 -39 -72 -139.5t-64.5 -186.5t-8.5 -86q29 0 67.5 22.5t77.5 59.5q39 39 69.5 83t75.5 120q86 137 95 159q31 57 44 75t34 24h28q12 -2 29 -19q14 -6 17 -13t3 -20l-32 -75l-19 -43 q-2 -8 -22 -47q-47 -104 -72 -168t-37 -131q-2 -10 -2 -35q0 -61 12 -86q18 -37 37 -54q10 -8 10 -16q0 -14 -23.5 -28.5t-33.5 -14.5q-14 -8 -37.5 6.5t-46.5 42.5q-16 27 -19 55.5t-3 118.5q0 20 -9 21q-6 0 -28.5 -19.5t-55.5 -52.5q-53 -51 -98 -79.5t-74 -26.5 q-23 0 -48 30.5t-40 71.5q-6 25 -6 57zM543 1153q0 16 6 25q41 37 59 36q16 0 27 -12q18 -10 46 -62.5t49.5 -109.5t21.5 -74q2 -10 -11.5 -29.5t-29.5 -23.5q-19 -12 -27 -12t-14 10t-15 35q-4 6 -37 59q-37 59 -56 95t-19 63z" />
<glyph unicode="&#x45e;" horiz-adv-x="737" d="M-98 -317q-2 14 10 30.5t27 16.5q10 0 16 -9q16 -12 48 -23t69 -11q14 0 39 4q41 8 86 49t82 90q70 102 149 256q-29 8 -55.5 40t-42 66.5t-11.5 51.5v22q-18 0 -29 70t-11 162q0 35 4 88q8 33 9 81t1 62v8q0 25 5 35t17 19q16 8 33 8q57 0 58 -152q0 -23 -5 -88 q-2 -29 -2 -86q0 -106 18.5 -188t55.5 -113l12 29q23 59 35 75q29 59 33 76q4 14 22 47l27 56q4 12 26.5 78.5t45.5 107.5q8 16 24.5 48t26.5 46.5t23 18.5q16 14 26 14q8 0 29 -12q33 -33 33 -68q0 -37 -50 -129q-16 -47 -35.5 -88t-29.5 -53l-47 -109q-31 -68 -76 -157 q-55 -115 -78 -170l-26 -43q-102 -164 -158 -230q-113 -100 -174 -117q-27 -8 -64 -8q-68 0 -128 30t-68 69zM422 1102q0 14 8 31q4 8 16.5 12t20.5 2q27 -10 41 -25.5t18 -38.5q6 -14 6 -28q16 -51 46 -51q6 0 30 8q86 35 129 78l86 79l2 2q8 4 15 5q14 0 20 -7 q10 -12 12 -22t2 -20.5v-16.5l-2 -4q4 -12 -20.5 -48t-54.5 -59q-39 -31 -129 -75q-14 -8 -37 -10.5t-33 -4.5q-125 -14 -172 170q-4 16 -4 23z" />
<glyph unicode="&#x45f;" horiz-adv-x="776" d="M229 -121q0 6 4 23q6 20 35 67l23 39l41 64q-14 12 -31 30q-27 23 -40 45.5t-13 55.5q0 23 6 49q4 76 21.5 145.5t66.5 177.5q66 129 94 173q10 4 27 4q20 0 33.5 -12.5t15.5 -32.5q6 -8 6 -23q0 -51 -61 -168q-80 -193 -80 -266q0 -43 24 -51q10 -6 23 -6 q51 0 122.5 69.5t137.5 222.5q29 70 35 144q-2 6 -2 18q0 37 37 60q8 12 22.5 19t18.5 -1l32 2q6 2 12.5 -11.5t12.5 -17.5q14 -12 14 -45q0 -68 -59 -207q-39 -82 -52.5 -126t-15.5 -84q0 -78 60 -130q20 -14 24 -30.5t2 -44.5q-4 -18 -23.5 -29.5t-41.5 -11.5 q-27 0 -47 14q-49 47 -74 139q-4 12 -4 43v43q-12 -31 -45 -55q-29 -29 -64 -51q-4 -8 -23.5 -41t-39.5 -55q-23 -29 -39 -62l-41 -74q-27 -53 -57 -71q-12 -4 -17 -4q-12 0 -28.5 8t-24.5 12q-27 18 -27 43z" />
<glyph unicode="&#x462;" horiz-adv-x="1017" d="M307 119q4 8 19 57q2 8 5 21.5t7 23.5l176 475l49 133l103 267l-127 -15l-25 -2q-18 0 -41 6l-20 -2q-16 0 -23.5 4.5t-17.5 16.5q-12 16 -13 29q0 12 20.5 20t72.5 18l219 33q8 20 14 35.5t10 28.5q20 68 49 102q12 18 43 14q61 -12 82 -51q-6 -33 -14 -54.5t-29 -55.5 l70 6l117 8l59 4q29 0 49 -20q25 -24 25 -47q0 -16 -13.5 -25.5t-37.5 -7.5q-51 -10 -121 -17l-43 -4q-70 -4 -160 -12q-45 -96 -76 -184q10 -2 40 -7.5t56 -15.5q72 -27 102 -42t71 -56t59 -88t26.5 -89t12.5 -59q0 -104 -25 -159q-43 -102 -100 -181.5t-146 -146.5 q-47 -39 -96 -66.5t-76 -31.5q-45 -18 -108 -19q-57 0 -107.5 15.5t-72.5 39.5l-29 33q-23 25 -31 38t-4 30zM453 129q0 -4 4 -16l94 -37l47 14q6 2 32.5 10.5t47.5 24.5q51 33 116.5 97.5t94.5 101.5q45 74 65.5 123t20.5 114q0 57 -17 121q-14 55 -61 78q-39 27 -111 45 q-4 2 -20 5t-27.5 11t-15.5 23q-33 -6 -90 -180l-19 -50q-18 -47 -40.5 -110.5t-38.5 -106.5q-4 -10 -19 -53q-14 -41 -34.5 -107.5t-26.5 -91.5z" />
<glyph unicode="&#x463;" horiz-adv-x="1005" d="M213 111q-6 8 35 90t51 92q12 12 18 43q12 43 29 59q0 10 14.5 43t20.5 43q25 86 25 117q0 23 -9 39q-6 14 -1 28.5t24 45.5l20 2q20 0 64 -19q31 -45 31 -112q0 -41 -15 -72q-33 -86 -71 -168q66 98 110.5 142t99.5 81l33 25q35 20 84 20q16 0 25 -2q33 -8 64.5 -44 t31.5 -89q0 -59 -27 -135q31 -6 48.5 -11t29.5 -16q57 -18 88 -47.5t47 -85.5q7 -19 7 -33q0 -16 -13 -28q-27 -80 -95.5 -117t-145.5 -37q-100 0 -121 45q-59 59 -60 125q0 29 13 53q2 4 32 86q43 117 54 134q4 0 14 53q2 6 -2 10t-10 2q-43 -12 -82 -43q-72 -45 -112 -84 t-77 -94q-18 -18 -58 -74.5t-58 -87.5q-12 -25 -32 -34t-40.5 -14t-26.5 -7q-12 12 -32.5 37.5t-24.5 38.5zM788 94q23 -6 41 -6q45 0 88.5 22.5t57.5 45.5q10 20 10 30q0 23 -33 31q-12 4 -36.5 11.5t-49.5 7.5q-20 0 -32 -3q-33 -47 -39.5 -68.5t-6.5 -70.5z" />
<glyph unicode="&#x46a;" horiz-adv-x="1271" d="M178 -57q0 23 3 57.5t9 58.5q18 94 44 203t42 139q33 61 53.5 93t57.5 75q86 98 173 140.5t226 44.5q-55 92 -101 208.5t-93 307.5q-18 86 -21 90q-6 59 45 59h2h46q14 0 35.5 -1t52.5 1l104 4q8 2 27 2q18 0 26 2q31 -2 81 -4t48 0q8 -4 25 -4q20 0 47 4t35 7h2 q8 0 15 -3.5t18 -3.5l16 4l4 3q4 0 10.5 -3.5t16.5 -3.5l141 11q63 -31 82 -45q-2 -6 -4 -19.5t-12 -38.5l-68 -88l-125 -162l-27 -34q-10 -12 -39.5 -48t-60.5 -67q-57 -54 -172 -189q115 -20 202 -87.5t116 -163.5q29 -92 28 -211q0 -94 -18 -183q-4 -27 -17 -69 q-2 -25 -9 -36t-27 -34h-15q-51 0 -74 14q-14 25 -14 37q0 6 8 27l35 192q12 47 10 74q6 94 -55 205q-47 84 -125 106q-16 4 -59 4q-12 2 -43 3q-8 -37 -13 -64l-10 -61q-6 -33 -41 -165t-57 -214q-10 -41 -14 -78q-6 -41 -15.5 -59.5t-42.5 -32.5q-12 -4 -16 -4q-8 0 -23 8 q-23 8 -31 17t-8 22q0 4 4 28l44 172l16 64l98 377q-133 -2 -254 -103q-27 -20 -53.5 -60t-32.5 -48q-74 -141 -112 -334q-2 -8 -12.5 -41t-10.5 -65q0 -29 -17.5 -47.5t-43.5 -18.5q-16 0 -34 8t-28 21zM711 1327q16 -78 18 -84q4 -33 10 -48t16.5 -30.5t18.5 -31.5 q2 -25 19 -66q2 -10 8 -27.5t8 -29.5q2 -20 10 -39t10 -27q4 -16 27 -74l16 -39q97 99 131.5 139t81.5 105l29 39q33 39 57 78l50 70q20 33 47 65l-133 2q0 2 -105 2h-104q-10 -4 -33 -4h-182z" />
<glyph unicode="&#x46b;" horiz-adv-x="821" d="M18 23q27 53 50 75q16 16 33.5 36t25.5 40q0 2 50 61.5t71 81.5q4 16 20 25q18 10 55 55t46 60q10 18 46 53t42 41q23 23 92 80q80 66 100 90q6 8 17.5 14t17.5 10q25 -10 27 -10q59 -6 98 -71q27 -43 48.5 -139.5t16.5 -135.5q-4 -16 -4 -27q0 -18 9 -32q4 -8 4 -68 q0 -80 -9 -96q-8 -23 -2 -37q4 -12 5 -14q0 -6 -3.5 -14.5t-3.5 -12.5q-10 -78 -79 -119q-14 -4 -21 0q-25 8 -49 25q0 4 -1 14t3 17q18 23 29.5 72.5t5.5 60.5q0 6 2 23.5t2 39.5q0 31 -6 37q-31 -8 -60.5 -28.5t-36.5 -24.5q-4 -2 -23.5 -14.5t-27.5 -32.5q-2 -4 -8 -7.5 t-8 -5.5q-8 -8 -23.5 -21t-21.5 -26q2 -6 12 -47t10 -84q2 -39 -1 -63.5t-8 -49t-9 -44.5q-12 -72 -45 -132q-12 -25 -53 -47t-78 -22q-16 0 -23 2q-45 15 -65 29q-6 4 -62 59q-4 12 -5 36.5t-7 37.5q-8 18 0 32q6 12 15.5 42t21.5 47q33 80 56.5 118.5t92.5 116.5 q-31 55 -84 57q-4 0 -20 9l-137 -187l-33 -39l-41 -10zM289 -272q0 -10 4 -17q12 -12 33 -12q14 0 30 8q29 19 48.5 61t23.5 87q0 8 4 23.5t-2 27.5q8 10 8 35l-2 59q-14 -14 -16 -20q-6 -12 -19.5 -33t-23.5 -35q-20 -25 -53 -90l-25 -49q0 -6 -5 -21.5t-5 -23.5zM375 281 q66 -23 104 -74l8 -2q14 0 21 12q33 41 74 66q6 2 16 12q27 27 67 49.5t66 24.5q6 0 14.5 4t12.5 6q0 45 -15.5 116.5t-37.5 116.5q-115 -86 -164 -137q-16 0 -75.5 -67.5t-90.5 -126.5z" />
<glyph unicode="&#x472;" horiz-adv-x="1015" d="M236 162q0 57 10 143t20 137q8 8 9 24.5t-1 20.5q-2 6 7.5 31t13.5 39q-25 8 -40 21.5t-13 23.5q4 18 28.5 50t69.5 61q51 143 99 231t108 168q88 90 138 132t112 71q80 47 114 47q6 0 19 -4q115 -25 172 -93.5t84 -211.5q18 -126 18 -189q0 -102 -37 -206.5t-133 -262.5 q-111 -217 -261 -348t-284 -131q-72 0 -131 43q-72 55 -94 87t-26 79q-2 10 -2 37zM352 133q0 -18 3 -28.5t13.5 -23.5t18.5 -28q10 -16 32.5 -26.5t47.5 -10.5q14 0 22 2q70 8 132.5 54.5t154.5 152.5q74 84 105.5 126t56.5 96.5t53 150.5q-102 -43 -145 -55.5t-68 -12.5 q-39 0 -65.5 8.5t-65.5 26.5q-6 4 -49 23q-4 2 -41 24q-59 43 -90 47q-43 -109 -75 -238.5t-36 -217.5zM506 750q55 -10 102 -41q16 -12 48 -34t51.5 -31t40.5 -9q20 0 43 8q43 6 127 41l88 31q6 2 20 2q16 61 21.5 103t5.5 100l-2 141q-2 35 -14.5 72.5t-28.5 56.5 q-31 35 -80 35q-31 0 -60 -15q-39 -16 -114.5 -95t-136 -162t-60.5 -107q0 -2 -2 -12.5t-8 -18.5q-20 -23 -41 -65z" />
<glyph unicode="&#x473;" horiz-adv-x="722" d="M197 279.5q0 3.5 4 6.5t6 7q12 0 8 22q-6 23 31 107q-6 -2 -10.5 -2t-4.5 6q-14 14 -14 33q0 12 6 18q23 27 58 33l16 4q27 41 64.5 85t66.5 69q49 43 88 63.5t86 30.5q41 10 55 10t25.5 -7t30.5 -26q55 -25 76.5 -62.5t21.5 -117.5q0 -133 -109 -289q-47 -68 -88 -103.5 t-108 -76.5q-43 -31 -79 -44t-81 -15q-25 0 -39 8t-41 31q-68 72 -67 131q0 14 2 20q6 14 5 28.5t-1 18.5q-8 8 -8 11.5zM313 205q0 -31 15.5 -49.5t42.5 -18.5q68 0 172 111q39 41 75 100q-59 -29 -90 -29q-27 0 -39 5.5t-32 19.5q-16 12 -41 27q-4 2 -33 22l-49 -104 q-21 -43 -21 -84zM430 473q18 -14 41 -37q23 -25 39 -24q12 0 31 6q23 4 71 31q14 6 30.5 13t35.5 15q10 35 10 84q0 61 -16 70q-20 10 -41 10q-45 0 -94 -41q-58 -49 -107 -127z" />
<glyph unicode="&#x474;" horiz-adv-x="1095" d="M389 575q0 20 6 35q4 6 4 23q0 12 -2 28.5t0 22.5q2 41 3 128t1 126v18q0 16 7 23q0 20 2 66.5t8 54.5q4 8 2 16q-2 25 6 78q2 12 4 27.5t2 38.5q0 8 3 21t-1 24q-2 4 -2 16q0 25 14.5 46.5t38.5 23.5q31 2 52.5 -8.5t27.5 -26.5q8 -18 8 -56q0 -18 -2 -24q-4 -14 -6 -38 t-2 -34q0 -59 -8 -71q-2 -4 -2 -13.5v-13.5q0 -14 -1 -50t-9 -63q-2 -4 -2 -12v-289l-6 -74q0 -6 -2.5 -17t-0.5 -19q6 -31 7 -127v-84q0 -27 -1 -55.5t1 -47.5v-20q0 -23 4 -33t6 -27.5t4 -29.5q6 35 22 69q16 41 19 60q10 39 31.5 110.5t36.5 112.5q20 51 146 300t142 267 q12 35 64.5 124t72.5 118q57 80 148 100q47 14 68.5 18.5t42.5 4.5q4 0 16 -1t31 1q31 0 43 -19q4 -6 15 -13t15 -17q-2 -8 -10 -35t-22 -35q-61 0 -87 -3t-69 -20q-20 -6 -55 -48t-66 -91q-8 -12 -66.5 -110.5t-66.5 -132.5q-12 -16 -66 -119q-45 -92 -57 -107 q-14 -43 -55 -125q-41 -76 -58 -125q-16 -27 -43 -96q-6 -23 -14 -41q-68 -176 -90 -254q-4 -14 -11 -32.5t-16 -36.5q-10 -2 -28 -2q-27 0 -39 2q-8 0 -24.5 10t-30.5 26q-2 2 -22.5 11.5t-25.5 27.5q-4 14 -14 42t-8 51q2 12 -4 34.5t-6 32.5l2 47q0 10 -4 35 q-10 33 -11 125q0 76 -6 88q-2 2 -2 8q0 4 2 12.5t0 14.5q-4 20 -4 28z" />
<glyph unicode="&#x475;" horiz-adv-x="731" d="M225 379v47q0 35 8 57q4 12 3.5 28.5t-0.5 27.5v10v16q0 25 8 35q2 12 2 74.5t6 68.5q27 27 49 19q37 -6 50.5 -17.5t21.5 -29.5q-2 -14 -1 -28.5t1 -27.5q0 -27 -2 -38l-6 -48q-2 -18 -6.5 -46.5t-8.5 -69.5v-119q0 -35 16.5 -93.5t34.5 -76.5q66 147 121 252l53 108 q29 55 66 99.5t59 50.5q12 4 40 14t53 6q47 -4 75.5 -14t51.5 -31q6 -14 6 -39q0 -12 -4 -28q-14 -18 -31 -19q-12 0 -27 8q-20 10 -39 11q-23 0 -51 -15q-25 -12 -40 -34.5t-23 -32.5q-20 -25 -56 -103l-24 -47q-6 -8 -8 -21.5t-5 -19.5q-6 -8 -14 -17t-12 -15 q-10 -25 -27.5 -56.5t-25.5 -48.5q-16 -35 -41 -74l-25 -41q-18 -29 -28.5 -39t-28.5 -8q-2 0 -9.5 1t-11.5 -1q-10 -8 -22 -8q-8 0 -26.5 10.5t-29.5 14.5q-4 8 -15 32.5t-13 38.5q0 16 -13 23q-4 4 -4 6q0 4 1 11.5t-3 13.5q-14 27 -26 96q-8 51 -15 67q6 10 7 17 q0 6 -6.5 20.5t-4.5 22.5z" />
<glyph unicode="&#x48a;" horiz-adv-x="1396" d="M188 49q0 23 14.5 60.5t18.5 50.5q29 98 33 133q16 74 61 217q4 16 22.5 77.5t22.5 117.5q37 63 70 155l35 88q14 31 35 96q25 74 41 109q18 35 22 43q37 74 59.5 125t24.5 88q0 25 25 25q23 0 51.5 -17.5t30.5 -27.5q8 -29 8 -48q0 -16 -6 -34l-170 -433l-187 -493 q-29 -90 -28 -131q0 -39 26 -25l414 414q68 72 133 156q14 6 180 194l88 101l261 276l38 12q23 4 45.5 -19.5t22.5 -51.5q0 -16 -4 -25l-53 -145q-211 -573 -217 -580q-29 -72 -86.5 -217t-88.5 -231q-20 -55 -43 -103q-8 -12 -26 -61h8q51 -2 105 18q27 -14 54 -55t36 -76 q-2 -4 -5.5 -14.5t-9.5 -18.5q-23 -39 -88 -100l-47 -47q-16 -20 -34.5 -40t-26.5 -28q-18 -29 -60 -59q-37 -29 -53 -49q-6 -12 -33 -23q-2 -2 -10 -2q-14 0 -20 10l-31 56q-2 29 7 50t30 48q0 -2 98 96l98 94q18 18 19 31q0 8 -6 19q-2 2 -7 2q-8 0 -16 -5.5t-10 -5.5 q-25 -14 -55 -10q-8 0 -13 2q-78 29 -78 84q0 14 2 21q2 0 80 188l78 186q152 383 154 402q10 23 20 52.5t17 43.5q27 80 43 111q18 39 32.5 74.5t14.5 60.5q-123 -133 -390.5 -421t-390.5 -417q-14 -12 -79 -71q-55 -55 -86 -78q-12 -10 -62.5 -51t-71.5 -41 q-47 8 -66.5 24.5t-19.5 42.5zM915 1673q0 18 9 33q4 8 19 13t24 1q33 -12 50 -26.5t21 -36.5q8 -14 9 -29q10 -27 21 -39t30 -12q8 0 37 8q98 33 153 78l105 80l2 2q8 4 16 4q18 0 25 -6q12 -12 15 -22.5t3 -21.5v-16l-2 -4q4 -12 -25.5 -47t-66.5 -59q-47 -33 -154 -76 q-16 -8 -43.5 -10t-38.5 -4q-145 -14 -206 170q-2 6 -3 20z" />
<glyph unicode="&#x48b;" horiz-adv-x="866" d="M229 203q0 23 7 49q4 76 21 145.5t67 177.5q66 129 94 173q10 4 26 4q20 0 34 -12.5t16 -32.5q6 -8 6 -23q0 -51 -62 -168q-80 -193 -80 -266q0 -43 25 -51q10 -6 23 -6q51 0 122.5 69.5t137.5 222.5q29 70 34 144q-2 6 -2 18q0 37 37 60q8 12 22.5 19t18.5 -1l33 2 q6 2 12 -11.5t13 -17.5q14 -12 14 -45q0 -68 -60 -207q-39 -82 -52 -126t-15 -84q0 -78 59 -130q20 -14 24.5 -30.5t2.5 -44.5q-10 -35 -55 -41q-86 -20 -86 -135q0 -23 4 -64q6 -59 -23 -94q-4 -4 -22.5 -26.5t-40.5 -37.5q-27 -16 -68 -16q-20 0 -31 2q-53 31 -65 66l-2 8 q0 10 7 17t15 7q12 0 24.5 -4t20.5 -4q14 0 27 10q31 27 41 78q2 14 10 64.5t29.5 85.5t58.5 53l33 14q-43 51 -63 129q-4 12 -4.5 43t-0.5 43q-12 -31 -45 -55q-47 -47 -94 -70q-72 -47 -117 -47q-41 0 -77 45q-27 23 -40.5 45.5t-13.5 55.5zM504 1102q0 14 8 31 q4 8 16.5 12t20.5 2q27 -10 41 -25.5t18 -38.5q6 -14 6 -28q16 -51 45 -51q6 0 31 8q86 35 129 78l86 79l2 2q8 4 15 5q14 0 20 -7q10 -12 12 -22t2 -20.5v-16.5l-2 -4q4 -12 -20.5 -47t-54.5 -60q-39 -31 -129 -75q-14 -8 -37 -10.5t-33 -4.5q-125 -14 -172 170 q-4 16 -4 23z" />
<glyph unicode="&#x48c;" horiz-adv-x="956" d="M246 119q4 8 18 57q2 8 5 21.5t7 23.5l177 475l49 133l102 267l-127 -15l-24 -2q-18 0 -41 6l-21 -2q-16 0 -23.5 4.5t-17.5 16.5q-12 16 -12 29q0 12 20.5 20t71.5 18l219 33q8 20 14.5 35.5t10.5 28.5q20 68 49 102q12 18 43 14q61 -12 82 -51q-6 -33 -14.5 -54.5 t-28.5 -55.5l69 6l117 8l60 4q29 0 49 -20q24 -24 24 -47q0 -16 -13 -25.5t-38 -7.5q-51 -10 -121 -17l-43 -4q-70 -4 -159 -12q-45 -96 -76 -184q10 -2 39.5 -7.5t56.5 -15.5q72 -27 101.5 -42t70.5 -56t59.5 -88t26.5 -89t12 -59q0 -104 -24 -159q-43 -102 -100.5 -181.5 t-145.5 -146.5q-47 -39 -96 -66.5t-76 -31.5q-45 -18 -109 -19q-57 0 -107 15.5t-73 39.5l-28 33q-23 25 -31 38t-4 30zM391 129q0 -4 4 -16l94 -37l48 14q6 2 32.5 10.5t46.5 24.5q51 33 117 97.5t94 101.5q45 74 65.5 123t20.5 114q0 57 -16 121q-14 55 -61 78 q-39 27 -111 45q-4 2 -20.5 5t-27.5 11t-15 23q-33 -6 -91 -180l-18 -50q-18 -47 -41 -110.5t-39 -106.5q-4 -10 -18 -53q-14 -41 -35 -107.5t-27 -91.5z" />
<glyph unicode="&#x48d;" horiz-adv-x="671" d="M188 801q0 14 20.5 21t74.5 14q121 12 166 16q137 313 155 336q2 25 20.5 46t24.5 32q14 -6 18.5 -14.5t14.5 -18.5q6 -10 21.5 -24.5t21.5 -34.5q0 -20 -17.5 -42t-21.5 -28q-27 -31 -121 -244q106 4 142 4h38.5t42 -5t25.5 -19q21 -22 21 -45q0 -39 -54 -33 q-61 -6 -123 -6l-141 -8l-16 -41q-49 -125 -58 -158q14 -6 84 -6q25 2 53.5 -11.5t47.5 -17.5q33 -12 71.5 -54t49.5 -73q10 -16 10 -65q0 -27 -4 -37q-6 -18 -6 -39q-8 -12 -28 -40t-38 -46.5t-47 -34.5q-141 -84 -268 -78q-8 0 -19.5 -4t-19.5 2q-31 0 -49.5 13.5t-33 33 t-20.5 27.5q-20 29 -20 69q0 55 26.5 138.5t55.5 138.5q2 18 17 45t20 39l77 194q-25 -2 -77 -2q-41 0 -66 9q-29 0 -40 5t-19 19q-10 20 -11 27zM313 203q0 -10 4.5 -23.5t4.5 -21.5q14 -2 40 -2q49 0 97 10q49 8 104 61.5t72 104.5q4 12 4 20q0 31 -21 45q-6 4 -23 16.5 t-33.5 18.5t-33.5 6h-4q-4 0 -22 6q-10 5 -33 5q-20 0 -31 -5q-6 -2 -20.5 -6t-21.5 -13t-7 -26q0 -4 -10 -14q-8 -8 -34 -86t-32 -92v-4z" />
<glyph unicode="&#x48e;" horiz-adv-x="950" d="M168 -35q0 47 70 248q14 57 30 111q14 37 15 55q0 16 5 37.5t5 29.5q25 0 45 84q8 31 14 52.5t8 33.5q4 6 9.5 18.5t9.5 22.5q16 49 39 95q25 92 58.5 193.5t55.5 150.5l25 61q2 6 9 23.5t7 25.5t-6 13q-10 6 -10 20q0 27 49 70q25 31 42.5 40t47.5 9l66 -4q25 -2 131 -2 q23 -10 53 -21q61 -20 62 -28q0 -10 7 -14.5t21 -6.5q20 0 64.5 -46t66.5 -95q15 -33 22 -54.5t7 -50.5q0 -31 -4 -49q-4 -33 -10 -63.5t-15 -38.5q-33 -25 -32 -43q0 -16 -52.5 -86t-99.5 -115q-39 -47 -102 -92q12 -35 34 -115q16 -55 17 -74q0 -16 -12 -34 q-23 -33 -48 -33q-31 0 -36 45q-20 45 -39 117l-15 45q-190 -76 -264 -72q-66 -10 -80 -17.5t-22 -33.5q-10 -27 -19.5 -55.5t-9.5 -36.5q-12 -23 -54 -152t-57 -192q-8 -27 -18 -33t-33 -6q-10 0 -21 7t-20 19q-16 12 -16 37zM475 555.5q-2 -12.5 4 -18.5q4 -4 27 -5 q27 0 71 8.5t85 24.5q51 18 88 37l-5 12q-10 41 -8 66q-6 23 -6 33q0 16 14 30q16 18 29 19q12 0 24.5 -19.5t28.5 -64.5l11 -25q74 59 131 131q12 20 49 97q16 28 31.5 73t15.5 80q0 16 -2 25q-10 53 -54 99t-102 63q-43 8 -78 8q-27 0 -61 -6q-33 -10 -48 -28.5t-40 -78.5 q-47 -90 -86 -196q-37 -137 -74 -227.5t-43 -104.5v-8q0 -12 -2 -24.5z" />
<glyph unicode="&#x48f;" horiz-adv-x="774" d="M72 -408q0 14 10 70q23 86 22 119q0 10 4.5 29.5t6.5 35.5q8 14 15 44t7 53q0 10 7.5 23.5t17.5 21.5q0 12 6 37.5t8 35.5q10 55 80 262t119 334q23 51 33 94.5t10 67.5q0 8 5 15.5t17 19.5q14 14 27 14q10 0 22.5 -8t24.5 -18q12 -18 19.5 -34.5t7.5 -35.5q0 -6 -4 -39 q0 -43 -18.5 -70.5t-14.5 -25.5q92 43 164 43q86 0 134 -55.5t48 -143.5q0 -37 -21.5 -89t-42.5 -70q-12 0 -32 -43q-16 -23 -52 -47.5t-69 -38.5q14 -33 29 -93q16 -55 16 -73q0 -16 -12 -35q-23 -33 -48 -33q-31 0 -36 45q-20 45 -39 117l-11 29q-88 -33 -147 -33 q-25 0 -37 3t-24 13q-14 -14 -15 -27q0 -23 -20.5 -82t-32.5 -59q-2 -2 -5 -8t5 -14q0 -6 -2 -29t-10 -35q0 -18 -6.5 -50t-14.5 -48q0 -25 -7 -48.5t-15 -23.5q-12 -4 -13 -59q-2 -51 -20 -80t-43 -29l-16 -2q-16 0 -27 19q-10 14 -10 34zM360 248q0 -23 13 -23 q14 0 50 9.5t75 23.5q-8 31 -6 53q-6 23 -7 33q0 16 15 31q16 18 28 18t24.5 -19.5t29.5 -64.5l6 -14q23 10 39 24q43 37 69.5 79t26.5 85q0 33 -18 60q-14 23 -50 22q-41 0 -97 -28.5t-103 -75.5q-37 -37 -66 -105.5t-29 -107.5z" />
<glyph unicode="&#x490;" horiz-adv-x="1062" d="M168 43l6 43q8 39 12 78q2 29 39 160l17 61q10 41 32 109q41 131 41 153q2 16 15 49q23 49 49 138l16 49q12 39 50 140t63 153q2 6 4 15t2 13q-33 0 -57.5 22.5t-24.5 51.5q0 25 19 45q31 16 79 16q12 0 31 7.5t33 9.5l56 7t59 5q23 6 50 6h44l184 -2q23 -10 66 -10 t51 -4q14 -6 31.5 -6h23.5q0 2 39 69q125 223 133 265q2 10 9.5 19t9.5 13q14 -4 34.5 -9t35 -12t26.5 -22v-55q-18 -27 -48 -88.5t-38 -77.5q-25 -55 -41 -86l-43 -90l-4 -10q0 -6 2 -9.5t4 -7.5q-8 -16 -28.5 -29.5t-41.5 -13.5q-8 0 -24 9q-14 8 -35 12t-31 6 q-35 8 -112 8q-10 0 -41 2t-45 8q-2 2 -7 2q-2 0 -20 -6q-6 0 -25.5 5.5t-31.5 -1.5q-23 -8 -64 -8t-53 -2q-25 -6 -40 -17.5t-24 -35.5q-10 -39 -67 -170q-53 -129 -60 -150q-82 -233 -110 -329q-59 -193 -80 -291q-2 -12 -13.5 -51t-9.5 -80q-2 -16 -7 -52t-5 -53 q0 -33 -19.5 -45t-66.5 -8q-6 4 -21.5 16.5t-22.5 27.5t-5 38zM315 119z" />
<glyph unicode="&#x491;" horiz-adv-x="638" d="M59 88q0 31 29 41l53 -12q14 10 24.5 30.5t18.5 40.5q29 66 51.5 148t28.5 100q2 10 38 137t32 160l26 45q6 0 20.5 4t22.5 0q14 -6 41 -6q18 0 44 4t42 2q8 0 25.5 5.5t32.5 0.5q20 -8 55 -7t39 1q18 14 33.5 42t25.5 42q12 16 27.5 53t13.5 60v6q0 16 11.5 26.5 t21.5 2.5q29 -10 62 -29q8 -16 8 -41q0 -41 -21.5 -86t-25.5 -57q0 -14 -33 -61.5t-60 -69.5q-27 0 -49 -2t-41 -4q-25 14 -61 14q-31 0 -76 -10q-39 -8 -65 -11q-39 -82 -60 -188l-16 -70q-31 -139 -52.5 -209.5t-68.5 -156.5q-12 -20 -33.5 -33.5t-44.5 -13.5 q-29 0 -53 18l-57 49q-8 16 -9 35z" />
<glyph unicode="&#x492;" horiz-adv-x="1026" d="M254 -6q12 82 22 117q18 59 31 127q6 31 17 75l47 97q10 55 35 116l-25 4l-25 -2q-14 0 -21 4.5t-16 14.5q-14 23 -14 28q0 14 20.5 23.5t69.5 19.5q27 8 45 11q39 100 54 135q4 12 34 92q8 23 27.5 71t32.5 74q12 27 14 39q-27 -2 -55.5 8.5t-34.5 24.5l-12 74 q18 14 84 24l43 17q23 8 71 20q285 66 316 66q10 0 34.5 1t45.5 9q2 2 48 2t66 8q12 4 42 5t44 8q4 4 19 4l35 -2q26 -15 39.5 -29t21.5 -35v-39q-10 -6 -35.5 -24.5t-42.5 -22.5q-18 -2 -47 -18q-27 -14 -47 -15q-12 0 -29 7q-8 6 -19 7t-18 1q-14 31 -30 41q-20 -8 -64 -8 q-43 0 -63 -11q-63 -4 -119 -20q-33 -8 -49 -10q-45 -8 -74 -21q-18 -37 -55 -113q-53 -111 -88 -211l-47 -126q117 23 223 34q18 2 33.5 4t27.5 2q27 0 47 -18q27 -25 27 -47q0 -14 -12.5 -23.5t-36.5 -11.5q-90 -18 -121 -20l-231 -37l-19 -49q-12 -23 -46 -127.5 t-38 -132.5q-6 -37 -18 -80t-17 -62q-4 -12 -13 -47t-11 -70q0 -6 -5 -14t-7 -14q-14 6 -68 6q-23 10 -43 39zM500 1147z" />
<glyph unicode="&#x493;" horiz-adv-x="524" d="M106 392q0 14 20.5 21t73.5 13q78 12 132.5 17.5t126.5 5.5q49 0 66.5 -4t39.5 -21q20 -23 21 -45q0 -39 -54 -33q-61 -6 -123 -6l-45 -2q-98 -6 -123 -6q-40 0 -65 8q-29 0 -40 5.5t-19 19.5q-10 20 -11 27zM119 49q-2 33 15.5 105.5t33.5 111.5l113 338q4 10 4 41 q-2 6 -2 19q0 23 12 43t18 32l17 -2q6 0 17.5 1t19.5 -3q18 -4 95 10.5t99 26.5l74 2q25 0 37 -2q49 0 98 -63l-28 -41q-156 0 -207 -19q-16 -6 -56 -10q-39 -4 -55 -10q-14 -14 -31.5 -75.5t-21.5 -78.5l-14 -43q-43 -121 -44 -119q2 23 -21.5 -50t-35.5 -118 q-23 -92 -51 -143l-39 2q-14 14 -47 45z" />
<glyph unicode="&#x494;" horiz-adv-x="1028" d="M229 23l60 215l12 57q4 16 15.5 65.5t25.5 88.5q4 16 14.5 60t22.5 73q14 41 22 71q6 25 17 58q16 55 69 211l41 112q16 43 19 53q4 14 11 28.5t26 58.5q20 59 22 65l43 117q20 43 47 59q12 6 38 5t34 -1h8h19q20 0 28 4q14 8 76 14.5t113 6.5h135q20 0 35.5 -4t30 -10.5 t30.5 -12.5q20 -8 35.5 -21.5t36.5 -41.5v-8q0 -16 -3 -27.5t-7 -13.5q-18 -10 -45 -21q-12 8 -25 21q-31 20 -60.5 20t-37.5 4t-29 4q-18 0 -27 -4q-16 -6 -53 -6q-18 0 -73.5 -1t-75.5 -9q-8 -4 -19 -4l-18 2q-39 0 -72 -25l-25 -53q-47 -98 -97 -211t-75 -193l19 11 q53 37 158 57q29 0 73.5 4t50.5 10q16 -4 30 -7t24 -5q39 -4 65 -20q10 -6 47 -31t41 -43q16 -41 17 -105q0 -47 -8 -141q-8 -14 -9.5 -34.5t-3.5 -30.5q-6 -45 -26 -109q-14 -45 -44 -124t-53 -126l-18 -39q-37 -82 -63.5 -135t-67.5 -113q-66 -92 -169.5 -197.5 t-152.5 -119.5q-10 -2 -20 -7t-17 -5l-49 10q-41 14 -47 51q2 8 17 12q29 6 52 21.5t44.5 33t30.5 23.5q47 39 104 107l29 35q37 45 92 130t57 99q39 74 59.5 121t59.5 153l49 177q37 111 37 208q0 37 -2 58q-16 18 -34.5 26.5t-51.5 8.5q-23 0 -46.5 -4.5t-31.5 -6.5 q-12 -4 -41 -8q-61 -8 -128.5 -44t-117.5 -89q-18 -20 -34.5 -69.5t-26.5 -98.5q-2 -10 -6 -21.5t-6 -17.5q-2 -8 -6.5 -20.5t-6.5 -26.5q-6 -37 -37.5 -174t-46.5 -176q-10 -25 -30.5 -38t-42.5 -9q-8 0 -27.5 12t-28.5 21z" />
<glyph unicode="&#x495;" horiz-adv-x="681" d="M193 49q-2 33 15 105.5t34 111.5l112 338q4 10 4 41q-2 6 -2 19q0 23 12.5 43t18.5 32l16 -2q6 0 17.5 1t19.5 -3q18 -4 95 10.5t100 26.5l74 2q25 0 36 -2q50 0 99 -63l-29 -41q-156 0 -207 -19q-16 -6 -55 -10t-55 -10q-14 -14 -31.5 -75.5t-22.5 -78.5l-14 -43 q-43 -121 -43 -119v4v2q-4 -4 -9 -17t-11 -34q33 43 67.5 77t44.5 38q10 6 36 20.5t48.5 22.5t44.5 8q2 0 18.5 -3t20.5 3q49 -18 67.5 -40.5t18.5 -61.5q0 -12 -4 -58l-35 -165q-6 -72 -37 -162q-18 -55 -49 -117q-4 -8 -20 -45q-29 -63 -53 -98q-4 -4 -41 -48.5t-50 -48.5 q-27 -33 -61.5 -51t-65.5 -18q-25 0 -41 8q-25 12 -41 38.5t-16 53.5q0 14 2 21q4 -2 15.5 -20.5t31.5 -18.5q14 0 33 12q66 47 120 111.5t58 99.5q23 43 42.5 98.5t25.5 73.5q10 27 22.5 81t16.5 77q12 61 12 129q-10 16 -25 16q-10 0 -20 -10q-12 -10 -45 -25 q-47 -18 -91 -49t-93 -92q-16 -68 -45 -123l-39 2q-14 14 -47 45z" />
<glyph unicode="&#x496;" horiz-adv-x="1794" d="M84 63q0 10 14 23q12 14 127 88q23 14 51.5 32.5t53.5 37.5l69 43q14 8 78 46t80 54q2 2 43 33l238 180q51 35 71 94q-10 20 -59 99t-70 108q-113 135 -106 129q-4 6 -77 111.5t-77 113.5q-25 31 -38 52.5t-15 48.5q12 20 37 20q10 0 18 -4q12 -6 42 -16t44 -31 q12 -14 29.5 -30.5t36.5 -47.5l266 -377q10 -12 39 -56t35 -56q4 -12 12 -13q8 0 18.5 14.5t14.5 18.5q-2 27 14 84l12 39q49 147 62 207q6 37 24 59q8 14 12.5 37t6.5 35q2 8 9 48t28 75q6 2 18 2q20 0 35.5 -12.5t28 -30.5t22.5 -29l2 -22q0 -27 -12 -43l-29 -97 q-4 -23 -19.5 -73.5t-31.5 -95.5q-4 -12 -8 -25.5t-8 -28.5q-6 -43 -21 -69q-8 -45 -28 -109l-17 -59q0 -2 1 -4l1 -2q8 0 35 34l82 78q270 270 348 326q133 133 223 164q13 -11 30 -24t29.5 -26.5t16.5 -31.5q-31 -57 -65 -80q-53 -27 -110.5 -72t-72.5 -57 q-39 -25 -119.5 -99.5t-121.5 -115.5q-12 -12 -59.5 -50t-88.5 -96q4 -6 21 -39q25 -53 45 -73q16 -29 64 -100.5t83 -122.5q14 -33 45 -68q29 -37 39 -57q10 -8 27.5 -28t36.5 -28l6 -2l31 2q57 0 102 -22q8 0 17.5 -32t13.5 -46q-16 -68 -117 -254q-10 -18 -39 -55 q-20 -35 -49 -35q-27 0 -53 39q0 29 26 117q4 12 36 74.5t32 80.5l2 15l-51 -7q-33 8 -72 42t-61 73q-53 76 -132 205l-73 117q-4 20 -21.5 45.5t-21.5 38.5q-4 12 -10.5 18t-18.5 8q-14 2 -24.5 12.5t-20.5 25.5t-21 28q-18 -63 -53 -146l-26 -65q-2 -6 -13.5 -21.5 t-11.5 -27.5q0 -4 -39 -121q-51 -143 -67 -199q-2 -8 -7.5 -22.5t-9.5 -21.5t-12 -11q-20 -14 -41 -14q-8 0 -21 4q-31 8 -48 36.5t-7 45.5l19 49q14 45 24 63q14 27 23.5 61.5t13.5 45.5q39 121 70 184q10 20 30 78q4 12 10.5 28.5t14.5 36.5q-80 -49 -113 -86 q-63 -63 -133 -116q-51 -39 -106 -88q-2 -6 -88 -61.5t-138 -86.5q-53 -33 -75 -51q-61 -45 -113 -70q-27 -16 -45 -16q-12 0 -30.5 9t-35.5 15q0 6 -9 20.5t-9 24.5z" />
<glyph unicode="&#x497;" horiz-adv-x="968" d="M78 76q27 25 61 59l58 51q45 43 125.5 122t136.5 136q-45 72 -78 142q-10 20 -23.5 51t-19.5 47q-4 10 -6 26.5t-6 24.5q-6 18 -7 35q0 29 17 39q8 -4 25.5 -11t29.5 -10q14 -2 24.5 -10t12.5 -10q12 -6 17.5 -20.5t11.5 -20.5q-4 -8 -4 -12t4 -12.5t6 -14.5 q23 -72 44 -126t30 -73q2 -2 6 -8t26 -22q33 98 109 299q2 4 5 13t3 15v7q0 14 7 20t15.5 9t12.5 5q49 -6 84 -51q10 -31 10 -47q0 -18 -8 -37q-31 -66 -82 -207l-31 -84h13q49 31 86 72l229 246l-12 -12q14 18 21 39.5t9 27.5q14 2 39 2h19q14 0 28 -10q25 -18 25 -39 q0 -12 -4 -18q-23 -49 -55.5 -87t-110.5 -112l-63 -61q-27 -23 -68 -53.5t-57 -45.5q-2 -4 -11.5 -6t-15.5 -4q20 -27 50 -87t56 -124q8 -16 37 -61q6 2 18.5 5t22.5 9q16 10 41 10q27 0 43 -10q16 -8 31 -35v-10q0 -23 -21 -39q-8 -10 -44.5 -28.5t-57.5 -26.5l10 -70 q8 -51 10.5 -76.5t0.5 -95.5q-2 -29 -13.5 -47.5t-26 -33.5t-18.5 -19q-4 -6 -14 -8.5t-12 -4.5q-10 -14 -48 -25.5t-49 -13.5q-10 6 -29.5 7.5t-29.5 5.5q-8 2 -26.5 7t-20.5 7q-27 20 -43.5 38.5t-26.5 43.5q-12 27 -12 55q0 12 2 19q0 4 1 20.5t6 29.5t13 21 q23 68 105 136q37 33 43 45q4 6 14 11t15 7l-29 92q-12 10 -18.5 27.5t-10.5 25.5q-8 14 -26 68q-2 8 -11.5 34.5t-23.5 47.5h-17l-34 -84q-16 -37 -26.5 -67.5t-23.5 -92.5q6 -12 7 -20q0 -12 -8.5 -22.5t-10.5 -12.5q-10 -16 -31 -8q-70 14 -86 47q4 20 2 33q-2 31 24 97 t52.5 128.5t32.5 79.5q-27 -33 -182 -180q-74 -66 -90 -86q-20 -31 -43 -50q-27 -27 -54 -57h-57q-25 18 -36 32.5t-15 41.5zM705 -303v-8q0 -16 12 -26.5t16 -12.5h41q6 4 11.5 8t11.5 8q23 12 33 32.5t15 41t7 29.5v34q0 39 -2 43l-4 11q0 4 2 12t-6 14l-47 -49 q-14 -8 -26.5 -23.5t-18.5 -21.5q-8 -10 -18.5 -32.5t-18.5 -24.5q-4 -14 -8 -35z" />
<glyph unicode="&#x498;" horiz-adv-x="1116" d="M211 258q0 25 14 45q27 41 56 59q23 12 34 13q8 0 20.5 -5t22.5 -8q16 -2 21.5 -9t10.5 -23.5t11 -28.5q-16 -25 -28.5 -38t-30.5 -21q35 -70 100 -119q27 -20 69 -34.5t73 -14.5q12 0 18 2l6 2q6 0 18.5 -4t20.5 0q8 2 36 3t50 11q133 39 223 154q35 47 48.5 87t15.5 99 q4 27 -2 52.5t-13.5 49t-11.5 33.5q-4 14 -20.5 23.5t-24.5 17.5q-20 6 -57 18.5t-68 12.5q-33 0 -61 -10q-33 -8 -37 -9q-14 0 -30.5 9.5t-20.5 11.5q-20 8 -38 33.5t-18 48.5q0 8 5 16q10 18 29.5 26.5t39.5 4.5q8 -2 27 -2q35 0 80 18q27 10 86 52.5t61 48.5 q59 70 92 117t56 110q23 39 22 98q0 39 -12 66q-6 20 -38 33.5t-65 13.5q-16 0 -28 -4q-33 0 -99.5 -24.5t-80.5 -37.5q-4 -2 -61.5 -52t-78.5 -83q-8 -14 -41 -14q-10 0 -18 2t-12 4q-20 35 -21 59q0 33 29 70q35 45 62.5 73.5t64.5 49.5q16 10 55 32.5t72 33.5q8 2 46 15 t77 13q18 0 26 -2q63 -6 95 -22.5t100 -73.5q29 -18 43 -61.5t14 -98.5q0 -100 -35 -170q-8 -16 -34.5 -66.5t-55.5 -86.5q-37 -47 -78 -97q-4 -6 -32.5 -23.5t-48.5 -23.5q37 -14 85 -49t54 -57q57 -92 57 -213q0 -57 -12 -125q-20 -35 -58 -105q-27 -47 -57.5 -74.5 t-85.5 -64.5q-70 -45 -133 -63q-76 -20 -137 -23q-10 -49 -27 -82q-12 -35 -20 -67q-2 -14 -19 -84q-12 -59 -37 -84q-10 -10 -24 -11q-8 0 -45 9q-41 10 -41 55q-2 23 14 72l12 47l45 155q-53 10 -129 54q-61 35 -101 81t-79 111q-12 23 -12 43z" />
<glyph unicode="&#x499;" horiz-adv-x="565" d="M-33 -340q0 12 2 18q20 111 123 216q6 8 22.5 29.5t18.5 19.5q4 4 9 12t18 10q2 -2 14 9.5t23 19.5q12 10 67 57q-41 23 -62.5 41.5t-33.5 44.5l-16 21q-2 12 -5.5 31.5t-11.5 33.5l19 49l53 7q31 6 43 6q23 -20 22 -52q2 -29 19 -59q25 -49 53 -49h16q35 0 52 18 q39 41 49 88q2 8 2 23q0 20 -4 41.5t-6 30.5q-8 12 -20.5 34.5t-26.5 34.5l-7 47q4 2 9.5 8.5t9.5 6.5q76 25 145 94q6 10 18.5 29.5t18.5 35t6 27.5q0 72 -47 72q-51 0 -76.5 -23.5t-43 -58.5t-27.5 -51l-13 -11q-4 4 -12 4q-10 0 -16 5q-23 8 -33 19t-19 28 q10 10 17.5 37.5t15.5 37.5q6 6 26.5 26t29.5 34q29 35 106 59l33 6q41 0 78 -21.5t57 -53.5q27 -25 36 -45.5t9 -44.5q0 -18 -2 -34t-4 -28q-2 -14 -9 -33.5t-7 -27.5q-51 -61 -89 -86t-98 -35q45 -31 66.5 -76t21.5 -84q0 -14 -2 -20q-10 -72 -54 -128.5t-126 -80.5 q-16 -4 -29 -4l-12 -15q-2 -29 2 -92q4 -49 4 -76q0 -82 -29 -157q-10 -27 -23 -49.5t-26 -28.5q-33 -33 -82 -60q-39 -20 -79 -20q-39 0 -76 14q-35 31 -94 58q-12 31 -13 61zM78 -375q20 -10 37 -10q10 0 16 2q6 0 24.5 7t42 23.5t38.5 41.5q31 39 46 85t23 105v17 q0 23 -6 53q-10 4 -21.5 -6.5t-29.5 -34.5l-27 -33q-45 -43 -81 -94t-44 -98q-14 -49 -18 -58z" />
<glyph unicode="&#x49a;" horiz-adv-x="1126" d="M168 -37q0 14 10 51q-2 27 4 51.5t6 28.5q14 0 15 33q0 16 18 72l19 63l24 60q23 57 23 61q0 27 26 68q8 25 14.5 53t6.5 47q4 10 22.5 47t26.5 74q2 10 7 22.5t11 30.5l68 184l31 70q4 10 27.5 63.5t31.5 53.5v22q0 8 23 53l24 50q16 27 25.5 52t11.5 34q2 4 8 14t15 18 q23 16 41 17q29 0 49 -41q14 -29 14 -51q0 -20 -18 -50q-70 -150 -140.5 -307t-70.5 -182l69 51q53 53 170 142l252 204q57 29 135 90q20 12 32.5 22.5t21.5 14.5q12 10 49 36t47 24q23 10 49.5 -21t22.5 -57q4 -21 -9.5 -36t-58.5 -40q-92 -45 -104 -68q-10 -8 -46 -34.5 t-90 -65.5q-80 -53 -138 -100t-77 -72q-6 0 -15 -6t-15 -4q-4 -2 -18.5 -12.5t-20.5 -18.5q-6 -16 -19.5 -31.5t-32.5 -13.5q-39 -20 -153 -113q14 -158 80 -276q59 -131 121 -193q43 -47 80.5 -73.5t58.5 -26.5q14 -4 35 -16q29 6 55 6q55 0 100 -23q8 0 17.5 -31.5 t13.5 -45.5q-16 -68 -117 -254q-10 -18 -39 -56q-20 -35 -49 -35q-27 0 -53 39q0 29 27 117q4 8 30.5 63.5t34.5 82.5q-4 -2 -12 -3q-23 0 -55 17q-33 -2 -113 61.5t-123 116.5q-55 80 -95 145.5t-61 143.5q-8 37 -30 110q-14 39 -17 56v39l-24 -62q-2 -6 -25.5 -67.5 t-66.5 -217.5l-33 -106q-47 -147 -62.5 -186t-31.5 -39q-8 0 -21.5 9l-19.5 13q-16 10 -22.5 18.5t-6.5 20.5z" />
<glyph unicode="&#x49b;" horiz-adv-x="817" d="M193 111q0 41 12 77q8 33 41 134q20 51 63 156.5t60 152.5q4 4 39 110q16 57 22 72q23 6 37 6q23 0 40 -12t40 -41q2 -6 2 -23q0 -27 -11.5 -57.5t-31.5 -77.5q-27 -53 -41 -102q-2 -4 -8 -11.5t-4 -21.5q14 6 44.5 19.5t43.5 29.5q16 6 48 35t44 39l35 43q6 8 21.5 25.5 t23.5 33.5l47 88q14 20 35 21q16 0 28 -12q27 -18 30 -22.5t17 -31.5q-6 -49 -30 -82q-4 -4 -41 -54t-66 -70q-51 -63 -160 -129q4 -8 20.5 -47.5t37.5 -59.5l35 -63q14 -29 30.5 -57.5t36.5 -51.5q4 -6 10 -29q49 37 93 37q14 0 38.5 -7t34.5 -22q2 -4 4 -10t9 -14 q-29 -29 -65 -49.5t-97 -46.5q-2 -16 -5 -70.5t-14 -91.5q-6 -31 -22.5 -60.5t-18.5 -35.5q-27 -55 -64.5 -78t-103.5 -35q-38 10 -68 39t-36 65q-6 31 -6 60t8 47q6 23 28.5 57.5t45.5 59.5q25 25 65.5 59.5t67.5 50.5q-16 18 -42 68.5t-30 64.5q-2 8 -9 17.5t-9 11.5 q-39 41 -71 96.5t-34 98.5v16q0 14 -6 23l-18 -41q-4 -12 -35 -84t-43 -134q-2 -6 -12.5 -20t-3.5 -27q-8 -18 -9 -45q0 -12 2 -30.5t0 -30.5q-10 -12 -20 -24.5t-16.5 -15.5t-20.5 1q-8 6 -23.5 19.5t-35.5 37.5q-8 25 -8 56zM512 -256q0 -8 6 -16q27 -9 46.5 9.5 t29.5 45.5q4 10 24 39q29 47 33 59q20 37 21 68q-20 -4 -38 -18.5t-28 -30.5q-10 -14 -32.5 -39t-36 -46.5t-17.5 -43.5q-2 -4 -5 -12.5t-3 -14.5z" />
<glyph unicode="&#x49c;" horiz-adv-x="1193" d="M168 -20l4 10q18 33 27 98q16 70 84 266q14 43 51 181q35 115 59 178q6 14 16.5 42.5t22.5 51.5q20 41 29 80q4 20 14 43.5t14 32.5q18 47 23 59q31 84 37 96q10 23 24.5 67t10.5 40q18 39 30.5 87t14.5 60q0 10 14 14h14q18 0 31 -10q29 -20 39 -30.5t10 -22.5t-12 -41 q-29 -94 -61 -176q-20 -49 -66 -186l-37 -103l-59 -145v-6q0 -10 6 -17q8 -8 37 -8t59 6q43 123 70 219q6 25 31 56q12 29 21 36t34 7q16 0 22 -6.5t6 -22.5q0 -20 -12 -74l-43 -170l31.5 31.5t34.5 42.5q29 20 71 68q29 33 45 47q43 33 113 110l39 41q63 57 76 68 q23 16 59 57l45 45q80 80 154 139q8 6 29.5 23.5t46.5 26.5q20 8 30 8q35 0 43 -27q0 -6 6.5 -18.5t6.5 -14.5q-4 -10 -11.5 -29.5t-16.5 -32.5t-22 -17q-39 -18 -71.5 -46t-77.5 -71q-6 -8 -47 -43q-43 -37 -41 -35l-102 -107l-48 -47q-47 -49 -96 -96q-111 -109 -180 -186 l18 -41q14 -51 43 -99l37 -100l25 -41q59 -106 88 -147q16 -23 78 -84l32 -31q10 -8 22.5 -9t18.5 -1q66 -6 86 -64q6 -12 -2 -20q-25 -31 -75 -31q-51 0 -93 29l-63 43q-37 20 -76 63q-55 66 -89 123t-66 143q-8 23 -25 44q-25 41 -33 67q-6 18 -11 31.5t-9 25.5 q-8 20 -19.5 28.5t-38.5 8.5q-29 -100 -53 -157q-6 -14 -16.5 -38t-19.5 -33t-27 -13l-25 -4q-20 0 -32.5 9t-12.5 25q0 10 10 31q6 27 21.5 82t27.5 88q-8 -2 -26 -2q-29 0 -64 10q-12 0 -17 -10t-9 -31q-14 -72 -66 -227q-31 -94 -51 -174l-49 -203q0 -2 -2 -5t-2 -5 q-6 -4 -17 -4q-8 0 -19 4t-22 6q-27 4 -43 21q-16 16 -16 43z" />
<glyph unicode="&#x49d;" horiz-adv-x="786" d="M193 92q20 61 28 117l12 43q8 27 15.5 55.5t11.5 42.5q6 37 27 76q8 18 13 37.5t13 38.5q14 47 29 76q23 49 76 147q20 45 28 68t15.5 27.5t30.5 4.5q43 -16 59 -29.5t31 -45.5q-4 -18 -11.5 -37t-19.5 -33q-18 -23 -33.5 -55.5t-21.5 -42.5q-53 -98 -68 -154 q-2 -8 -8 -19.5t-8 -19.5q4 -8 8 -7t6 1q25 6 39 14l43 101q4 10 16.5 35.5t22.5 36t28 14.5q20 4 27 4q18 0 29.5 -8.5t11.5 -22.5q0 -16 -12 -35l-10 -39l6 6q29 18 63.5 61.5t42.5 57.5q35 31 55 74l48 82q16 4 24 4q6 0 39 -4q8 -8 20.5 -21.5t28.5 -33.5q2 -10 2 -39 q-37 -59 -131 -178q-43 -59 -98 -95q-14 -10 -27.5 -20t-27.5 -21q8 -41 10 -47q4 -39 9 -65.5t20 -48.5q12 -20 24 -36t26.5 -28t28.5 -25l62 -2l28 -51q-8 -20 -13 -34.5t-9 -18.5t-23 -4q-6 0 -9 -2t-7 -4q-61 16 -68 22q-63 49 -96 78t-57 70q-25 39 -31 78 q0 14 -7 30.5t-11 24.5h-4q-2 -8 -17 -41q-16 -37 -35 -55q-12 -27 -20 -34t-27 -11q-20 -2 -29.5 3t-9.5 21t21 78l8 33l-43 28l-18 -75q-10 -51 -25 -97q2 -20 -1 -34.5t-9 -32.5l-15 -49q-4 -10 -15 -14.5t-19 -0.5q-10 6 -33 17.5t-37 27t-22 35.5zM733 608z" />
<glyph unicode="&#x49e;" horiz-adv-x="1095" d="M244 -37q0 14 10 51q-2 27 4 51.5t6 28.5q14 0 15 33q0 16 18 72l18 63l25 60q23 57 22 61q0 27 27 68q8 25 14.5 53t6.5 47q4 10 22.5 47t26.5 74q2 10 7 22.5t11 30.5l68 184l30 70q4 10 28 63.5t32 53.5v22v4q-35 -2 -88 -2q-41 0 -66 8q-29 0 -40 5.5t-19 19.5 q-10 20 -10 27q0 14 20.5 21t73.5 13q70 10 182 17q14 23 21.5 46t9.5 30q2 4 8 14t14 18q23 16 41 17q29 0 49 -41q14 -29 15 -51q0 -14 -6 -27h67h39t42 -5t26 -20q20 -23 20 -45q0 -39 -53 -32q-61 -6 -123 -7l-72 -2q-63 -135 -116.5 -258t-53.5 -143l70 51 q53 53 170 142l252 204q57 29 135 90q20 12 32.5 22.5t20.5 14.5q12 10 49 36t48 24q23 10 49 -21t22 -57q4 -21 -9 -36t-58 -40q-92 -45 -105 -68q-10 -8 -46 -34.5t-89 -65.5q-80 -53 -138 -100t-77 -72q-6 0 -15 -6t-16 -4q-4 -2 -18 -12.5t-21 -18.5q-6 -16 -19 -31.5 t-32 -13.5q-39 -20 -153 -113q14 -158 80 -276q59 -131 120 -193q43 -47 81 -73.5t59 -26.5q18 -6 51 -28.5t35 -36.5q2 -4 2 -17q0 -31 -11 -45q-8 -14 -14 -21.5t-20 -7.5q-23 0 -56 17q-33 -2 -112.5 61.5t-122.5 116.5q-55 80 -95 145.5t-61 143.5q-8 37 -31 110 q-14 39 -16 56v39l-25 -62q-2 -6 -25.5 -67.5t-66.5 -217.5l-32 -106q-47 -147 -62.5 -186t-32.5 -39q-8 0 -21 9t-20 13q-16 10 -22 18.5t-6 20.5z" />
<glyph unicode="&#x49f;" horiz-adv-x="737" d="M158 160q0 23 10 49q4 18 28.5 85.5t39.5 108.5q10 27 33.5 91.5t25.5 76.5q96 223 154 353q-25 4 -39 8q-29 0 -40.5 5t-19.5 19q-10 20 -10 27q0 14 20.5 21.5t73.5 13.5l62 8l20 45q29 57 46.5 95t23.5 65q4 14 21.5 27.5t35.5 13.5q23 0 37 -23q4 -2 12 -5t13 -9 q20 -20 20 -47q0 -14 -10 -35q-12 -18 -58 -115q41 2 117 2h39t42 -5t26 -19q20 -23 20 -45q0 -39 -53 -33q-61 -6 -205 -6q-21 0 -37 -2q-66 -139 -128 -280.5t-81 -198.5q53 12 69.5 21t55.5 52q37 37 70 66q125 121 133 131q16 25 28.5 38t32.5 19q29 -4 40.5 -10 t50.5 -37q8 -8 8 -29q0 -39 -23 -55q-6 -4 -80 -63q-150 -125 -254 -197q45 -72 88 -160q29 -43 53.5 -64.5t67.5 -21.5q16 -8 21.5 -20t6.5 -26.5t3 -22.5q-18 -12 -36.5 -29.5t-31.5 -17.5q-14 0 -45 12q-29 10 -53 29.5t-51 50.5q-25 29 -96.5 145.5t-79.5 130.5 q-6 -16 -15.5 -35.5t-13.5 -35t-4 -39.5q-20 -29 -31.5 -73t-17.5 -63q-12 -45 -53 -73q-37 2 -72 45q-10 18 -10 41z" />
</font>
</defs>
</svg>
