<svg width="323" height="323" viewBox="0 0 323 323" fill="none" xmlns="http://www.w3.org/2000/svg">
<path d="M15.1396 5.27368H55.5146C56.8531 5.27368 58.1369 5.80376 59.0833 6.7473C60.0298 7.69084 60.5615 8.97056 60.5615 10.3049V15.3362H165.926C170.489 15.3394 174.978 16.4805 178.985 18.6555L228.396 45.5237H287.671C296.161 45.5237 302.812 54.3636 302.812 65.6487C302.812 76.1816 297.017 84.5788 289.342 85.6548L312.096 162.444C312.116 162.513 312.135 162.582 312.153 162.651C312.652 164.646 312.905 166.694 312.905 168.751V312.18C312.905 313.514 312.374 314.794 311.427 315.738C310.481 316.681 309.197 317.211 307.858 317.211H80.749C79.4105 317.211 78.1268 316.681 77.1803 315.738C76.2339 314.794 75.7021 313.514 75.7021 312.18V169.172C75.7017 166.769 76.0471 164.378 76.7279 162.073L97.7557 90.8005C90.9079 90.7505 84.3288 88.1371 79.3231 83.4784C74.3173 78.8197 71.2504 72.4558 70.7303 65.6487H60.5615V75.7112C60.5615 77.0456 60.0298 78.3253 59.0833 79.2688C58.1369 80.2124 56.8531 80.7424 55.5146 80.7424H15.1396C13.8011 80.7424 12.5174 80.2124 11.571 79.2688C10.6245 78.3253 10.0928 77.0456 10.0928 75.7112V10.3049C10.0928 8.97056 10.6245 7.69084 11.571 6.7473C12.5174 5.80376 13.8011 5.27368 15.1396 5.27368ZM292.718 65.6487C292.718 59.5062 289.729 55.5862 287.671 55.5862H143.402L163.589 75.7112H287.671C289.729 75.7112 292.718 71.7912 292.718 65.6487ZM135.512 162.651C136.012 164.646 136.264 166.695 136.265 168.752V307.149H302.812V168.751C302.811 167.55 302.667 166.353 302.383 165.186L278.853 85.7737H172.72C175.355 90.2112 176.355 95.4256 175.549 100.519C174.742 105.613 172.18 110.266 168.302 113.679C164.425 117.092 159.475 119.051 154.306 119.218C149.136 119.385 144.069 117.75 139.979 114.594L115.699 95.7664L135.455 162.445C135.475 162.513 135.494 162.583 135.512 162.651ZM105.983 294.139L92.9334 307.149H119.033L105.983 294.139ZM86.411 164.915C86.0027 166.297 85.7956 167.731 85.7959 169.172V300.033L100.937 284.939V176.336C100.937 175.002 101.468 173.722 102.415 172.779C103.361 171.835 104.645 171.305 105.983 171.305C107.322 171.305 108.606 171.835 109.552 172.779C110.499 173.722 111.03 175.002 111.03 176.336V284.94L126.171 300.034V168.751C126.17 167.55 126.027 166.353 125.743 165.186L105.997 98.5373L86.411 164.915ZM60.5615 55.5862H72.6911C74.8274 55.5887 76.8755 56.4358 78.3861 57.9418C79.8967 59.4477 80.7465 61.4895 80.749 63.6192C80.7542 68.159 82.5655 72.5113 85.7856 75.7215C89.0057 78.9316 93.3716 80.7373 97.9254 80.7424H110.332C111.906 80.7452 113.435 81.2682 114.68 82.2298L146.177 106.653C148.613 108.544 151.68 109.438 154.754 109.152C157.828 108.866 160.677 107.422 162.72 105.115C164.764 102.808 165.847 99.8106 165.751 96.7344C165.654 93.6582 164.384 90.7345 162.201 88.5591L127.65 54.1145C126.943 53.411 126.462 52.5144 126.267 51.5382C126.072 50.5619 126.171 49.5499 126.553 48.6302C126.935 47.7105 127.582 46.9244 128.413 46.3714C129.243 45.8184 130.219 45.5234 131.218 45.5237H207.316L174.151 27.4892C171.627 26.1193 168.8 25.4006 165.926 25.3987H60.5615V55.5862ZM20.1865 70.6799H50.4678V15.3362H20.1865V70.6799Z" fill="white"/>
<g clip-path="url(#clip0)">
<path d="M249.56 282.61C249.389 282.61 249.733 282.614 249.56 282.61V282.61ZM154.053 187.734C154.184 192.213 156.013 196.431 159.202 199.611L237.302 277.469C240.492 280.648 245.067 282.479 249.56 282.609C253.926 282.609 258.226 280.995 261.41 278.034C261.45 277.996 263.711 275.681 264.718 274.093C267.64 269.474 268.543 263.796 267.198 258.512C267.031 257.857 267.285 257.141 267.83 256.729C272.187 253.441 275.039 248.453 275.657 243.044C276.283 237.565 274.674 232.218 271.126 227.992C270.691 227.473 270.608 226.72 270.92 226.117C273.43 221.259 273.847 215.753 272.099 210.592C272.081 210.534 272.062 210.475 272.042 210.417C270.247 205.267 266.358 201.029 261.371 198.79C260.74 198.507 260.312 197.855 260.33 197.206C260.477 191.736 258.338 186.378 254.463 182.508C250.575 178.64 245.201 176.508 239.714 176.654C239.064 176.672 238.41 176.245 238.126 175.616C235.88 170.645 231.629 166.767 226.463 164.978C226.405 164.959 226.347 164.94 226.289 164.922C221.111 163.179 215.587 163.595 210.714 166.097C210.109 166.408 209.353 166.326 208.833 165.892C204.593 162.354 199.231 160.749 193.733 161.375C188.308 161.99 183.304 164.834 180.006 169.176C179.593 169.72 178.875 169.973 178.218 169.807C172.916 168.466 167.221 169.366 162.593 172.276C160.995 173.284 159.373 174.837 158.75 175.459C158.711 175.497 158.673 175.537 158.636 175.577C155.548 178.876 153.92 183.193 154.053 187.734ZM165.537 182.102C166.292 181.357 167.18 180.603 167.671 180.293C170.135 178.744 173.051 178.282 175.878 178.998C180.259 180.106 184.857 178.498 187.589 174.9C189.35 172.582 191.914 171.124 194.809 170.796C197.694 170.467 200.506 171.309 202.729 173.163C206.199 176.058 211.043 176.593 215.069 174.526C217.659 173.196 220.596 172.987 223.339 173.937C223.381 173.952 223.424 173.966 223.466 173.979C226.154 174.947 228.277 176.907 229.454 179.51C231.326 183.653 235.458 186.244 239.968 186.133C242.86 186.058 245.693 187.178 247.738 189.212C249.773 191.245 250.899 194.069 250.822 196.953C250.702 201.455 253.309 205.569 257.465 207.435C260.076 208.607 262.042 210.723 263.013 213.402C263.026 213.445 263.04 213.488 263.055 213.53C264.008 216.265 263.799 219.193 262.465 221.775C260.391 225.789 260.927 230.617 263.832 234.077C265.692 236.292 266.535 239.096 266.207 241.971C265.877 244.858 264.415 247.414 262.089 249.17C258.48 251.894 256.867 256.476 257.979 260.845C258.696 263.662 258.234 266.569 256.676 269.031C256.369 269.516 255.613 270.4 254.865 271.153C251.801 273.948 247.056 273.783 244.027 270.764L165.927 192.906C162.899 189.887 162.734 185.157 165.537 182.102ZM239.103 251.4C236.594 250.627 235.187 247.973 235.962 245.471C236.986 242.167 237.505 238.505 237.505 234.586C237.505 214.274 220.971 197.749 200.649 197.749C198.023 197.749 195.894 195.627 195.894 193.008C195.894 190.39 198.023 188.268 200.649 188.268C213.057 188.268 224.709 193.088 233.461 201.839C242.202 210.581 247.016 222.211 247.016 234.586C247.016 239.454 246.354 244.057 245.05 248.269C244.419 250.305 242.539 251.612 240.507 251.612C240.043 251.612 239.57 251.544 239.103 251.4Z" fill="white"/>
</g>
<defs>
<clipPath id="clip0">
<rect width="121.746" height="121.369" fill="white" transform="matrix(-1 0 0 1 275.791 161.242)"/>
</clipPath>
</defs>
</svg>
