<svg width="61" height="56" viewBox="0 0 61 56" fill="none" xmlns="http://www.w3.org/2000/svg">
<path d="M25.7575 46.4368C22.9929 46.4368 20.7432 48.6877 20.7432 51.4511C20.7432 54.2157 22.9929 56.4654 25.7575 56.4654C28.522 56.4654 30.7718 54.2157 30.7718 51.4511C30.7718 48.6866 28.522 46.4368 25.7575 46.4368ZM25.7575 54.2369C24.222 54.2369 22.9717 52.9877 22.9717 51.4511C22.9717 49.9156 24.222 48.6654 25.7575 48.6654C27.293 48.6654 28.5432 49.9156 28.5432 51.4511C28.5432 52.9877 27.293 54.2369 25.7575 54.2369Z" fill="black"/>
<path d="M48.1559 46.4368C45.3925 46.4368 43.1416 48.6877 43.1416 51.4511C43.1416 54.2157 45.3925 56.4654 48.1559 56.4654C50.9205 56.4654 53.1702 54.2157 53.1702 51.4511C53.1702 48.6866 50.9205 46.4368 48.1559 46.4368ZM48.1559 54.2369C46.6215 54.2369 45.3702 52.9877 45.3702 51.4511C45.3702 49.9156 46.6215 48.6654 48.1559 48.6654C49.6925 48.6654 50.9416 49.9156 50.9416 51.4511C50.9416 52.9877 49.6914 54.2369 48.1559 54.2369Z" fill="black"/>
<path d="M54.5107 15.1387L54.4004 15.1164L48.3119 15.1521C47.8383 15.1064 47.2567 15.1142 46.9803 15.1521L37.9791 15.1967L29.0748 15.1588C28.5879 15.1086 27.9895 15.1131 27.741 15.1465L21.5445 15.1164L21.4341 15.1387C19.1543 15.59 17.3246 17.0486 16.314 18.9585L11.985 0.588345C11.868 0.0835718 11.4189 0 10.8997 0H1.61429C0.999201 0 0.5 0.499201 0.5 1.11429C0.5 1.73049 0.999201 2.22858 1.61429 2.22858H10.0149L18.0512 36.5643C18.0523 36.571 18.0556 36.4384 18.0578 36.4439C18.6718 39.438 21.0063 41.6488 24.0126 42.1914C24.1463 42.2271 24.28 42.2293 24.4171 42.2561L24.5285 42.2616L25.2383 42.2494L25.2328 41.1306L25.381 42.2438L37.9691 42.1792L50.5695 42.2427L50.5739 41.1273L50.711 42.2416L51.4219 42.246L51.5344 42.2226C51.6715 42.1959 51.8041 42.158 51.9255 42.1224C54.962 41.5786 57.3087 39.2742 57.907 36.2545L60.3596 23.8736C61.153 19.8544 58.5299 15.9354 54.5107 15.1387ZM58.1711 23.4413L55.7164 35.8222C55.2985 37.9349 53.6538 39.5483 51.5289 39.9294L51.3528 39.9718C51.3004 39.9863 51.2447 40.0007 51.1901 40.0141L37.9668 39.9484L24.7547 40.0141C24.7001 40.0007 24.6466 39.9863 24.592 39.9718L24.4171 39.9294C22.291 39.5483 20.6475 37.9371 20.2285 35.8222L17.7748 23.4413C17.2244 20.6623 19.0083 17.9512 21.764 17.3472L27.838 17.3706C28.1678 17.3417 28.4018 17.335 28.9534 17.3818L37.9791 17.4264L47.1029 17.3762C47.4428 17.3417 47.6623 17.3361 48.2172 17.3762L54.1831 17.3472C56.9365 17.9512 58.7205 20.6611 58.1711 23.4413Z" fill="black"/>
</svg>
