<svg width="47" height="48" viewBox="0 0 47 48" fill="none" xmlns="http://www.w3.org/2000/svg">
<g clip-path="url(#clip0)">
<path d="M19.7863 38.1326C17.6207 38.1326 15.8584 39.8957 15.8584 42.0604C15.8584 44.226 17.6207 45.9883 19.7863 45.9883C21.9518 45.9883 23.7141 44.226 23.7141 42.0604C23.7141 39.8949 21.9518 38.1326 19.7863 38.1326ZM19.7863 44.2426C18.5835 44.2426 17.6041 43.2641 17.6041 42.0604C17.6041 40.8576 18.5835 39.8783 19.7863 39.8783C20.9891 39.8783 21.9684 40.8576 21.9684 42.0604C21.9684 43.2641 20.9891 44.2426 19.7863 44.2426Z" fill="white"/>
<path d="M37.3312 38.1326C35.1665 38.1326 33.4033 39.8957 33.4033 42.0604C33.4033 44.226 35.1665 45.9883 37.3312 45.9883C39.4967 45.9883 41.2591 44.226 41.2591 42.0604C41.2591 39.8949 39.4967 38.1326 37.3312 38.1326ZM37.3312 44.2426C36.1293 44.2426 35.149 43.2641 35.149 42.0604C35.149 40.8576 36.1293 39.8783 37.3312 39.8783C38.5349 39.8783 39.5133 40.8576 39.5133 42.0604C39.5133 43.2641 38.534 44.2426 37.3312 44.2426Z" fill="white"/>
<path d="M42.3094 13.6158L42.2229 13.5983L37.4536 13.6262C37.0827 13.5904 36.627 13.5965 36.4106 13.6262L29.3596 13.6611L22.3846 13.6315C22.0031 13.5922 21.5344 13.5957 21.3398 13.6219L16.4858 13.5983L16.3994 13.6158C14.6135 13.9693 13.1803 15.1118 12.3886 16.6079L8.99754 2.21795C8.90589 1.82254 8.55413 1.75708 8.14738 1.75708H0.873836C0.392018 1.75708 0.000976562 2.14812 0.000976562 2.62994C0.000976562 3.11263 0.392018 3.5028 0.873836 3.5028H7.45432L13.7494 30.3991C13.7503 30.4043 13.7529 30.3005 13.7546 30.3048C14.2356 32.6502 16.0642 34.382 18.4192 34.807C18.5239 34.835 18.6287 34.8367 18.736 34.8577L18.8233 34.862L19.3793 34.8524L19.375 33.9761L19.4911 34.8481L29.3518 34.7974L39.222 34.8472L39.2255 33.9735L39.3329 34.8463L39.8898 34.8498L39.9779 34.8315C40.0853 34.8105 40.1892 34.7808 40.2843 34.7529C42.6629 34.327 44.5011 32.5219 44.9698 30.1564L46.891 20.4581C47.5125 17.3097 45.4578 14.2398 42.3094 13.6158ZM45.1767 20.1194L43.2538 29.8178C42.9265 31.4727 41.6381 32.7366 39.9736 33.0351L39.8357 33.0683C39.7946 33.0796 39.751 33.091 39.7082 33.1015L29.35 33.05L19.0005 33.1015C18.9577 33.091 18.9158 33.0796 18.8731 33.0683L18.736 33.0351C17.0706 32.7366 15.7832 31.4745 15.455 29.8178L13.5329 20.1194C13.1017 17.9425 14.4992 15.8188 16.6578 15.3458L21.4157 15.3641C21.6741 15.3414 21.8574 15.3362 22.2894 15.3728L29.3596 15.4077L36.5066 15.3685C36.7728 15.3414 36.9448 15.337 37.3794 15.3685L42.0527 15.3458C44.2096 15.8188 45.607 17.9416 45.1767 20.1194Z" fill="white"/>
</g>
<defs>
<clipPath id="clip0">
<rect width="47" height="47" fill="white" transform="translate(0.000976562 0.372803)"/>
</clipPath>
</defs>
</svg>
