<svg width="44" height="44" viewBox="0 0 44 44" fill="none" xmlns="http://www.w3.org/2000/svg">
<g clip-path="url(#clip0)">
<path d="M43.1969 13.455C43.0923 11.1665 42.7288 9.60358 42.1973 8.23621C41.6576 6.80158 40.8112 5.50212 39.7175 4.42804C38.6437 3.33427 37.3439 2.48754 35.9093 1.94755C34.5416 1.41641 32.979 1.05325 30.6905 0.949249C28.3976 0.844269 27.6651 0.819336 21.8262 0.819336C15.9873 0.819336 15.2547 0.844269 12.9619 0.948593C10.6733 1.05325 9.11074 1.41674 7.74304 1.9482C6.30842 2.48787 5.00896 3.33427 3.93488 4.42804C2.84111 5.50179 1.99438 6.80125 1.45438 8.23588C0.923248 9.60358 0.560081 11.1665 0.456085 13.4547C0.351105 15.7479 0.326172 16.4801 0.326172 22.319C0.326172 28.1582 0.351105 28.8908 0.456085 31.1836C0.56041 33.4719 0.923904 35.0348 1.45537 36.4025C1.99503 37.8368 2.84144 39.1366 3.9352 40.2103C5.00896 41.3041 6.30875 42.1505 7.74337 42.6901C9.11074 43.2219 10.6736 43.5851 12.9622 43.6898C15.2554 43.7944 15.9876 43.819 21.8265 43.819C27.6654 43.819 28.3979 43.7944 30.6908 43.6898C32.9794 43.5851 34.5419 43.2219 35.9096 42.6901C38.7976 41.5734 41.0806 39.2904 42.1973 36.4025C42.7291 35.0348 43.0923 33.4719 43.1969 31.1836C43.3012 28.8905 43.3262 28.1582 43.3262 22.3193C43.3262 16.4801 43.3012 15.7479 43.1969 13.455ZM39.3267 31.0075C39.2313 33.1038 38.8809 34.2422 38.5866 34.9997C37.8633 36.8749 36.3814 38.3567 34.5062 39.0801C33.7487 39.3744 32.6103 39.7248 30.514 39.8202C28.2474 39.9239 27.5673 39.9456 21.8262 39.9456C16.0847 39.9456 15.405 39.9239 13.1381 39.8202C11.0421 39.7248 9.90367 39.3744 9.14584 39.0801C8.21217 38.7353 7.36741 38.1858 6.67388 37.4716C5.95969 36.7781 5.41018 35.9337 5.06538 34.9997C4.77111 34.2422 4.42074 33.1038 4.32527 31.0075C4.22193 28.7405 4.19995 28.0605 4.19995 22.3197C4.19995 16.5785 4.22193 15.8988 4.32527 13.6315C4.42107 11.5352 4.77111 10.3968 5.06538 9.63934C5.41018 8.70534 5.96001 7.86057 6.67388 7.16705C7.36741 6.45285 8.21217 5.90334 9.14617 5.55888C9.90367 5.26427 11.0421 4.91423 13.1384 4.81844C15.4053 4.7151 16.0854 4.69312 21.8262 4.69312H21.8258C27.5666 4.69312 28.2467 4.7151 30.514 4.81876C32.6103 4.91423 33.7483 5.2646 34.5062 5.55888C35.4398 5.90367 36.2846 6.45318 36.9781 7.16705C37.6923 7.86057 38.2418 8.70534 38.5863 9.63934C38.8809 10.3968 39.2313 11.5352 39.3267 13.6315C39.4301 15.8985 39.4521 16.5785 39.4521 22.3193C39.4521 28.0605 39.4304 28.7402 39.3267 31.0075Z" fill="url(#paint0_linear)"/>
<path d="M21.8255 11.2788C15.7281 11.2788 10.7852 16.2221 10.7852 22.3195C10.7852 28.4169 15.7281 33.3598 21.8255 33.3598C27.9232 33.3598 32.8662 28.4169 32.8662 22.3195C32.8662 16.2221 27.9232 11.2788 21.8255 11.2788ZM21.8255 29.486C17.8677 29.4857 14.6589 26.2772 14.6593 22.3191C14.6593 18.3614 17.8677 15.1526 21.8258 15.1526C25.7839 15.1529 28.9924 18.3614 28.9924 22.3191C28.9924 26.2772 25.7836 29.486 21.8255 29.486Z" fill="url(#paint1_linear)"/>
<path d="M35.8828 10.8429C35.8828 12.2677 34.7277 13.4228 33.3029 13.4228C31.8778 13.4228 30.7227 12.2677 30.7227 10.8429C30.7227 9.41781 31.8778 8.2627 33.3029 8.2627C34.7277 8.2627 35.8828 9.41781 35.8828 10.8429Z" fill="url(#paint2_linear)"/>
</g>
<defs>
<linearGradient id="paint0_linear" x1="3.93466" y1="40.2105" x2="39.7177" y2="4.42747" gradientUnits="userSpaceOnUse">
<stop stop-color="#FFD600"/>
<stop offset="0.5" stop-color="#FF0100"/>
<stop offset="1" stop-color="#D800B9"/>
</linearGradient>
<linearGradient id="paint1_linear" x1="14.0189" y1="30.1261" x2="29.6325" y2="14.5125" gradientUnits="userSpaceOnUse">
<stop stop-color="#FF6400"/>
<stop offset="0.5" stop-color="#FF0100"/>
<stop offset="1" stop-color="#FD0056"/>
</linearGradient>
<linearGradient id="paint2_linear" x1="31.4785" y1="12.6671" x2="35.1271" y2="9.01847" gradientUnits="userSpaceOnUse">
<stop stop-color="#F30072"/>
<stop offset="1" stop-color="#E50097"/>
</linearGradient>
<clipPath id="clip0">
<rect width="43" height="43" fill="white" transform="translate(0.326172 0.819336)"/>
</clipPath>
</defs>
</svg>
