<?xml version="1.0" standalone="no"?>
<!DOCTYPE svg PUBLIC "-//W3C//DTD SVG 1.1//EN" "http://www.w3.org/Graphics/SVG/1.1/DTD/svg11.dtd" >
<svg xmlns="http://www.w3.org/2000/svg" xmlns:xlink="http://www.w3.org/1999/xlink" version="1.1">
<metadata></metadata>
<defs>
<font id="balsamiq_sansitalic" horiz-adv-x="749" >
<font-face units-per-em="2048" ascent="1638" descent="-410" />
<missing-glyph horiz-adv-x="552" />
<glyph horiz-adv-x="0" />
<glyph unicode="&#xd;" horiz-adv-x="681" />
<glyph unicode=" "  horiz-adv-x="552" />
<glyph unicode="&#x09;" horiz-adv-x="552" />
<glyph unicode="&#xa0;" horiz-adv-x="552" />
<glyph unicode="!" horiz-adv-x="428" d="M9 96q9 43 45 73t79 30t66 -31q25 -29 15.5 -72t-45.5 -72.5t-79 -29.5t-66.5 29.5t-14.5 72.5zM100 442q23 135 54.5 287t75.5 345.5t65 287.5q8 43 44 72.5t79 29.5t66.5 -29.5t15.5 -72.5q-20 -96 -63.5 -285.5t-74 -339t-55.5 -286.5q-6 -41 -42 -73t-78 -34 t-67.5 26.5t-19.5 71.5z" />
<glyph unicode="&#x22;" horiz-adv-x="763" d="M203 987q12 51 86 393q8 43 44 73t79 30t66.5 -30t15.5 -73q-74 -346 -88 -401q-10 -43 -47 -71.5t-80 -26.5t-66 32.5t-10 73.5zM528 985q84 360 107 438q14 43 52 71t80 23.5t62.5 -37t8.5 -73.5q-23 -72 -107 -426q-8 -43 -45 -71.5t-80 -28.5t-65.5 30.5t-12.5 73.5z " />
<glyph unicode="#" horiz-adv-x="1316" d="M95 463q7 43 42 74.5t78 33.5q70 4 143 7l39 151q18 68 33 119l-74 -2q-43 -2 -67.5 27.5t-17 71.5t43 73t78.5 33l96 4q39 135 78 248q14 41 53 66.5t80 20t59.5 -39t6.5 -76.5q-37 -100 -70 -213q106 2 193 4q31 131 55 233q12 43 50 72t79 27t63.5 -34t10.5 -73 q-25 -100 -53 -225l135 -4q41 -2 63.5 -33t11 -74t-48 -71.5t-79.5 -26.5l-129 4q-20 -94 -33 -145q-16 -72 -31 -131l143 -4q39 -2 62.5 -33t12.5 -73t-48 -71.5t-80 -27.5l-141 4q-35 -135 -72 -248q-12 -43 -52 -69.5t-81 -22.5t-60.5 38t-7.5 75q35 109 68 229 q-111 0 -217 -2q-35 -123 -68 -232q-14 -43 -52 -69.5t-80 -22.5t-62.5 37t-5.5 76q31 94 61 205q-59 -2 -119 -6q-45 -2 -70.5 25.5t-18.5 70.5zM565 584q104 2 213 2q14 57 31 133q12 49 33 141q-88 -2 -205 -4q-14 -55 -37 -137z" />
<glyph unicode="$" horiz-adv-x="1447" d="M141 401q-4 41 25 78t73 49.5t75.5 -8t35.5 -61.5q2 -37 3 -78t2 -67.5t10 -51.5q23 -74 153 -92q20 90 109 500l4 18q-121 47 -191 88q-193 119 -170 301q27 211 209 330q139 94 334 102l12 56q12 53 49 76.5t79 21.5t63.5 -34t11.5 -73l-16 -67q131 -31 226 -103.5 t124 -181.5q10 -39 2 -90l-6 -29q-2 -10 -2 -16q-4 -43 -37 -75.5t-77 -38t-71.5 20t-23.5 68.5q0 14 6 37l2 9l2 16l2 8q-14 55 -67.5 98t-130.5 68q-39 -170 -97 -446l19 -9q229 -86 311 -166q150 -147 27 -368q-72 -129 -226.5 -211t-320.5 -109q-20 -84 -43 -161 q-14 -41 -51 -69t-79 -25t-62.5 35t-10.5 75l39 139q-250 27 -303 203q-10 35 -15.5 80t-5.5 94t-2 59zM479 1098q-8 -76 99 -142q39 -25 98 -49q47 233 86 396q-117 -6 -193 -58q-80 -51 -90 -147zM725 182q115 23 201 72t114 102q27 53 24 84t-32 62q-55 51 -213 114 q-53 -262 -94 -434z" />
<glyph unicode="%" horiz-adv-x="1935" d="M237 1118q9 62 44.5 126.5t99.5 115.5q39 33 102 59l15 6q41 39 92 37q20 0 55 2l72 4q100 4 166 -22q109 -47 104 -182q-6 -98 -76 -213q-70 -111 -182.5 -190t-239.5 -73q-98 4 -163.5 63.5t-83.5 147.5q-14 57 -5 119zM302 30q-5 40 22 79q45 70 135 174 q92 111 125 151l600 774l276 348q29 37 72 48.5t75.5 -10t35 -62.5t-28.5 -78l-604 -766l-267 -348q-37 -49 -137 -168q-78 -92 -117 -149q-25 -39 -67.5 -53.5t-78.5 3t-41 57.5zM446 1081q10 -39 36 -62.5t61 -25.5q47 -2 101 35t95 100q37 59 37 101q0 20 -8 24 q-27 12 -86 11q-10 0 -21.5 -1t-24.5 -2t-22 -1q-10 -2 -22 -3q-16 -6 -27 -12l-37 -14q-27 -10 -36 -19q-63 -51 -46 -131zM1006 391q29 125 125 235.5t235 157.5q41 14 96 13q2 0 31 -4h16q55 2 76 -45q45 -6 78 -21q72 -31 108.5 -86t41 -118.5t-14 -130t-55.5 -128.5 q-80 -129 -220.5 -203.5t-291.5 -42.5q-139 31 -196.5 136.5t-28.5 236.5zM1210 389q-14 -63 12.5 -109.5t92.5 -60.5q76 -16 144.5 19.5t111.5 105.5q41 63 34.5 116.5t-61.5 78.5q-12 4 -41 6q-82 6 -84 6q-33 6 -51 31q-61 -29 -102 -81t-56 -112z" />
<glyph unicode="&#x26;" horiz-adv-x="1312" d="M23 322q0 174 114.5 307t319.5 256q166 98 248 162q55 41 83.5 76.5t28.5 74.5q0 31 -22.5 50.5t-65.5 19.5q-82 0 -140.5 -63.5t-58.5 -153.5q0 -43 9.5 -81t29.5 -98q25 -76 122 -221t202 -260l190 -203q25 -25 33 -40t8 -29q0 -47 -41 -87t-90 -40q-37 0 -84 51 q-141 150 -170 188q-150 186 -223.5 296t-130.5 239q-61 141 -61 254t60 214t163.5 161.5t224.5 60.5q115 0 183.5 -57.5t68.5 -153.5q0 -117 -90 -213t-260 -205q-59 -39 -148 -100q-143 -96 -216.5 -178t-73.5 -191q0 -80 51 -119.5t131 -39.5q186 0 350 182 q70 76 139 207q27 47 55.5 69.5t65.5 22.5q35 0 58.5 -22.5t23.5 -59.5q0 -63 -73.5 -175t-151.5 -187q-102 -104 -238.5 -169t-271.5 -65q-160 0 -256 88t-96 232z" />
<glyph unicode="'" horiz-adv-x="456" d="M227 936q51 311 60 414q4 43 36.5 76.5t75.5 38.5t72 -20.5t27 -66.5q-12 -119 -66 -434q-6 -43 -41 -73.5t-79 -32.5t-68.5 26.5t-16.5 71.5z" />
<glyph unicode="(" horiz-adv-x="735" d="M81 220q15 218 95 428t198 405.5t271 367.5q29 37 73 45.5t74.5 -12t31.5 -59.5t-27 -72q-188 -217 -316.5 -455.5t-174.5 -497.5t26 -466q6 -25 16 -47.5t27.5 -53t27.5 -57.5q16 -31 0 -71t-57 -60.5t-81 -13t-54 42.5l-27 45l-30 65q-14 35 -27 60q-61 188 -46 406z " />
<glyph unicode=")" horiz-adv-x="759" d="M-88 -322.5q0 37.5 29 70.5q397 432 489 791q94 373 -106 790q-14 33 3 71t57 58.5t79 12t55 -40.5q223 -467 117 -900q-106 -412 -543 -884q-33 -33 -75 -41t-73.5 13.5t-31.5 59z" />
<glyph unicode="*" horiz-adv-x="956" d="M236.5 818q7.5 42 42.5 75l141 127q-16 10 -25 14q-2 0 -108 35q-37 12 -48.5 50t9 79t62.5 60.5t81 7.5q113 -37 123 -43l16 -9q0 8 35 160q8 41 46 71t80 30t64.5 -31t14.5 -74q-8 -35 -15 -65.5t-12 -44.5l-4 -25l107 35q45 12 78.5 -7.5t38 -59.5t-23.5 -78t-69 -52 q-129 -39 -131 -39l152 -172q25 -29 15.5 -71.5t-44.5 -73.5t-78 -31t-67 29l-158 180l-158 -141q-35 -31 -77.5 -33t-68.5 26.5t-18.5 70.5z" />
<glyph unicode="+" horiz-adv-x="1370" d="M138 557q9 43 45 72.5t79 29.5q96 0 338 3q41 193 76 337q10 41 48 71t79 28t64.5 -33t11.5 -74q-33 -141 -74 -327q205 0 358 -5q43 -2 65.5 -31.5t12.5 -72.5t-47 -71.5t-78 -28.5q-152 4 -352 4q-49 -250 -70 -353q-10 -43 -46 -72.5t-79 -29.5t-66.5 29.5t-13.5 72.5 q20 102 70 351q-244 -2 -340 -2q-43 0 -66.5 29.5t-14.5 72.5z" />
<glyph unicode="," horiz-adv-x="389" d="M-150.5 -340q-3.5 41 25.5 78q61 78 76 127q14 43 18 147q0 41 31 76t75 43t73.5 -15.5t29.5 -66.5q-4 -133 -26 -207q-29 -90 -117 -202q-29 -39 -72 -50.5t-76.5 9t-37 61.5z" />
<glyph unicode="-" d="M108.5 558q6.5 42 40 74t76.5 36q63 4 182 8t162 6t70 -26.5t19.5 -70.5t-43 -74t-76.5 -34q-45 -2 -161 -6t-179 -8q-45 -2 -71 25.5t-19.5 69.5z" />
<glyph unicode="." horiz-adv-x="399" d="M-6 120q10 48 51 83t89 35t77 -35t18.5 -83t-52.5 -83t-91 -35t-75.5 35t-16.5 83z" />
<glyph unicode="/" horiz-adv-x="925" d="M54.5 60.5q-11.5 37.5 11.5 78.5q174 319 729 1282q20 41 62 61.5t80 8.5t50 -49t-8 -78q-494 -852 -735 -1290q-20 -39 -62.5 -58.5t-79 -6t-48 51z" />
<glyph unicode="0" horiz-adv-x="1163" d="M86 545q0 111 35 238.5t88 242.5t144 218.5t202 164.5q18 10 43 19.5t43 15.5l39 12q16 4 18 4q61 20 99 -20q25 2 69.5 -2t61.5 -4q168 -41 219 -271q43 -188 -6 -430q-51 -250 -176 -436q-154 -233 -365 -283q-266 -66 -407 117q-115 150 -107 414zM295 580 q-6 -201 74 -304q78 -100 223 -65q111 27 205 170q96 147 139 352q39 201 8 348q-31 135 -104 152q-31 6 -42.5 5t-50 -4t-75.5 -3q-20 0 -39 8q-2 -2 -4 -2q-139 -78 -233.5 -265.5t-100.5 -391.5z" />
<glyph unicode="1" horiz-adv-x="755" d="M135 1050q2 42 34 76.5t75 40.5q92 16 137 41q47 25 108 92l3 3q0 2 2 5t4 8t6 13t8 19q68 121 170 114q57 -4 80 -53q10 -20 10 -51q2 -33 -8 -86q-2 -23 -33 -172q-16 -78 -52 -248t-55.5 -265t-51 -230.5t-58.5 -250.5q-12 -41 -49 -70.5t-78 -27.5t-64.5 33t-13.5 74 q47 186 211 962q-33 -27 -71 -45q-80 -43 -211 -65q-45 -8 -75 16.5t-28 66.5z" />
<glyph unicode="2" horiz-adv-x="1169" d="M10 182q4 70 68 148q39 49 112 112q61 49 299 224q201 147 291 229q113 104 127 160q23 100 -15 148t-116 52q-86 2 -175 -46t-142 -132q-4 -8 -10 -28q-16 -63 -17 -66q-16 -41 -55 -66.5t-80 -20.5t-59.5 39t-4.5 77q2 8 5.5 16t5.5 19.5t6 17.5q14 51 37 86 q88 150 240.5 231.5t297.5 77.5q158 -6 244 -113.5t43 -295.5q-33 -131 -207 -291q-96 -88 -313 -248q-225 -164 -285 -213q-53 -45 -78 -76q-4 -2 -4 -6q4 -4 11 -6h14q29 0 84 2q25 0 57.5 1t52 2t25.5 1q227 4 532 -16q43 -2 63.5 -35t10.5 -75t-49 -69.5t-80 -25.5 q-299 20 -516 16q-6 0 -25.5 -1t-52.5 -2t-57 -1q-53 -2 -84 -2q-20 -2 -31 0h-14q-16 0 -33 6q-47 20 -86 62.5t-37 107.5z" />
<glyph unicode="3" horiz-adv-x="1218" d="M70 369q-6 39 19.5 78.5t68.5 54t77.5 -3t40.5 -60.5q16 -115 19 -116q10 -35 53 -68q47 -35 129 -44t174 17q92 27 155.5 77t88.5 116q41 111 -51 178q-37 25 -86 41q-16 6 -31 10l-10 2q-4 0 -6 2q-4 0 -6 2q-6 2 -13 7q-8 4 -16 14q-27 27 -21 69q6 47 47 86 q12 12 29 23l47 27q66 39 101 65q102 76 92 152q-12 133 -150 151q-66 10 -140.5 -10t-137.5 -65q-18 -16 -31.5 -25.5t-27 -26t-18.5 -24.5t-24.5 -39t-33.5 -49q-25 -39 -68 -54.5t-78 3t-41 59.5t21 80q6 10 29.5 46t33.5 50t31.5 41t47.5 50.5t62 47.5q102 76 222 109 t227 16q115 -16 194.5 -91t92.5 -202q23 -211 -203 -379l-2 -2l10 -8q82 -59 118 -155.5t-15 -233.5q-51 -139 -168 -231.5t-254 -128.5q-123 -39 -254 -25q-131 10 -213 76q-82 61 -109 143q-4 16 -22 148z" />
<glyph unicode="4" horiz-adv-x="1210" d="M51 518q12 76 94 144q12 10 23.5 18t16.5 11t8.5 7t9.5 9l82 86q317 338 530 624q20 29 52 43.5t61 12.5h4q45 8 74.5 -16.5t27.5 -65.5q-10 -299 -129 -795q115 0 205 -2q43 0 65.5 -31t13.5 -74t-46 -71.5t-80 -28.5q-92 2 -205 2q-37 -145 -70 -303 q-10 -41 -46.5 -70.5t-78.5 -29.5t-65 30.5t-14 73.5q35 162 67 299q-162 -2 -231 -2q-31 0 -101.5 -2t-99.5 -2q-59 2 -94 14q-86 31 -74 119zM348 592q88 2 115 2q70 0 237 2q74 309 103 506q-162 -199 -381 -428z" />
<glyph unicode="5" horiz-adv-x="1134" d="M96 307q-14 37 6.5 78t61.5 62.5t80 10t51 -47.5q10 -23 16 -56l13 -47q12 -41 26 -55q35 -41 102.5 -49t147.5 18q80 29 139.5 80t77.5 109q37 106 8.5 194t-108.5 127t-180 12l-35 -14l-84 -37q-55 -25 -90 -35q-31 -8 -52 -10q-51 -4 -81 21q-76 59 -7 174 q6 10 12.5 18t7.5 12.5t4 6.5t3 4v2q78 221 127 446q8 41 43 72q39 51 100 53q158 4 633 4q43 0 66.5 -29.5t14.5 -72.5t-45 -73t-79 -30q-422 0 -547 -2q-45 -193 -98 -350l21 10q53 23 69 27q145 41 258 4t180.5 -116.5t84 -199.5t-26.5 -247q-43 -121 -149.5 -214 t-233.5 -136q-82 -29 -164 -35t-161 19.5t-130 84.5q-37 43 -57 117l-12 51q-6 25 -13 39z" />
<glyph unicode="6" horiz-adv-x="1210" d="M92 510q6 135 48 274.5t116 262.5q78 131 183.5 232t226.5 153q287 111 522 -107q29 -27 24.5 -70t-37 -76.5t-75.5 -38.5t-70 19q-160 145 -323 82q-154 -63 -277 -268q-57 -96 -88 -201q154 117 293 150q84 18 185.5 -5.5t160.5 -66.5q115 -76 146.5 -190.5 t-6.5 -229.5t-126 -213t-202.5 -156.5t-244.5 -63.5t-249 71q-109 68 -161 187.5t-46 254.5zM305 502q10 -180 129 -252q76 -45 152 -43q78 2 145.5 35.5t120.5 91.5q49 57 69.5 115.5t2 119t-83.5 103.5q-35 23 -99.5 39t-99.5 8q-37 -8 -66.5 -20.5t-68.5 -38t-57 -39.5z " />
<glyph unicode="7" horiz-adv-x="964" d="M33 56q-6 40 22 81q14 20 72 111l78 119l74 108q53 82 79 117l80 113q49 70 86 114l84 107q47 59 92 110l93 105q2 4 38 57l50 51h-2q-82 4 -222 4q-270 0 -358 -4q-41 -2 -66.5 28t-18.5 74t43 76.5t75 34.5q94 4 370 4q135 0 230 -4q55 -2 84 -6q18 -2 33 -4 q33 -8 55 -35q43 -61 6 -153q-20 -51 -72 -129q-14 -18 -34 -39q-16 -25 -31 -39l-31 -29l-12 -16q-45 -47 -87 -95.5t-89 -105.5l-80 -98q-29 -41 -78 -111l-76 -102l-78 -115l-71 -106l-78 -121q-61 -92 -74 -111q-27 -41 -68.5 -55.5t-76.5 5t-41 59.5z" />
<glyph unicode="8" horiz-adv-x="1153" d="M63 293q-14 121 56.5 241.5t210.5 210.5q18 12 41 25q-23 8 -39 16q-115 61 -144 154q-45 139 115 324q188 219 500 200q14 2 24 2q8 0 25 2l37 2q63 6 106 -8q88 -33 133.5 -108.5t49.5 -171.5q4 -84 -33 -184.5t-113 -172.5q-47 -47 -108 -82q59 -59 92 -133 q59 -147 20 -275t-159 -220q-100 -76 -235.5 -105.5t-258.5 -9.5q-135 20 -221 99t-99 194zM270 356q8 -55 54.5 -98t128.5 -57q92 -12 178 7t141 60q111 82 47 232q-37 92 -166 155q-70 -14 -98.5 -21t-69.5 -21.5t-67 -30.5q-84 -53 -118 -112.5t-30 -113.5zM389 1034 q10 -31 70 -61q35 -18 178 -72q47 -16 80 -31q131 31 182 82q72 70 68 181q0 63 -33 100q-12 0 -23 2q-109 23 -184.5 26t-149 -22t-126.5 -86q-74 -84 -62 -119z" />
<glyph unicode="9" horiz-adv-x="1142" d="M129 817q-14 86 8 178q23 96 80 182.5t141 153t204 100t253 21.5q88 -8 139 -37q18 -10 47 -31l29 -22q18 8 39 10q43 2 68.5 -25.5t19.5 -70.5q-74 -483 -272 -1186q-14 -43 -51 -69.5t-79 -23.5t-62.5 34.5t-8.5 74.5q92 338 147 568q-133 -109 -288 -131 q-123 -14 -214 19.5t-138.5 101t-61.5 153.5zM340 989q-27 -113 30.5 -186.5t186.5 -54.5q78 10 147.5 61t116.5 133q33 51 88 227q-2 2 -6 5l-51 38l-29 21q-18 10 -67 14q-92 8 -168 -10q-76 -20 -125 -60t-79 -87.5t-44 -100.5z" />
<glyph unicode=":" horiz-adv-x="413" d="M0 120q10 48 51 83t89 35t77 -35t18.5 -83t-52.5 -83t-91 -35t-75.5 35t-16.5 83zM172 956q10 48 51 83t89 35t77 -35t18.5 -83t-52.5 -83t-91 -35t-75.5 35t-16.5 83z" />
<glyph unicode=";" horiz-adv-x="428" d="M-122 -281.5q-11 33.5 11 70.5q35 57 80 125q20 31 21 35q2 4 4 24q10 104 10 117q6 39 39 67.5t65.5 33t65.5 -20.5t39 -61q2 -12 -10 -113q-6 -49 -17 -80q-12 -23 -43 -72q-39 -61 -75 -118q-23 -35 -64 -51.5t-78 -3t-48 47zM180 959.5q10 48.5 51 83t89.5 34.5 t76.5 -35q29 -35 19 -83t-52 -82.5t-91.5 -34.5t-76 34.5t-16.5 83z" />
<glyph unicode="&#x3c;" horiz-adv-x="1427" d="M178 479q-41 78 10 164q49 80 154 94q14 2 25 4h14h10l144 47q334 113 704 277q43 18 80 5t47 -52t-11.5 -79t-64.5 -58q-401 -174 -727 -285l-121 -39l4 -2l27 -10q14 -6 23 -8q387 -188 602 -336q31 -23 33 -64t-28 -76.5t-73 -48.5q-43 -10 -76 13q-205 141 -579 323 l-10 4l-31 10q-45 20 -78 41q-55 33 -78 76z" />
<glyph unicode="=" horiz-adv-x="1464" d="M109.5 312q11.5 42 49.5 70t81 26q172 -12 460 -13q367 0 476 -4q41 -2 64.5 -32.5t12 -72.5t-48.5 -72t-80 -28q-104 4 -469 4q-295 0 -475 13q-41 4 -61.5 35.5t-9 73.5zM193.5 719q9.5 43 44 73.5t77.5 30.5q604 12 957 13q43 0 66.5 -30t14 -73t-45 -72.5 t-78.5 -29.5q-348 0 -953 -13q-43 0 -67.5 29t-15 72z" />
<glyph unicode="&#x3e;" horiz-adv-x="1560" d="M92 106.5q-4 40.5 22.5 78.5t69.5 51q78 25 428 153q279 102 443 150h4q-18 10 -35 18q-465 207 -729 281q-39 10 -52.5 47t7 78t61.5 62.5t80 8.5q274 -76 752 -289q25 -10 61.5 -30.5t50.5 -26.5q2 -2 5 -2h6q4 0 14 -1t27 -5q41 -8 65 -25q51 -39 37 -110 q-16 -74 -104 -123q-37 -20 -95 -41q-16 -4 -139 -39q-158 -45 -424 -143q-305 -113 -438 -156q-45 -14 -79 4.5t-38 59z" />
<glyph unicode="?" horiz-adv-x="1036" d="M156 1038q2 8 2 21q0 29 2 31q2 55 24 98q47 100 136.5 168.5t183.5 96.5t188 26q94 0 176 -29t142.5 -96.5t70.5 -161.5q16 -182 -196 -367q-18 -18 -43 -39l-54 -41q-29 -23 -45 -34q-66 -55 -94 -90q-37 -49 -49 -78q-4 -12 -12 -39q-18 -57 -21 -70 q-14 -43 -53 -69.5t-81 -22.5t-61.5 38t-4.5 75q4 12 18 65q14 39 23 62q25 61 88 141q43 57 135 133q8 4 59 45l78 64q111 98 104 165q-6 61 -66.5 102.5t-157.5 42.5t-172 -38t-107 -102v-15q-2 -4 -2 -10l2 -8q-2 -6 -2 -8q0 -23 -2 -39q-6 -43 -41 -75t-78 -35 t-68.5 24.5t-21.5 68.5zM304 113q9 43 45 72.5t79 29.5t66 -31q25 -29 15.5 -71.5t-45.5 -72.5t-79 -30t-66.5 30t-14.5 73z" />
<glyph unicode="@" horiz-adv-x="1888" d="M157 665q-7 134 48 286.5t172 297.5q80 98 183.5 175t211 121t222 65.5t222 17.5t205.5 -29q125 -33 224.5 -101t163 -168.5t70.5 -241t-54 -300.5q-39 -109 -131 -197.5t-203 -131.5q-74 -31 -145.5 -36t-138 26.5t-101.5 101.5l-4 -2q-164 -145 -314 -148 q-92 -2 -152.5 53.5t-78.5 157.5q-25 127 57 266.5t211 241.5q61 49 129 86t139.5 59.5t145.5 17.5t133 -44q33 -20 60 -63l12 -25q6 -10 10 -16q23 -31 11.5 -74t-48.5 -72q-14 -10 -33 -18l-4 -17q-31 -84 -43 -120q-25 -76 -34 -123q-2 0 -7 -39q37 -74 152 -27 q61 25 111.5 74t72.5 102q80 219 -8 372t-295 208t-431 -13.5t-368 -244.5q-88 -109 -128 -220.5t-35.5 -209t45.5 -185.5q66 -135 204 -219q135 -84 314 -92q78 -4 172 16q92 18 147 37l189 70q41 16 77.5 0t44 -55t-17 -79t-67.5 -54q-12 -6 -37 -15 q-117 -43 -182.5 -65.5t-175 -43t-201.5 -16.5q-225 10 -400.5 118t-259.5 282q-55 119 -62 253zM762 690q8 -37 21.5 -57.5t22.5 -23.5t21 -3q61 0 154 82q76 66 100 107q8 12 72 143v6l4 19q4 14 10 34q10 43 31 72q4 2 6 6q-49 10 -119.5 -14.5t-148.5 -87.5 q-90 -72 -137 -152t-37 -131z" />
<glyph unicode="A" horiz-adv-x="1251" d="M-70 60q-2 10 -2 20q0 30 19 59q61 100 169.5 295t151.5 266q23 41 178 291q150 246 236 400q22 41 64 60q24 11 47 11q17 0 34 -6q16 -6 29 -18q37 -14 45 -56l246 -1239q2 -10 2 -20q-1 -31 -19 -61q-24 -40 -68 -56q-22 -8 -41 -8t-36 8q-33 16 -41 55l-72 388 q-8 -4 -18 -5q-285 -10 -518 -10q-150 -270 -213 -373q-25 -41 -69 -57q-22 -8 -42 -8t-38 8q-36 16 -44 56zM459 643q172 2 372 8l-90 449z" />
<glyph unicode="B" horiz-adv-x="1392" d="M84 113q10 33 35 59q23 100 64.5 310t66.5 319q6 37 28.5 136t31.5 145t20.5 121t15.5 134q2 43 35 77t74 40q35 6 61 -8q10 4 23 4q124 8 219 8q81 0 141 -6q246 -20 348 -127q68 -70 78 -170q2 -19 2 -39q0 -82 -34 -164q-42 -102 -124 -182q37 -18 60 -43 q70 -70 80 -165q2 -19 2 -38q0 -75 -32 -144q-40 -87 -111.5 -164t-157.5 -122q-68 -33 -149 -55.5t-147.5 -32.5t-155.5 -12q-44 -1 -79 -1t-61 1q-51 2 -140.5 6t-117.5 6q-42 2 -64 33q-15 21 -15 48q0 12 3 26zM332 205q115 -4 216 -7h29q87 0 179 15q108 18 190 61 q102 52 139 146q15 37 15 68q0 48 -35 83q-41 41 -211 66q-68 -10 -147 -10q-61 2 -181 10q-29 2 -49 2q-14 2 -31 8l-24 2q-8 -39 -41 -199.5t-49 -244.5zM463 842h6q78 -10 111 -15q20 0 98 2q42 1 78 1q71 0 114 -3h13q61 10 102 33q90 48 122 150q12 37 12 68 q0 55 -36 91q-63 63 -245 80q-48 4 -112 4q-80 0 -183 -6q-14 -102 -80 -405z" />
<glyph unicode="C" horiz-adv-x="1456" d="M119 614q6 121 57 248t135 232.5t194.5 194.5t232.5 135t251 56q20 1 39 1q108 0 211 -45q47 -20 85 -49t72 -74t48 -66l45 -76q12 -19 12 -42q0 -17 -6 -33q-14 -42 -53 -68q-32 -22 -65 -22h-14q-40 6 -60 38q-43 70 -58 93q-20 29 -52 59.5t-69 46.5q-69 31 -142 31 q-14 0 -28 -1q-88 -7 -176 -40t-168 -95.5t-140 -137t-99 -168t-43 -185.5q0 -11 -1 -23q1 -100 33 -198q36 -108 103 -160q53 -38 142 -60q63 -15 128 -16q27 0 55 3q211 14 306 135q16 20 26 41l27 53l35 65q22 39 64 57q24 11 46 11q17 0 33 -6q37 -14 47 -52 q3 -12 3 -24q0 -27 -15 -55q-4 -6 -23.5 -46t-42 -78t-43.5 -65q-90 -115 -220 -173t-271 -68q-30 -2 -59 -2q-96 0 -187 20q-121 29 -199 88q-104 80 -153 226q-44 131 -44 262q0 16 1 32z" />
<glyph unicode="D" horiz-adv-x="1495" d="M100 129l144 623q25 111 53 274q20 117 59 272l11 43q12 43 50 72q36 27 74 27h5h8q23 10 41 12q82 6 146.5 10t154.5 4q291 0 457.5 -139t166.5 -403q0 -217 -119.5 -431t-310.5 -346q-180 -123 -446 -143q-80 -6 -207 -6l-186 -2h-6q-27 0 -48 14q-33 10 -45 43 q-7 18 -7 39q0 17 5 37zM324 203h108q121 0 189 6q203 14 325 98q135 90 225.5 253t90.5 323q0 195 -122 288t-331 93q-94 0 -201 -11l-57 -4q-29 -106 -47 -215q-27 -147 -58 -286l-36 -170l-17 -70q-43 -176 -69 -305z" />
<glyph unicode="E" horiz-adv-x="1349" d="M106 154q4 14 52 233q8 43 18 88t21 94q55 262 77 357q51 295 101 424q10 31 35.5 55.5t54.5 32.5q36 26 69 26h3l819 2q41 0 61.5 -22.5t20.5 -57.5q0 -43 -35 -79.5t-92 -36.5q-573 0 -760 -2q-10 -25 -19.5 -68t-19.5 -100l-35 -178l-16 -74l688 -2q39 0 60.5 -22.5 t21.5 -57.5q0 -45 -35 -83t-92 -38l-399 4h-289l-92 -448h98q360 -4 467 -4l207 2q41 0 62.5 -20.5t21.5 -55.5q0 -47 -34 -84t-91 -37l-185 -2h-665q-61 0 -88 42q-17 26 -17 64q0 22 6 48z" />
<glyph unicode="F" horiz-adv-x="1222" d="M109 98q16 80 80.5 369t100.5 474t62 378l8 24v15q10 43 45 73.5t78 30.5q286 5 494.5 5t339.5 -5q43 -2 65 -32q15 -20 15 -46q1 -13 -3 -28q-12 -43 -48 -72q-34 -27 -74 -27h-6q-151 6 -372 6q-155 0 -345 -3q-29 -193 -76 -424q135 0 610 6q43 0 68 -30 q18 -22 18 -50q-1 -11 -3 -22q-10 -42 -45.5 -72.5t-76.5 -30.5q-477 -6 -614 -6q-14 -68 -55 -251t-62 -282q-10 -43 -46 -72.5t-79 -29.5q-42 0 -66 30q-16 20 -17 46q0 12 4 26z" />
<glyph unicode="G" horiz-adv-x="1511" d="M119 590q0 211 116.5 414.5t309 332.5t405.5 129q178 0 311.5 -98t213.5 -270q9 -19 9 -39q0 -16 -6 -33q-14 -37 -48.5 -61.5t-75.5 -24.5q-49 0 -70 43q-63 133 -159.5 207t-221.5 74q-143 0 -276 -95.5t-216 -243t-83 -296.5q0 -125 53 -222.5t153.5 -151.5t233.5 -54 q104 0 203.5 57t168 150.5t87.5 195.5q-180 -4 -385 -12h-6q-37 0 -58 22q-22 23 -22 58q0 47 32.5 85t88.5 40q258 12 489 12q43 0 66 -29q18 -23 18 -52q0 -10 -2 -21l-4 -15q-8 -174 -114.5 -333.5t-270.5 -258t-334 -98.5q-168 0 -307 76t-219 210t-80 302z" />
<glyph unicode="H" horiz-adv-x="1497" d="M104 104q45 188 123 605t138 659q12 40 49 70q35 28 72 28h6q40 -2 64 -32q16 -21 16 -48q0 -12 -3 -26q-53 -219 -110 -522q433 14 657 14h53q57 283 119 512q12 42 49 70q34 26 74 26h6q43 -2 63 -34q14 -21 14 -47q0 -13 -3 -27q-61 -240 -100 -408 q-43 -203 -91.5 -455.5t-76.5 -386.5q-8 -43 -44 -72.5t-79 -29.5q-42 0 -66 30q-18 22 -18 51q0 10 2 21q16 72 110 553h-52q-223 0 -656 -14q-66 -350 -111 -541q-10 -43 -46 -71.5t-79 -28.5q-44 0 -66 30q-17 22 -16 52q0 11 2 22z" />
<glyph unicode="I" horiz-adv-x="634" d="M-22 95q8 42 43.5 73t76.5 33l47 2q135 637 220 1059h-33q-42 0 -64 30q-15 22 -16 50q0 12 3 24q9 43 46 71.5t80 28.5q102 -2 252 -4q41 0 65 -30q17 -22 16 -50q0 -11 -2 -23q-10 -42 -46.5 -72t-79.5 -30h-17q-86 -420 -219 -1052h41q43 0 67 -30q17 -22 16 -50 q0 -11 -2 -23q-9 -43 -45 -72.5t-79 -29.5q-158 0 -285 -4h-5q-38 0 -62 28q-19 23 -19 52q-1 9 1 19z" />
<glyph unicode="J" horiz-adv-x="1105" d="M-13 264v23q0 24 1 47q2 35 0 37q0 41 29.5 76.5t73.5 44.5q13 3 26 3q27 0 49 -15q31 -21 33 -64q-2 -31 -3 -57.5t-1 -40t2 -29.5q14 -45 56 -67q31 -17 75 -17q15 0 32 2q66 8 123.5 43t83.5 80q63 104 113.5 273t75 309.5t55.5 349.5q-92 -2 -178 -9h-6q-41 0 -65 26 q-20 23 -20 55q0 7 1 15q6 42 39.5 73.5t76.5 35.5q137 8 285 10h12q111 0 240 -4q41 -2 64 -32q17 -21 17 -47q0 -13 -4 -26q-11 -42 -48 -72q-34 -27 -72 -27h-8l-127 4q-102 -721 -275 -1008q-66 -106 -176 -172t-225 -80q-28 -3 -54 -3q-91 0 -167 37q-98 48 -125 165 q-8 25 -9 61z" />
<glyph unicode="K" horiz-adv-x="1318" d="M117 94q20 123 43 242q31 147 63.5 301t46.5 240q12 53 40 220t50 267q10 43 46 71.5t79 28.5t65 -30q17 -22 17 -52q0 -10 -2 -22q-25 -98 -51.5 -262t-36.5 -217q-10 -45 -18 -97q379 268 805 646q36 30 78 32q2 0 4 1q40 1 64 -27q20 -22 20 -53q0 -9 -2 -19 q-8 -43 -44 -74q-283 -254 -548 -456l385 -670q10 -18 10 -39q-1 -17 -7 -36q-14 -43 -52 -69q-32 -22 -65 -22q-6 0 -13 1q-41 5 -62 38l-379 661l-250 -176q-49 -240 -77 -416q-8 -43 -42 -74.5t-78 -33.5h-6q-40 0 -64 26q-21 22 -20 54q0 8 1 16z" />
<glyph unicode="L" horiz-adv-x="1136" d="M111 96l32 168l23 115l55 287q98 510 144 714q10 49 44.5 77t79.5 28q47 -1 69 -27q15 -18 15 -44q0 -14 -4 -30l-82 -407q-16 -72 -73 -375q-51 -283 -80 -414q274 0 328 2q61 2 294 3q39 0 59.5 -23t20.5 -55q0 -41 -34.5 -78t-92.5 -37l-721 -2q-36 0 -60 28 q-18 22 -19 52q0 9 2 18z" />
<glyph unicode="M" horiz-adv-x="1767" d="M111 104q25 109 71.5 320t69.5 311q82 383 106 617q4 43 38 75.5t77 36.5q23 2 39 -4q47 -2 70 -39l227 -362q96 -154 162 -268q362 418 612 636q10 8 19 15q36 29 75 29q3 -1 7 -1q42 -2 65 -32q15 -19 15 -45q0 -14 -5 -29q-53 -215 -140 -638t-140 -630 q-10 -44 -47 -72q-35 -27 -74 -26h-5q-43 2 -65 32q-16 21 -15 49q0 12 3 25q23 61 112 489.5t101 489.5q-201 -205 -475 -524q-31 -37 -75 -45q-12 -2 -23 -2q-30 0 -52 16q0 2 -2 2q-16 12 -24 29q-61 121 -213 367l-101 159q-27 -154 -67 -352q-23 -98 -70 -309t-72 -320 q-8 -43 -43.5 -72.5t-78.5 -29.5t-67 30q-17 21 -17 50q0 10 2 22z" />
<glyph unicode="N" horiz-adv-x="1538" d="M109 100q27 123 108.5 556.5t138.5 666.5q8 31 33 57q14 37 49 62q32 22 66 22h14q41 -6 60 -39q215 -362 350 -673l55 -134l64 -151l57 -125q156 682 221 1018q8 43 43 73.5t78 30.5q42 0 68 -28q18 -20 19 -49q0 -11 -3 -23q-51 -256 -277 -1270q-8 -41 -45 -70.5 t-78 -29.5q-14 0 -26 4q-11 -2 -21 -2q-45 0 -69 37q-41 68 -83 152.5t-69 146.5l-67 162l-64 147q-94 215 -223 453q-39 -172 -100.5 -504t-94.5 -490q-10 -43 -46 -72.5t-79 -29.5q-42 0 -66 30q-16 20 -17 46q0 12 4 26z" />
<glyph unicode="O" horiz-adv-x="1591" d="M117 543q0 248 118.5 461t309 337.5t393.5 124.5q18 0 42 -6t32 -6q141 0 264 -86t195.5 -231.5t72.5 -311.5q0 -217 -112.5 -412.5t-303 -314t-411.5 -118.5q-168 0 -304.5 68.5t-216 195.5t-79.5 299zM326 586q0 -209 114.5 -311.5t319.5 -102.5q141 0 275 86 t217 230.5t83 310.5q0 109 -37.5 207t-115.5 164.5t-193 78.5q-82 8 -149 8q-152 -33 -269.5 -137t-181 -247.5t-63.5 -286.5z" />
<glyph unicode="P" horiz-adv-x="1296" d="M109 96q6 20 114 604q78 403 152 656q14 44 51 70q34 25 74 24h6q20 -2 37 -12q161 32 296 32q74 0 140 -10q328 -47 373 -307q4 -40 4 -75q0 -75 -18 -129q-26 -79 -77 -141.5t-117.5 -101t-131 -62t-133.5 -36.5q-131 -26 -273 -26q-96 0 -196 12q-74 -393 -97 -498 q-8 -43 -44 -72.5t-79 -29.5q-42 0 -66 30q-17 21 -17 49q0 11 2 23zM449 797q12 2 26 2q92 -11 179 -12q118 0 225 22q221 43 260 164q7 21 7 66q0 18 -1 40q-25 147 -236 178q-52 7 -111 7q-112 0 -249 -25q-49 -180 -100 -442z" />
<glyph unicode="Q" horiz-adv-x="1593" d="M118 646q25 175 125.5 354.5t256.5 306.5q25 16 49 33.5t55 31.5l49 27q18 10 54 24l49 17q12 6 50 20.5t40 14.5q22 8 40 8q30 0 52 -19q69 13 131 13q86 0 159 -25q126 -43 204 -147q86 -113 110 -276q8 -61 8 -125q0 -105 -24 -216q-33 -145 -93.5 -267t-181.5 -220 q-14 -8 -28 -21q86 -55 186 -94q37 -14 47 -51q3 -11 3 -23q0 -26 -15 -53q-23 -39 -64 -57q-23 -11 -43 -11q-17 0 -32 7q-166 59 -301 165q-47 -20 -103 -38q-104 -35 -207 -35q-155 0 -305 80q-162 84 -229 242q-49 116 -49 239q0 47 7 95zM333 495q38 -167 183 -245 q113 -59 224 -59q54 0 108 14q-35 41 -70 88q-18 20 -18 48q0 10 2 22q10 43 46 71.5t78 28.5t64 -29q61 -76 123 -133q39 20 68 45q74 59 114.5 142t67.5 204q22 92 22 177q0 45 -7 88q-17 124 -81 206q-88 113 -236 113q-81 0 -179 -33q-20 -7 -38 -7q-20 0 -38 9 q-102 -41 -156 -84q-164 -131 -240 -315q-50 -122 -50 -237q0 -58 13 -114z" />
<glyph unicode="R" horiz-adv-x="1464" d="M106 115l50 235q12 57 75 359q18 92 58 292l61 310q6 35 35 63q12 29 39 49.5t59 24.5q151 22 273 22h10q700 0 700 -368q0 -141 -100 -253t-276 -159q49 -14 91 -63t54 -119q12 -72 24.5 -175.5t16.5 -189.5v-13q0 -60 -34 -94q-38 -38 -83 -38q-84 0 -92 90l-8 96 q-10 86 -17 176q-16 256 -276 256q-125 0 -182 -4l-90 -8q-32 -4 -56 -4q-16 0 -30 2q-66 -338 -101 -498q-8 -49 -43 -75.5t-76 -26.5q-42 0 -68 30q-17 20 -18 51q0 15 4 32zM451 801q66 8 147 8l76 2q55 0 76 2q158 8 305 59q98 33 148 85.5t50 119.5q0 90 -127 144.5 t-350 54.5q-125 0 -231 -14l-19 -86z" />
<glyph unicode="S" horiz-adv-x="1327" d="M78 416q2 53 39 88t88 35q37 0 59.5 -17.5t22.5 -50.5v-149q0 -49 78 -91q74 -38 225 -38h8q90 0 185.5 30.5t159 87t63.5 125.5q0 45 -33 78t-80 54.5t-139 54.5q-141 47 -211 74.5t-162 72.5q-86 43 -133 117t-47 164q0 123 80.5 217t212 145t278.5 51q133 0 256 -43 t200 -121.5t77 -183.5q0 -86 -35 -134t-99 -48q-41 0 -65.5 23.5t-24.5 62.5q0 18 13 67q0 33 -41 76q-45 45 -123 75t-176 30q-160 0 -251 -52.5t-91 -146.5q0 -76 120 -133q90 -43 289 -117q213 -78 305.5 -151.5t92.5 -184.5q0 -137 -98.5 -247.5t-249 -173t-300.5 -62.5 q-252 0 -380 104q-115 93 -115 269q0 21 2 43z" />
<glyph unicode="T" horiz-adv-x="1163" d="M182 1357q6 40 43 70.5t78 32.5q153 5 385 5h80q287 -1 463 -1q43 0 69 -28q19 -21 18 -49q0 -10 -2 -21q-9 -41 -45 -69.5t-79 -28.5q-145 0 -342 -2q-55 -205 -133 -578q-104 -510 -123 -586q-8 -43 -45 -71.5t-80 -28.5t-65 30q-16 21 -16 49q0 12 3 25q16 72 121 580 q76 371 133 582h-107q-154 0 -270 -4h-6q-40 0 -62 26q-20 22 -19 52q0 7 1 15z" />
<glyph unicode="U" horiz-adv-x="1499" d="M154 395q0 125 36.5 290t114.5 452l62 225q12 49 48 77.5t74 28.5q47 0 71 -28q16 -18 16 -44q0 -15 -5 -32l-65 -236q-82 -295 -115 -433t-33 -232q0 -139 74 -213t215 -74q207 0 354.5 170t215.5 457q27 113 98 553q8 49 43 79.5t84 30.5q42 0 64 -26q17 -20 16 -50 q0 -11 -2 -22q-37 -215 -41 -244q-53 -299 -66 -352q-80 -350 -280.5 -571t-516.5 -221q-213 0 -337.5 109.5t-124.5 305.5z" />
<glyph unicode="V" horiz-adv-x="1249" d="M205 1333q-1 7 -1 15q0 32 20 63q26 39 68 55q20 7 38 7q21 1 40 -9q36 -18 44 -57l67 -494q59 -352 101 -546l233 393q242 412 395 647q27 39 69 55q20 7 38 7q21 1 39 -9q35 -18 42 -57q2 -9 2 -17q0 -30 -20 -61q-145 -223 -387 -637q-268 -449 -381 -629 q-26 -39 -68 -55q-21 -8 -40.5 -8t-36.5 8q-53 23 -94 279l-35 204l-78 439z" />
<glyph unicode="W" horiz-adv-x="1869" d="M227 1343q-1 7 -1 14q0 47 35 79q40 38 91 37q33 0 57.5 -18.5t26.5 -53.5q18 -268 27 -739l6 -248q121 238 403 764l107 198q27 47 55.5 73t71.5 26q39 0 59.5 -21.5t22.5 -56.5q4 -59 57 -580l43 -442l158 317q244 489 358 717q18 37 48 55.5t61 18.5q37 0 63.5 -22.5 t26.5 -57.5q0 -25 -14 -51l-658 -1280q-16 -33 -48 -52.5t-66 -19.5q-35 0 -61 24.5t-32 61.5q-70 504 -116 946l-275 -489l-121 -224q-76 -137 -131 -247q-16 -33 -48 -53.5t-64 -20.5q-88 0 -88 108q-4 588 -54 1237z" />
<glyph unicode="X" horiz-adv-x="1159" d="M-88 87q2 42 35 77l553 586q-96 207 -238 559q-5 15 -5 30q-1 23 11 47q18 40 60 62q29 15 57 16q13 0 23 -3q38 -9 53 -46q141 -350 205 -491l469 495q31 33 75 40q9 2 18 2q32 -1 53 -21q27 -25 27 -64q0 -44 -36 -80l-518 -548l30 -50q53 -80 74 -120 q113 -215 191 -426q6 -15 6 -32q1 -23 -11 -46q-20 -40 -62 -62q-28 -14 -54 -15q-13 0 -26 4q-38 11 -50 48q-78 207 -182 406q-16 27 -68 108l-10 15l-504 -533q-31 -35 -75 -42q-10 -2 -19 -2q-32 -1 -54 19q-28 23 -28 62v5z" />
<glyph unicode="Y" horiz-adv-x="1191" d="M186 1382q9 35 36.5 58.5t66.5 23.5q41 0 62.5 -17t35.5 -56q0 -2 39 -103q74 -213 199 -528q37 47 155 180q158 182 254 303l137 172q18 25 43 37t48 12q35 0 61.5 -24.5t26.5 -57.5q0 -37 -37 -84q-35 -45 -162 -198q-92 -111 -164 -193l-98 -116q-150 -174 -207 -252 l-33 -179l-28 -163l-17 -84q-12 -53 -45 -82t-74 -29q-45 0 -69 28q-20 22 -20 55q0 8 1 17q6 35 19.5 98.5t29.5 157.5l35 201l-153 399l-54 132q-80 203 -88 225q-5 17 -5 34t5 33z" />
<glyph unicode="Z" horiz-adv-x="1245" d="M-76 138q0 41 31 89q12 20 37 49q35 41 96 101q72 76 164 162l174 161l190 181l164 157l172 160l13 14l24 23l25 25h-299q-262 0 -406 -7q-11 -2 -22 -2q-31 -1 -53 17q-30 24 -29.5 66t32 77t72.5 43q166 10 451 10h448q4 0 6 -2q8 -2 15 -4q23 -6 39 -28q19 -28 19 -62 q0 -41 -27 -92q-23 -43 -70 -96q-29 -35 -70 -74l-20 -21q-12 -12 -15 -14l-172 -160l-163 -157l-195 -185l-174 -161l-158 -154q-35 -35 -53 -55q14 0 44 3t48 3q160 7 326 8q240 0 493 -16q43 -2 63 -34q13 -21 14 -46q0 -14 -4 -29q-11 -42 -49 -70q-35 -26 -73 -26h-6 q-247 16 -479 16q-164 0 -320 -8l-18 -2q-16 -2 -33.5 -3t-43.5 -2t-44 1q-164 15 -164 144z" />
<glyph unicode="[" horiz-adv-x="768" d="M33 -309q-43 57 4 147l16 33q16 57 29.5 120.5t31 147.5t23.5 121l123 569q0 2 29 185q20 137 51 213q53 139 137 190q57 35 135 35q16 0 30.5 -1t18 -1t15.5 2q18 2 39.5 4t48.5 6l39 6q43 4 71.5 -21.5t24.5 -67.5t-37 -75.5t-74 -39.5l-131 -17h-98q-10 -20 -27 -57 q-20 -53 -36 -164q-31 -188 -31 -197l-123 -569q-76 -358 -86 -401q-2 -10 -10 -23l88 -14l28 -4q12 -2 25 -4l25 -4l21 -3.5t19.5 -3.5t17.5 -2t12 -1t7 -1l3 -2q43 -4 60 -38.5t3 -76.5t-54 -67t-79 -18h-4q-2 0 -7 1t-13.5 2t-17.5 2t-20.5 2t-21.5 3l-25 4l-26 4 q-12 2 -27 4q-74 12 -121 23q-31 6 -47 12q-41 14 -59 37z" />
<glyph unicode="\" horiz-adv-x="868" d="M293 1364q-2 41 25.5 78t71.5 49t77 -8.5t35 -61.5q131 -965 184 -1315q6 -41 -21.5 -78.5t-70.5 -51t-77 6t-38 58.5q-49 471 -186 1323z" />
<glyph unicode="]" horiz-adv-x="698" d="M-148.5 -320.5q3.5 41.5 35 75.5t74.5 40q115 18 117 19q25 2 72 0q10 16 28 57l2 4l4 23q6 27 13 71q4 29 12 74t8 53q39 209 154 744q2 12 23.5 105t35.5 157q18 92 29 147l2 8q-12 2 -29 5q-6 0 -117 2q-43 0 -65.5 30.5t-13 73.5t46 71.5t79.5 28.5q119 -2 130 -2 q51 -4 83 -14q63 -18 89 -59q12 -20 12 -50q2 -12 -2 -28q0 -23 -8 -60q-10 -57 -31 -155q-14 -63 -35.5 -155.5t-24.5 -104.5q-113 -530 -151 -740q-2 -6 -9 -49t-12 -71q-8 -49 -14 -80q-10 -49 -18 -72q-61 -133 -135 -184q-57 -39 -130 -37q-16 2 -27 2t-11 1t-9 -1 l-36 -4q-16 -2 -40 -6.5t-36 -4.5q-41 -6 -70 19t-25.5 66.5z" />
<glyph unicode="^" horiz-adv-x="1079" d="M139 658q-6 40 21 79l196 271q129 176 191 264q2 2 3 4t2 5t5 13.5t10 24.5q41 94 119 127q82 33 137 -31q23 -25 43 -74q27 -68 56 -198l30 -148l31 -164q14 -82 18 -110q8 -39 -16 -79t-66 -55.5t-79 1t-43 55.5l-19 111l-30 161q-14 80 -29 146l-25 94l-368 -508 q-27 -37 -70 -51t-77 4t-40 58z" />
<glyph unicode="_" horiz-adv-x="1265" d="M-202 -221q7 43 42 73.5t80 32.5q168 6 359.5 6t425 -3t360.5 -3q43 0 65.5 -29.5t14.5 -72.5t-45 -72.5t-80 -29.5q-127 0 -379 3t-379 3t-379 -6q-43 -2 -67.5 26.5t-17.5 71.5z" />
<glyph unicode="`" horiz-adv-x="485" d="M209 1477q-8 39 15.5 68.5t66.5 30.5t74 -26l55 -49q37 -33 56.5 -49t53.5 -51l72 -70q31 -31 34 -69.5t-23.5 -65.5t-67.5 -23.5t-74 31.5q-59 55 -84 77t-63 56q-37 33 -74 70q-33 31 -41 70z" />
<glyph unicode="a" horiz-adv-x="1159" d="M37 332q0 119 46 218t134 210q121 150 260 238.5t279 88.5q102 0 200 -53q45 -29 76 -72.5t31 -95.5q0 -137 -19 -258q-23 -133 -55 -280q-29 -131 -45 -226q-8 -49 -43 -76.5t-76 -27.5t-67 30q-20 23 -21 58q0 11 2 23l9 55q-66 -66 -163.5 -116t-191.5 -50 q-100 0 -181 42t-128 117.5t-47 174.5zM246 369q0 -76 55 -121t143 -45q74 0 135.5 27.5t127.5 76.5q27 20 49 47t39 47q57 262 59 412q-33 68 -133 68q-80 0 -168 -54.5t-170 -156.5q-137 -174 -137 -301z" />
<glyph unicode="b" horiz-adv-x="1148" d="M35 106l37 148q16 72 36.5 155t33 140t28.5 138t25.5 125t33 155.5t28.5 141.5t24.5 131t23.5 122q8 43 44 73.5t79 30.5q44 0 68 -28q17 -20 17 -48q0 -11 -3 -24q-51 -291 -66 -360q33 27 88 49q90 35 169 35q36 0 70 -8q108 -24 181 -107q61 -75 89 -181 q24 -93 25 -170q0 -11 -1 -22q-20 -260 -182 -436q-94 -102 -219 -146q-80 -29 -169 -29q-49 0 -100 9q-98 16 -172 66q-18 -32 -50 -50q-29 -17 -56 -16h-6q-43 2 -65 34q-15 21 -15 45q0 13 4 27zM293 326l2 -2q49 -100 174 -123q33 -5 64 -5q126 0 208 89 q102 111 115 290q1 13 1 26q0 134 -77 224q-52 60 -133 60q-45 0 -100 -19q-14 -6 -27.5 -13t-27.5 -22l-29 -20q-10 -10 -36 -33.5t-42 -36.5q-43 -213 -92 -415z" />
<glyph unicode="c" horiz-adv-x="1083" d="M70 368q2 120 47 228.5t116 208.5q57 76 127 134t156 100t174 45h12q82 0 168 -37q47 -25 91 -78l30 -37l23 -29q22 -22 22 -56v-13q-6 -42 -40 -74q-34 -33 -78 -37h-11q-36 0 -57 25q-16 14 -35 38l-24 35q-23 29 -43 37q-41 20 -85 20q-45 0 -91 -21 q-92 -42 -177 -148q-85 -115 -109 -229q-8 -39 -8 -74q0 -65 29 -109q29 -43 92.5 -69.5t141.5 -26.5q160 4 227 112v11l4 16v6l8 37q12 43 49 71q34 26 74 25h6q43 -1 63 -33q14 -21 14 -48q0 -13 -3 -27l-4 -17l-6 -28q-8 -51 -33 -90q-72 -119 -192.5 -178.5 t-247.5 -61.5h-10q-112 0 -210 41q-102 43 -157 125q-53 83 -53 197v9z" />
<glyph unicode="d" horiz-adv-x="1173" d="M78 397q0 176 85 336t226 257t301 97q55 0 130 -15t112 -38l65 328q8 45 43 73.5t80 28.5q46 0 68 -28q16 -20 16 -48q0 -11 -2 -22q-184 -934 -254 -1264q-8 -43 -42 -72.5t-81 -29.5q-41 0 -61 26q-16 20 -17 48q0 7 1 14q-70 -43 -149 -67.5t-153 -24.5 q-174 0 -271 112.5t-97 288.5zM287 438q0 -109 54 -173t151 -64q82 0 175 46t130 111q55 260 84 414l-4 2q-72 74 -70 76q-20 14 -66.5 23.5t-89.5 9.5q-100 0 -184 -63.5t-132 -166t-48 -215.5z" />
<glyph unicode="e" horiz-adv-x="1191" d="M88 457q0 184 86 327.5t225.5 222t288.5 78.5q139 0 239.5 -64.5t153 -180t52.5 -262.5q0 -57 -47.5 -94.5t-104.5 -37.5l-688 5q0 -119 84 -186.5t233 -67.5q111 0 189 32q33 14 60.5 25.5t49.5 11.5q33 0 56.5 -22.5t23.5 -55.5q0 -39 -22.5 -67.5t-67.5 -50.5 q-135 -68 -321 -68q-145 0 -256 54.5t-172.5 156.5t-61.5 244zM311 647h54q121 0 277 1h102q98 0 182 -1q-8 119 -76 182.5t-184 63.5q-123 0 -224.5 -70.5t-130.5 -175.5z" />
<glyph unicode="f" horiz-adv-x="634" d="M96 100q27 262 94 602l31 154h-16q-39 0 -62.5 20.5t-23.5 59.5q0 53 34.5 91t82.5 38h36q25 106 70 201.5t102 146.5q35 31 89.5 51.5t101.5 20.5q78 0 122 -25.5t44 -75.5q0 -53 -32 -87.5t-79 -34.5q-18 0 -51 8q-10 2 -21.5 4t-21.5 2q-41 0 -72 -78 q-29 -74 -47 -133h88q41 0 62.5 -22.5t21.5 -57.5q0 -49 -37 -87t-90 -38h-96l-31 -155q-90 -455 -90 -580q0 -57 -36 -91t-85 -34q-89 0 -89 85q0 7 1 15z" />
<glyph unicode="g" horiz-adv-x="1155" d="M-31 -141q0 55 39 91t86 36q33 0 57.5 -18.5t26.5 -53.5v-45q0 -45 54.5 -69.5t134.5 -24.5t154.5 34.5t127.5 94.5q57 66 90 188q-121 -96 -268 -96q-123 0 -211 54t-134 147.5t-46 208.5q0 174 76.5 329.5t207 250.5t279.5 95q90 0 155.5 -30.5t98.5 -81.5 q35 114 116 114h1q43 0 70 -31q21 -24 21 -64q0 -9 -1 -19q-29 -217 -100 -586q-41 -199 -86 -342q-57 -188 -166 -309q-66 -72 -179.5 -113t-222.5 -41q-166 0 -273.5 78t-107.5 203zM289 424q0 -115 66.5 -172t176.5 -57q117 0 184.5 60t90.5 183q18 90 33 183l10 65v6 q0 32 -18 62q-21 32 -64 69q-18 18 -60 34.5t-92 16.5q-82 0 -170 -69q-74 -59 -115.5 -161.5t-41.5 -219.5z" />
<glyph unicode="h" horiz-adv-x="1118" d="M66 100q18 94 118 637q74 408 133 647q10 41 47 71q35 28 74 28h5q43 -2 65 -33q16 -21 15 -49q0 -12 -3 -25q-14 -55 -92 -428q147 138 297 138q15 0 29 -1q273 -24 273 -332q0 -57 -9 -124q-18 -119 -40 -207t-52.5 -194.5t-36.5 -129.5q-10 -44 -47 -72 q-36 -28 -76 -27h-3q-41 1 -63 31q-16 22 -16 51q0 10 2 21q0 2 53 193q55 209 72 317q6 47 6 86q0 173 -127 183q-12 1 -24 1q-66 0 -122 -29q-66 -34 -138 -118q-4 -6 -23 -28q-78 -442 -113 -607q-10 -43 -46 -72.5t-79 -29.5t-67 30q-16 20 -16 46q0 12 4 26z" />
<glyph unicode="i" horiz-adv-x="450" d="M29 98q29 154 101.5 471.5t92.5 415.5q8 43 44 72.5t79 29.5q42 1 66 -29q18 -22 18 -52q0 -10 -2 -21q-20 -98 -93 -413.5t-102 -469.5q-8 -43 -43.5 -73.5t-78.5 -30.5t-68 28q-17 20 -17 47q0 12 3 25zM296 1362q9 43 45 72.5t79 29.5t65 -30q18 -21 19 -50 q0 -10 -3 -22q-9 -43 -45 -72.5t-79 -29.5t-67 30q-17 21 -16 49q0 11 2 23z" />
<glyph unicode="j" horiz-adv-x="487" d="M-215 -293q0 29 18.5 57.5t53.5 47.5q20 12 43 18q25 10 46 22.5t34 26.5q16 18 27 49t28 86q31 100 80 348l18 93q55 266 98 524q8 45 41 75.5t80 30.5q43 0 68 -29q19 -22 19 -53q0 -8 -1 -16q-47 -295 -110 -581l-9 -41q-59 -287 -92 -394q-59 -205 -153 -268 q-49 -33 -109.5 -58.5t-97.5 -25.5t-59.5 25.5t-22.5 62.5zM293 1341q0 49 39 87t90 38q37 0 59.5 -23.5t22.5 -60.5q0 -47 -37 -86t-86 -39q-43 0 -65.5 24t-22.5 60z" />
<glyph unicode="k" horiz-adv-x="1005" d="M43 104q123 471 291 1260q10 43 46 72.5t79 29.5t67 -30q16 -21 16 -48q0 -12 -3 -24q-86 -401 -148 -672q352 250 492 361q33 33 77 35h6q40 0 64 -26q20 -22 19 -52q1 -9 -1 -19q-8 -43 -42 -73q-125 -100 -351 -265q76 -225 254 -485q15 -21 15 -46q0 -13 -4 -27 q-12 -43 -48 -71q-35 -27 -74 -26h-5q-41 2 -64 35q-180 260 -262 487l-129 -92q-6 -4 -10 -6q-37 -160 -82 -326q-10 -44 -48 -72q-36 -27 -74 -26h-5q-41 2 -63 34q-16 22 -16 48q0 11 3 24z" />
<glyph unicode="l" horiz-adv-x="473" d="M37 106q66 272 95.5 414t84.5 422.5t86 421.5q10 43 46 72.5t79 29.5q42 0 66 -30q16 -21 17 -48q0 -12 -3 -24q-31 -141 -82 -401.5t-97 -472t-89 -392.5q-12 -44 -49 -72q-35 -27 -74 -26h-5q-42 2 -64 32q-15 20 -15 46q0 13 4 28z" />
<glyph unicode="m" horiz-adv-x="1693" d="M49 106q51 227 65.5 292t58.5 297.5t58 297.5q6 31 42 61.5t77 30.5t65.5 -26.5t22.5 -52.5q111 68 242 79q20 2 38 2q116 0 185 -65q37 -37 55 -90q190 152 379 153h6q147 0 218 -94q51 -78 52 -197q0 -9 -1 -18q-2 -61 -15.5 -134t-36 -164t-26.5 -103l-10 -56l-8 -36 l-5 -21q-2 -10 -3 -20.5t-3 -23.5t-7 -44t-7 -68q-8 -43 -42 -74.5t-77 -34.5h-8q-36 1 -60 25q-22 24 -23 57q0 5 1 11q6 37 9 68.5t5 47t4.5 27t4.5 25.5l4 21l10 40l10 56q8 33 28.5 115.5t32 140t11.5 108.5q1 10 1 19q0 56 -22 84q-24 32 -88 32q-141 -2 -319 -172 q-6 -61 -43 -237q-29 -129 -72 -361q-6 -41 -42 -71.5t-79 -32.5h-5q-38 0 -62 28q-18 22 -19 52q0 10 2 20q43 231 72 365l10 53l10 49q2 10 8.5 43t8.5 48.5t5 41t4 45t-1 37.5q-4 57 -29 80q-20 20 -65 20q-11 0 -23 -1q-70 -6 -125 -37q-53 -31 -116 -99 q-12 -12 -27 -22q-80 -410 -133 -625q-12 -44 -49 -72q-35 -27 -74 -26h-5q-42 2 -64 32q-15 20 -15 46q0 13 4 28z" />
<glyph unicode="n" horiz-adv-x="1142" d="M49 102q35 160 180 883q10 47 45 73.5t76 26.5q46 1 70 -31q16 -22 17 -49q0 -11 -3 -24l-20 -82q80 92 161.5 138t180.5 46q141 0 217 -82.5t76 -224.5q0 -100 -24 -234t-50 -227q-14 -45 -66 -225q-12 -41 -46 -65.5t-72 -24.5q-45 0 -68 32q-16 21 -16 46q0 12 4 24 q10 59 61 228q29 90 46.5 199.5t17.5 181.5q0 86 -39 132t-111 46q-82 0 -170 -72t-156 -182l-73 -365l-33 -168q-10 -47 -47 -74.5t-78 -27.5q-47 0 -69 32q-15 22 -14 46q0 12 3 24z" />
<glyph unicode="o" horiz-adv-x="1202" d="M84 420q0 168 72.5 314.5t188.5 238.5t243 104q29 2 42 5t23 3q25 0 41 -8h62q100 0 185 -55t134 -151.5t49 -213.5q0 -162 -79.5 -313t-221 -247.5t-313.5 -96.5q-193 0 -309.5 113.5t-116.5 306.5zM291 451q0 -121 64.5 -186.5t191.5 -65.5q90 0 176 57t140.5 157.5 t54.5 221.5q0 104 -56.5 174t-130.5 70q-45 0 -78 4q-14 2 -26.5 5t-24.5 3q-39 0 -92 -31q-84 -49 -151.5 -157.5t-67.5 -251.5z" />
<glyph unicode="p" horiz-adv-x="1185" d="M-45 -305q94 403 283 1288q8 43 43.5 72.5t78.5 29.5q31 0 50.5 -27.5t23.5 -68.5l33 19q139 74 261 80q11 1 22 1q108 0 184 -55q80 -51 122 -143t48 -201q2 -21 2 -42q0 -59 -12 -124q-17 -88 -58 -163.5t-103.5 -149.5t-159.5 -129t-212 -76q-51 -9 -96 -9 q-131 0 -219 75q-43 -190 -88 -381q-8 -43 -45 -72t-80 -29t-65 31q-16 21 -16 49q0 12 3 25zM311 373q8 -10 13 -23q37 -90 93 -125q38 -24 93 -24q26 0 57 6q162 29 250 149q81 109 81 254q0 14 -1 27q-10 160 -104 219q-39 26 -90 26q-72 0 -166 -51q-74 -39 -88 -51 q-6 -6 -11.5 -11t-19.5 -24l-35 -36z" />
<glyph unicode="q" horiz-adv-x="1196" d="M78 376q-1 15 -1 29q0 63 15 119q17 70 51 148q61 117 147.5 209t174.5 143q119 66 227 66q145 0 271 -119l6 -2q20 61 53 84.5t68 23.5q43 0 68 -29q18 -21 18 -51q0 -9 -2 -20q-27 -129 -48 -229q0 -16 -6 -31q-92 -461 -229 -1016q-10 -41 -47 -71q-35 -27 -74 -27h-5 q-42 2 -65 33q-15 21 -15 48q0 12 3 25q45 178 96 397q-70 -49 -129 -73q-83 -35 -174 -35q-48 0 -98 10q-104 20 -174 77.5t-98.5 134.5t-32.5 156zM291 362q33 -126 172 -153q34 -6 64 -6q44 0 81 14q29 12 61.5 35.5t52 40t64.5 61.5l68 62l59 280l-16 23q-10 18 -16 26 q-12 16 -62 54q-91 64 -177 64q-51 0 -101 -23q-123 -57 -211 -224q-49 -87 -49 -174q0 -40 10 -80z" />
<glyph unicode="r" horiz-adv-x="741" d="M47 106l86 414l94 455q12 55 46 82.5t75 27.5q46 1 70 -29q18 -22 18 -49q0 -9 -2 -18l-12 -49q37 41 92 74q110 59 220 59h14q51 -2 79.5 -27.5t28.5 -62.5q0 -47 -35 -81t-86 -34q-66 0 -126 -18.5t-105 -46.5q-84 -49 -133 -119l-54 -260l-65 -322q-8 -49 -43 -75.5 t-76 -26.5q-45 0 -69 30q-18 23 -19 55q0 10 2 21z" />
<glyph unicode="s" horiz-adv-x="1017" d="M18 276v8q0 74 36 120q38 50 100 49q33 -2 58.5 -20.5t25.5 -51.5q0 -25 -7 -47q-2 -10 -4 -22.5t-2 -24.5q0 -39 57.5 -64.5t176.5 -25.5q104 0 172.5 44t68.5 107q0 37 -31.5 58.5t-121.5 42.5q-49 12 -135 30q-127 27 -196 93.5t-69 172.5q0 88 59.5 167t160 126 t219.5 47q96 0 162.5 -19t121.5 -56q123 -80 129 -164v-9q-1 -35 -27 -65q-30 -33 -73 -33q-59 0 -117 58q-45 45 -100 68.5t-143 23.5q-82 0 -131.5 -34t-49.5 -77q0 -39 29 -63.5t102 -42.5q147 -35 193 -47q115 -31 171 -90.5t56 -161.5q0 -109 -71.5 -194t-184 -132 t-229.5 -47q-111 0 -190.5 26.5t-124.5 63.5q-41 35 -65 83t-26 103z" />
<glyph unicode="t" horiz-adv-x="628" d="M109 201q-3 14 -3 36q0 61 21 181q20 125 66 321q8 37 28 123l-16 -2q-6 -1 -11 -1q-37 -1 -61 23q-23 23 -23 57v12q4 42 37 75t76 39l47 4q27 109 54 219q12 43 49 72q34 27 72 27q3 -1 7 -1q42 -2 64 -32q14 -19 15 -44q0 -14 -5 -30l-47 -195l90 5h6q39 0 63 -25 q21 -22 21 -53q1 -8 -1 -17q-6 -43 -39 -74.5t-78 -35.5l-111 -4q-23 -98 -33 -144q-45 -193 -65 -313q-17 -105 -17 -134q1 -6 1 -8q4 -18 6 -25t12 -14t22.5 -9.5t44 -11.5t66.5 -23q37 -12 48 -50q4 -13 4 -26q-1 -26 -15 -52q-22 -39 -63 -59q-24 -11 -48 -12 q-17 0 -33 6q-10 4 -47 12.5t-62.5 18.5t-57 29.5t-53 53.5t-31.5 81z" />
<glyph unicode="u" horiz-adv-x="1140" d="M106 465q2 72 20.5 152.5t31 131t39 137.5t34.5 109q12 41 50 69q34 25 70 25q5 -1 9 -1q40 -4 62 -34q14 -20 14 -46q0 -14 -4 -29q-8 -31 -35.5 -117t-38 -128t-26.5 -110q-15 -70 -17 -124v-27q0 -40 4 -78q18 -125 78 -170q25 -18 90 -18q90 14 152.5 51t138.5 168 q61 272 111 553q8 43 44 73.5t78 32.5h5q38 1 62 -27q20 -24 19 -55q0 -8 -1 -16q-86 -483 -193 -891q-10 -42 -48 -70q-36 -27 -74 -26h-5q-38 2 -60 28q-15 18 -15 53q0 17 4 38q-113 -82 -218 -107q-46 -11 -88 -11q-94 0 -163 58q-98 82 -123 271q-7 59 -7 120v15z" />
<glyph unicode="v" horiz-adv-x="983" d="M90 948q-1 7 -1 15q1 32 21 63q26 38 67 54q20 7 38 8q21 0 40 -10q36 -18 44 -56q6 -45 56.5 -336t62.5 -362l4 -19q12 14 21.5 29.5t15.5 25t10 17.5l4 8q23 33 170.5 278.5t241.5 368.5q27 38 71 50q16 5 31 4q25 0 45 -12q33 -20 36 -62v-8q0 -37 -26 -70 q-90 -119 -222 -340t-175 -291l-84 -125q-41 -57 -74 -94q-25 -27 -45 -43q-45 -37 -90 -41h-7q-36 0 -58 20q-10 8 -15 19q-8 8 -12 18l-10 29q-6 25 -17 68l-20 92q-16 80 -64.5 365.5t-58.5 336.5z" />
<glyph unicode="w" horiz-adv-x="1370" d="M104 930v15q0 61 29 97q33 40 92 39q33 0 56.5 -24.5t25.5 -65.5q8 -125 21 -233l16 -191l16 -157l39 77q53 113 97 189l59 115l70 135q55 100 141 100q49 0 75.5 -31.5t35.5 -97.5l67 -559l64 137l100 219l35 82q80 182 98 215q25 47 53.5 68.5t67.5 21.5q50 0 72 -40 q11 -19 10 -42q0 -24 -12 -51q-8 -16 -16.5 -35.5t-18.5 -40.5l-107 -235q-100 -221 -233 -455q-16 -33 -25 -45q-43 -76 -75.5 -106.5t-71.5 -30.5q-43 0 -72 25.5t-35 68.5q-29 238 -80 584q-193 -350 -272 -545q-55 -133 -139 -133q-43 0 -66.5 25.5t-32.5 80.5l-10 91 q-12 127 -33 305q-33 252 -41 428z" />
<glyph unicode="x" horiz-adv-x="956" d="M-53 76v5q0 38 26 73q180 219 365 430l-182 338q-10 19 -10 40q0 18 7 36q15 42 55 68q31 20 62 20l18 -2q40 -8 58 -40l154 -280q141 143 284 285q35 33 78 38q7 1 13 1q35 0 57 -23q23 -23 23 -57q0 -5 -1 -11q-2 -43 -36 -75q-162 -156 -326 -332l227 -430 q8 -18 8 -37t-8 -39q-16 -42 -56 -66q-30 -18 -60 -18q-10 0 -19 2q-39 8 -57 43l-195 365q-150 -162 -303 -359q-29 -37 -72 -48q-15 -4 -28 -4q-25 1 -47 15q-32 22 -35 62z" />
<glyph unicode="y" horiz-adv-x="907" d="M-213 -322q0 43 33 77t82 38q74 6 110.5 14.5t63.5 24.5q57 33 102 115q31 55 45 69q-10 14 -14 39q-2 150 -53 467q-41 258 -58 436v11q0 44 28 77q32 37 85 37q39 0 63.5 -25.5t26.5 -72.5q4 -70 51 -412l31 -229l88 156q215 383 313 534q37 53 97 58h6q31 0 55 -20 q25 -23 27 -58q0 -37 -23 -72q-33 -45 -94 -154l-59 -100q-59 -96 -114.5 -191.5t-113.5 -195.5l-61 -111l-29 -57q-12 -23 -51 -106q-41 -82 -82 -156q-74 -133 -186 -205q-127 -78 -267 -78q-49 0 -75.5 25t-26.5 65z" />
<glyph unicode="z" horiz-adv-x="966" d="M-76 96q-1 6 -1 11q0 30 18 61q6 12 14 20q6 8 16 19l29 29l78 65l115 94q205 174 344 301q111 111 163 185q-78 2 -145 2q-117 -3 -197 -3q-107 0 -149 5q-39 7 -59 39q-12 19 -11 41q-1 16 5 33q14 42 53 69q34 24 71 24q5 0 11 -1q48 -6 158 -7q34 -1 74 1q94 1 165 2 q57 0 100 -1h88q4 -2 8 -2l13 -4q20 -6 33 -22q27 -32 27 -78q0 -29 -11 -64q-18 -51 -64 -116q-63 -94 -194 -209q-152 -156 -367 -338l-57 -47q30 -1 67.5 -1t83.5 1q106 2 252 8q147 6 164 6q43 1 67 -29q17 -21 16 -50q0 -11 -2 -23q-9 -43 -45 -73t-79 -30 q-16 0 -163.5 -6t-250.5 -8h-76q-107 0 -173 4q-59 4 -95 12q-25 6 -43 15q-41 23 -51 65z" />
<glyph unicode="{" horiz-adv-x="872" d="M125 547q18 72 90 108q27 14 68 21q4 0 13 2t13 2q43 33 68 70q20 31 59 182q51 197 109 297q43 72 80 118t88 74q14 8 27.5 15.5t31.5 13.5l31 8q10 2 64.5 2h58.5q43 8 72.5 -16.5t27.5 -66.5t-33.5 -76.5t-77.5 -40.5q-115 -18 -129 -29q-16 10 -65 -76 q-43 -72 -82 -231q-2 -4 -7 -29t-8 -34t-9.5 -31.5t-9.5 -35t-11 -33t-13.5 -33.5t-14.5 -30.5t-17 -29.5q-53 -80 -139 -144h2q43 -74 45 -157q-2 -43 -37 -146l-12 -41l-15 -41q-6 -16 -8 -26q-35 -129 -44 -182.5t-3 -77.5q18 -45 207 -70q37 -12 48 -50t-10.5 -78 t-63.5 -59.5t-81 -5.5q-135 2 -204.5 46.5t-94.5 115.5q-23 66 -5 170.5t48 202.5q2 4 41 121q6 23 12.5 42t8.5 27l2 7q-2 35 -19 67l-30 17q-92 49 -72 141z" />
<glyph unicode="|" horiz-adv-x="675" d="M272 92q10 315 11 1276q0 43 29.5 72.5t72.5 29.5t72.5 -29.5t29.5 -72.5q0 -965 -10 -1284q-2 -41 -32.5 -70.5t-72.5 -27.5t-72 32.5t-28 73.5z" />
<glyph unicode="}" horiz-adv-x="874" d="M-133 -313q8 43 44 73.5t79 30.5q143 2 207 41q39 25 59 82q10 35 39 190q31 160 77 262.5t89 149.5q2 4 6 6q-68 51 -86 111q-10 45 4 104q2 6 10 31l4 16q10 45 31 137.5t28 141.5t3 90q-6 51 -33 72q-41 31 -143 24q-43 -2 -69 26t-18.5 71t41 74.5t76.5 33.5 q168 10 260 -55q82 -61 95 -187q4 -57 -5.5 -125.5t-33 -177t-27.5 -121.5q-2 -16 -9 -38.5t-7 -24.5l-2 -4q6 -10 39 -33q2 0 28 -4q39 -6 64 -18q55 -35 41 -109q-16 -86 -119 -141q-35 -18 -37 -19q-12 -16 -39 -75q-35 -80 -61 -213q-37 -182 -49 -224 q-51 -145 -172 -219q-121 -76 -330 -80q-43 0 -67.5 29t-16.5 72z" />
<glyph unicode="~" horiz-adv-x="1441" d="M77 415q7 42 42 72q215 197 397 197q51 0 106.5 -17.5t79.5 -31.5l72 -43q111 -70 168 -70q98 0 248 129q35 31 78 31t67.5 -28.5t15 -71.5t-43.5 -74q-225 -190 -410 -191q-53 0 -108.5 18.5t-81 33t-70.5 43.5q-111 70 -164 67q-90 0 -231 -127q-35 -33 -78 -35 t-68.5 27t-18.5 71z" />
<glyph unicode="&#xa2;" horiz-adv-x="1280" d="M137.5 401q12.5 250 163.5 437q86 104 205 164.5t262 60.5h53l99 190q20 41 62 60.5t80 7.5t49 -50t-9 -79l-90 -176q12 -6 24 -17q35 -27 82 -100q6 -14 16.5 -30.5t18.5 -34t14 -21.5q16 -35 3 -77t-53 -67.5t-81 -20.5t-59 38l-12 23q-6 16 -17 32l-18 29 q-12 23 -25 37l-151 -309q-123 -252 -185 -371q45 4 99 27q31 12 50 22t39.5 28.5t33.5 33.5l40 51l56 65q31 37 75 45.5t74.5 -14.5t29.5 -64.5t-30 -76.5l-47 -58q-33 -41 -53.5 -63.5t-56 -55t-76.5 -57t-92 -45.5q-137 -53 -250 -41l-72 -125q-25 -41 -65 -57 q-43 -18 -80 -4t-46.5 53t13.5 78l72 129q-10 8 -21 18q-137 135 -124.5 385zM348 434q-8 -137 47 -223q66 125 174 342l152 305q-166 -2 -266 -125q-100 -121 -107 -299z" />
<glyph unicode="&#xa3;" horiz-adv-x="1318" d="M59 68q-18 63 31 125q25 27 64 51l39 24q147 158 151 303q-2 6 0 13q-55 -2 -102 -2q-43 0 -67.5 29.5t-15.5 71.5t45 72.5t77 30.5h28q-14 57 -18 97q-29 240 149 424q113 117 273 161q162 45 304 3.5t210 -158.5q37 -72 41 -135q-2 -6 -13 -119q-4 -43 -37.5 -76 t-76.5 -38t-70 21.5t-24 67.5q4 27 6 47.5t3 29.5t1 19q0 20 -21 56q-37 66 -122 89t-179 -1.5t-157 -89.5q-55 -57 -73 -115.5t-5 -120.5q4 -23 30 -151l2 -4q197 6 275 8q43 0 67.5 -29t15.5 -72t-45 -73.5t-79 -30.5q-78 -2 -213 -6q-12 -188 -166 -379q29 2 35 2 q94 0 274 -55q135 -41 211 -33q23 2 41 6q23 6 55.5 16.5t63.5 16.5q43 12 75 -9.5t35 -62.5t-27 -78t-73 -47q-8 -2 -47 -13t-75.5 -20.5t-69.5 -13.5q-115 -12 -289 41q-154 47 -219 47q-2 0 -39 -4q-51 -4 -84 -6q-53 -2 -88 0q-25 2 -45 8q-49 16 -62 62z" />
<glyph unicode="&#xa5;" horiz-adv-x="1275" d="M152.5 504q9.5 43 46.5 71.5t80 28.5q80 -2 210 -2l-45 143h-10l-164 3q-41 0 -64.5 30.5t-14 72.5t46 71.5t79.5 29.5h56l-90 244q-16 37 4 78t61 62.5t80 10t51 -48.5q145 -387 180 -499q225 266 459 514q31 33 75 40t71.5 -18.5t26.5 -67.5t-36 -77l-215 -236h56 q43 0 65.5 -30.5t13 -72.5t-46 -71.5t-77.5 -29.5l-187 2l-125 -150q147 -2 260 -10q43 -4 62.5 -36t7.5 -75t-50 -69.5t-79 -24.5q-111 8 -254 10q-10 -45 -65 -299q-10 -41 -47 -70.5t-79 -29.5t-64.5 30.5t-14.5 73.5q55 250 65 297q-166 -2 -250 0q-43 0 -65.5 31 t-13 74z" />
<glyph unicode="&#xa8;" horiz-adv-x="602" d="M174 1341q0 61 54.5 110.5t121.5 49.5q45 0 70.5 -25.5t25.5 -68.5q0 -68 -52 -117t-113 -49q-45 0 -76 28.5t-31 71.5zM518 1341q0 55 47 107.5t113 52.5q53 0 79.5 -24.5t26.5 -67.5q0 -72 -46 -119t-115 -47q-49 0 -77 28.5t-28 69.5z" />
<glyph unicode="&#xa9;" horiz-adv-x="1644" d="M156 659q10 141 77 271q72 131 178.5 226t235.5 161.5t260 91.5q47 47 105 37q10 -2 53 -7t83 -11.5t71 -16.5q51 -18 127 -84q66 -57 94 -98q121 -166 125 -380t-103 -396q-109 -199 -310.5 -312.5t-449.5 -95.5q-242 18 -403.5 192.5t-142.5 421.5zM362 688 q-10 -172 107 -299q115 -127 293 -139q184 -14 315 61q135 76 207 209q74 123 71 283t-91 287q-23 29 -74 73q-51 45 -74 51q-27 10 -65 15q-23 -10 -47 -10q-143 0 -288 -73t-244 -197t-110 -261zM532.5 611q-4.5 83 20.5 165q29 88 92.5 161t157.5 103q193 61 397 -108 q31 -25 29 -67t-34 -76.5t-76 -42t-72 17.5q-133 111 -220 82q-49 -16 -73 -92q-33 -92 8 -158q41 -63 141 -41q8 2 31 16l33 23q27 16 45 27q41 23 79.5 13.5t54 -45.5t-3 -77t-57.5 -63l-26 -17l-37 -24q-61 -41 -117 -54q-113 -25 -197.5 6t-127.5 105q-43 63 -47.5 146z " />
<glyph unicode="&#xab;" horiz-adv-x="1081" d="M125 584q25 68 129 143q8 8 73.5 54t112.5 83q39 29 81 27t63.5 -34t10.5 -74t-48 -70l-115 -86q-68 -47 -78 -54l-22 -18l6 -10q20 -31 129 -154q25 -29 17.5 -72t-42 -73.5t-79 -32.5t-68.5 27q-115 133 -137 168q-66 92 -33 176zM559.5 532q18.5 82 116.5 170 q47 41 203 158q37 29 77.5 27t63 -34t11.5 -74t-50 -70q-145 -111 -182 -146q-25 -23 -35 -35q4 -6 18 -30q23 -29 119 -144q25 -29 17.5 -71.5t-42 -73.5t-77.5 -33t-68 27q-104 121 -131 159q-59 88 -40.5 170z" />
<glyph unicode="&#xad;" d="M108.5 558q6.5 42 40 74t76.5 36q63 4 182 8t162 6t70 -26.5t19.5 -70.5t-43 -74t-76.5 -34q-45 -2 -161 -6t-179 -8q-45 -2 -71 25.5t-19.5 69.5z" />
<glyph unicode="&#xae;" horiz-adv-x="1601" d="M131 457q-16 137 15.5 277t125 282.5t232.5 253.5q53 43 89 69.5t105.5 63.5t128.5 51q29 6 64 8t71.5 3t43.5 1q41 2 67 -24l27 -4l35 -4q6 -2 31.5 -7.5t37.5 -9.5l35 -8q23 -6 35 -12l35 -15q16 -8 30 -18q94 -61 149.5 -155.5t65 -199t-8 -220t-68.5 -222.5 q-47 -109 -122 -207t-170 -178t-214 -129t-246 -55q-256 -10 -410.5 119t-183.5 340zM338 524q20 -150 128.5 -239.5t295.5 -81.5q164 6 305 121q143 117 221 290.5t57.5 332.5t-145.5 241q-18 10 -45 19.5t-45 13.5t-66.5 11t-64.5 11q-25 4 -41 17q-90 -2 -107 -7 q-72 -14 -219 -131q-102 -82 -170.5 -187.5t-92 -207.5t-11.5 -203zM457 455q6 35 55 279.5t61 279.5q10 41 47 70.5t80 27.5h9q16 6 32 8l50 6q49 4 75 7q109 4 164 -25q59 -29 99 -83t47 -120q16 -129 -95 -223q16 -33 21 -74q0 -31 -4 -80t-6 -67q0 -41 -31 -76t-75 -43 t-73.5 15.5t-29.5 66.5q2 23 6 80q2 33 2 47q0 20 -25 33l-8 4q-25 -6 -47 -10q-74 -14 -119 -17h-8l-22 -106q-10 -43 -46 -73t-79 -30t-67 30t-13 73zM729 797l45 4q68 4 123 -4l12 4l29 8h4q23 10 27 19.5t0 13.5q-2 20 -19.5 43.5t-44.5 38.5q-14 6 -71 4q-29 -2 -78 -8 z" />
<glyph unicode="&#xb4;" horiz-adv-x="393" d="M157 1263q3 40 38 72l63 60q25 23 42 38t30.5 27.5t44.5 38.5l63 55q33 25 75 25t65.5 -29.5t15.5 -68.5t-41 -70q-39 -35 -76 -68q-39 -35 -63.5 -57t-91.5 -82q-33 -29 -74 -32t-67.5 24t-23.5 67z" />
<glyph unicode="&#xb8;" horiz-adv-x="438" d="M-184 -346q0 35 21.5 58.5t51.5 23.5q27 0 42.5 -10.5t29.5 -28.5q27 -35 78 -35q33 0 54.5 20.5t21.5 49.5q0 35 -31 51q-27 14 -84 14q-35 0 -54.5 16.5t-19.5 41.5q0 35 40 84t126 145q57 -18 107 -47q-104 -86 -121 -166l-45 31q29 12 49 12q76 0 131 -47t55 -115 q0 -57 -35.5 -109.5t-93 -83t-119.5 -30.5q-90 0 -147 36t-57 89z" />
<glyph unicode="&#xbb;" horiz-adv-x="1140" d="M74 319q10 55 65 87q170 98 215 131l19 14l-17 14q-37 33 -172 117q-45 31 -30 90q4 27 22 51q41 51 100 51q27 0 50 -12q139 -92 186 -131q92 -80 80 -168l-2 -10q-18 -86 -135 -170q-66 -49 -242 -150q-29 -16 -59 -16q-55 0 -76 47q-12 25 -4 55zM505 314q13 42 54 67 q219 141 242 158l4 2l-57 49l-68 53l-66 57q-29 27 -24.5 69t37 76t75.5 39t70 -20q33 -31 66 -57l63 -53l43 -35q41 -33 57 -57q35 -43 31 -95q-2 -90 -131 -184l-254 -166q-41 -25 -81 -19.5t-57 40t-4 76.5z" />
<glyph unicode="&#x2c6;" horiz-adv-x="608" d="M156 1257q0 25 12 43.5t45 49.5l164 147q41 37 73.5 55.5t71.5 18.5q37 0 61.5 -16.5t49.5 -51.5q49 -70 67 -102l33 -47q31 -45 31 -78q0 -39 -28.5 -67.5t-67.5 -28.5q-41 0 -74 49l-100 145l-170 -151q-45 -41 -82 -41q-39 0 -62.5 23.5t-23.5 51.5z" />
<glyph unicode="&#x2da;" horiz-adv-x="417" d="M172 1329q0 76 64.5 149.5t164.5 96.5q20 16 43 16h5l24 4h10q27 0 52 -10q72 -35 71 -129q0 -66 -26 -125q-33 -76 -99 -129q-53 -45 -127 -45q-78 0 -130 51.5t-52 120.5zM309 1354q0 -23 16.5 -40.5t47.5 -21.5q53 -6 84 66q14 29 14 57q0 29 -18 47h-2l-5 -2h-8 q-8 0 -10 -2q-6 -6 -27 -10q-43 -10 -67.5 -38t-24.5 -56z" />
<glyph unicode="&#x2dc;" horiz-adv-x="790" d="M150 1225q0 51 49 94q133 119 241 119q41 0 77 -17.5t91 -52.5q43 -27 68.5 -39t48.5 -12q31 0 56.5 20.5t58.5 63.5q31 43 69 43q25 0 42.5 -18.5t17.5 -49.5q0 -37 -39 -90q-119 -147 -234 -147q-43 0 -83 18.5t-89 52.5q-41 27 -63.5 38.5t-42.5 11.5q-61 0 -144 -68 q-18 -14 -32.5 -21.5t-34.5 -7.5q-25 0 -41 17.5t-16 44.5z" />
<glyph unicode="&#x400;" horiz-adv-x="1337" d="M102 96q6 20 17 39q162 766 221 1198q6 43 41 75t76 36h4q16 6 33 6q500 25 852 -6q43 -4 63.5 -37t7 -75t-51.5 -69.5t-79 -23.5q-317 29 -754 10q-27 -182 -63 -387h721q43 0 66.5 -29.5t14.5 -72.5t-45 -73t-79 -30h-717q-41 -207 -92 -450q442 12 749 2q41 -2 65 -33 t12.5 -73t-48.5 -71.5t-80 -27.5q-319 12 -800 -4q-25 -10 -48 -10q-55 0 -73 45q-16 27 -13 61zM903 1651q-14 37 3.5 77.5t58.5 63.5t79.5 13.5t53.5 -44.5l37 -88q14 -37 -3.5 -78t-58.5 -63.5t-80 -13t-53 44.5z" />
<glyph unicode="&#x401;" horiz-adv-x="1380" d="M84 98q4 27 152 645q80 342 116 562q-10 23 -4 51q8 35 36 63.5t62 36.5q16 6 33 8q16 0 31 -4q37 6 431 3t427 -3q43 0 66.5 -29.5t14.5 -72.5t-45 -73t-79 -30q-74 0 -388 3.5t-388 -1.5q-31 -174 -84 -405q35 -4 74 -7t82 -5t74.5 -3t83.5 0t78 1t86.5 2t78.5 2t85 3 t81 3q45 2 69.5 -26.5t17.5 -71.5t-43 -74t-79 -33q-12 0 -87 -3t-96.5 -4t-88 -3t-97 -2t-89 1t-98.5 2t-89 4t-92 9q-76 -311 -105 -438q113 -4 391.5 -5t427.5 -7q43 -2 65 -33t10.5 -74t-48.5 -71.5t-78 -26.5q-154 6 -445.5 7t-424.5 5q-23 -8 -45 -8q-43 0 -66.5 29.5 t-13.5 72.5zM668 1636l16 25q12 41 51 68.5t90.5 23.5t72 -37t7.5 -76l-16 -24q-12 -41 -51 -68.5t-90.5 -23.5t-72 36.5t-7.5 75.5zM1034 1614l6 28q8 43 45 73t90.5 30t76 -29.5t14.5 -73.5l-6 -28q-8 -43 -45 -73t-90.5 -30t-76 30t-14.5 73z" />
<glyph unicode="&#x402;" horiz-adv-x="1527" d="M192.5 1363q8.5 42 45 72.5t79.5 30.5q156 2 450 -11t435 -13q43 0 66.5 -30t14.5 -73t-45 -72.5t-79 -29.5q-141 0 -395 12q-37 -217 -80 -422q285 125 487 25q113 -55 175.5 -168t68.5 -254q10 -129 -41 -278q-49 -150 -153 -275q-115 -135 -277 -217 q-164 -84 -369 -100q-43 -2 -69.5 25.5t-20 69.5t41 73.5t75.5 35.5q301 23 467 222q72 84 107.5 189.5t29.5 203.5q-6 102 -47 177t-108 110q-158 78 -416 -72q-55 -252 -121 -498q-10 -41 -48 -69.5t-79 -26.5t-63.5 34t-10.5 75q147 571 246 1148q-162 6 -287 5 q-41 0 -64.5 29.5t-15 71.5z" />
<glyph unicode="&#x403;" horiz-adv-x="1099" d="M127 88q2 94 18.5 201.5t30.5 189.5t45 208t47 190l60 204q37 141 49 185q-37 31 -29 82q8 43 43 73.5t78 32.5q57 2 216 9t268.5 10.5t213.5 3.5q43 0 66.5 -30t14.5 -73t-46 -72.5t-80 -29.5q-164 0 -542 -17q-14 -53 -52 -190l-57 -201q-16 -61 -46 -180t-44 -196.5 t-28.5 -178t-18.5 -188.5q0 -43 -33 -77t-77 -41t-72.5 18.5t-24.5 66.5zM716 1579q9 43 46 72l213 176q37 29 79 28.5t65.5 -31t14 -72.5t-46.5 -73l-213 -172q-35 -31 -77.5 -30.5t-66 30t-14.5 72.5z" />
<glyph unicode="&#x404;" horiz-adv-x="1402" d="M111 666q47 246 139 395q82 137 196 231q113 96 237 143.5t257 47.5t256 -49q111 -47 164 -103q59 -61 86 -178q8 -39 -15.5 -78t-66.5 -56.5t-78 -2t-45 54.5q-16 74 -47 107q-31 31 -113 63q-178 76 -359 6.5t-300 -264.5q-33 -53 -57 -121h423q43 0 67 -29.5 t14.5 -72.5t-45.5 -73t-79 -30h-432q-39 -205 32 -322.5t202 -137.5q135 -23 294.5 58t288.5 265q29 39 71 52.5t77 -5t40 -58.5t-22 -79q-168 -240 -393 -354q-227 -117 -432 -82q-211 35 -313.5 214t-46.5 458z" />
<glyph unicode="&#x405;" horiz-adv-x="1333" d="M74 436q0 41 31.5 76t75.5 42t74 -17.5t26 -65.5q-4 -137 96 -210t264 -73q154 2 268 66q96 51 109 125q8 49 -11.5 82t-70.5 61q-18 10 -42 19.5t-43.5 15.5t-53 15.5t-52.5 13.5l-120 28q-240 57 -326 142q-154 139 -39 399q53 117 152.5 194.5t199.5 106.5 q104 29 213 27q162 -2 297 -72q137 -68 193 -188q6 -12 10 -28.5t6 -33.5l4 -31q2 -14 2 -24l2 -10q6 -41 -19.5 -78t-68.5 -52.5t-76.5 2t-41.5 54.5q-4 23 -6.5 39t-1.5 23.5t0 13.5t-5 12q-31 74 -127 121t-215 50t-205 -42t-120 -129q-59 -133 2 -197q59 -53 260 -100 l143 -37q23 -4 68 -17.5t74.5 -25.5t60.5 -28q199 -102 164 -318q-18 -98 -84 -176t-160 -131q-170 -92 -383 -94q-100 0 -192.5 24.5t-169 75.5t-122.5 141t-40 209z" />
<glyph unicode="&#x406;" horiz-adv-x="583" d="M109 98q14 70 46.5 215.5t55.5 257.5q23 111 41 217q14 74 35 195q16 119 31.5 211t33.5 174q10 43 47 71.5t80 28.5t65.5 -30.5t12.5 -73.5q-18 -82 -33.5 -171t-31.5 -206q-18 -111 -33 -190q-18 -109 -41 -217q-23 -115 -56.5 -263.5t-48.5 -218.5q-10 -43 -46 -72.5 t-79 -29.5t-66.5 29.5t-12.5 72.5z" />
<glyph unicode="&#x407;" horiz-adv-x="600" d="M123 88q14 137 37.5 292t60.5 365q31 184 47 279q37 229 84 354q14 43 53 67.5t80 18.5t58.5 -39.5t3.5 -74.5q-37 -106 -72 -318q-20 -119 -47 -274q-37 -203 -60.5 -356.5t-35.5 -288.5q-4 -43 -38 -76t-77 -38t-70.5 21.5t-23.5 67.5zM215 1573l4 20q8 43 44 73 t89.5 30t77 -30t14.5 -73l-4 -20q-10 -43 -46 -73t-89 -30t-76.5 30t-13.5 73zM551 1569l14 33q23 31 62 56t100 18t79.5 -40.5t0.5 -76.5l-21 -23q-14 -41 -54 -66.5t-90 -18.5t-68.5 41t-22.5 77z" />
<glyph unicode="&#x408;" horiz-adv-x="964" d="M-14 381q0 43 33.5 77t76.5 41t72 -18.5t25 -66.5q-4 -96 25.5 -148.5t70.5 -62.5q35 -10 93 18.5t124 114.5q39 49 84 180q39 115 84 297q27 113 69.5 317.5t53.5 245.5q12 43 49 72t79 27t64.5 -33t9.5 -74q-12 -57 -52 -244.5t-70 -316.5q-47 -190 -91 -318 q-57 -170 -120 -251q-104 -135 -229.5 -200t-239.5 -34q-109 27 -165.5 130.5t-45.5 246.5z" />
<glyph unicode="&#x409;" horiz-adv-x="1937" d="M-89 111.5q-7 40.5 17.5 79t67.5 54t80 -0.5q6 -2 20 -11l19 -10q25 -12 43 -18q6 -2 35 -8q20 8 40 55q12 31 25 84q16 55 23 74q98 307 227 911q-4 18 -2 39q6 41 40 72.5t79 35.5q289 18 612 -4q16 6 31 9q43 8 72.5 -16.5t27.5 -67.5q-8 -201 -68 -484 q258 29 392 -43q86 -43 130 -132t44 -191q-2 -121 -53.5 -227.5t-157.5 -180.5q-39 -27 -82 -47.5t-79 -33.5t-88 -23.5t-80 -14.5t-83 -7t-72 -3h-137q-8 0 -16 2q-10 -4 -23 -4q-43 0 -68.5 28.5t-15.5 71.5q23 117 133 578q-27 8 -43 31.5t-14 54.5q4 39 33 70.5t70 42.5 q45 211 61 385q-238 16 -451 8q-121 -567 -219 -881q-4 -6 -13 -42t-21.5 -73.5t-24.5 -64.5q-66 -160 -203 -207q-76 -27 -170 10q-25 8 -57 25q-4 2 -17.5 9t-21.5 9q-35 16 -42 56.5zM1139 207q152 0 248 15.5t176 68.5q92 63 94 205q0 61 -24.5 110t-65.5 72 q-55 29 -140.5 31t-173.5 -13q-6 -31 -51 -215t-63 -274z" />
<glyph unicode="&#x40a;" horiz-adv-x="1964" d="M94 96q23 102 67 304t71.5 326t60.5 298q23 119 57 334q8 43 42 74.5t78 33.5t69.5 -25.5t19.5 -70.5q-43 -254 -94 -504q532 20 592 21h22q49 242 84 469q8 43 42 74.5t78 33.5t69.5 -25.5t17.5 -70.5q-35 -229 -88 -483q84 -2 150 -8q197 -14 278 -60q90 -49 135 -140 t43 -187.5t-65.5 -202t-167.5 -178.5q-78 -51 -161 -81t-170 -35t-147.5 -3t-142.5 12q-23 -10 -47 -10q-43 0 -66.5 29.5t-15.5 72.5q25 111 69 309.5t60 278.5h-20q-51 0 -592 -20q-18 -86 -59 -275.5t-64 -290.5q-8 -43 -44 -72.5t-79 -29.5t-66.5 29.5t-15.5 72.5z M1135 203q115 -18 227.5 -5t193.5 70q72 49 102 119t10.5 140.5t-87.5 105.5q-51 27 -209 41q-61 4 -133 6q-18 -86 -54 -243.5t-50 -233.5z" />
<glyph unicode="&#x40b;" horiz-adv-x="1476" d="M195.5 1370q11.5 43 48.5 71.5t80 26.5q156 -6 425 -6t429 -2q43 0 65.5 -30.5t13 -73.5t-46 -72t-80.5 -29q-119 2 -403 2q-33 -193 -82 -452q135 14 268 14q199 0 310.5 -49t144.5 -164q8 -25 11 -54.5t4 -54t-4 -63.5t-9 -62.5t-15.5 -70.5t-15.5 -66.5t-18 -70.5 t-18 -68q-10 -43 -47 -71.5t-79 -26.5t-64.5 32.5t-12.5 73.5q45 158 63.5 259.5t3.5 152.5q-12 43 -75.5 70.5t-223.5 27.5q-131 0 -264 -14q-16 -72 -51 -241t-51 -259q-10 -43 -46 -73.5t-78 -30.5t-66.5 29.5t-16.5 70.5q18 96 57 279.5t61.5 296t54.5 281.5t54 304 q-141 2 -250 7q-43 2 -65.5 32.5t-11 73.5z" />
<glyph unicode="&#x40c;" horiz-adv-x="1308" d="M92 94q27 201 127 631q94 403 131 631q8 43 42 74.5t78 33.5t69.5 -25.5t17.5 -70.5q-37 -223 -125 -600l55 41q616 522 711 594q39 27 80 23.5t62.5 -35t9 -73.5t-49.5 -71q-428 -371 -452 -391l-33 -31l385 -663q27 -25 10.5 -71t-55.5 -73.5t-80 -23.5t-61 37 l-379 657l-43 -33q-152 -113 -225 -180q-45 -207 -66 -364q-6 -43 -40 -75t-78 -35t-69.5 23.5t-21.5 69.5zM735 1463q2 42 35 77q176 156 220 166t76 -12.5t33 -63.5t-28 -78q-16 -18 -37 -41l-125 -94q-33 -33 -75.5 -40t-71.5 18.5t-27 67.5z" />
<glyph unicode="&#x40d;" horiz-adv-x="1527" d="M119 92q14 184 57 422t86 423t86 429q8 43 43 73.5t79 33t68.5 -26.5t16.5 -72q-27 -152 -102.5 -505t-94.5 -488l166 166q115 113 170 172q18 18 121 127l141 149l396 412l2 2q39 43 90 43q43 0 67.5 -28.5t16.5 -71.5q-33 -174 -144 -625q-96 -393 -137 -629 q-8 -43 -43 -73.5t-79 -32.5t-68.5 26.5t-16.5 71.5q43 244 142 643q61 250 80 328l-431 -465q-39 -43 -236.5 -238.5t-289.5 -310.5q-27 -37 -71 -48t-74 11q-18 12 -27 31q-16 23 -14 51zM811.5 1617q7.5 42 41.5 74.5t77 35t69 -24.5l68 -72q27 -29 19.5 -70.5t-42 -74.5 t-76.5 -35t-69 25l-68 71q-27 29 -19.5 71z" />
<glyph unicode="&#x40e;" horiz-adv-x="1355" d="M83 62q-11 38 9.5 79t62.5 60.5t81 7.5q18 -8 34.5 -13.5t22.5 -8.5t11 -4t11 -3q14 -2 62 15q61 20 168 129q-86 178 -160 481q-6 35 -37 160l-51 206q-20 80 -45 156q-12 37 9.5 78t62.5 61.5t78.5 8t50.5 -49.5q20 -59 43 -133l30 -131l33 -141l31 -131 q57 -238 117 -381q76 92 153 205q133 190 248 384.5t160 303.5q18 41 59 63.5t80 13t53.5 -45t-2.5 -76.5q-51 -121 -172 -328t-260 -403q-164 -233 -303 -383q-180 -193 -317 -240q-100 -33 -162 -25q-10 2 -111 35q-39 12 -50 50zM586.5 1598.5q11.5 41.5 48.5 71.5t78 28 t63 -33q78 -102 142 -102q59 0 153 104q29 35 73 43t73.5 -15.5t28.5 -65.5t-32 -77q-174 -197 -344 -194q-150 2 -270 168q-25 31 -13.5 72.5z" />
<glyph unicode="&#x40f;" horiz-adv-x="1515" d="M121 119q10 59 95 517t122 720q8 43 42 74.5t77 34.5t68.5 -24.5t21.5 -68.5q-25 -172 -59.5 -368.5t-80 -439t-65.5 -357.5q27 -2 116 0t116.5 2t117.5 4t119 6l121 8q92 6 123 6q86 414 119 555q4 12 73 281q47 182 66 289q8 43 43 73.5t79 32.5t68.5 -26.5t16.5 -71.5 q-20 -117 -70 -309q-70 -264 -74 -277q-14 -63 -139 -647q-8 -43 -44 -72.5t-79 -29.5q-12 0 -24 4q-53 -4 -164 -11.5t-168 -9.5l-41 -217q-6 -41 -42 -71.5t-79 -32.5t-66.5 27.5t-17.5 72.5l39 211q-195 -6 -348 2q-51 4 -72 51q-16 27 -10 62z" />
<glyph unicode="&#x410;" horiz-adv-x="1241" d="M-83 58q-11 38 13 79q63 125 140 250l127 209l151 233l133 211q10 14 49 84q39 68 68 111q43 74 76 119q20 29 37 49q35 39 73 55q63 27 107 -16q12 -10 20.5 -27.5t16.5 -48.5q12 -41 26 -113q16 -94 27 -174q70 -535 158 -932q12 -43 -13.5 -80.5t-67.5 -55t-79 -3 t-47 52.5q-35 186 -70 375q-16 -4 -31 -4q-94 0 -270 -7t-254 -9q-111 -178 -198 -348q-25 -39 -66 -57.5t-78 -4.5t-48 52zM436 623q41 2 178.5 7t212.5 7l-53 377q-8 53 -20 119q-16 -31 -39 -70l-39 -66l-23 -34z" />
<glyph unicode="&#x411;" horiz-adv-x="1419" d="M131 57q20 264 90 654l58 299q37 203 57 313q-6 25 2 49q6 16 16 31q14 29 42 48t59 22q39 2 61 -23q133 -12 336 -16q47 0 130 -1t151.5 -2t130.5 -4q37 -2 56 -30.5t10 -67.5t-43 -64.5t-73 -25.5q-59 2 -125.5 3t-148.5 2t-129 1q-174 4 -299 12q-8 -49 -72 -387 q250 20 418 7q328 -27 445 -191q113 -154 -9 -364q-143 -254 -522 -306q-180 -25 -479 0q-31 -35 -74 -39q-39 -6 -65.5 17.5t-22.5 62.5zM334 205q295 -25 452 -4q260 35 344 182q33 59 35 97t-24 79q-82 111 -336 131q-154 14 -402 -8q-47 -276 -69 -477z" />
<glyph unicode="&#x412;" horiz-adv-x="1302" d="M84 113q29 184 66.5 372.5t100 466t85.5 381.5q8 37 36.5 64.5t65.5 36.5h4q471 115 711 -37q131 -84 147 -211q14 -121 -73 -246q-61 -84 -158 -154q76 -45 110.5 -124.5t26.5 -174.5q6 -88 -57.5 -193.5t-163.5 -174.5q-63 -43 -139 -72t-136.5 -42t-148.5 -17t-132 -3 t-131 6t-105 5q-37 2 -58 27q-27 10 -41 34.5t-10 55.5zM303 199q12 -2 35 -2q109 -4 202 -6.5t187 18.5q92 20 164 70q47 31 76.5 86t31.5 104t-20.5 92t-69.5 57q-66 20 -127 21.5t-233 3.5q-115 4 -137 4q-10 0 -21 2q-53 -248 -88 -450zM434 850q10 2 108.5 0t147.5 -1 t94 11q80 16 159 65.5t120 106.5q35 47 31 88q-8 51 -80 97q-158 102 -492 34z" />
<glyph unicode="&#x413;" horiz-adv-x="1128" d="M115 82q6 184 50 432t89 436q39 166 80 410q6 43 42 75.5t79 34.5q25 2 45 -8q457 0 690 6q43 2 68.5 -27.5t17.5 -73.5t-45 -75.5t-82 -31.5q-227 -6 -623 -7q-41 -217 -80.5 -386t-75.5 -376.5t-42 -371.5q-2 -43 -34 -79t-77 -43t-74.5 17.5t-27.5 67.5z" />
<glyph unicode="&#x414;" horiz-adv-x="1447" d="M-104 -238l28 279q-6 18 -2 39q8 39 41 66.5t72 29.5h22q182 248 297 553t144 614q-4 20 0 43q10 39 45 65t73 26q25 -2 349 -2q141 0 209 -2h69q14 -2 23 -3q6 0 10 -1t8 -1q18 -2 31 -14q82 -61 47 -223q-8 -41 -27 -96q-14 -53 -16 -58q-45 -186 -86 -483l-25 -197 l-30 -215l32 2q35 0 57.5 -21.5t22.5 -53.5q2 -18 -2 -37q-41 -160 -65 -314q-8 -39 -41 -66.5t-72 -27.5t-61.5 27.5t-14.5 66.5q29 166 47 234q-16 0 -979 -2l-2 -19q-12 -139 -14 -177t-30.5 -69.5t-68.5 -37.5t-66.5 16.5t-24.5 58.5zM266 180q616 -8 725 -4l25 209 l26 195q41 299 91 501q2 10 20 72q16 45 21 76q8 35 8 55q-20 0 -49 2h-209q-217 2 -244 2q-78 -604 -414 -1108z" />
<glyph unicode="&#x415;" horiz-adv-x="1333" d="M123 90q4 16 10 31q8 102 20.5 204.5t26 187.5t39 219t39.5 198l47 217l41 199q4 16 10 30q14 39 50 64.5t75 25.5q106 -2 850 -2q43 0 66.5 -29.5t14.5 -72.5t-45 -72.5t-79 -29.5h-756l-92 -439q135 -2 383 2t326 4q43 0 66.5 -29.5t14.5 -72.5t-45 -72.5t-79 -29.5 q-80 0 -325.5 -4.5t-379.5 -2.5q-37 -221 -55 -419q125 0 370 4t363 4q43 0 66.5 -30t14.5 -73t-45 -72.5t-79 -29.5q-111 0 -393.5 -4t-437.5 -6q-43 0 -67.5 28.5t-14.5 71.5z" />
<glyph unicode="&#x416;" horiz-adv-x="1792" d="M-13 86q7 39 38 68l319 288l191 179l61 61l16 18q6 12 4 21q-2 10 -18 27l-373 550q-18 29 -7 68t46 64.5t73 22.5t58 -32q387 -565 404 -600l61 -2q74 330 117 553q8 39 41 66.5t71.5 28.5t60 -25.5t15.5 -65.5q-43 -227 -118 -565l43 -2q14 18 647 621q35 29 73.5 28.5 t60 -28t13.5 -66.5t-41 -66l-581 -548l-17 -19q-6 -12 -2 -16q2 -8 19 -25l401 -530q20 -29 11 -68t-42 -65.5t-71.5 -25.5t-61.5 28q-426 549 -438 589l-57 5l-111 -529q-8 -39 -41 -66.5t-72 -27.5t-61.5 27.5t-13.5 66.5l112 537l-43 2q-2 -6 -6 -10q-12 -18 -49 -56 l-68 -67l-190 -181l-324 -292q-33 -29 -71.5 -30t-62 24.5t-16.5 64.5z" />
<glyph unicode="&#x417;" horiz-adv-x="1202" d="M18 317q-6 37 17.5 72t63.5 49.5t72 -2t38 -53.5q4 -16 4 -41v-12q0 -12 2 -19q2 -20 4 -26q35 -57 141.5 -82t235.5 -2q135 25 221 85t107 136q23 80 -3 126t-87 75q-37 18 -119 43q-39 10 -58 16q-55 25 -61 74q-6 45 22 86q27 39 72 53q29 10 76 10q4 0 20.5 -1 t26.5 -1h10q59 23 97 58q51 45 65 108.5t-16 120.5q-27 49 -96.5 72.5t-163 13.5t-173 -51t-118.5 -97q-6 -4 -10 -22q-2 -6 -5 -10l-2 -11q0 -6 -4 -8q-6 -23 -12 -39q-14 -39 -50 -60.5t-74 -15t-52 38t0 70.5q4 8 6 21q8 31 8 32q18 53 45 90q78 106 203 170t256 78 q135 14 250 -24.5t166 -137.5q57 -104 29.5 -231t-140.5 -235q-31 -27 -65 -50q211 -115 143 -370q-20 -86 -75.5 -157t-130.5 -118t-152.5 -76.5t-159.5 -46.5q-168 -29 -322.5 6t-218.5 144q-25 35 -28 92v35q0 16 -5 24z" />
<glyph unicode="&#x418;" horiz-adv-x="1513" d="M94 27q-16 35 0 75l2 4q86 291 153.5 619t90.5 631q2 39 31.5 69.5t69.5 36.5t65.5 -16.5t23.5 -61.5q-31 -463 -192 -1073q113 88 220.5 188.5t219.5 225.5l189 215l207 248l192 235q29 33 69 42.5t66 -11.5q27 -18 30 -48t-11 -60v-7q-31 -129 -84 -319l-88 -320 q-37 -131 -68 -296.5t-29 -297.5q0 -39 -28.5 -70.5t-69.5 -39.5t-67.5 13.5t-26.5 60.5q0 135 32.5 320t60.5 288.5t91 329.5l-231 -273q-98 -113 -229.5 -250t-270.5 -252q-137 -113 -291 -227q-35 -23 -72.5 -16.5t-54.5 37.5z" />
<glyph unicode="&#x419;" horiz-adv-x="1513" d="M89.5 30q-19.5 40 6.5 87q193 705 246 1243q2 39 31.5 69.5t69.5 35.5t66 -18.5t21 -62.5q-47 -502 -200 -1089q111 84 215 181t217 224l184 209l203 246l190 248q25 31 61 41t64 -4q31 -6 48.5 -33t9.5 -61q-25 -111 -94.5 -351.5t-86.5 -300.5q-100 -375 -90 -583 q2 -37 -24.5 -71t-65.5 -44t-68.5 9.5t-31.5 55.5q-14 233 96 644q23 86 84 294l-227 -270q-94 -111 -226.5 -249t-269.5 -251.5t-278 -205.5q-37 -33 -82 -33q-49 0 -68.5 40zM623 1552.5q6 38.5 36.5 66.5t70.5 31t63 -24q109 -121 168 -121q53 0 233 109q37 25 73 17.5 t51 -40t1 -70.5t-51 -59q-117 -74 -197 -108.5t-153 -34.5q-78 0 -141.5 43t-139.5 125q-20 27 -14 65.5z" />
<glyph unicode="&#x41a;" horiz-adv-x="1320" d="M117 88q25 176 57 365q-20 51 19 104q45 233 167 817q10 43 46 73t79 30t66.5 -30t13.5 -73q-102 -481 -135 -645q133 94 289 221l244 205l284 246q37 31 80 33t66.5 -28t17.5 -72t-43 -72q-365 -317 -526 -451q37 -61 90 -181t65 -138q61 -127 209 -316q25 -29 15.5 -72 t-45 -72.5t-78.5 -29.5t-66 31q-156 199 -229 340l-66 147q-45 100 -73 150q-143 -109 -283 -201q-31 -188 -57 -365q-6 -43 -41 -74.5t-77 -34.5t-68.5 24.5t-20.5 68.5z" />
<glyph unicode="&#x41b;" horiz-adv-x="1302" d="M-96.5 34q-16.5 32 0 69.5t53.5 60t74 14.5q23 -4 40 -8t23 -6t12.5 -3t12.5 -1q8 0 43 30q31 27 71 125q39 96 80 244q35 137 95 459q4 14 8 74q2 74 10 116q35 203 188 248q16 4 56 6h65q74 0 180 -4q123 -4 175 -6q39 -2 61 -4q14 0 20 -2q16 0 29 -6q41 -16 67.5 -51 t28.5 -80q6 -74 -47 -269q-6 -35 -72.5 -330.5t-93 -410.5t-63.5 -221q-12 -39 -48 -62.5t-74 -18.5t-55.5 35.5t-2.5 69.5q35 100 58.5 205t91 407t77.5 337q43 164 39 204q0 2 -4 5l-4 2q-18 0 -56 2q-76 4 -174 6q-102 4 -174 4q-37 2 -59 0h-2q-10 -16 -17 -57 q-8 -33 -10 -97q-6 -72 -8 -98q-61 -328 -100 -471q-43 -162 -88 -272q-61 -150 -136 -216q-100 -88 -188 -92q-20 0 -46 4.5t-53.5 11.5t-31.5 7q-35 8 -51.5 40z" />
<glyph unicode="&#x41c;" horiz-adv-x="1712" d="M100 100q10 45 79 414t80 415t93 435q16 63 78 90q39 18 76 8t53 -45q39 -100 65.5 -222t55.5 -281.5t39 -211.5l84 -354q47 76 143 207q92 129 117 166q305 455 414 651q10 18 24 33q37 53 96 59q43 4 70 -23.5t23 -70.5q-14 -100 -35 -225t-34 -203t-43 -226.5 t-40 -195.5l-47 -225l-41 -195q-10 -43 -46 -72.5t-79 -29.5t-66.5 29.5t-13.5 72.5q131 621 164 797l-180 -262l-127 -180q-96 -133 -246 -383q-18 -37 -52 -57.5t-71 -18.5q-33 -2 -58.5 15.5t-29.5 47.5q-23 111 -70 299l-61 263l-53 286q-33 -158 -88.5 -449.5 t-67.5 -353.5q-8 -43 -43 -73.5t-78 -30.5t-68.5 28.5t-15.5 71.5z" />
<glyph unicode="&#x41d;" horiz-adv-x="1519" d="M115 92q33 205 110 627q0 14 2 31q4 12 11 24q66 360 98 582q8 43 42 74.5t78 33.5t69.5 -25.5t17.5 -70.5q-31 -207 -88 -516q123 0 367.5 -3t369.5 -3q61 248 139 526q12 41 50 68.5t79 24.5t62.5 -34.5t9.5 -74.5q-90 -322 -160 -608v-5l-2 -10q-80 -326 -139 -635 q-10 -43 -45 -73.5t-78 -30.5t-67.5 28.5t-16.5 71.5q49 260 119 547q-123 0 -363.5 3t-361.5 3q-55 -293 -96 -543q-6 -43 -42 -74.5t-78 -33.5t-67.5 26.5t-19.5 69.5z" />
<glyph unicode="&#x41e;" horiz-adv-x="1474" d="M109 649q37 225 183 435t370 315q39 59 102 61q12 0 39.5 2t44.5 2q33 6 67 11q43 8 72 -19q14 -4 29 -8q63 -16 119.5 -58t87.5 -75q27 -31 67 -88q164 -229 148 -463q-10 -170 -104.5 -335t-254 -281.5t-344.5 -143.5q-354 -47 -524 162q-150 184 -102 483zM315 662 q-35 -221 70 -349q115 -139 365 -104q184 25 325 180q141 158 156 346q8 168 -123 352q-51 74 -90 111q-43 39 -94 53q-37 8 -90 9q-203 -53 -344.5 -223.5t-174.5 -374.5z" />
<glyph unicode="&#x41f;" horiz-adv-x="1533" d="M82 80q25 188 100 479q111 436 117 465q2 12 8 74q10 70 21 112q45 190 188 236q37 12 117 14q55 2 141 0q43 -2 126 -5t106 -3h41q33 0 84 1t92 1q88 2 137 0q33 0 53 -2q12 -2 23 -4q27 -6 45 -21q33 -35 35 -106q-2 -41 -11 -100l-12 -60l-12 -53l-6 -33 q-35 -166 -108 -498.5t-105 -486.5q-8 -39 -42 -66.5t-73 -27.5t-60.5 27.5t-13.5 66.5q33 154 105.5 486.5t107.5 498.5q2 4 8 31t11.5 48.5t9.5 55.5q8 33 8 56l-6 2h-131q-43 0 -93.5 -1t-84 -2t-41.5 -1q-23 0 -110 4t-130 4q-78 2 -127 2q-43 -2 -61 -4 q-12 -12 -25 -64q-8 -33 -14 -92q-8 -70 -13 -90q-12 -55 -118 -473q-72 -279 -97 -455q-6 -39 -36.5 -68.5t-69.5 -32.5t-63.5 21.5t-20.5 63.5z" />
<glyph unicode="&#x420;" horiz-adv-x="1292" d="M137 96q27 133 80 366.5t89 418t52 346.5q-33 27 -30 73q6 57 59 95q37 51 92 57q47 8 76 -22l59 10q117 16 191 22q242 16 379 -65q84 -49 131 -140q49 -88 49 -190q6 -100 -57.5 -212t-184.5 -181q-80 -47 -170 -70.5t-189 -23.5t-157.5 5t-152.5 17 q-92 -418 -109 -502q-10 -43 -45 -73.5t-78 -30.5t-67.5 28.5t-16.5 71.5zM496 809q100 -14 153 -18.5t135 -6.5t144.5 13.5t115.5 48.5q111 61 111 180q0 57 -27.5 109.5t-74.5 81.5q-92 53 -277 40q-68 -4 -174 -20l-37 -6q-23 -182 -69 -422z" />
<glyph unicode="&#x421;" horiz-adv-x="1386" d="M100 551q8 98 31 194.5t70 191.5t104 180t136 154.5t168 120t197.5 74t223.5 17.5q158 -12 264.5 -101.5t149.5 -232.5q12 -37 -8.5 -75t-60.5 -58.5t-76.5 -8t-49.5 49.5q-68 213 -276 225q-176 14 -328.5 -83t-243 -263t-100.5 -356q-10 -162 81 -265.5t234 -119.5 q143 -18 279.5 61.5t216.5 255.5q18 39 58 60.5t78 12t51.5 -45t-3.5 -76.5q-78 -168 -203.5 -281.5t-265 -157.5t-276.5 -28q-203 25 -335 173t-116 382z" />
<glyph unicode="&#x422;" horiz-adv-x="1191" d="M197.5 1380q11.5 43 48.5 72t80 27q500 -18 944 -19q43 0 66.5 -29.5t14 -72.5t-45 -73t-78.5 -30q-178 0 -367 2q-39 -203 -134 -602t-128 -557q-10 -43 -46 -72.5t-79 -29.5t-66.5 29.5t-13.5 72.5q33 158 128 556.5t134 602.5v5l-381 12q-43 2 -65.5 32.5t-11 73.5z " />
<glyph unicode="&#x423;" horiz-adv-x="1337" d="M18 100q-8 35 13.5 72t60.5 53.5t72 1.5q20 -8 49 -24l37 -21q37 -18 59 -18q27 -2 103 61q45 39 127 127q-150 371 -209 645q-8 37 -23 109l-26 127l-25 106q-10 33 10.5 70t57 54.5t71.5 5t45 -47.5q14 -49 29 -106l27 -133l22 -111q51 -240 174 -549q180 211 332 439 q150 221 238 428q16 39 53 60t72.5 13t51 -40.5t-0.5 -69.5q-113 -264 -318 -557q-201 -283 -438 -535q-119 -127 -160 -162q-150 -129 -266 -123q-57 4 -119 37l-43 23l-33 16q-35 14 -43 49z" />
<glyph unicode="&#x424;" horiz-adv-x="1585" d="M115 494q-33 117 4 241.5t114.5 234t190.5 193.5t229 117q90 25 224 18l10 70q8 39 38.5 68.5t69.5 33t63.5 -21.5t20.5 -64q-10 -59 -14 -102q266 -14 395 -160q78 -90 98.5 -198.5t-12.5 -212.5q-29 -102 -102 -201q-104 -141 -266 -231q-162 -92 -334 -101h-13 l-16 -80q-8 -39 -42 -66.5t-72.5 -27.5t-60.5 27.5t-13 66.5l18 92q-113 16 -211 48q-274 90 -319 256zM299 575q27 -92 227 -157q76 -25 164 -39q82 354 82 360q45 201 74 353q-39 -2 -84 -9q-41 -4 -68 23q-12 -2 -24 -6q-82 -23 -159 -81t-128 -133t-78 -157 q-27 -84 -6 -154zM874 367h3q119 4 235 67q113 66 186 164q45 61 64.5 124.5t5.5 132.5t-63 128q-84 96 -271 111q-12 -72 -73 -357q-18 -74 -51 -214t-36 -156z" />
<glyph unicode="&#x425;" horiz-adv-x="1239" d="M-82 87q4 42 37 77l584 575l-285 564q-18 35 -2 76.5t56 66t81 17.5t57 -42l261 -512l464 494q29 37 72 49t76 -8.5t39 -61.5t-27 -77q-27 -35 -538 -570q172 -342 319 -573q20 -33 7 -75t-52 -68.5t-80 -22.5t-61 39q-133 236 -301 530l-535 -528q-33 -33 -76 -38 t-71.5 20.5t-24.5 67.5z" />
<glyph unicode="&#x426;" horiz-adv-x="1568" d="M86 90v8q0 8 2 21q0 14 6 39l21 96q2 10 5 21.5t5 21.5l4 20q4 10 6 19.5t4 15.5l4 15l2 10v8l2 2q156 664 207 979q6 39 39 67.5t73 30.5t62.5 -24.5t16.5 -65.5q-53 -322 -211 -991v-2l-2 -8q0 -4 -3 -10.5t-3 -14.5l-9 -33q-2 -10 -5 -20t-5 -23l-6 -22l-12 -60 q18 -2 53 -2h143q369 -2 598 -12q203 897 213.5 939t23.5 116t17 135q2 39 33 69.5t71 36t65.5 -18t21.5 -62.5q-4 -70 -18.5 -152t-25.5 -128t-81 -331.5t-97.5 -429t-35.5 -184.5q47 -4 94 -6q29 -2 47 -23q37 -29 27 -78l-76 -276q-12 -39 -48 -63.5t-74 -21.5 t-55.5 33.5t-6.5 67.5q47 150 53 178q-287 18 -785 23h-147q-61 2 -98 6q-25 4 -43 8q-37 8 -56 31q-8 10 -12 23.5t-4 21.5z" />
<glyph unicode="&#x427;" horiz-adv-x="1363" d="M180 953q8 81 19.5 146.5t34 153.5t26.5 113q8 39 42 66.5t73 27.5t60.5 -27.5t13.5 -66.5q-8 -43 -30 -128t-32 -138t-17.5 -114.5t2 -108t31.5 -84.5q27 -45 99.5 -80t169 -43t178.5 15.5t127 68.5q18 18 30.5 37.5t32 54.5t41.5 69q4 6 9 11q41 242 53 430 q2 37 32.5 68.5t69.5 36.5t65.5 -18.5t22.5 -62.5q-8 -121 -25.5 -253t-47 -289.5t-43 -230t-57.5 -276.5t-52 -239q-8 -39 -42 -66.5t-73 -27.5t-60.5 27.5t-12.5 66.5q10 45 53 244t51 242q-170 -115 -408 -95q-125 10 -231 62q-106 49 -154 133q-33 57 -46 125.5 t-5 149.5z" />
<glyph unicode="&#x428;" horiz-adv-x="1982" d="M86 123q8 31 37 53q8 45 53 224.5t59.5 249t46 227t43 264t11.5 211.5q0 37 27.5 69.5t67.5 40.5t68.5 -13.5t28.5 -59.5q-2 -92 -12 -198t-21.5 -184.5t-43 -225t-45 -204t-48 -201t-43.5 -181.5q225 -23 519 -5q14 59 50 216t52 239t47 234.5t45 264t21 218.5 q2 39 30.5 69.5t69.5 37t66.5 -16t23.5 -61.5q-8 -113 -22.5 -228.5t-45 -275.5t-48 -241t-53.5 -242.5t-48 -215.5q143 2 502 11q18 76 62 241.5t69 259.5q106 442 98 648q-2 37 24.5 70.5t66.5 42.5t70 -10t30 -58q10 -229 -103 -699q-23 -94 -71 -271t-68 -263 q12 -23 6 -51q-8 -33 -31 -58q-10 -39 -42.5 -65.5t-71.5 -26.5q-57 0 -72 51q-295 -12 -677 -18t-667 28q-39 4 -57 35t-4 68z" />
<glyph unicode="&#x429;" horiz-adv-x="1998" d="M100 84q2 10 6 18q12 190 55.5 392t123.5 498t102 386q10 39 43 65.5t72 25.5t59.5 -28.5t11.5 -66.5q-29 -117 -81 -317l-82 -301q-33 -121 -65 -280t-42 -292q223 8 555 2q29 215 105 611q78 389 106 567q6 39 39 67.5t72 30.5t62.5 -24.5t17.5 -65.5 q-31 -168 -108 -568.5t-105 -619.5l94 -2q49 -2 385 2q31 170 70.5 358.5t97 454t82.5 379.5q8 39 41.5 66.5t72.5 27.5t60.5 -27.5t13.5 -66.5q-25 -117 -81 -374t-95 -441t-70 -354q14 6 29 6q39 0 60.5 -26.5t15.5 -65.5q-25 -129 -64 -309q-8 -39 -42 -67t-72.5 -28 t-60 28t-13.5 67l39 184q-76 2 -248 0q-164 -4 -264 -2q-639 12 -918 0q-39 -2 -62.5 24.5t-17.5 65.5z" />
<glyph unicode="&#x42a;" horiz-adv-x="1638" d="M189.5 1360q9.5 43 45 72.5t78.5 29.5h467q8 2 17 2q45 2 69.5 -27.5t16.5 -70.5q-47 -258 -99 -522q25 2 78 4q121 8 176 10q223 4 353 -63q94 -49 135 -144q43 -96 30 -207q-14 -117 -86.5 -221t-197.5 -162q-176 -80 -440.5 -65.5t-319.5 14.5q-43 0 -66.5 30 t-15.5 73q0 10 2 20q135 637 227 1124h-389q-43 0 -66.5 30t-14 73zM653 211q35 -4 240 -12.5t324 47.5q115 51 129 178q8 61 -14.5 111.5t-65.5 74.5q-90 47 -267 43q-49 -2 -165 -8q-53 -4 -91 -6q-39 -193 -90 -428z" />
<glyph unicode="&#x42b;" horiz-adv-x="1845" d="M117 88q20 190 121 633q92 406 108 625q2 43 35 76.5t76 40.5t71.5 -18.5t26.5 -66.5q-14 -213 -88 -557q37 -2 98 -2q145 0 221 -6q295 -20 400 -158q41 -55 50 -135t-15 -155q-31 -86 -84.5 -150.5t-123 -102.5t-136 -59.5t-140.5 -32.5q-176 -27 -461 5 q-31 -25 -67 -29q-41 -4 -69.5 22.5t-22.5 69.5zM340 227q260 -27 412 -4q225 31 270 166q10 31 6 67t-20 56q-61 82 -281 98q-68 4 -207 4q-63 0 -100 2q-57 -250 -80 -389zM1339 111q78 264 125 430t94.5 397t59.5 420q4 41 36 75.5t75 40t72.5 -19t23.5 -68.5 q-12 -199 -61.5 -444.5t-96.5 -413.5t-127 -434q-12 -43 -51 -70.5t-80 -23.5t-61.5 37t-8.5 74z" />
<glyph unicode="&#x42c;" horiz-adv-x="1351" d="M139 96q10 76 26.5 168t29 151.5t36 174.5t31.5 158q76 389 82 604q0 43 32 77.5t76 42t73.5 -17t27.5 -65.5q-4 -205 -64 -527q127 16 221.5 22.5t217.5 -12t207 -69.5q117 -78 140 -205t-38 -246q-55 -121 -171 -213t-255 -123q-203 -45 -535 0q-23 -12 -45 -14 q-43 -2 -69.5 25.5t-22.5 68.5zM365 217q281 -37 444 0q80 16 145.5 68.5t98.5 120.5q66 139 -60 217q-59 39 -154.5 51t-179.5 6t-210 -25q-66 -313 -84 -438z" />
<glyph unicode="&#x42d;" horiz-adv-x="1386" d="M76 449q-6 37 17.5 72.5t63.5 49t72.5 -3t36.5 -53.5q6 -31 8 -64.5t4.5 -54t8.5 -41.5q45 -111 151.5 -149.5t245.5 -3.5t257 127t171 213q14 31 29 108q-326 0 -502 4q-37 2 -58.5 30t-12 66.5t43 65.5t72.5 27q172 -4 481 -4q8 176 -61.5 285.5t-181.5 142.5 q-125 35 -277 -31q-152 -63 -299 -242q-29 -33 -68.5 -42t-67.5 11.5t-30 58.5t27 71q182 223 398 315t405 39q182 -51 278 -227q94 -174 64 -433q-23 -188 -66 -286q-76 -178 -241.5 -306t-350.5 -174q-195 -49 -359.5 8.5t-228.5 231.5q-10 27 -16 64.5t-10 77.5t-4 47z " />
<glyph unicode="&#x42e;" horiz-adv-x="2007" d="M113 88q33 207 116 621q84 416 121 653q6 39 38 67.5t71 31.5t62.5 -22.5t19.5 -64.5q-35 -223 -99 -536q90 -10 187 -15q70 221 240.5 395.5t412.5 231.5q20 12 45 14q4 0 24.5 2t44 4.5t46.5 2.5q109 6 151 -9q150 -53 242 -177t121 -275.5t4 -311.5 q-18 -121 -68.5 -234.5t-129.5 -212.5t-194.5 -166t-254.5 -81q-190 -23 -339 20.5t-233 136.5t-122.5 213t-28.5 259q-115 4 -184 14q-70 -346 -105 -553q-6 -39 -38 -67.5t-71.5 -30.5t-62.5 24.5t-16 65.5zM790.5 721q-20.5 -115 1 -216.5t83 -179t180.5 -114.5t276 -21 q174 20 291 157.5t147.5 340.5t-39 370t-225.5 224h-12q-143 10 -269 -34t-212 -125t-143.5 -184t-78 -218z" />
<glyph unicode="&#x42f;" horiz-adv-x="1435" d="M-16.5 43q-10.5 35 6.5 72q197 403 372 553q-86 41 -129 106q-47 74 -34.5 184.5t61.5 184.5q168 279 551 325q84 10 177 11.5t209 -5t142 -6.5q10 2 23 2q39 -2 59.5 -30.5t10.5 -67.5q-61 -233 -140 -606q16 -33 2 -72q-10 -23 -26 -41q-76 -356 -127 -569 q-10 -37 -44 -63.5t-72 -25.5t-58.5 29.5t-12.5 67.5q49 203 113 500h-154q-150 -2 -249 6q-47 4 -84 10q-12 -4 -21 -8q-94 -49 -186 -167t-213 -372q-18 -37 -57.5 -55t-74 -8t-45 45zM389 977q-6 -53 14 -80q41 -66 195 -96q190 63 518 18q59 283 105 463q-18 2 -81 5 t-90.5 4t-77.5 1t-93 -2t-82 -6q-270 -35 -375 -211q-27 -43 -33 -96z" />
<glyph unicode="&#x430;" horiz-adv-x="1212" d="M24.5 330.5q2.5 68.5 26.5 169.5q53 207 178 355.5t289 203.5q164 57 322 6q156 -51 262 -199q25 -33 13.5 -75.5t-48.5 -73.5q-20 -16 -47 -25q-2 -18 -6 -45q-4 -16 -8.5 -31.5t-4.5 -17.5l-4 -18q-6 -31 -11 -71t-8 -58.5t-4 -41t-1 -37v-28.5q6 -61 94 -172 q23 -33 13.5 -76t-47.5 -73.5t-81 -30.5t-69 31q-98 129 -117 221q-12 -16 -25 -29q-76 -84 -170 -141.5t-190 -69.5q-106 -14 -189 30t-133 146q-37 82 -34.5 150.5zM241 379q-1 -35 21 -82q43 -96 135 -84q98 12 195 121q98 111 180 305l2 8q2 8 5 22.5t7 28.5 q10 39 20.5 59.5t29.5 39.5l6 6q-137 111 -293 57q-90 -31 -170 -124t-117 -244q-20 -78 -21 -113z" />
<glyph unicode="&#x431;" horiz-adv-x="1122" d="M59 506q18 145 91 362q33 104 86 193.5t124.5 164t173 123t222.5 62.5q35 4 70.5 5t50 2t31 6.5t32.5 15.5l8 10l15 23q14 18 26 30q29 37 73 45t74.5 -14.5t30.5 -64.5t-30 -76q-6 -6 -11 -15l-20 -26q-35 -47 -74 -72q-41 -29 -91 -45t-83 -20.5t-76 -5.5t-49 -3 q-231 -25 -344 -258q66 51 139 82q203 84 371 -22q100 -63 148 -179q47 -115 24.5 -262t-135.5 -309q-100 -143 -256 -214t-308.5 -47.5t-240.5 138.5q-100 129 -72 371zM268 524q-23 -168 39 -245q51 -66 139.5 -79.5t178.5 27.5t147 121q78 111 91.5 208t-14.5 167 t-85 106q-90 55 -193 15q-127 -53 -235 -244q-23 -41 -66 -59q0 -8 -2 -17z" />
<glyph unicode="&#x432;" horiz-adv-x="1073" d="M94 102q2 123 17 252q16 131 49 313.5t43 250.5q-4 12 -6 26q0 29 16 57q12 35 44 62t69 31q35 2 61 -15q168 27 305 23q133 -2 215 -37q125 -51 133 -166q8 -166 -110 -274q-18 -18 -39 -35q10 -6 18 -17q72 -59 83.5 -142t-36.5 -167q-39 -74 -109.5 -132t-154.5 -89 q-145 -51 -420 -37q-29 -31 -65 -39q-43 -12 -76 9.5t-33 62.5q-2 23 -2 43q-2 10 -2 20zM307 213q88 -8 185.5 -5t166.5 28q39 14 71 38.5t44 51.5q25 45 -18 84q-57 49 -203 43q-84 -4 -227 -31q-16 -117 -19 -209zM360 643q201 14 322 53q86 27 121 62q29 25 26 65 q2 35 -34 51q-53 20 -152 23q-104 2 -242 -16q-14 -90 -41 -238z" />
<glyph unicode="&#x433;" horiz-adv-x="800" d="M66 82q12 131 39.5 283.5t74.5 355.5t60 256q4 20 16 39q14 33 47 54.5t68 21.5h413q43 0 66.5 -30t14.5 -73t-45 -72.5t-79 -29.5h-315q-8 -33 -43 -182.5t-47 -208t-32.5 -180t-27.5 -205.5q-4 -43 -36.5 -77t-76.5 -39t-72 20.5t-25 66.5z" />
<glyph unicode="&#x434;" horiz-adv-x="1247" d="M-100 -156q29 127 57 242q10 31 33 57q39 49 100 52q299 416 379 790q8 43 44 72.5t79 29.5q14 0 29 -4h2q27 2 260 7q102 2 153 2h80q6 0 11.5 -2.5t13.5 -4.5q27 -10 41 -34q10 -18 10 -43q-2 -8 -2 -19q0 -14 -4 -35l-21 -88q-18 -78 -65 -272q-86 -348 -94 -391h6 q6 -2 12 -2q18 -2 35 -11q33 -18 41 -59q4 -12 2 -29q0 -18 -4 -47q-4 -43 -21 -114l-16 -78l-14 -66l-9 -39q-8 -43 -44 -72.5t-79 -29.5t-66.5 29.5t-14.5 72.5l8 37l14 66l16 78l15 61h-51q-104 -2 -295 -4q-88 0 -235.5 -2t-168.5 -4q-4 -18 -33 -146 q-8 -43 -43.5 -72.5t-78.5 -29.5t-67 29.5t-15 72.5zM319 197q166 4 263 4q131 2 219 2q12 59 96 399q47 190 66 268l4 17q-53 0 -125 -2q-119 -2 -195 -4q-94 -336 -328 -684z" />
<glyph unicode="&#x435;" horiz-adv-x="1140" d="M45 320.5q-12 82.5 5.5 176t80.5 201.5q117 205 299 309.5t354 84.5q176 -23 265.5 -169.5t40.5 -375.5q-12 -57 -68 -88q-35 -23 -74 -19q-248 27 -688 4h-4q-2 -84 45 -146t119 -87t167 -3.5t183 97.5q37 31 79 31t66.5 -30t15.5 -71.5t-44 -72.5q-84 -72 -180.5 -114 t-181.5 -49t-169 9.5t-145 60.5t-107.5 106.5t-58.5 145zM322 651q354 16 575 2q0 106 -51 166t-129 68q-96 12 -206 -47.5t-189 -188.5z" />
<glyph unicode="&#x436;" horiz-adv-x="1425" d="M-55 85q4 42 35 75q57 53 243 223q121 109 183 174q-152 160 -261 361q-23 31 -11.5 73.5t48.5 71.5t79 26.5t65 -32.5q127 -223 299 -398h18q59 270 72 326q8 43 44 72.5t79 29.5t66.5 -29.5t15.5 -72.5q-12 -57 -72 -328h20q164 123 398 394q33 33 75.5 37t69.5 -24 t21.5 -70t-39.5 -74q-213 -254 -365 -371q176 -207 285 -383q20 -33 8 -75t-51 -69.5t-80 -23.5t-62 37q-113 180 -303 405q-14 2 -22 6q-37 -168 -64 -340q-8 -43 -42.5 -74.5t-78 -33.5t-69 26.5t-19.5 69.5q27 160 70 361h-35q-78 -80 -219 -209q-174 -154 -229 -209 q-33 -35 -76 -40t-71.5 20.5t-24.5 67.5z" />
<glyph unicode="&#x437;" horiz-adv-x="987" d="M25 300q16 42 55 67.5t80 18.5t57 -40l21 -41q10 -18 14 -27.5t8 -17.5q16 -18 57 -39q74 -31 174.5 -2t157.5 90q31 35 19 60q-33 66 -219 104q-41 8 -56.5 43t1 77t56 65.5t80.5 15.5q113 27 140 39q33 16 43 53q23 98 -103 113q-68 8 -133 -17q-63 -23 -94 -61 q-4 -2 -10 -19q-23 -55 -25 -57q-20 -41 -62 -62.5t-80 -10t-51.5 49t7.5 76.5q4 8 7 15.5t7 16.5t4 15q20 49 49 82q80 98 206 143.5t241 32.5q55 -6 104 -28.5t88 -60.5t52.5 -98t-2.5 -134q-31 -121 -127 -193q45 -37 67 -80q27 -51 24 -106t-28 -102.5t-66 -90.5 q-106 -117 -276 -167q-170 -49 -315 10q-78 37 -115 88q-4 6 -53 102q-20 35 -4 77z" />
<glyph unicode="&#x438;" horiz-adv-x="1144" d="M61 113v8q10 98 35 221t40.5 184.5t64.5 252t57 214.5q10 41 48 70t79 26.5t63.5 -34t11.5 -74.5t-52 -194.5t-61.5 -234.5t-37.5 -163l185 186q246 252 391 457q35 43 88 49q16 6 37 9q43 2 68.5 -26t19.5 -71q-35 -201 -94 -471q-68 -291 -91 -420q-6 -43 -41.5 -73.5 t-78.5 -32.5t-68 26.5t-18 71.5q23 131 92 430l28 133l-198 -206q-305 -311 -400 -414q-31 -35 -73.5 -43t-71.5 16q-49 37 -23 103z" />
<glyph unicode="&#x439;" horiz-adv-x="1169" d="M88 96q14 80 45 286t52.5 342t45.5 263q8 43 44 74t79 31t67.5 -29t14.5 -72q-37 -197 -102 -616l594 663l6 4q39 59 104 60q41 0 65.5 -30t14.5 -73q-33 -170 -102.5 -514t-77.5 -387q-10 -41 -47 -70.5t-79 -29.5t-64.5 30.5t-14.5 73.5q25 100 111 582 q-399 -463 -541 -604q-12 -12 -27 -21q-37 -55 -98 -59q-45 -2 -70.5 25.5t-19.5 70.5zM408.5 1371q11.5 42 49.5 70.5t80 26.5t62 -34q68 -94 135.5 -97.5t179.5 84.5q37 29 80 27t64.5 -33t10.5 -74t-48 -71q-188 -145 -340 -138t-262 166q-23 31 -11.5 73z" />
<glyph unicode="&#x43a;" horiz-adv-x="1089" d="M74 80q8 115 24 233q18 123 30.5 187.5t53.5 252t51 234.5q8 43 45 73t80 30t65.5 -30t14.5 -73q-14 -63 -46 -209.5t-44 -204.5q504 393 580 455q35 31 78 31t66.5 -30t14 -73t-46.5 -71q-119 -100 -342 -264q98 -209 263 -453q23 -31 11.5 -73t-49.5 -70.5t-79 -26.5 t-64 35q-164 242 -266 450l-211 -180l-2 -4q-12 -94 -20 -190q-2 -41 -34 -75t-76 -40t-72.5 18.5t-24.5 67.5z" />
<glyph unicode="&#x43b;" horiz-adv-x="1165" d="M-61.5 47q-8.5 39 17.5 78t67 55q16 6 34 13q2 0 12.5 3t14.5 5l16 6q37 25 76 106q43 82 79 213t87 428q2 12 6 27q10 37 43 63.5t72 30.5q152 12 573 12q14 0 29 -4q43 -2 64.5 -32.5t11.5 -73.5q-14 -61 -51 -170t-50 -154q-45 -166 -127 -553q-10 -43 -46 -72.5 t-79 -29.5t-66.5 29.5t-12.5 72.5q84 393 131 566q14 51 51 165l16 52q-252 2 -375 -6q-37 -217 -77 -363q-41 -152 -93 -256q-72 -145 -165 -211q-37 -25 -88 -41q-2 0 -31 -8q-10 -4 -17 -6q-43 -16 -78.5 0t-44 55z" />
<glyph unicode="&#x43c;" horiz-adv-x="1349" d="M45 100q18 84 61.5 275.5t72 329t48.5 270.5q6 43 41 74.5t78 33.5h4q39 14 73 -1t44 -50l82 -362l74 -318l26 41q362 487 386 525t44 77l2 2q12 35 45 59.5t70 26.5q43 2 67.5 -26.5t18.5 -71.5q-14 -78 -37 -221q-20 -129 -35 -209q-45 -260 -98 -463 q-10 -43 -48 -70.5t-81 -25.5t-63.5 33.5t-10.5 74.5q53 199 95 443l4 20l-50 -65q-59 -72 -141 -195l-145 -227q-18 -25 -43 -39q-16 -16 -39 -27q-41 -18 -78 -4.5t-49 51.5q-43 152 -111 498q-12 -55 -49 -216t-53 -243q-10 -43 -46 -72.5t-79 -29.5t-66.5 29.5 t-13.5 72.5z" />
<glyph unicode="&#x43d;" horiz-adv-x="1159" d="M74 92q18 131 35 244q20 119 36.5 204t47 230t43.5 213q8 43 42.5 73.5t77.5 30.5t68 -28.5t16 -71.5l-65 -325q209 8 461 8q23 115 53 311q8 43 43 74.5t78 34t68.5 -26.5t19.5 -70q-66 -401 -170 -891q-8 -43 -44 -72.5t-79 -29.5t-66.5 29.5t-15.5 72.5q43 203 76 363 q-256 0 -463 -8q-33 -176 -53 -344q-4 -41 -38 -75t-77 -38t-70.5 22.5t-23.5 69.5z" />
<glyph unicode="&#x43e;" horiz-adv-x="1069" d="M40 383q-1 86 26 176q31 117 95 224.5t170.5 191.5t229.5 100q20 4 43 4q39 20 76 15l12 -2q10 0 24.5 -1t31 -4.5t34 -7.5t29.5 -10q111 -49 164 -159.5t51 -235.5t-43 -248q-76 -209 -238 -330q-188 -141 -413 -92q-100 20 -168 78.5t-95.5 136.5t-28.5 164zM266 549 q-35 -133 4 -227q37 -94 146 -117q131 -29 227 45q94 70 143 205q47 137 23.5 258t-107.5 164q-35 -20 -67 -17q-4 0 -62 12q-18 2 -26 2q-84 -12 -165 -103t-116 -222z" />
<glyph unicode="&#x43f;" horiz-adv-x="1185" d="M61 94q121 569 148 815q2 25 16 47q0 10 2 21q6 43 42 73.5t79 32.5q104 4 375 4q143 0 229 -2q51 -2 82 -4q18 -2 29 -4q10 -2 20 -6q31 -10 44.5 -34.5t11.5 -61.5q-2 -14 -4 -37q-6 -35 -19 -94q-20 -96 -61 -269q-18 -76 -45 -183t-45.5 -186t-24.5 -104 q-8 -43 -44 -72.5t-79 -29.5t-66.5 29.5t-15.5 72.5q6 25 24.5 105t46.5 189.5t46 185.5q39 168 59 262l9 35q-6 0 -17 2q-82 2 -223 2q-131 0 -268 -2q-29 -240 -146 -787q-8 -43 -44 -72.5t-79 -29.5t-66.5 29.5t-15.5 72.5z" />
<glyph unicode="&#x440;" horiz-adv-x="1155" d="M-4 -313q20 139 47 280.5t67 341t54 275.5q-27 23 -26 62.5t28 72.5l31 35q16 96 30 182q6 43 42 74.5t77 33.5q37 2 61.5 -20.5t28.5 -56.5q25 16 49 30q145 86 270.5 91.5t207.5 -62.5q76 -59 110 -160q37 -98 35 -217q-4 -256 -147 -444q-86 -111 -204 -170.5 t-259 -48.5q-80 6 -124 19t-104 54l-4 2q-39 -201 -63 -362q-6 -43 -41 -75t-78 -34t-68.5 26t-19.5 71zM322 338q29 -55 30 -57q6 -12 58 -45q43 -27 65.5 -34t77.5 -12q154 -10 248 113q94 125 98 305q0 84 -23.5 149.5t-64.5 98.5q-86 68 -246 -27q-96 -57 -176 -139z " />
<glyph unicode="&#x441;" horiz-adv-x="1005" d="M51 236q-57 193 60 438q55 111 137 205t184 147q111 63 230.5 57t224.5 -84q27 -23 46 -43t30.5 -45.5t16.5 -40t15.5 -37t12.5 -30.5q10 -39 -13.5 -79t-64.5 -58.5t-78 -4t-49 51.5q-4 20 -12.5 36.5t-11.5 23.5t-8 19.5t-12 18.5t-24 16q-113 88 -233 25 q-123 -68 -203 -231q-82 -170 -45 -291t207 -125q61 -2 102 20q43 20 129 84q35 33 78 37t69.5 -23.5t21.5 -69.5t-38 -75q-115 -90 -204 -135t-205 -43q-145 2 -236.5 65.5t-126.5 170.5z" />
<glyph unicode="&#x442;" horiz-adv-x="952" d="M115.5 983q9.5 43 46.5 71.5t80 28.5q543 -10 700 -4q43 2 67.5 -26.5t17.5 -71.5t-43 -73.5t-79 -33.5q-119 -4 -264 -4q-41 -244 -164 -772q-10 -43 -47 -71.5t-80 -28.5t-64.5 30.5t-13.5 73.5q123 532 164 772q-33 0 -114.5 2.5t-126.5 2.5q-43 0 -66 30.5 t-13.5 73.5z" />
<glyph unicode="&#x443;" horiz-adv-x="944" d="M-78 -304q-4 40 24.5 78t71.5 50q23 6 41.5 10t24.5 6h12q6 2 15 6q53 29 155 168v2l-2 9q-117 434 -139 940q-4 41 25.5 77.5t72.5 48t76 -9.5q31 -23 33 -63q18 -401 98 -752l55 94q100 178 189.5 360.5t128.5 280.5q16 41 56 66t80 17.5t57.5 -42t0.5 -77.5 q-41 -106 -135 -297q-94 -190 -198 -377q-129 -225 -236 -371q-143 -193 -254 -250q-14 -8 -32.5 -15t-36 -11t-33 -8.5t-25.5 -6.5t-12 -2q-41 -12 -75 8.5t-38 60.5z" />
<glyph unicode="&#x444;" horiz-adv-x="1714" d="M43 434q16 215 150 410q72 109 171 179.5t218 80.5q174 14 295 -90q39 244 61 346q8 43 44 72.5t79 29.5t66.5 -29.5t15.5 -72.5q-23 -106 -56 -303q117 68 259 65q109 -2 184.5 -49t108 -124t41 -164t-8.5 -179q-20 -123 -78.5 -241.5t-162.5 -221.5 q-104 -102 -236 -139q-127 -37 -217 -2q-53 20 -96 64q-49 -215 -84 -375q-8 -43 -44 -73t-79 -30t-66.5 30t-15.5 73q37 166 96 426q-37 -25 -78 -45q-145 -76 -265 -79t-195 66q-131 117 -107 375zM250 457q-16 -170 57 -234q70 -63 238 25q66 33 109.5 75t97.5 111 q4 27 20 49q20 94 41 189l-8 47q-4 20 -6 29q-4 18 -37 59q-82 102 -207 92q-106 -8 -197 -141q-96 -141 -108 -301zM963 420q29 -113 57 -160q31 -51 65 -63q33 -12 93 4q98 29 179 140.5t109 256.5q27 147 -19 233.5t-144 86.5q-51 0 -80 -7.5t-68 -31.5 q-14 -8 -25.5 -16.5t-17.5 -13.5t-16.5 -16.5t-15.5 -17.5t-19 -24l-27 -31q-29 -147 -71 -340z" />
<glyph unicode="&#x445;" horiz-adv-x="925" d="M-59.5 101q8.5 42 47.5 73q186 162 354 332q-86 186 -168 424q-14 37 5.5 78t61.5 62.5t79.5 10t52.5 -48.5q68 -186 135 -348q145 172 266 342q27 39 70 52.5t77.5 -5t40 -58.5t-21.5 -79q-156 -225 -346 -434q88 -172 180 -336q20 -31 9 -74t-49 -70.5t-81 -25.5 t-63 35q-82 150 -162 301q-158 -154 -330 -305q-37 -29 -79 -29t-64.5 30.5t-14 72.5z" />
<glyph unicode="&#x446;" horiz-adv-x="1204" d="M92 268q0 82 16.5 184.5t31 173t41 189.5t38.5 168q8 43 44 72.5t79 29.5t66.5 -29.5t15.5 -72.5q-10 -47 -46 -203.5t-48.5 -222t-20.5 -166t0 -188.5q231 -2 424 14q117 276 191 764q8 43 41.5 74.5t77.5 34t70 -25.5t20 -71q-78 -481 -185 -770l13 2q39 6 67.5 -12 t32.5 -53q12 -29 2 -64q-6 -29 -14.5 -54.5t-10.5 -29.5t-4 -18l-4 -19l-6 -28l-12 -53q-8 -43 -44 -73t-79 -30t-66.5 29.5t-15.5 73.5l24 112q-270 -14 -630 -8q-61 2 -78 59q-16 16 -19 43q-12 86 -12 168z" />
<glyph unicode="&#x447;" horiz-adv-x="1058" d="M115.5 636q-17.5 144 27.5 349q8 43 44 72.5t79 29.5t66.5 -29.5t15.5 -72.5q-70 -322 27 -393q82 -61 348 -29q49 248 68 416q4 41 37.5 74.5t76.5 38t72 -22.5t22 -70q-18 -156 -79 -473q-61 -319 -76 -420q-8 -43 -42 -74.5t-78 -33.5t-69.5 25.5t-19.5 70.5 q16 104 49 264q-326 -37 -459 62q-92 72 -109.5 216z" />
<glyph unicode="&#x448;" horiz-adv-x="1576" d="M84 76q-2 143 17.5 313t42 289t65.5 317q8 43 44 73t79 30t66.5 -30t15.5 -73q-37 -176 -58.5 -284.5t-40 -250t-22.5 -259.5q152 6 330 8q12 61 32.5 182t33.5 201t41 199.5t54 209.5q14 43 52 70t81.5 23t62.5 -37t5 -76q-27 -86 -52.5 -197.5t-37.5 -189.5l-33 -195 q-20 -119 -35 -190h330q106 307 189 774q6 43 40.5 73.5t78.5 33t69 -26.5t16 -72q-94 -539 -225 -891q-20 -55 -76 -77q-31 -18 -63 -19q-741 0 -998 -10q-12 0 -24 2q-35 2 -56.5 23.5t-23.5 56.5z" />
<glyph unicode="&#x449;" horiz-adv-x="1681" d="M86 102q4 139 23.5 286t52.5 319t45 268q6 43 41 74.5t77 34.5t68.5 -24.5t20.5 -68.5q-12 -88 -60.5 -357t-56.5 -423q236 -10 356 -12l70 366q55 279 80 418q6 43 41 73.5t79 33t68.5 -26.5t16.5 -72q-23 -141 -78 -422l-72 -372q156 0 291 8q168 451 258 796 q12 41 50 70t79 27t63.5 -34t10.5 -75q-90 -338 -246 -766l35 6h14q16 4 33 4q41 0 63.5 -30.5t14.5 -73.5q-8 -33 -16.5 -67.5t-8.5 -39t-6 -26t-7 -24.5l-12.5 -37.5t-19.5 -63.5q-12 -43 -52 -69.5t-81 -22.5t-60.5 37.5t-7.5 74.5q39 119 39 123q-178 -18 -401 -21 t-330 1l-387 14q-37 2 -61 29q-27 25 -27 65z" />
<glyph unicode="&#x44a;" horiz-adv-x="1153" d="M106.5 957q4.5 42 39 75t75.5 37q162 14 246 21q14 6 33 8q43 4 69.5 -23.5t22.5 -70.5q-14 -98 -55 -316q231 45 360 -4q92 -33 136 -114t40 -179q-6 -100 -68.5 -194.5t-173.5 -147.5q-106 -49 -268 -51q-41 0 -113.5 3t-99.5 3q-18 -6 -33 -8q-43 -4 -70.5 23.5 t-21.5 68.5q18 143 72 416l2 12q-2 8 -4 19q0 33 20 65q23 117 54 281q-10 -2 -170 -17q-43 -4 -70 23.5t-22.5 69.5zM446 207q129 -4 160 -4q111 2 170 30q82 37 88 129q2 45 -17.5 80t-53.5 50q-90 33 -297 -13q-35 -174 -50 -272z" />
<glyph unicode="&#x44b;" horiz-adv-x="1470" d="M78 102q14 82 39.5 269.5t50.5 338t51 279.5q10 43 46 73t79 30t66.5 -30t13.5 -73q-27 -129 -57 -309q279 61 440 16q88 -23 142.5 -91t64.5 -154q12 -86 -36 -185.5t-151 -165.5q-238 -152 -630 -88q-16 -4 -31 -6q-43 -2 -68.5 25.5t-19.5 70.5zM299 211 q291 -41 440 53q74 47 66 125q-4 39 -28.5 69.5t-61.5 41.5q-123 33 -379 -29q-2 -25 -16.5 -118t-20.5 -142zM1036 90q61 295 201 895q8 43 45 71.5t80 28.5t65.5 -30.5t12.5 -73.5q-137 -598 -199 -891q-10 -43 -46 -72.5t-79 -29.5t-66.5 29.5t-13.5 72.5z" />
<glyph unicode="&#x44c;" horiz-adv-x="1013" d="M70 94q18 102 50 276.5t60.5 331t46.5 285.5q6 43 41 75t78 34t69.5 -26t18.5 -71q-20 -133 -55 -325q98 14 158 20q174 12 268 -37q88 -47 116.5 -145t-9.5 -207.5t-136 -187.5q-209 -162 -553 -97q-33 -23 -67 -24q-43 -2 -68 26.5t-18 71.5zM299 223q250 -49 369 45 q51 39 55 108.5t-47 96.5q-49 25 -168 16q-57 -4 -166 -22q-37 -203 -43 -244z" />
<glyph unicode="&#x44d;" horiz-adv-x="1056" d="M63 334q-6 41 24 79t75 50t78.5 -8.5t35.5 -63.5q2 -18 3.5 -41.5t2.5 -35t3 -25t5 -19.5t7 -13t14 -13q84 -72 240 -6q74 31 131 82t80 106q8 18 14 37q-215 -6 -321 -14q-45 -2 -72 26.5t-20.5 70.5t41 74.5t77.5 36.5q111 8 305 15q-14 66 -47 116q-104 147 -301 66 q-18 -6 -30.5 -13t-27.5 -19.5t-24 -20.5l-34 -33l-41 -37q-35 -33 -78 -35t-72 26t-21.5 71t42.5 77q6 6 34.5 32t44 39t43 35.5t57 39t60.5 31.5q123 51 225.5 45.5t179 -48.5t130.5 -116q74 -106 82 -254t-52 -291q-45 -111 -144 -199t-214 -137q-78 -33 -153.5 -44 t-154.5 4.5t-136 64.5q-29 23 -47.5 51.5t-25.5 61t-10 52t-4 56.5t-4 41z" />
<glyph unicode="&#x44e;" horiz-adv-x="1527" d="M88 86q25 197 59 428q0 12 3 25q12 78 36.5 230.5t32.5 211.5q8 43 42 74.5t78 34t69.5 -25.5t19.5 -71l-57 -362q63 -2 161 16q35 133 126.5 238.5t234.5 156.5q27 10 72 19q47 49 106 39q127 -23 217 -85.5t133 -148.5t52.5 -183t-13.5 -198q-23 -96 -75 -188 t-127.5 -166t-178 -112.5t-213.5 -24.5q-168 23 -260 150.5t-100 297.5q-102 -18 -166 -16q-23 -150 -41 -320q-6 -43 -40 -75.5t-78 -36.5t-70.5 22.5t-22.5 69.5zM715 506q2 -123 62.5 -209t156.5 -98q106 -14 198.5 67.5t122.5 222.5q31 127 -14 236t-172 154 q-20 -10 -41 -13q-25 -4 -43 -6t-25.5 -2t-15.5 -1t-18 -3q-82 -31 -136.5 -103.5t-68.5 -170.5q2 -16 -2 -35l-2 -10z" />
<glyph unicode="&#x44f;" horiz-adv-x="1134" d="M-21.5 50q-11.5 38 11.5 79q4 10 22.5 45t28.5 51l25 41q18 29 31.5 49.5t30.5 45t36 42.5q25 27 49 50q-94 70 -92 188q2 76 49 165t109 142q154 135 415 137q147 0 350 -45q47 -10 60 -57q12 -27 4 -59q-18 -82 -109 -418q-68 -254 -96 -406q-6 -41 -43 -71.5 t-79 -32.5t-66.5 27.5t-18.5 72.5q23 119 64 277q-147 -10 -262 -2l-17 -4q-113 -10 -174 -78l-22 -31l-19 -27q-8 -6 -22.5 -31.5t-22.5 -37.5l-24 -49q-18 -35 -29 -50q-20 -39 -62.5 -58t-79 -6t-48 51zM330 682q0 -72 147 -98q121 -20 309 -6q14 0 27 -3q53 188 74 281 q-131 25 -236 25q-172 0 -252 -72q-25 -20 -47 -63.5t-22 -63.5z" />
<glyph unicode="&#x450;" horiz-adv-x="1081" d="M35 504q6 31 27.5 55.5t48.5 34.5q16 47 32 90q98 219 267.5 325.5t337.5 73.5q164 -31 245 -174q84 -147 41 -362q-10 -61 -73 -88q-33 -29 -72 -29q-113 0 -608 -14q8 -131 96 -195q47 -35 105.5 -40t135 29t152.5 116q31 31 73 36t67.5 -19t21.5 -63.5t-33 -70.5 q-113 -115 -236.5 -171t-231 -48t-191.5 69q-78 55 -118 148.5t-38 208.5q-29 8 -42 32.5t-7 55.5zM307 604q477 16 543 19q6 117 -46 187.5t-128 86.5q-92 16 -189.5 -45t-162.5 -209q-8 -20 -17 -39zM518 1406q14 42 53 67.5t80 20.5t60 -38l63 -129q20 -33 6 -76 t-52 -68.5t-80 -20.5t-60 38l-66 129q-18 35 -4 77z" />
<glyph unicode="&#x451;" horiz-adv-x="1128" d="M53 549q10 55 64 88q29 90 79 171t120.5 149.5t164.5 109.5t199 41q225 0 338 -147q35 -51 55.5 -119t22.5 -115q4 -45 4 -119q0 -39 -32 -73.5t-71 -42.5q-4 0 -10 -3q-18 -4 -37 -4q-283 0 -669 -20q0 -117 55 -189q80 -100 256 -75q53 4 80 16q14 8 39 25l61 43 q39 25 79 18.5t56.5 -40.5t1 -73.5t-50.5 -64.5l-61 -39q-37 -25 -60 -37q-68 -35 -159 -47q-276 -37 -410 135q-102 131 -84 336q-39 27 -31 76zM322 664q328 14 569 18q-8 88 -47 143q-63 84 -205 84q-100 0 -185 -68.5t-132 -176.5zM405.5 1354q8.5 43 45 72.5t100 29.5 t84.5 -31q25 -29 16.5 -71.5t-45.5 -72.5t-100.5 -30t-86 30t-14 73zM802 1352q9 43 45 72.5t99.5 29.5t85.5 -31q25 -29 15.5 -71.5t-45 -72.5t-99 -30t-87 30t-14.5 73z" />
<glyph unicode="&#x452;" horiz-adv-x="1112" d="M59 100q25 115 103 545l16 92l12 66q39 207 72 362q18 92 51 219q10 45 48 71t77 26q41 0 64.5 -25.5t15.5 -71.5q-10 -41 -35.5 -159.5t-68.5 -317.5q150 137 299 137q182 0 254.5 -107.5t46.5 -307.5q-6 -41 -12.5 -77t-10.5 -69q-12 -98 -26.5 -162.5t-42.5 -154.5 q-61 -184 -142.5 -298t-208.5 -187q-59 -33 -93 -47.5t-75 -14.5q-43 0 -64.5 26.5t-12.5 63.5q8 41 36.5 69.5t88.5 55.5q84 37 134 86t76.5 105.5t57.5 146.5q57 221 86 440q33 227 -146 228q-72 0 -134 -32t-132 -114l-22 -28q-68 -385 -107 -566q-10 -47 -46 -74.5 t-77 -27.5t-66.5 27.5t-15.5 74.5zM92 1235q10 39 43 67.5t74 28.5l555 -2q43 0 64.5 -28.5t11.5 -71.5q-12 -41 -46 -68.5t-75 -27.5h-543q-45 0 -69.5 29.5t-14.5 72.5z" />
<glyph unicode="&#x453;" horiz-adv-x="757" d="M47 100q10 47 95 427t87 425q8 47 52 80q37 41 88 43q346 14 374 15q43 0 65.5 -30t13.5 -73t-45 -72.5t-79 -29.5q-86 0 -278 -11q-29 -147 -90.5 -420.5t-77.5 -353.5q-10 -43 -46 -72.5t-79 -29.5t-66.5 29.5t-13.5 72.5zM443.5 1288q7.5 43 41.5 74l146 139 q35 33 78 38t69.5 -21.5t23.5 -68.5t-38 -75l-158 -151q-35 -31 -78 -33t-67.5 26.5t-17 71.5z" />
<glyph unicode="&#x454;" horiz-adv-x="1067" d="M50 377q-5 80 9.5 159.5t48 159.5t87 154t123 132t161.5 90t193 28q270 -12 372 -260q14 -35 -5 -73t-59 -58.5t-80 -10t-52 46.5q-33 80 -87 120t-138 44q-106 6 -205 -78q-94 -82 -135 -219q213 -4 315 -12q39 -4 61.5 -33.5t10 -68.5t-50 -65.5t-78.5 -22.5 q-100 8 -283 8q8 -113 82 -178.5t205 -57.5q68 4 121 29t131 84q37 25 79 22.5t64.5 -31t12 -68.5t-47.5 -66q-98 -72 -186 -112t-203 -48q-113 -8 -203 21.5t-143 83t-84 127t-36 153.5z" />
<glyph unicode="&#x455;" horiz-adv-x="946" d="M3 275.5q13 41.5 53 67.5t81 20.5t60 -39.5q14 -25 20 -45l14 -29q4 -10 13 -21q25 -25 89 -32t152 16q78 20 115 54t37 69q2 47 -53 84q-37 25 -178 76q-150 53 -201 102q-113 98 -41 260q51 117 150.5 171t207.5 63q90 4 178 -18.5t144 -65.5q12 -10 27.5 -26.5 t23.5 -31.5l18 -24q8 -12 9 -15q25 -29 15.5 -71.5t-45.5 -72.5t-79 -30t-65 31q-12 14 -21.5 27.5t-11.5 19.5t-6 11t-13 10q-31 25 -89 39t-115 12q-109 -6 -138 -74q-8 -20 -7 -30.5t13 -22.5q31 -27 150 -70q156 -55 213 -94q131 -84 123 -227q-4 -72 -38 -134.5 t-86 -104.5t-107.5 -70.5t-114.5 -43.5q-102 -35 -229.5 -21.5t-190.5 79.5q-14 12 -26.5 33.5t-20.5 39.5l-17 33q-8 18 -10 21q-16 33 -3 74.5z" />
<glyph unicode="&#x456;" horiz-adv-x="503" d="M74 98q20 98 71 412q59 330 97 487q10 41 47 71t79 28t65.5 -33t10.5 -74q-35 -147 -92 -469q-49 -303 -73 -422q-10 -43 -46 -72.5t-79 -29.5t-67 29.5t-13 72.5zM312.5 1358q9.5 43 45 72.5t78.5 29.5t66 -30q25 -29 15.5 -72t-45.5 -73t-79 -30t-66.5 30t-14 73z" />
<glyph unicode="&#x457;" horiz-adv-x="489" d="M16 98q23 104 97.5 446.5t91.5 446.5q10 43 45 74t78 31t67.5 -29t16.5 -72q-18 -104 -93 -447t-98 -450q-10 -41 -46 -71.5t-78 -30.5t-66.5 29.5t-14.5 72.5zM138 1341q9 43 45 73t89.5 30t75.5 -31q25 -29 15.5 -72t-45 -72.5t-89 -29.5t-77 29.5t-14.5 72.5z M464 1341q9 43 45 73t89 30t76 -31q25 -29 15.5 -72t-45.5 -72.5t-89 -29.5t-76.5 29.5t-14.5 72.5z" />
<glyph unicode="&#x458;" horiz-adv-x="468" d="M-234.5 -310q9.5 42 41.5 72l52 43q29 23 38 30t22 20.5t22 27.5q10 12 22 35q84 145 150 485q23 115 53 308l43 270q8 43 43 73.5t79 33t68.5 -26.5t16.5 -72l-43 -270q-31 -197 -54 -311q-76 -381 -178 -560q-27 -45 -57.5 -81.5t-44.5 -51t-57 -51.5l-58 -45 q-37 -31 -79 -31t-65.5 30t-14 72zM261 1362q9 43 45 72.5t79 29.5t66 -30q25 -29 15.5 -72t-45.5 -72.5t-79 -29.5t-66.5 29.5t-14.5 72.5z" />
<glyph unicode="&#x459;" horiz-adv-x="1679" d="M-66.5 16q-9.5 39 14 79t64.5 57q4 2 66 24q16 6 22 8q94 68 154 320q20 92 41 231q35 221 35 223q4 18 14 37q14 37 47 61.5t72 24.5q61 0 189 2t227.5 1t189.5 -5q39 -2 61.5 -33.5t10.5 -72.5v-8q-31 -119 -68 -281q250 18 377 -55q63 -37 94 -84q31 -45 45 -121 q31 -168 -69 -287q-84 -98 -240 -133q-190 -43 -395 6q-29 -14 -58 -14q-43 0 -66.5 29.5t-12.5 72.5q154 723 167 781q-84 2 -395 -2q-16 -121 -18 -127q-20 -150 -45 -252q-80 -342 -260 -469q-35 -27 -86 -45q-4 0 -23 -7l-29 -10q-43 -18 -79.5 -4t-46 53zM975 209 q162 -37 301 -6q68 16 94 45q25 31 12 102q-6 41 -19 59.5t-46 39.5q-80 45 -287 28q-10 -47 -28.5 -138t-26.5 -130z" />
<glyph unicode="&#x45a;" horiz-adv-x="1607" d="M96 90q33 213 68 418q-39 27 -29 80q8 57 62 90q27 139 63 305q8 43 44 72.5t79 29.5t66.5 -29.5t15.5 -72.5q-33 -154 -57 -276q297 25 456 26q6 0 13 2q23 117 45 242q6 41 41.5 72.5t77.5 33.5t68 -26.5t19 -71.5q-18 -106 -47 -252q70 -4 127 -10q184 -23 254 -92 q94 -90 70 -258q-20 -137 -111 -230q-76 -80 -194 -116q-133 -41 -353 -29q-27 -14 -53 -14q-43 0 -66.5 29.5t-15.5 72.5q14 59 47 211t50 233q-4 0 -13 -2q-156 -2 -452 -26q-35 -190 -68 -400q-6 -41 -41 -72.5t-77 -34.5t-68.5 24.5t-20.5 70.5zM969 201q152 -6 233 20 q55 16 82 45q33 33 41 94q12 76 -25 111q-33 33 -161 47q-43 6 -101 10z" />
<glyph unicode="&#x45b;" horiz-adv-x="1019" d="M61 100q20 100 44 213t50.5 247t43.5 214l47 221h-58q-43 0 -67.5 30t-15 72t45 72.5t76.5 30.5h60q14 84 18 152q4 43 37 76.5t76 39t71.5 -20.5t26.5 -67q-8 -80 -24 -178q176 0 344 -2q41 0 64.5 -30.5t14 -72.5t-46.5 -72t-80 -30q-166 2 -335 2q-49 -221 -50 -223 l-6 -31q106 55 221 70q166 25 244 -82q57 -78 53 -223q-2 -53 -12 -121t-19.5 -112t-25.5 -104t-18 -71q-10 -43 -46 -71.5t-79 -28.5t-65.5 30.5t-14.5 73.5q4 20 18.5 77t23.5 95.5t18.5 95t9.5 99.5q4 86 -21 121q-20 29 -80 20q-66 -10 -124 -37.5t-132 -80.5 q-51 -250 -82 -394q-10 -43 -46 -72.5t-79 -29.5t-66.5 29.5t-13.5 72.5z" />
<glyph unicode="&#x45c;" horiz-adv-x="1062" d="M61 94q25 162 90.5 481.5t84.5 411.5q6 41 42.5 72t78.5 33t67 -28t16 -73q-27 -150 -75 -379l526 437q39 27 80 23.5t62.5 -35t9 -73.5t-49.5 -71l-317 -272q88 -260 252 -451q25 -29 17.5 -72t-42.5 -73.5t-79 -32.5t-68 26q-168 195 -264 459l-185 -143 q-23 -123 -37 -228q-8 -43 -41.5 -74.5t-78 -33.5t-70 25.5t-19.5 70.5zM583 1200q5 43 38 76l145 149q35 33 78 38t71.5 -20.5t24.5 -67.5t-37 -77l-151 -153q-33 -33 -77 -37t-70.5 22.5t-21.5 69.5z" />
<glyph unicode="&#x45d;" horiz-adv-x="1128" d="M72 88q31 319 161 899q8 43 45 71.5t80 28.5t65.5 -30.5t14.5 -73.5q-88 -377 -121 -586q8 8 66 74l70 78q410 469 450 502q47 43 101 30h8q43 -2 63.5 -33.5t7.5 -74.5q-133 -516 -188 -875q-10 -43 -46 -72.5t-79 -29.5t-66.5 29.5t-13.5 72.5q45 315 121 615 q-104 -156 -279 -353l-264 -292l-4 -2q-35 -59 -98 -68q-43 -4 -70.5 21.5t-23.5 68.5zM543 1369q14 42 53 67.5t80 20.5t59 -38l99 -137q18 -33 5.5 -75t-49 -69.5t-78.5 -24.5t-63 34l-100 145q-20 35 -6 77z" />
<glyph unicode="&#x45e;" horiz-adv-x="948" d="M-105.5 -353q-13.5 36 4 78t58.5 62q25 14 45 25l33 16q12 6 24 14q78 55 199 226q-6 8 -10 18q-72 190 -96.5 406.5t-24.5 468.5q0 41 30.5 76.5t74.5 44t75 -14.5t29 -66q2 -410 74 -700l32 51q80 131 209 373l158 293q25 41 68 57.5t79.5 1t49 -53.5t-20.5 -79 q-33 -55 -161 -294.5t-208 -373.5q-281 -463 -458 -589q-20 -14 -47 -29.5t-53.5 -29t-28.5 -13.5q-41 -23 -81 -13.5t-53.5 45.5zM321 1381.5q11 41.5 48 70.5t78.5 26t62.5 -34q63 -92 139 -98q76 -2 170 77q37 33 79 33t67.5 -28.5t16.5 -70.5t-44 -73 q-176 -154 -346 -141q-160 12 -262 166q-20 31 -9 72.5z" />
<glyph unicode="&#x45f;" horiz-adv-x="1132" d="M102 211q-27 129 39 410q47 203 115 387q14 41 54 66.5t80 18t58.5 -41t2.5 -76.5q-61 -166 -107 -359q-53 -236 -35 -323q4 -27 51.5 -55.5t126.5 -40.5q74 -10 131.5 0t81.5 28q4 6 9 17q14 31 30 80q29 90 64 235q59 252 86 420q6 41 41 73.5t77 34.5t69.5 -25.5 t19.5 -70.5q-27 -176 -88 -438q-37 -154 -72 -254q-20 -61 -41 -104q-27 -59 -59 -93q-106 -104 -295 -112l-13 -94q-4 -41 -38.5 -74t-76.5 -37t-70 23.5t-21 70.5l18 133q-205 57 -238 201z" />
<glyph unicode="&#x462;" horiz-adv-x="1523" d="M134 1143q11 43 48 70.5t80 25.5q111 -8 273 -8q8 63 8 110q0 43 30.5 78t74.5 43t74 -15.5t30 -64.5q-2 -68 -11 -151q373 6 408 6q43 0 66.5 -29.5t14.5 -72.5t-45 -73t-79 -30q-55 0 -391 -4q-14 -88 -37 -207q260 51 469 13q170 -31 250 -123q102 -115 55 -303 q-23 -84 -71 -151t-113.5 -110t-130 -70.5t-138.5 -43.5q-244 -57 -489 -19h-8q-20 -14 -47 -18q-45 -8 -75 16.5t-26 65.5q2 102 19.5 228t32 197.5t47.5 219.5q41 199 57 303q-170 0 -303 8q-43 2 -63.5 34t-9.5 75zM569 217q6 0 13 -2q209 -31 411 16q221 51 256 185 q23 92 -20 143q-47 53 -160 74q-115 16 -226.5 9t-209.5 -32q-49 -244 -64 -393z" />
<glyph unicode="&#x463;" horiz-adv-x="1153" d="M79 989q9 43 46 72t80 29q80 -2 194 -3q20 129 33 271q6 41 40 74.5t77 38t70.5 -22.5t23.5 -70q-16 -152 -37 -293q123 0 211 -2q43 0 65.5 -30.5t13.5 -73.5t-46 -71.5t-80 -28.5q-84 2 -197 2q-14 -84 -30 -174q283 49 409 -35q72 -47 101.5 -135t13.5 -180.5 t-84 -179.5t-176 -132q-61 -27 -128 -38t-147.5 -13t-112.5 1t-110 13q-25 4 -43 23q-27 10 -39 36.5t-6 57.5q98 455 148 758q-125 0 -213 2q-43 0 -64.5 30.5t-12.5 73.5zM444 205q219 -16 316 24q51 23 80.5 73t24.5 106.5t-52 87.5q-72 47 -309 4q-25 -129 -60 -295z " />
<glyph unicode="&#x464;" horiz-adv-x="1961" d="M82 102q63 256 160.5 699.5t126.5 574.5q10 43 47 72t80 29t64.5 -31t12.5 -74q-41 -182 -112 -508l221 4q10 35 27 70q57 137 151 252t217 186q283 166 586 45q260 -102 330 -334q12 -45 -10.5 -81.5t-64.5 -56t-79 -6.5t-49 50q-47 160 -238 236q-213 84 -395 -23 q-170 -98 -256 -309q-8 -14 -12 -27q246 0 463 -10q43 -2 64.5 -33.5t10 -73.5t-49.5 -71t-77 -27q-217 10 -456 11q-14 -156 53 -277q68 -119 211 -166q145 -49 276 2q59 23 109.5 67t132.5 132q35 35 79 42t71.5 -18.5t26.5 -67.5t-34 -75l-73 -76q-20 -23 -69.5 -66.5 t-99.5 -74.5t-106 -51q-205 -80 -417 -10q-211 70 -300.5 243.5t-68.5 393.5l-219 -5q-72 -324 -131 -565q-10 -41 -47 -70.5t-79 -27.5t-64.5 32.5t-12.5 73.5z" />
<glyph unicode="&#x465;" horiz-adv-x="1472" d="M82 92q12 100 30.5 221t32 207t39.5 225q23 123 39 234q6 41 42 72.5t78 33.5t67.5 -26.5t19.5 -71.5q-8 -49 -20.5 -114.5t-23.5 -132t-17 -105.5q78 6 157 8q43 98 115 188.5t168 161t203.5 97t226.5 -4.5q109 -29 161 -97t77 -177q8 -39 -16.5 -79t-66.5 -56.5 t-77 0.5q-39 14 -47 53q-16 76 -42 109.5t-83 50.5q-104 29 -219 -42t-187 -202q117 -2 273 -10q41 -2 63.5 -34t11 -74t-49.5 -70.5t-81 -26.5q-180 8 -278 10q0 -57 20 -102q49 -119 236 -137q78 -8 129 12q47 16 127 82q35 31 78 31t66.5 -30t14 -73t-45.5 -71 q-113 -94 -201 -129q-102 -39 -232 -27q-283 29 -370 231q-39 94 -29 211q-68 -2 -135 -6q-25 -160 -45 -319q-4 -43 -39 -76t-78 -37t-69.5 23.5t-22.5 68.5z" />
<glyph unicode="&#x466;" horiz-adv-x="1220" d="M-89 68q-3 41 86 179t101.5 158.5t56.5 96.5t48 84l327 555q74 131 140 254q20 35 54 54t69 17q35 2 60.5 -17t29.5 -54q25 -236 106 -621l129 -637q8 -49 -16.5 -83t-67.5 -50t-77.5 0t-43.5 55l-79 392h-15l-117 6q-39 -162 -79 -355q-8 -43 -44 -72.5t-79 -29.5 t-66.5 29.5t-15.5 72.5q41 195 82 361l-152 -2q-156 -285 -254 -414q-27 -37 -70.5 -49t-76.5 8.5t-36 61.5zM471 666q176 2 317 -4l-4 32q-47 213 -73 381z" />
<glyph unicode="&#x467;" horiz-adv-x="991" d="M-77 64.5q-5 39.5 22 76.5q328 438 526 848q18 41 61 62q23 23 52 30q41 14 75.5 -4t38.5 -59q74 -545 181 -871q14 -37 -8.5 -77.5t-63.5 -61t-79 -8.5t-50 49q-41 121 -72 254h-2l-76 -2q-20 -82 -45 -199q-8 -43 -44 -72.5t-79 -29.5t-66.5 29.5t-14.5 72.5 q27 121 45 197h-31q-88 -133 -182 -248q-29 -39 -72 -52t-77 6.5t-39 59zM422 504q92 0 139 2l-33 184q-49 -92 -106 -186z" />
<glyph unicode="&#x468;" horiz-adv-x="1853" d="M106 96q92 592 248 1268q10 43 46 71.5t79 28.5t65.5 -30.5t14.5 -73.5q-86 -371 -149 -701q174 -6 424 -2l446 717q10 49 55 80q39 27 81 21.5t61 -37.5q131 -229 197.5 -594t80.5 -723q2 -41 -28.5 -77t-73.5 -47t-74 11.5t-35 63.5q-6 195 -31 389q-84 2 -184 2 q-57 -242 -82 -361q-8 -43 -44 -72.5t-79 -29.5t-66.5 29.5t-15.5 72.5q27 121 80 357q-35 0 -101.5 -2t-92.5 -2l-244 -394q-25 -39 -68 -55t-77.5 0.5t-43 55t16.5 77.5l190 312q-186 -2 -331 2q-29 -168 -56 -344q-8 -43 -41.5 -75t-77.5 -34t-70 25.5t-20 70.5z M1057 662q283 6 430 6q-49 285 -123 481z" />
<glyph unicode="&#x469;" horiz-adv-x="1509" d="M90 90q10 78 76 432q49 270 70 455q4 43 37.5 75.5t76.5 38t71 -21.5t23 -68q-23 -190 -69 -446q133 0 350 2q123 219 236 438q10 18 22 33q16 31 47 49q41 25 81 17.5t58 -41.5q100 -203 148 -422q49 -221 84 -498q8 -45 -21.5 -81t-72.5 -48t-77 7.5t-38 60.5 q-20 160 -43 282h-70l-43 -256q-12 -43 -49 -71.5t-79 -26.5t-64.5 32.5t-9.5 73.5l40 246h-49l-178 -286q-23 -41 -64.5 -57.5t-78.5 -1t-45 54t16 77.5l131 213q-156 -2 -268 -2q-27 -141 -39 -244q-8 -43 -42 -74.5t-77 -34.5t-68.5 24.5t-21.5 68.5zM944 559h168 q-27 106 -61 201z" />
<glyph unicode="&#x46a;" horiz-adv-x="1562" d="M-45 102l4 23q23 90 37 139t54 127t100 141q100 113 250.5 173.5t316.5 72.5q-145 227 -301 520q-16 31 -6 66t36 61q39 45 95 45h862q18 0 33 -6l20 -8q33 -20 36 -60t-26 -79q-190 -252 -477 -555q143 -27 252 -91.5t160 -164.5q20 -43 28.5 -101.5t9.5 -91 t-5.5 -111.5t-6.5 -83q0 -41 -32.5 -76t-75.5 -42t-72.5 17.5t-27.5 67.5q2 23 6 91.5t5 91t-4 58t-18 60.5q-31 61 -110.5 108.5t-192.5 65.5q-16 -78 -51 -237.5t-49 -223.5q-10 -43 -46 -72.5t-79 -29.5t-66.5 29.5t-13.5 72.5q12 61 49 226.5t53 246.5 q-133 -6 -240.5 -48t-168.5 -107q-39 -43 -63.5 -94.5t-37 -93.5t-32.5 -132q-12 -43 -49 -72.5t-78 -27.5t-64.5 32.5t-13.5 71.5zM690 1266q100 -182 201 -338q170 180 299 338h-500z" />
<glyph unicode="&#x46b;" horiz-adv-x="1187" d="M-39 106l6 37q8 37 19.5 75t23.5 67q57 125 172 198.5t248 102.5q31 6 59 10q-66 111 -178 315q-25 31 -13.5 73t48.5 71q23 18 51 24q27 16 56 17q285 0 546 12q57 2 80 -43q18 -23 17.5 -56.5t-23.5 -64.5q-117 -190 -291 -371q47 -14 80 -34q182 -111 187 -420 q0 -41 -31 -77t-74 -45t-73.5 13.5t-32.5 63.5q-2 219 -111 284q-25 14 -59 25q-41 -168 -66 -281q-8 -43 -44 -72.5t-79 -29.5t-66.5 29.5t-15.5 72.5q25 113 68 289q-16 -2 -35 -6q-178 -37 -229 -149q-12 -25 -18.5 -58t-20.5 -84q-10 -43 -48 -70.5t-80 -25.5 t-63.5 33.5t-9.5 74.5zM602 893l72 -166q66 70 127 170q-98 -4 -199 -4z" />
<glyph unicode="&#x46c;" horiz-adv-x="2111" d="M92 94q20 121 62 301q57 262 61 289q117 596 137 686q8 43 44 73t79 30t66.5 -30t15.5 -73q-31 -141 -123 -612q502 59 678 69q98 6 174 7l-112 200q-96 166 -154 252q-18 29 -10 67t39 66q39 59 104 60q776 0 891 -2q33 0 54.5 -18.5t25.5 -49.5q25 -57 -27 -115 q-88 -96 -258 -268l-211 -215q119 -23 193 -68q252 -158 149 -641q-8 -43 -44 -72.5t-79 -29.5t-66.5 29.5t-15.5 72.5q78 362 -82 461q-55 35 -167 51q-57 -242 -115 -516q-10 -43 -46 -72.5t-79 -29.5t-66.5 29.5t-13.5 72.5q53 250 109 482q-221 -33 -340 -123 q-152 -111 -207 -357q-8 -41 -45 -70.5t-79 -29.5t-65.5 30.5t-15.5 73.5q76 330 299 502q-76 -8 -160 -18l-299 -35q-8 -33 -21.5 -92.5t-15.5 -69.5q-35 -160 -55 -285q-8 -43 -42 -74.5t-78 -33.5t-69.5 25.5t-19.5 70.5zM1294 1274l195 -340l336 340q-150 2 -531 0z" />
<glyph unicode="&#x46d;" horiz-adv-x="1540" d="M49 96q23 133 72 363q2 4 0 6q0 16 8 31q76 358 100 487q6 43 41 73.5t79 33t68.5 -26.5t16.5 -72q-23 -131 -80 -399q223 25 428 31l-161 276q-20 37 -3 82q8 35 37 63.5t66 36.5q86 18 188.5 25.5t158.5 7.5t184 -6t153 -6q10 0 20 -2q14 -2 29 -8q35 -18 42 -57.5 t-17 -78.5q-100 -152 -279 -358q121 -49 178 -143q16 -27 26.5 -62t13.5 -62.5t-2 -118.5t-5 -99q-4 -43 -38 -76t-77 -38t-70.5 21.5t-23.5 67.5q0 16 2 108.5t-2 105.5t-10 26q-41 68 -156 94q-41 -172 -67 -318q-8 -41 -45 -70.5t-79 -29.5t-65.5 31t-13.5 74 q27 147 65 311h-10q-104 -27 -159 -88q-14 -14 -25 -29q-8 -12 -19 -31l-14 -30q-4 -10 -13 -36t-11 -33t-11.5 -37t-13.5 -44q-12 -43 -50 -69.5t-80 -23.5t-62.5 35t-8.5 75q0 6 11.5 41.5t17.5 56.5l23 59q14 39 32.5 72t40.5 65l-168 -16q-37 -168 -55 -283 q-6 -41 -41 -72.5t-78 -33.5t-68.5 26.5t-19.5 71.5zM879 903l137 -233q125 141 194 233q-219 8 -331 0z" />
<glyph unicode="&#x470;" horiz-adv-x="1720" d="M219 651q-43 246 115 721q14 43 54 68.5t81 20.5t59.5 -38.5t3.5 -74.5q-141 -424 -106 -621q41 -215 299 -252q160 657 201 891q8 43 44 73.5t79 33t66.5 -27.5t17.5 -71q-16 -88 -35 -177t-43.5 -195.5t-39 -172t-46 -195.5t-43.5 -177q70 0 121 14q260 70 368 315 q86 193 107 560q0 41 32.5 75.5t75.5 41.5t73 -17.5t28 -67.5q-20 -403 -127 -639q-164 -365 -541 -465q-80 -23 -184 -22q-23 -90 -35 -152q-10 -43 -46 -72.5t-79 -29.5t-66.5 29.5t-13.5 72.5q14 66 37 162q-20 2 -35 12q-362 57 -422 377z" />
<glyph unicode="&#x471;" horiz-adv-x="1398" d="M113 575q10 84 34 209q35 174 39 195q8 43 43 73.5t78 32.5t67.5 -26.5t18.5 -71.5q-4 -23 -41 -201q-23 -113 -28 -188q-23 -195 51 -297q41 -59 139 -84q109 573 215 1043q10 43 47 71.5t80 28.5t64.5 -31t13.5 -74q-111 -477 -217 -1056q190 14 299 186 q121 186 172 590q4 41 37 74q37 33 80 37t69.5 -24t20.5 -71q-59 -453 -207 -686q-186 -291 -508 -311l-43 -242q-8 -43 -43 -73.5t-78 -32.5t-68.5 26.5t-17.5 71.5q23 135 45 262q-199 37 -282 156q-104 154 -80 413z" />
<glyph unicode="&#x472;" horiz-adv-x="1525" d="M107.5 510q-3.5 86 9 177t49.5 177q55 133 146 251t213 209t283 132t327 14q37 -4 56 -27.5t15 -58.5q145 -84 218 -222t75 -285.5t-61 -305.5q-53 -129 -138.5 -242.5t-199 -198.5t-258 -119t-291.5 -1q-109 23 -193 73t-135 115.5t-81.5 145.5t-34 166zM319 651 q-16 -164 63 -286.5t255 -161.5q184 -43 352 73.5t248 325.5q10 27 18 55h-311q-104 0 -310 -3t-315 -3zM375 850q102 0 303 2t303 2h301q-4 141 -87 248.5t-245 157.5q-20 6 -35 20q-182 -18 -325.5 -137t-214.5 -293z" />
<glyph unicode="&#x473;" horiz-adv-x="1138" d="M45 420q6 131 51 241.5t121 194.5t168 139.5t193 77.5q176 39 319 -29.5t188 -240.5q35 -27 31 -74q-4 -37 -12 -76q0 -12 -2 -26q-68 -352 -309 -531q-82 -61 -178.5 -84.5t-176.5 -13.5t-153 47q-109 51 -176.5 151.5t-63.5 223.5zM256 438q6 -61 46 -116.5t108 -88.5 q72 -35 145.5 -29.5t136.5 50.5q94 70 152 201q-102 0 -301 -7.5t-287 -9.5zM299 643q88 2 287.5 9t304.5 7q-14 133 -103.5 185.5t-205.5 27.5q-88 -18 -164 -77.5t-119 -151.5z" />
<glyph unicode="&#x474;" horiz-adv-x="1378" d="M195 1323q-6 41 20.5 79t69.5 52t76.5 -4t39.5 -57l31 -291q20 -197 37 -303q29 -170 104 -432q25 47 43 84q23 41 113 245.5t148 311.5q229 418 503 481q41 8 88 2q4 0 20.5 -2t27.5 -2q43 -2 64.5 -33t10 -74t-48.5 -71.5t-78 -26.5q-4 0 -59 6q-16 2 -19 0 q-158 -35 -329 -346q-59 -111 -139 -291q-92 -213 -117 -258q-33 -63 -94 -172q-59 -109 -80 -149q-23 -41 -65 -60.5t-79 -7.5q-43 16 -53 62l-2 8q-8 31 -33 121l-41 137l-32 123q-20 76 -35 142.5t-25 131.5q-16 104 -37 303z" />
<glyph unicode="&#x475;" horiz-adv-x="1157" d="M133 813v145q-4 41 24.5 78t71.5 49.5t76 -8t37 -61.5l-2 -131l8 -99l8 -86q6 -61 11 -96l10 -84q8 -49 18 -90l17 -84l24 43q96 170 172 279q242 344 531 411q41 8 73.5 -13.5t32.5 -62t-28.5 -77.5t-71.5 -47q-190 -43 -375 -304q-68 -96 -156 -253l-143 -256 q-29 -47 -80 -62q-35 -12 -66.5 -1t-45.5 42q-20 49 -39 105.5t-31 101.5t-23 117l-18 106q-8 35 -16.5 117t-10.5 106z" />
<glyph unicode="&#x476;" horiz-adv-x="1382" d="M195 1329q-4 41 22.5 79t69.5 52.5t76.5 -4t39.5 -57.5l29 -299q20 -197 37 -303q29 -170 102 -432q27 47 45 84q20 41 111.5 245.5t149.5 311.5q229 418 503 481q41 8 88 2q4 0 20.5 -2t27.5 -2q41 -2 63.5 -33t11 -74t-48.5 -71.5t-80 -26.5q-4 0 -57 6q-16 2 -19 0 q-160 -35 -329 -346q-59 -111 -139 -291q-92 -213 -117 -258q-33 -63 -94 -172q-59 -109 -80 -149q-25 -41 -67 -60.5t-77 -7.5q-45 16 -53 61l-2 9q-8 31 -35 121l-74 260q-20 76 -33.5 142.5t-23.5 131.5q-16 104 -39 303zM516 1559q-14 35 3.5 76.5t57 64t80.5 14.5 t56 -45l43 -98q14 -35 -3.5 -77t-57.5 -64.5t-81 -14.5t-55 45zM872 1602q-6 41 20 79.5t69 53t77.5 -3t40.5 -56.5l19 -114q6 -41 -19.5 -80t-68.5 -53.5t-78 3t-41 56.5z" />
<glyph unicode="&#x477;" horiz-adv-x="1144" d="M131 954q-4 41 23.5 78t71.5 49.5t77 -8t37 -61.5l6 -90l4 -119l8 -86q6 -61 11 -96l10 -84q8 -49 18 -91l17 -84l24 44q94 170 170 278q242 344 531 412q43 8 75.5 -13.5t32.5 -62.5t-29.5 -78t-72.5 -47q-188 -43 -373 -303q-68 -96 -156 -254l-143 -256 q-29 -47 -80 -62q-37 -12 -67.5 -0.5t-44.5 41.5q-20 49 -39 105.5t-31 101.5t-25 117l-16 107q-8 35 -16.5 116.5t-10.5 106.5zM371 1315q-14 35 3 76t58 63.5t80 13t53 -46.5l47 -114q14 -35 -3 -76t-58 -63.5t-80 -13.5t-53 46zM731 1352q-10 37 12.5 76.5t64.5 58 t79 4.5t47 -53l31 -121q10 -37 -12.5 -77t-64.5 -58.5t-79 -4t-47 53.5z" />
<glyph unicode="&#x478;" horiz-adv-x="2484" d="M109.5 616.5q7.5 114.5 40.5 208.5q41 135 122.5 257t193.5 218.5t260 145.5t306 31h2q10 -2 19 -7h2q127 -47 223 -104q92 -59 158 -154q78 -113 94 -256t-22 -285.5t-117 -271.5q-131 -209 -342 -327q-207 -117 -449 -78q-135 20 -233 80q-100 59 -155.5 142 t-82.5 184.5t-19.5 216zM318.5 537q15.5 -125 105.5 -220.5t252 -121.5q164 -27 307 53t236 229q92 143 105 311t-69 289q-80 115 -299 197q-207 20 -373.5 -117t-234.5 -352q-45 -143 -29.5 -268zM1342.5 -342q-3.5 41 26.5 78t73 47q25 6 41 9t22 3l15 4q6 0 14 4 q68 33 186 183l52 67q-16 18 -21 45q-84 588 -96 865q2 41 30.5 76.5t72.5 45t76 -12t32 -64.5q12 -270 73 -705l31 51q164 266 379 664q20 41 63.5 61.5t80 8t49 -50.5t-8.5 -76q-217 -401 -389 -682q-147 -242 -268 -396q-158 -201 -287 -260q-12 -8 -33 -12l-34 -12 q-18 -4 -32.5 -6.5t-25.5 -4.5l-10 -2q-45 -12 -76.5 9.5t-35 62.5z" />
<glyph unicode="&#x479;" horiz-adv-x="2027" d="M45 516q25 117 89.5 228.5t175 201.5t241.5 123q41 31 84 27h31q33 -2 64.5 -6.5t53.5 -10.5q113 -33 178.5 -127t77 -206.5t-13.5 -231.5q-20 -90 -62 -175t-106.5 -161t-157 -126t-202.5 -62q-268 -27 -392 145q-109 150 -61 381zM250 516q-29 -150 35 -242 q72 -98 237 -79q109 10 189 98t109.5 223t-8.5 237.5t-124 129.5q-8 2 -14 2h-10q-156 0 -268.5 -107.5t-145.5 -261.5zM877.5 -381q-3.5 41 26.5 78t73 47q25 6 41 9t22 3l15 4q6 0 14 4q68 33 186 183q27 33 54 69q-14 18 -19 41q-84 588 -84 914q2 41 31 76.5t73 45 t74.5 -12t32.5 -64.5q0 -313 62 -746l26 45q164 266 387 703q20 41 63.5 61.5t80.5 8t49 -50.5t-8 -76q-227 -440 -398 -721q-147 -242 -268 -396q-158 -201 -287 -260q-12 -8 -32 -12l-35 -12q-18 -4 -32.5 -6.5t-25.5 -4.5l-10 -2q-45 -12 -76.5 9.5t-35 62.5z" />
<glyph unicode="&#x48c;" horiz-adv-x="1388" d="M163 1364q9 43 44 73.5t78 30.5q61 2 141 5l25 114q10 43 45.5 73t78.5 30t67 -30t13 -73l-22 -106q141 6 237 6q43 0 67 -30t14.5 -73t-45.5 -72.5t-79 -29.5q-98 0 -241 -6q-76 -326 -99 -428q188 31 351 26q289 -10 405 -139q51 -55 62.5 -117.5t-0.5 -144.5 q-14 -84 -59.5 -157.5t-105 -124t-133 -89.5t-139 -59t-129.5 -31q-76 -12 -168 -12t-145 4l-145 16l-19 -4q-43 -4 -71.5 21.5t-26.5 66.5q20 248 83.5 571.5t131.5 592.5q-76 -2 -133 -4q-43 0 -67.5 28.5t-15.5 71.5zM381 221q238 -29 364 -8q141 25 238.5 92.5 t114.5 159.5q8 47 3 70.5t-26 48.5q-72 78 -289 86q-158 4 -342 -29q-43 -231 -63 -420z" />
<glyph unicode="&#x48d;" horiz-adv-x="1128" d="M109.5 969q7.5 43 41 74.5t76.5 33.5q49 2 88 4l23 113q10 43 46 72.5t79 29.5t66.5 -29.5t13.5 -72.5l-21 -104q61 2 119 2q43 0 66.5 -30t14.5 -73t-45 -72.5t-79 -29.5q-59 0 -125 -2q-33 -139 -47 -207l49 6q100 10 162 12q205 6 319 -67q86 -55 103 -158 q20 -102 -31 -208.5t-154 -176.5q-147 -102 -368 -94q-92 2 -221 26q-29 -27 -66 -32q-43 -4 -71.5 21.5t-26.5 66.5q23 274 145 803l-69 -5q-43 -2 -69 26t-18.5 71zM344 223q129 -25 211 -26q147 -6 227 49q59 43 69.5 109.5t-36.5 97.5q-68 43 -215 39q-53 -2 -145 -13 l-74 -8q-23 -133 -37 -248z" />
<glyph unicode="&#x490;" horiz-adv-x="1171" d="M102 88q18 190 67.5 426t85.5 368t120 437q-2 14 0 31q6 43 41 74.5t76 35.5q219 14 638 6q6 29 48 201q8 43 45 71.5t80 28.5t65.5 -30.5t11.5 -73.5q-53 -229 -77 -311q-12 -41 -49 -68t-76 -24h-7q-449 8 -608 2q-74 -274 -110.5 -413.5t-80.5 -351.5t-61 -384 q-4 -43 -37.5 -76t-76.5 -38t-71 21.5t-24 67.5z" />
<glyph unicode="&#x491;" horiz-adv-x="833" d="M57 98q76 442 179 867q10 43 45.5 71.5t76.5 28.5q18 6 35 8q131 10 318 14q4 16 24 123q10 43 45 74t78 31t67.5 -29t16.5 -72q-20 -102 -43 -219l-2 -4v-2q-8 -43 -45 -73.5t-78 -30.5q-233 -4 -356 -13q-88 -375 -154 -766q-8 -43 -43 -73.5t-79 -32.5t-68.5 26.5 t-16.5 71.5z" />
<glyph unicode="&#x492;" horiz-adv-x="1103" d="M83 684q7 43 42 73.5t80 33.5q39 2 69 2q63 254 166 550l6 13v12q8 43 43 75t78 34q342 20 617 6q43 -2 64.5 -34t10 -75t-49.5 -70.5t-81 -25.5q-242 12 -503 0q-88 -258 -146 -483q104 0 193 -7q43 -2 64.5 -33.5t10 -74.5t-49.5 -70.5t-81 -25.5q-88 6 -184 6 q-53 -260 -65 -473q-2 -43 -35 -77t-76 -41t-71.5 18.5t-26.5 66.5q12 233 69 504q-27 0 -59 -2q-43 -2 -67.5 26.5t-17.5 71.5z" />
<glyph unicode="&#x493;" horiz-adv-x="739" d="M39 530q8 41 41 71t74 34q37 158 75 309v12q4 43 37 77t76 40q174 23 387 23q43 0 66.5 -30t14.5 -73t-45 -72.5t-79 -29.5q-147 0 -268 -10q-35 -139 -58 -244h115q43 0 65.5 -29.5t14.5 -72.5t-45 -73t-80 -30h-117q-33 -156 -61 -328q-6 -43 -42 -74.5t-78 -33.5 t-67.5 26.5t-19.5 69.5q27 162 64 338q-37 4 -57.5 33t-12.5 67z" />
<glyph unicode="&#x496;" horiz-adv-x="1980" d="M-54.5 116q13.5 42 52.5 68q57 41 119 92l106 89q43 37 115 104l100 96l117 111l104 104l-401 506q-25 29 -17.5 72t42 73.5t79 32.5t68.5 -26l438 -549l6 -4h109q51 270 70 450q2 43 32.5 78t73.5 43t74 -15.5t29 -64.5q-18 -197 -72 -489l125 4l119 92l362 346 q84 76 119 105q37 33 79 34.5t67.5 -27t18.5 -70.5t-42 -73q-20 -20 -416 -393q-82 -72 -154 -127q80 -80 149 -186.5t139.5 -242.5t101.5 -187q20 -33 6.5 -76t-52 -69.5t-80.5 -22.5t-61 37q-41 70 -122 224.5t-146.5 249.5t-151.5 165q-8 6 -16 14q-39 -2 -90 -2 q-25 -113 -77 -312.5t-69 -267.5q-10 -41 -47 -70.5t-79 -27.5t-64.5 33t-11.5 74q18 76 68 270t75 299h-119l-131 -127l-149 -147l-131 -121q-86 -80 -162 -140.5t-154 -115.5q-37 -29 -79 -25t-62.5 37t-7 75z" />
<glyph unicode="&#x497;" horiz-adv-x="1607" d="M-52.5 114q13.5 42 52.5 70l117 82q295 233 344 277q-57 63 -140 202.5t-100 161.5q-23 31 -13.5 74t46.5 71.5t80 28.5t65 -30q23 -33 112 -181.5t153 -210.5q35 0 73 3q35 145 66 323q10 43 48 70.5t81 25.5t63.5 -33.5t8.5 -74.5q-27 -172 -60 -307h53 q10 10 181.5 178t197.5 198q31 35 75 42.5t73.5 -17.5t27.5 -67t-34 -76q-111 -121 -353 -357q117 -211 291 -417q23 -14 31 -37q18 -37 -2 -84q-31 -168 -68 -283q-12 -41 -51 -68.5t-80 -23.5t-61.5 37t-7.5 76q35 106 59 241q-184 221 -309 449q-8 2 -15 4h-61 q-49 -207 -80 -357q-8 -43 -44 -73.5t-78 -30.5t-66.5 29.5t-16.5 70.5q29 150 80 357q-27 -2 -49 -2q-59 -57 -293.5 -238.5t-247.5 -191.5q-39 -27 -80 -23t-61.5 37t-7 75z" />
<glyph unicode="&#x498;" horiz-adv-x="1202" d="M18 317q-6 37 17.5 72t63.5 49.5t72 -2t38 -53.5q4 -16 4 -41v-12q0 -12 2 -19q2 -20 4 -26q35 -57 141.5 -82t235.5 -2q135 25 221 85t107 136q23 80 -3 126t-87 75q-37 18 -119 43q-39 10 -58 16q-55 25 -61 74q-6 45 22 86q27 39 72 53q29 10 76 10q4 0 20.5 -1 t26.5 -1h10q59 23 97 58q51 45 65 108.5t-16 120.5q-27 49 -96.5 72.5t-163 13.5t-173 -51t-118.5 -97q-6 -4 -10 -22q-2 -6 -5 -10l-2 -11q0 -6 -4 -8q-6 -23 -12 -39q-14 -39 -50 -60.5t-74 -15t-52 38t0 70.5q4 8 6 21q8 31 8 32q18 53 45 90q78 106 203 170t256 78 q135 14 250 -24.5t166 -137.5q57 -104 29.5 -231t-140.5 -235q-31 -27 -65 -50q211 -115 143 -370q-20 -86 -75.5 -157t-130.5 -118t-152.5 -76.5t-159.5 -46.5q-168 -29 -322.5 6t-218.5 144q-25 35 -28 92v35q0 16 -5 24zM252 -328q0 35 21.5 58.5t52.5 23.5q27 0 42 -10 t29 -29q27 -35 78 -34q33 0 54.5 20t21.5 49q0 35 -31 51q-27 14 -84 15q-35 0 -54.5 16t-19.5 41q0 35 40 84t126 145q57 -18 107 -47q-104 -86 -121 -166l-45 31q29 12 49 12q76 0 131.5 -47t55.5 -114q0 -57 -36 -109.5t-93.5 -83.5t-118.5 -31q-90 0 -147.5 36t-57.5 89 z" />
<glyph unicode="&#x499;" horiz-adv-x="987" d="M25 300q16 42 55 67.5t80 18.5t57 -40l21 -41q10 -18 14 -27.5t8 -17.5q16 -18 57 -39q74 -31 174.5 -2t157.5 90q31 35 19 60q-33 66 -219 104q-41 8 -56.5 43t1 77t56 65.5t80.5 15.5q113 27 140 39q33 16 43 53q23 98 -103 113q-68 8 -133 -17q-63 -23 -94 -61 q-4 -2 -10 -19q-23 -55 -25 -57q-20 -41 -62 -62.5t-80 -10t-51.5 49t7.5 76.5q4 8 7 15.5t7 16.5t4 15q20 49 49 82q80 98 206 143.5t241 32.5q55 -6 104 -28.5t88 -60.5t52.5 -98t-2.5 -134q-31 -121 -127 -193q45 -37 67 -80q27 -51 24 -106t-28 -102.5t-66 -90.5 q-106 -117 -276 -167q-170 -49 -315 10q-78 37 -115 88q-4 6 -53 102q-20 35 -4 77zM100 -346q0 35 21.5 58.5t52.5 23.5q27 0 42 -10.5t30 -28.5q27 -35 78 -35q33 0 54 20.5t21 49.5q0 35 -30 51q-27 14 -84 14q-35 0 -54.5 16.5t-19.5 41.5q0 35 40 84t126 145 q57 -18 106 -47q-104 -86 -121 -166l-45 31q29 12 50 12q76 0 131 -47t55 -115q0 -57 -36 -109.5t-93 -83t-119 -30.5q-90 0 -147.5 36t-57.5 89z" />
<glyph unicode="&#x49a;" horiz-adv-x="1280" d="M109 94q92 569 241 1266q8 43 44 72.5t79 29.5t66.5 -29.5t15.5 -72.5q-57 -266 -104 -504q172 63 299 133t239 170l131 129q88 86 150 137q37 29 79 29t65.5 -30.5t14 -72.5t-46.5 -73q-47 -37 -129 -119q-106 -104 -141 -135q-170 -156 -407 -268q59 -33 114 -85.5 t93 -98.5t82 -118.5t67 -113.5l113 -225q8 -18 10 -39q8 -27 0 -56q-39 -121 -66 -264q-14 -41 -53 -67.5t-80 -21.5t-60.5 38t-4.5 76l55 231l-43 82l-43 86l-43 78q-27 51 -45 78l-47 67q-29 43 -52 66l-57 53q-33 31 -63.5 48.5t-69.5 31.5t-80 23q-12 2 -24 8 q-47 -262 -91 -527q-8 -43 -42.5 -74.5t-77.5 -33.5t-69 26.5t-19 69.5z" />
<glyph unicode="&#x49b;" horiz-adv-x="1021" d="M76 88q8 203 62.5 459t111.5 450q10 43 48 71t81 26t63.5 -34t10.5 -75q-76 -295 -95 -371q156 84 269.5 178.5t222.5 219.5q29 37 73 45t74.5 -14.5t30.5 -64.5t-31 -77q-201 -248 -458 -399q199 -102 352 -373q16 -33 4 -72l-4 -20q-49 -158 -129 -336 q-18 -41 -58 -62.5t-80 -12.5t-54.5 45t3.5 79q68 150 111 283q-78 131 -167 211t-210 110q-18 -121 -24 -233q0 -41 -33 -76t-76 -42t-72.5 18.5t-25.5 66.5z" />
<glyph unicode="&#x49c;" horiz-adv-x="1507" d="M100 86q33 254 113 633q2 10 69.5 322.5t67.5 320.5q8 43 44 73.5t79 30.5t67.5 -28.5t14.5 -71.5q-25 -125 -109 -516h164q20 141 29 258q6 43 39 77t76 39t71.5 -20.5t24.5 -66.5q-8 -115 -29 -248q356 217 690 541q33 33 76 38t72 -21t24.5 -68t-34.5 -76 q-344 -330 -711 -560q305 -201 483 -593q14 -35 -2 -77t-56 -65.5t-80 -15.5t-58 43q-168 373 -459 551q-6 -33 -20.5 -105.5t-22.5 -109.5q-8 -43 -44 -74t-79 -31t-67.5 29t-14.5 72q8 39 26.5 133t26.5 145h-170q-63 -301 -90 -539q-6 -43 -40.5 -75.5t-77.5 -36.5 t-70 23.5t-23 68.5z" />
<glyph unicode="&#x49d;" horiz-adv-x="1236" d="M84 82q25 356 141 909q10 43 46 73t79 30t66.5 -30t13.5 -73q-47 -225 -72 -358h76q14 61 23 112q8 43 44 74t79 31t67.5 -28.5t14.5 -71.5q-8 -45 -19 -99q274 174 467 389q31 35 75 43.5t73.5 -15.5t28.5 -65.5t-32 -76.5q-197 -219 -467 -400q70 -51 137.5 -124.5 t106.5 -129.5l86 -102q20 -33 8 -75t-50 -69.5t-79 -24.5t-63 34q-86 109 -166 203t-182 153q-10 -55 -19 -100q-10 -43 -45 -74t-78 -31t-67.5 29t-16.5 72q10 59 29 141h-63q-23 -160 -35 -317q-2 -41 -34 -75t-76 -40t-71.5 18.5t-25.5 67.5z" />
<glyph unicode="&#x4a0;" horiz-adv-x="1593" d="M191.5 1371q9.5 42 46 72t79.5 30q311 -4 482 -17q39 -4 59 -33q29 -33 16 -80q-86 -350 -124 -509q215 80 432 243.5t356 352.5q27 37 70 50t75.5 -6.5t37.5 -60.5t-23 -78q-127 -176 -316.5 -334.5t-394.5 -267.5q92 -35 172 -94t144.5 -140t108.5 -150.5t95 -190.5 q16 -33 3 -75t-53 -67.5t-80 -20.5t-60 40q-63 143 -117 223q-53 80 -129 157t-169 115.5t-208 44.5q-49 -248 -76 -462q-4 -43 -38.5 -76t-77.5 -37t-69.5 23.5t-22.5 68.5q47 403 237 1165q-127 8 -377 11q-41 0 -64.5 30.5t-14 72.5z" />
<glyph unicode="&#x4a1;" horiz-adv-x="1196" d="M83 972q5 42 40 74.5t76 36.5q180 16 370 17q43 0 65.5 -30t14.5 -73q-4 -20 -16 -41q-23 -102 -76 -307q4 2 8 2q6 2 18.5 5t18.5 6h2q16 8 94 67q51 37 179 143q123 104 202 158q39 25 80 19.5t59.5 -39t4 -75.5t-55.5 -69q-66 -43 -174 -135q-135 -115 -192 -158 l-51 -36q37 -25 72.5 -56.5t60 -56.5t57.5 -70l49 -63l49 -70q39 -43 45 -51q23 -33 11.5 -75t-49 -70.5t-78.5 -26.5t-64 33q-8 12 -83 109.5t-89 113.5l-43 45q-29 27 -54.5 44t-53.5 34q-2 2 -5 2h-6q-2 0 -13 2t-24 6q-23 4 -36 12q-39 -174 -45 -286q-4 -41 -37 -75 t-76 -39t-71.5 20.5t-24.5 68.5q6 100 31.5 232.5t76.5 328t64 244.5q-104 -2 -238 -14q-45 -4 -71.5 23.5t-21.5 69.5z" />
<glyph unicode="&#x4a2;" horiz-adv-x="1570" d="M96 88q27 203 75 448.5t86 408.5t105 429q12 43 49.5 72t79 26.5t64.5 -33t10 -73.5q-88 -352 -131 -547q66 0 193 1t205.5 2t188 -1t200.5 -6q12 84 30 252q27 219 39 295q6 43 42 74.5t78 34t67.5 -26.5t19.5 -70q-14 -90 -39 -287q-16 -180 -33 -274 q-23 -100 -25.5 -128t-30.5 -127t-35 -127t-32.5 -104.5t-31.5 -101.5l53 15q4 2 8 2q18 6 39 6q43 -2 65.5 -33t10.5 -74q-37 -150 -137 -432q-14 -41 -53 -66.5t-80 -20.5t-59.5 39t-6.5 77q68 188 92 270l-61 -16q-45 -12 -77 9.5t-34 61.5v17q0 18 4 37 q20 78 70.5 237.5t75.5 255.5q-94 4 -203 6t-186.5 2t-206.5 -2t-195 -2q-55 -276 -84 -505q-6 -43 -40 -76t-77 -37t-70.5 23.5t-21.5 68.5z" />
<glyph unicode="&#x4a3;" horiz-adv-x="1185" d="M86 78q8 166 61 457q57 311 68 434q6 43 38 75.5t76 37.5t71.5 -20.5t25.5 -68.5q-14 -129 -51 -338q248 16 459 7q57 262 71 335q8 43 44 74t79 31t67.5 -29t14.5 -72q-6 -39 -48 -235.5t-50 -235.5q-37 -172 -51 -278q10 4 20 4q43 2 68.5 -26.5t19.5 -69.5 q-31 -182 -59 -340q-10 -43 -45 -74t-78 -31t-67.5 29t-16.5 72l28 147q-4 0 -8 -2q-43 -4 -70.5 21.5t-23.5 68.5q18 180 62 406q-207 12 -455 -6q-35 -205 -43 -340q0 -43 -33 -77t-77 -41t-72.5 18.5t-24.5 66.5z" />
<glyph unicode="&#x4a4;" horiz-adv-x="1804" d="M125 86q27 223 104 643q84 438 109 621q4 43 39 74.5t78 35.5t69.5 -23.5t20.5 -70.5q-25 -190 -94 -555q350 6 708 -12q12 0 25 -4q78 322 125 575q6 43 43 74t78 33q29 0 49 -13q252 0 467 13q43 2 68.5 -27t18 -71t-42 -73.5t-77.5 -33.5q-203 -10 -422 -12 q-47 -244 -149.5 -660t-124.5 -506q-8 -43 -45 -71.5t-80 -28.5t-65.5 30.5t-12.5 73.5q31 133 121 498q-14 -2 -27 -2q-354 18 -698 12q-53 -289 -74 -500q-6 -41 -39 -73.5t-77 -37.5t-70.5 21.5t-24.5 69.5z" />
<glyph unicode="&#x4a5;" horiz-adv-x="1366" d="M84 88q14 154 66.5 472.5t64.5 420.5q6 43 40 74.5t78 36t69.5 -23.5t21.5 -71q-16 -115 -57 -354q49 -4 256 -10q129 -4 215 -12q12 72 30.5 174t26.5 147q-2 16 -2 31q8 43 43 74.5t76 35.5q180 12 395 13q43 0 66.5 -30t14.5 -73t-45 -72.5t-79 -29.5q-150 0 -274 -6 q-100 -563 -119 -774q-4 -43 -38 -76t-77 -38t-70.5 21.5t-25.5 67.5q16 150 41 328q-84 8 -230 14q-186 6 -235 8q-31 -193 -43 -323q-4 -43 -38 -76t-77 -38t-70.5 21.5t-23.5 67.5z" />
<glyph unicode="&#x4aa;" horiz-adv-x="1394" d="M96 517q2 114 31 217.5t82 207.5q74 139 179.5 255t232.5 185q301 162 593 17q96 -49 151.5 -110.5t86.5 -164.5q12 -37 -8.5 -76.5t-62.5 -60t-79.5 -8.5t-50.5 51q-23 68 -56.5 107t-107.5 73q-201 102 -395 -2q-182 -98 -299 -323q-57 -111 -75.5 -212.5t-7 -196.5 t67.5 -169t148 -108q76 -29 141.5 -29t137.5 33q63 31 119 80q51 43 135 135q31 35 75 42t73.5 -17.5t27.5 -66.5t-33 -77l-98 -102q-37 -37 -106.5 -90.5t-137.5 -83.5q-74 -35 -143 -48q51 -111 47 -190q-6 -57 -39 -107.5t-96 -78.5q-90 -43 -246 -27q-41 4 -61.5 37 t-7 76t52.5 69.5t79 22.5q63 -6 101 -2q-45 125 -80 182q-10 16 -12 37l-35 12q-115 41 -189.5 120t-105.5 178t-29 213z" />
<glyph unicode="&#x4ab;" horiz-adv-x="1054" d="M51 506q23 104 79 206.5t138 189.5t200 139.5t247 50.5q139 -2 213 -64q63 -53 104 -170q14 -39 -7 -81t-65.5 -63.5t-82 -9t-52.5 51.5q-25 74 -55 100q-29 23 -104 25q-147 2 -260 -107.5t-146 -267.5q-33 -152 35 -238q72 -96 250 -67q63 10 115.5 42.5t130.5 106.5 q33 33 77 37q43 4 71 -24.5t22.5 -71.5t-39.5 -76q-59 -57 -103.5 -93t-114 -73t-145.5 -51q43 -92 43 -176q6 -68 -47 -146q-63 -90 -188 -122q-49 -12 -105 -3l-31 7q-12 2 -18 2q-43 4 -64.5 37.5t-8 76.5t53 72t80.5 25q18 -2 41 -7q2 0 11.5 -2t13.5 -4l14 -2 q14 4 22.5 7.5t8.5 5.5l4 2q6 8 4 34q-8 49 -59 123q-20 27 -15 68q-129 27 -204 123q-115 150 -64 387z" />
<glyph unicode="&#x4ac;" horiz-adv-x="1189" d="M192.5 1363q8.5 42 45 72.5t79.5 30.5q172 2 491.5 -4t459.5 -6q43 0 65.5 -29.5t14 -72.5t-45 -73t-79.5 -30q-137 0 -365 4q-113 -578 -225 -1050q45 -2 74 -10q53 -18 69 -64q14 -41 0 -92q-6 -14 -16 -35l-21 -45q-10 -25 -14 -31q-31 -68 -39 -129q-8 -43 -43 -74.5 t-78 -33.5t-68.5 26.5t-19.5 69.5q16 92 60 188l10 25q-23 -2 -49 -4q-68 -4 -86 55q-12 27 -6 62q125 512 247 1147q-223 4 -381 2q-41 0 -64.5 29.5t-15 71.5z" />
<glyph unicode="&#x4ad;" horiz-adv-x="1007" d="M117 964q6 42 39.5 73.5t76.5 35.5q338 25 768 6q41 -2 63.5 -32.5t11.5 -73.5t-48 -72t-80 -27q-154 6 -286 9q-33 -168 -82 -418q-33 -174 -50 -258q-6 -33 -10 -57q10 0 19 -3q86 -16 79 -127q-2 -57 -36 -188q-10 -43 -47 -71.5t-80 -26.5t-65.5 32.5t-10.5 73.5 q16 63 24 105q-57 12 -90 67q-16 25 -12 41q0 6 1 11.5t1 13.5l6 31q4 33 15 92q16 84 49 260q49 250 84 420q-131 -4 -250 -13q-45 -2 -70.5 26t-19.5 70z" />
<glyph unicode="&#x4ae;" horiz-adv-x="1183" d="M205 1315q-10 37 11.5 77t63.5 59t78.5 6t49.5 -52q84 -287 225 -574q360 326 510 572q25 39 67.5 55.5t77.5 0t43 -55.5t-16 -78q-111 -182 -262.5 -341t-347.5 -337l-5 -2q-16 -84 -57 -267t-61 -278q-10 -43 -46 -72.5t-79 -29.5t-66.5 29.5t-13.5 72.5 q18 92 58 269.5t57 253.5q-12 10 -17 24q-174 332 -270 668z" />
<glyph unicode="&#x4af;" horiz-adv-x="1216" d="M137 967q0 41 31 76.5t74 44t74.5 -14t29.5 -65.5q-8 -354 186 -760l162 180q57 66 137 179.5t137.5 210.5t98.5 196q18 41 59 63.5t80 13t53.5 -45t-2.5 -76.5q-25 -55 -120 -229.5t-142 -233.5l-69 -92q-25 -31 -80 -94.5t-76 -86.5l-82 -90q-63 -70 -78 -86 q-47 -143 -102 -374q-12 -43 -49 -73t-79 -28t-64.5 33t-12.5 72q49 207 90 338q-262 508 -256 942z" />
<glyph unicode="&#x4b0;" horiz-adv-x="1245" d="M155.5 515q10.5 42 47.5 71.5t80 27.5q121 -4 268 -4q-8 6 -12 15q-78 129 -177 338q-131 289 -153 333q-16 35 -1 77t55 66.5t81 17.5t57 -42l158 -340q90 -197 148 -291l239 293q172 211 262 328q29 39 73 50t77 -9.5t36 -61.5t-26 -77q-92 -121 -281 -349l-274 -337 q-4 -6 -8 -11h209q43 0 66.5 -29.5t14 -72.5t-45 -72.5t-78.5 -29.5h-248q-10 -41 -30.5 -143.5t-33.5 -160.5q-8 -43 -43.5 -72.5t-78.5 -29.5t-67 29.5t-15 72.5q12 55 32.5 159t30.5 145q-160 0 -287 4q-41 2 -63.5 32.5t-12 72.5z" />
<glyph unicode="&#x4b1;" horiz-adv-x="1249" d="M79 106.5q9 43.5 45 73t79 29.5h190q-154 311 -250 729q-8 39 15.5 78t66.5 56.5t78 2t45 -54.5q90 -385 230 -676q252 285 532 686q25 39 68 53.5t78.5 -3t42 -59.5t-22.5 -77q-297 -428 -571 -735q102 2 194 8q43 2 69.5 -25.5t19.5 -70.5t-42 -75t-78 -34 q-125 -6 -247 -8q-37 -113 -64 -270q-8 -43 -43 -74t-78 -33t-67.5 27t-18.5 72q29 160 64 278h-254q-43 0 -66.5 29.5t-14.5 73z" />
<glyph unicode="&#x4b2;" horiz-adv-x="1286" d="M-61.5 93q4.5 42 36.5 75q231 227 549 584q-145 289 -233 557q-12 37 9.5 77.5t62 61t78.5 8.5t53 -49q84 -248 192 -475q72 76 213 217q190 190 266 274q33 35 76 42.5t72.5 -17.5t28.5 -67t-33 -76q-63 -68 -277 -283q-170 -170 -256 -266l148 -264q14 -25 61 -91 l82 -114q113 -160 113 -275q0 -39 -29 -145q-8 -23 -14.5 -47.5t-12.5 -47t-8 -24.5q-12 -43 -50 -70.5t-79 -24.5t-62.5 34.5t-9.5 72.5q0 4 7.5 25.5t12.5 45.5t13 46q20 80 21 90q2 63 -82 185l-80 108q-49 66 -72 105l-121 210q-287 -319 -505 -534q-35 -33 -78 -38 t-70 21.5t-22.5 68.5z" />
<glyph unicode="&#x4b3;" horiz-adv-x="960" d="M-56 96q5 43 38 76q135 127 350 369q-90 176 -170 389q-12 37 6 79t60 63.5t81 12t53 -46.5q63 -166 132 -313q164 186 292 322q37 33 80 36.5t69 -25t20.5 -71.5t-40.5 -74q-135 -150 -331 -366l84 -144q10 -16 86 -112q72 -90 92 -156q8 -25 9 -56.5t-3 -65t-7 -55 t-11.5 -54.5t-8.5 -35q-10 -45 -46 -75t-80 -30t-67.5 30t-13.5 75l11 45l8 43q2 12 5 30.5t2 30t-1 21.5q-14 35 -68 102q-82 106 -96 129l-55 97q-182 -205 -307 -328q-37 -33 -81 -37t-70.5 23.5t-21.5 70.5z" />
<glyph unicode="&#x4b4;" horiz-adv-x="1869" d="M195.5 1372q9.5 43 46.5 72t80 29q104 -2 987 -3q43 0 66.5 -29.5t14 -72.5t-45 -72.5t-78.5 -29.5h-369q-184 -688 -270 -1076q92 0 354 3.5t405 3.5q20 96 59.5 282.5t64 303t61.5 283.5t69 302q12 43 49 71.5t79 26.5t64.5 -32.5t12.5 -73.5q-43 -172 -84 -354.5 t-98 -460t-72 -348.5q12 4 25 4q43 0 67.5 -29t16.5 -72q-25 -123 -72 -342q-8 -43 -44 -72.5t-79 -29.5t-66.5 29.5t-15.5 72.5l52 234q-186 2 -525.5 -2t-462.5 -4q-37 0 -59 22.5t-25 57.5q-4 18 3 40q88 422 286 1158q-238 0 -418 4q-43 0 -65.5 30.5t-13 73.5z" />
<glyph unicode="&#x4b5;" horiz-adv-x="1396" d="M107.5 979q9.5 43 45 72.5t78.5 29.5q113 0 338.5 10.5t337.5 10.5q43 0 66.5 -30t14.5 -73t-45 -72.5t-79 -29.5q-84 0 -196 -4q-98 -352 -144 -680q139 -10 389 0q31 135 86.5 386t87.5 400q10 43 47 72t80 29t64.5 -31t13.5 -74q-35 -150 -89 -396.5t-85 -377.5 q35 2 66 2q10 2 20 2q43 0 66.5 -29.5t13.5 -72.5q-37 -174 -88 -334q-16 -43 -54 -68.5t-80 -20.5t-60.5 38t-6.5 76q33 98 60 202q-18 -2 -153.5 -7t-186.5 -6t-150.5 2t-177.5 11q-55 8 -68 60q-14 25 -12 57q45 362 152 752q-168 -8 -273 -8q-43 0 -65.5 29.5t-13 72.5z " />
<glyph unicode="&#x4b6;" horiz-adv-x="1445" d="M209 774q-33 117 6 305q10 53 35.5 154.5t32.5 134.5q10 43 46 72.5t79 29.5t66.5 -29.5t12.5 -72.5q-8 -41 -33.5 -144.5t-33.5 -142.5q-31 -141 -6 -213q23 -88 166 -127q137 -39 284 -14q18 4 34.5 7t27 6t27 10.5t24.5 10.5t33 15l39 17l120 573q10 43 46 72.5 t79 29.5t66.5 -29.5t13.5 -72.5q-47 -223 -130 -608t-118 -555q168 -23 183 -148q6 -53 -21 -143q0 -4 -16.5 -55.5t-24.5 -83.5q-12 -43 -50 -72t-79 -27t-62.5 34t-11.5 73q8 35 25.5 90t17.5 57q14 45 13 60q-18 12 -92 16q-12 -4 -27 -4q-43 0 -66.5 29.5t-15.5 72.5 l98 461q-66 -25 -139 -37q-193 -33 -371 17q-227 61 -278 231z" />
<glyph unicode="&#x4b7;" horiz-adv-x="1083" d="M117 762q6 43 24 119q16 72 21 96q6 43 42 73.5t79 32.5t67.5 -26.5t18.5 -71.5q-4 -31 -25 -108q-16 -72 -20 -105q-18 -106 2 -154q41 -96 178 -59q66 16 138.5 61.5t121.5 96.5l4 4q2 16 6 33q25 178 37 229q8 43 43 73.5t78 30.5t67.5 -28.5t16.5 -71.5 q-10 -47 -35 -219q-23 -145 -45 -236q-10 -35 -113 -378q33 2 56 -2q49 -12 72.5 -48t11.5 -86q-8 -41 -48 -108q-43 -74 -53 -94q-20 -41 -61 -61.5t-80 -8.5t-51.5 49t8.5 78q14 27 37 66q-18 -2 -35 2h-18q-39 2 -61.5 33.5t-10.5 74.5q18 74 59 208t56 185 q-96 -57 -189 -82q-80 -16 -152.5 -15t-136 43t-98.5 120q-39 92 -12 254z" />
<glyph unicode="&#x4b8;" horiz-adv-x="1359" d="M208 900q-1 54 8 130t17.5 119t27 118.5t22.5 96.5q10 43 46 72.5t79 29.5t66.5 -29.5t12.5 -72.5q-6 -31 -23.5 -109.5t-25.5 -112.5t-16 -93.5t-6 -95t10 -76.5t27 -72q29 -43 94 -72q45 215 82 367q10 41 47 70.5t79 27.5t64.5 -32.5t11.5 -73.5q-39 -156 -86 -387 q117 4 205 49q47 23 66 37q70 322 96 567q6 41 40 74.5t77 38t70.5 -22.5t23.5 -70q-23 -209 -80 -481q25 -25 23 -63.5t-31 -73.5l-31 -35q-14 -68 -45 -196t-53.5 -231t-42.5 -196q-8 -41 -44 -71.5t-78 -30.5t-66.5 29.5t-16.5 72.5q27 137 103 449q-121 -47 -261 -51 l-22 -109q-8 -43 -45 -72.5t-80 -29.5t-65.5 29.5t-14.5 72.5l27 129q-162 43 -232 154q-31 47 -45 109.5t-15 116.5z" />
<glyph unicode="&#x4b9;" horiz-adv-x="1165" d="M131 752q0 20 10 116q4 61 4 90q0 43 31 79t75 44.5t74.5 -14.5t29.5 -63.5t-7 -112.5q-10 -94 -10 -111q-6 -115 12 -155q23 -45 82 -47q37 188 55 276q10 43 46 72.5t79 29.5t66.5 -29.5t13.5 -72.5q-16 -82 -43 -211q86 41 201 109q16 121 39 233q8 43 45 74t79 31 t65.5 -30t15.5 -71q-12 -61 -29 -164q20 -10 31 -30q16 -35 0.5 -77t-56.5 -67q-49 -350 -129 -567q-14 -41 -53 -66.5t-80 -18.5t-59.5 41t0.5 77q61 178 96 399q-102 -55 -186 -88l-21 -8l-20 -94q-8 -43 -44 -73t-79 -30t-66.5 30t-15.5 73l10 49q-170 -4 -235 131 q-39 84 -27 246z" />
<glyph unicode="&#x4ba;" horiz-adv-x="1329" d="M90 102q29 135 80 392.5t95 466t93 407.5q12 43 50 71.5t79 26.5t63.5 -33.5t12.5 -72.5q-59 -229 -119 -512q199 72 385 76q199 4 304 -80q96 -78 108 -228q8 -70 -7 -168t-32.5 -161.5t-50.5 -163.5q-6 -23 -8 -31q-12 -43 -51 -70.5t-80 -23.5t-61.5 37t-8.5 74 q37 115 52.5 172t29.5 139q14 84 10 139q-6 78 -55 115q-57 47 -188 45q-174 -4 -390 -92q-82 -414 -106 -525q-8 -43 -44 -72.5t-79 -29.5t-66.5 29.5t-15.5 72.5z" />
<glyph unicode="&#x4bb;" horiz-adv-x="1036" d="M80 90q14 174 25.5 285.5t48 277.5t98.5 348q18 43 58 67t80 15.5t54 -43.5q18 -35 2 -75q-68 -188 -100 -363q141 82 293 103q152 23 233 -52q70 -61 74 -184q6 -125 -72 -375q-12 -41 -51 -68.5t-80 -23.5t-61 37t-8 76q68 221 63 303q-2 53 -22 74q-25 20 -90 12 q-139 -20 -293 -129q-8 -8 -21 -15q-12 -92 -20 -241q-6 -43 -39 -77t-76 -39t-70.5 20.5t-25.5 66.5z" />
<glyph unicode="&#x4bc;" horiz-adv-x="1755" d="M75 849.5q1 24.5 4 50.5t3 28q0 43 32.5 76.5t77 41t72 -18.5t25.5 -66q0 -20 -1 -37t-3 -24t-2 -13v-13q2 -4 16 -12l2 -2q4 0 15.5 -1t23.5 -3q43 -4 104 -6q47 125 131 248q82 115 188.5 198.5t215 123.5t221.5 51.5t209 -17.5q213 -55 307 -244.5t4 -464.5 q-12 -33 -38.5 -56t-59.5 -32q-20 -8 -43 -8q-35 0 -292 -4t-431 -4q-25 -2 -130 -1t-126 1q-6 -115 36 -207t122 -151q88 -68 197.5 -80.5t237.5 46t241 191.5q31 35 73.5 44.5t73.5 -13t32 -63.5t-30 -78q-117 -137 -254 -220t-265 -102.5t-245 7t-211 96.5 q-117 88 -175 227t-40 307q-70 2 -114 6q-78 8 -109 25q-84 49 -94 133q-2 16 -1 40.5zM649 846q106 -2 250 0q57 0 645 8q31 160 -33 264q-68 104 -192 137q-145 39 -305 -24t-273 -223q-57 -82 -92 -162z" />
<glyph unicode="&#x4bd;" horiz-adv-x="1427" d="M72 656.5q0 35.5 3 56t12 56.5t9 38q10 45 47 75.5t81 30.5t68.5 -30.5t14.5 -75.5l-8 -43l-8 -33l-2 -16q-2 -10 -1 -14.5t3 -8.5t8 -10q14 -16 111 -29l4 4q55 137 161.5 244t253.5 156q143 51 316 -2q281 -86 252 -434l-6 -25v-6q-6 -41 -42 -75t-79 -38 q-432 -35 -572 -39q-66 -2 -114 -2q8 -82 63 -139t154 -76q74 -12 129 2q45 16 131 76q39 27 82 22.5t63.5 -38t7 -77.5t-52.5 -71q-121 -82 -209 -110q-104 -33 -231 -11q-180 35 -268 153t-84 277h-4q-184 16 -242 82q-25 29 -38 62t-13 68.5zM623 645q51 0 110 2 q184 6 451 31q-6 68 -39 112t-103 64q-137 41 -248.5 -20.5t-170.5 -188.5z" />
<glyph unicode="&#x4be;" horiz-adv-x="1755" d="M73 837.5q1 24.5 3 50t4 27.5q0 43 32.5 77t75.5 41t72 -18.5t27 -66.5q0 -20 -2 -36.5t-3 -23.5t-1 -13.5v-12.5q2 -4 16 -12v-2q4 0 15.5 -1t25.5 -3q43 -4 102 -6q47 125 133 247q82 115 187.5 199t215 124t222.5 51t209 -17q211 -55 306 -244.5t5 -464.5 q-12 -33 -39.5 -56.5t-60.5 -31.5q-18 -8 -41 -8q-35 0 -292 -4t-431 -4q-25 -2 -130.5 -1t-125.5 1q-6 -115 36 -207t122 -152q88 -68 197.5 -80t237.5 46.5t241 191.5q31 35 72.5 44t73.5 -13.5t32 -63.5t-31 -78q-133 -160 -288.5 -241.5t-311.5 -89.5q-84 -66 -129 -105 q-51 -45 -74 -76q45 -14 142 -16q43 0 64.5 -30.5t12 -73.5t-46.5 -72t-80 -29q-184 2 -258 58q-51 39 -55 100q-4 55 31 117q41 70 145 161l6 5q-72 29 -131 73q-117 88 -175 227.5t-40 307.5q-72 2 -115 6q-78 8 -110 25q-84 49 -92 133q-2 16 -1 40.5zM647 834 q106 -2 250 0q57 0 645 8q29 160 -35 264q-66 104 -190 137q-145 39 -305 -24q-162 -63 -273 -224q-59 -82 -92 -161z" />
<glyph unicode="&#x4bf;" horiz-adv-x="1421" d="M75 660.5q1 35.5 3 56t11 56.5t11 38q8 43 46 73.5t81 30.5t66.5 -30.5t15.5 -73.5l-10 -43l-6 -33l-4 -16q-2 -10 -1 -14.5t3 -8.5t10 -10q12 -14 111 -27l2 5q55 135 160.5 240.5t252.5 154.5q145 51 314 -2q281 -84 250 -432l-5 -25l-2 -4q-4 -41 -38.5 -75t-79.5 -38 q-428 -35 -570 -41q-66 -2 -112 -2q10 -80 64 -136t153 -77q74 -12 125 2q47 18 131 76q41 27 84 23t62.5 -37t6 -77t-52.5 -71q-119 -82 -207 -110l-22 -8q-86 -49 -157 -112t-97 -108q47 -14 157 -4q45 4 73 -23.5t23 -70.5t-40 -76.5t-80 -38.5q-209 -18 -289 43 q-57 39 -61 107t28 123q45 86 152 180q-141 49 -205.5 157.5t-62.5 248.5h-4q-180 16 -238 79q-25 31 -39 63t-13 67.5zM623 649q51 0 110 4q182 6 447 29q-6 68 -39 111t-101 65q-135 41 -246.5 -20.5t-170.5 -188.5z" />
<glyph unicode="&#x4c0;" horiz-adv-x="593" d="M133 84q8 72 16.5 143.5t22.5 161.5l23 137q8 45 28.5 161t24.5 138q6 39 27.5 167t35 190.5t43.5 191.5q14 43 51 71t79 24.5t62.5 -35t10.5 -72.5q-37 -152 -45 -193t-28.5 -163.5t-28.5 -171.5q-6 -27 -26.5 -143t-28 -157.5t-21.5 -130t-22.5 -156t-12.5 -134.5 q-4 -43 -37 -77t-76 -39t-71.5 20.5t-26.5 66.5z" />
<glyph unicode="&#x4c1;" horiz-adv-x="1857" d="M-63.5 101q8.5 42 47.5 73l657 528l8 17q-76 82 -155.5 188.5t-131.5 182.5l-129 202q-23 33 -9 75t51.5 69.5t79.5 23.5t61 -37l145 -223q57 -86 144.5 -196.5t173.5 -192.5h6q63 297 127 520q12 43 50 71t79 24.5t62.5 -35t8.5 -72.5q-59 -215 -120 -492 q537 412 751 588q37 31 80 31t65.5 -30t13.5 -73t-46 -71q-223 -184 -678 -533q68 -94 178 -268q152 -238 203 -307q20 -31 9 -74t-48 -71.5t-79 -26.5t-64 33q-68 94 -205 313q-125 197 -189 285l-34 -2q-10 -47 -48 -234.5t-61 -290.5q-8 -43 -44 -72.5t-79 -29.5 t-66.5 29.5t-15.5 72.5q23 98 59.5 284.5t45.5 223.5q-16 -6 -33 -6l-713 -571q-37 -29 -79 -29t-64.5 30.5t-14 72.5zM899.5 1687q9.5 42 46.5 71.5t79 29.5t67 -31q61 -80 96 -82q39 -2 131 74q37 29 79 29t65.5 -31t14 -73t-45.5 -72q-168 -135 -295 -132 q-117 6 -224 144q-23 31 -13.5 73z" />
<glyph unicode="&#x4c2;" horiz-adv-x="1515" d="M-49 87q2 42 35 77q207 227 417 436l-239 307q-25 31 -15.5 73t45 72.5t77.5 30.5t67 -28q184 -229 326 -426q29 152 63 350q8 43 43 74.5t78 34t68.5 -26.5t17.5 -70q-29 -178 -64 -350l25 18q123 88 168 123l160 129q135 109 200 154q39 29 80 24.5t61.5 -37t8.5 -74.5 t-51 -69q-63 -45 -187 -143l-166 -135l-53 -41l262 -422q20 -33 8 -75t-50 -69.5t-78.5 -24.5t-63.5 34l-262 426q-55 -41 -101 -78l-18 -12l-27 -121l-30 -150q-10 -43 -46 -72.5t-79 -29.5t-66.5 29.5t-13.5 72.5l49 232q-12 8 -22 20l-66 99q-193 -193 -385 -404 q-31 -35 -75 -42t-73.5 17.5t-27.5 66.5zM645 1374q-12 37 8.5 78t62.5 61.5t80 8t50 -48.5q39 -111 91 -113t144 104q31 37 75 45.5t75 -14t31 -64.5t-31 -77q-176 -205 -345 -199t-241 219z" />
<glyph unicode="&#x4c7;" horiz-adv-x="1519" d="M111 104q18 82 89.5 383t100.5 486q31 174 35 373q0 41 30.5 76.5t74.5 44t75 -14t29 -66.5q-2 -236 -62 -542q205 6 707 6q61 301 131 528q12 43 51 70t81 22.5t61.5 -37t5.5 -75.5q-74 -248 -150 -633q-106 -532 -133 -641q-4 -25 -18 -96q-12 -84 -25 -131 q-47 -190 -156 -279q-39 -31 -98 -49l-31 -10l-18 -6q-43 -16 -79 -1t-45 54t15.5 78t65.5 57q16 6 41 12q0 2 10 4t16 4l13 7q37 31 61 135q10 37 23 114q14 82 22 115q41 168 115 553q-508 0 -709 -6q-16 -74 -60 -257t-65 -278q-8 -43 -43.5 -72.5t-78.5 -29.5t-67 29.5 t-15 72.5z" />
<glyph unicode="&#x4c8;" horiz-adv-x="1200" d="M68 84q27 446 190 915q14 41 54 67t80 18.5t58.5 -41t2.5 -76.5q-49 -129 -91 -297q135 -6 519 -13q63 328 63 334q10 43 46 73t79 30t66.5 -30t13.5 -73q-6 -29 -52 -265.5t-75 -377.5q-47 -211 -88 -346q-55 -182 -115 -256q-25 -33 -53.5 -58.5t-58.5 -41.5l-54 -27 q-18 -8 -51 -18l-39 -13q-45 -16 -81 0.5t-42 56.5t18.5 78.5t65.5 53.5q25 10 52.5 19t36 12.5t19.5 9.5t17 12l17 18q25 33 67 172q39 133 84 330l21 103q-389 6 -519 12q-37 -190 -43 -348q-2 -41 -33.5 -76t-74.5 -42t-72.5 17.5t-27.5 67.5z" />
<glyph unicode="&#x4cf;" horiz-adv-x="489" d="M43 104q143 614 211 891q10 43 47 72t80 27t64.5 -33t11.5 -74q-68 -274 -209 -887q-10 -43 -46 -71.5t-79 -28.5t-65.5 30.5t-14.5 73.5z" />
<glyph unicode="&#x4d0;" horiz-adv-x="1212" d="M-81 43q-13 37 3 78q61 158 211 391v8q10 47 53 78l27 45q14 25 86 148l180 307l105 166l94 143q33 49 86 57q43 16 78 1t43 -50q49 -178 112 -635l21 -133q31 -6 49 -30.5t14 -59.5q-4 -41 -37 -74q31 -176 68 -338q10 -39 -12.5 -78.5t-64.5 -59t-78.5 -6.5t-49.5 50 q-39 180 -73 383q-217 -14 -537 -16q-135 -238 -184 -346q-18 -41 -60.5 -62.5t-81.5 -12.5t-52 46zM420 623q219 2 381 12l-10 78q-39 299 -68 424q-84 -135 -303 -514zM527 1643q-7 40 18.5 78t68.5 53.5t78 -0.5q109 -53 160 -56q59 -2 149 54q41 25 80 16.5t56.5 -43.5 t0 -76t-56.5 -65q-156 -94 -278 -91q-94 4 -234 72q-35 18 -42 58z" />
<glyph unicode="&#x4d1;" horiz-adv-x="1198" d="M32 376.5q9 135.5 66 264.5q55 123 146 227q160 184 342 222q213 41 372 -138q25 -27 20 -66.5t-34 -70.5q4 -6 10 -14q23 -35 17 -94q-4 -27 -15 -70q-39 -156 -38 -164q-37 -182 22 -225q8 -4 31 -6q4 -2 10 -2t13 -1t12 -1q27 -4 47 -9q39 -10 54 -47t-3.5 -78 t-60.5 -64.5t-80 -14.5q-10 2 -27 4q-37 6 -39 6q-66 8 -102 39q-61 41 -84 112q-133 -141 -297 -176q-104 -25 -193.5 8t-140.5 123q-57 100 -48 235.5zM257 498.5q-38 -142.5 13 -228.5q43 -80 142 -57q45 10 94 43t84 80q57 76 133 293q4 12 4 15t4 22l6 32q8 41 23 66 q10 20 26 37q-98 104 -204 84q-94 -18 -189 -129q-98 -115 -136 -257.5zM395 1358q-14 37 3.5 78t58.5 64.5t79.5 15t55.5 -42.5q51 -117 113 -113q66 4 192 121q37 33 80 35t68.5 -26t18.5 -71t-40 -73q-199 -180 -350 -191q-180 -12 -279 203z" />
<glyph unicode="&#x4d2;" horiz-adv-x="1241" d="M-83 58q-11 38 13 79q63 125 140 250l127 209l151 233l133 211q10 14 49 84q39 68 68 111q43 74 76 119q20 29 37 49q35 39 73 55q63 27 107 -16q12 -10 20.5 -27.5t16.5 -48.5q12 -41 26 -113q16 -94 27 -174q70 -535 158 -932q12 -43 -13.5 -80.5t-67.5 -55t-79 -3 t-47 52.5q-35 186 -70 375q-16 -4 -31 -4q-94 0 -270 -7t-254 -9q-111 -178 -198 -348q-25 -39 -66 -57.5t-78 -4.5t-48 52zM436 623q41 2 178.5 7t212.5 7l-53 377q-8 53 -20 119q-16 -31 -39 -70l-39 -66l-23 -34zM570 1673q0 61 54.5 110.5t121.5 49.5q45 0 70.5 -25.5 t25.5 -68.5q0 -68 -52 -117t-113 -49q-45 0 -76 28.5t-31 71.5zM914 1673q0 55 47 107.5t113 52.5q53 0 79.5 -24.5t26.5 -67.5q0 -72 -46 -119t-115 -47q-49 0 -77 28.5t-28 69.5z" />
<glyph unicode="&#x4d3;" horiz-adv-x="1150" d="M37 430q39 211 186 397q168 209 375 252q240 49 420 -157q33 -39 10 -95q41 -59 -10 -149q-8 -14 -14.5 -23.5t-7.5 -10.5t-1 -3t-2 -4q-41 -115 -45 -123q-8 -18 -18 -39q-33 -115 -27 -141q4 -59 119 -144q31 -23 31 -63.5t-30 -76.5t-73 -45t-76 13q-115 111 -149 170 q-45 -45 -90 -79q-80 -59 -162 -90t-174 -22t-166 73q-139 119 -96 360zM244 436q-27 -141 43 -198q98 -84 241 22q125 96 205 250l15 45q31 100 63 174q12 31 23 51l4 2q-117 123 -240 97q-115 -23 -217 -156q-109 -135 -137 -287zM449.5 1298q9.5 43 45 73t78.5 30t66 -31 q25 -29 15.5 -72t-45.5 -72.5t-79 -29.5t-66.5 29.5t-14 72.5zM742.5 1298q9.5 43 45 73t78.5 30t66 -31q25 -29 15.5 -72t-45.5 -72.5t-79 -29.5t-66.5 29.5t-14 72.5z" />
<glyph unicode="&#x4d4;" horiz-adv-x="1900" d="M-100.5 63.5q-8.5 38.5 16.5 79.5q133 215 408 627q281 416 411 629q16 29 46 46t61 17q6 2 14 2q160 10 331 11.5t399.5 -2t326.5 -3.5q43 0 66.5 -29.5t14.5 -72.5t-45 -72.5t-79 -29.5q-102 0 -328.5 3t-347.5 3q-29 -123 -129 -441q299 -14 643 19q43 4 70.5 -22.5 t22.5 -69.5t-38.5 -76t-79.5 -37q-346 -33 -677 -18q-59 -227 -68 -428q293 -20 707 14q41 4 67.5 -23.5t22.5 -69.5t-39 -75t-80 -37q-465 -39 -797 -8q-20 2 -39 14q-51 18 -51 74q0 145 21 297q-319 -12 -471 -20l-191 -299q-23 -39 -64.5 -55.5t-78.5 -1t-45.5 54z M418 575q119 6 375 15q31 125 99.5 350t96.5 328q-61 -2 -119 -6q-104 -170 -452 -687z" />
<glyph unicode="&#x4d5;" horiz-adv-x="1855" d="M18 223q-6 74 30 154t108 143q150 131 399 162q137 14 231 -23q23 84 19 111q-14 168 -166 158q-76 -6 -156 -51.5t-139 -118.5q-29 -37 -72 -48.5t-75.5 10t-34.5 62.5t28 78q90 117 220.5 189.5t255.5 83.5q111 6 194.5 -39t126.5 -140q96 80 220 114t236.5 19.5 t192.5 -67.5q39 -27 79 -86.5t67 -124.5q33 -82 33 -152q0 -109 -72 -182q-55 -57 -141 -55q-10 2 -35 4h-13q-72 -4 -199.5 -7t-232 -9.5t-200.5 -16.5q57 -172 190 -190q61 -10 146 4t233 49q45 12 76.5 -9.5t34 -63.5t-26.5 -77.5t-74 -46.5q-53 -14 -80 -20l-75 -17 q-51 -12 -83 -16t-74 -8t-79 -4t-72 6q-168 25 -260 170l-12 -10l-61 -47q-23 -14 -62 -35t-92 -43q-150 -55 -264.5 -47t-187 71.5t-81.5 165.5zM229 281q0 -33 27 -57.5t89.5 -35t162.5 32.5l35 12q10 6 24 13l21 12q4 2 18.5 11.5t19.5 13.5l25 20l29 23q2 8 39 114 q-68 51 -182 37q-174 -20 -258 -96q-55 -47 -50 -100zM985 600q90 8 191.5 13t221.5 8.5t189 7.5h19q-6 33 -23 73q-16 49 -45 90.5t-45 51.5q-90 61 -227.5 36.5t-210.5 -116.5q-20 -25 -32.5 -51.5t-18 -45t-19.5 -67.5z" />
<glyph unicode="&#x4d6;" horiz-adv-x="1292" d="M98 84q2 10 6 20q43 264 71 420t82 398.5t116 427.5q14 39 50 65.5t77 24.5q287 25 798 24q43 0 67 -29.5t14.5 -72.5t-45.5 -72.5t-79 -29.5q-457 0 -710 -19q-59 -195 -111 -444q260 20 643 37q43 2 67.5 -27t17.5 -72t-42 -73.5t-78 -32.5q-436 -20 -649 -37 q-29 -158 -69 -402q61 2 322 16.5t401 14.5q43 0 66.5 -29.5t14 -72.5t-45 -73t-78.5 -30q-147 0 -424 -15t-398 -17q-43 0 -67.5 28.5t-16.5 71.5zM690 1663q0 41 32 77t74 44t74 -15q88 -70 136.5 -73.5t134.5 59.5q37 27 79 24t62.5 -35t8 -74t-47.5 -71 q-164 -119 -297 -106q-98 8 -227 104q-29 25 -29 66z" />
<glyph unicode="&#x4d7;" horiz-adv-x="1124" d="M45 471q37 254 242 432q141 125 278 164q115 35 245 5t200 -107q59 -74 82 -199q35 -201 -111 -299q-12 -8 -23.5 -13t-15.5 -5l-8 -3q-6 0 -10 -2h-228q-66 -2 -243 -14q-115 -8 -191 -10q12 -115 131 -172q74 -33 172 -35q96 -4 189 20q43 12 77.5 -8t38.5 -63 t-25.5 -82t-76.5 -51q-123 -37 -260 -31q-131 4 -240 53q-119 53 -176 162q-63 106 -47 258zM309 635q66 2 176 10q182 10 252 12h142q0 12 -2 31q-16 80 -48 117q-35 41 -108.5 57.5t-138.5 -0.5q-74 -23 -168 -104q-66 -57 -105 -123zM453 1389q-10 39 11 78.5t64 58 t80 5.5t47 -52q31 -113 111 -121q84 -8 184 90q33 33 77 37t71.5 -22.5t22.5 -69.5t-40 -76q-88 -84 -185 -128t-189 -36q-96 10 -161 71.5t-93 164.5z" />
<glyph unicode="&#x4d8;" horiz-adv-x="1515" d="M90.5 428q-18.5 133 22.5 295v6l2 12q10 43 47 74t80 31q350 0 997 24q-12 102 -63.5 189.5t-131.5 140.5q-123 82 -256 51q-143 -37 -266 -211q-29 -39 -72.5 -53t-78.5 4.5t-40 59.5t21 82q182 262 428 321q221 53 408 -72q121 -82 195.5 -219t74.5 -305q41 -29 31 -84 q-8 -47 -49 -80q-12 -53 -35 -106q-59 -152 -158.5 -271.5t-215.5 -190.5t-239.5 -103.5t-238.5 -22.5q-121 10 -218 64.5t-161.5 142.5t-83 221zM305 635q-25 -190 65.5 -301t243.5 -123q109 -10 219.5 30t212 139t160.5 245q6 18 13 37q-596 -25 -914 -27z" />
<glyph unicode="&#x4d9;" horiz-adv-x="1144" d="M45 413q2 44 8 117q6 57 58 93q35 33 75 39q303 33 664 10q-10 100 -66.5 170.5t-148.5 91.5q-59 12 -102.5 1t-116.5 -58q-39 -27 -80 -20t-59.5 41t-2 76t53.5 66q111 70 198.5 94.5t196.5 0.5q172 -41 257 -176.5t83 -309.5q25 -14 35 -41.5t0 -58.5q-14 -51 -64 -78 q-25 -92 -75 -174t-120.5 -149.5t-171 -109.5t-214.5 -48q-248 -10 -359 182q-29 55 -40 126t-9 115zM256 465q-4 -106 31 -166q59 -111 202 -104q123 6 212.5 79.5t127.5 192.5q-315 20 -573 -2z" />
<glyph unicode="&#x4da;" horiz-adv-x="1507" d="M85 424q-19 133 21 293l3 6l2 12q8 43 46 74t81 31q348 0 993 22q-12 102 -63.5 189.5t-131.5 140.5q-123 82 -252 51q-147 -37 -268 -211q-27 -37 -71 -52t-78.5 4.5t-41 60t20.5 79.5q180 262 428 322q217 53 406 -72q123 -82 195.5 -219t72.5 -303q41 -29 31 -84 q-8 -47 -49 -80q-12 -53 -35 -106q-59 -152 -158.5 -272t-213.5 -189.5t-237.5 -102t-240.5 -22.5q-119 10 -216.5 63.5t-161 142.5t-82.5 222zM301 631q-27 -193 62.5 -302.5t244.5 -121.5q106 -12 217 27.5t213.5 140t159.5 243.5q6 18 12 37q-596 -23 -909 -24zM638 1610 q9 43 45 72.5t89 29.5t76 -31q25 -29 15.5 -71.5t-45.5 -72.5t-89 -30t-76.5 30t-14.5 73zM1019 1618q9 43 45 72.5t89 29.5t76 -30q25 -29 15.5 -72t-45.5 -72.5t-89 -29.5t-76.5 29.5t-14.5 72.5z" />
<glyph unicode="&#x4db;" horiz-adv-x="1116" d="M43 393q2 43 6 115q6 55 57 90q33 31 74 37q293 33 643 10q-10 98 -64 167t-143 87q-59 12 -100 1t-113 -56q-41 -27 -78.5 -20t-56 40t-3 74t53.5 66q104 68 190.5 91t190.5 -1q168 -39 250 -170t80 -301q25 -12 34 -40t1 -57q-14 -49 -61 -75q-25 -90 -73 -169 t-118 -144.5t-167 -106.5t-206 -47q-242 -10 -350 176q-27 53 -38 121.5t-9 111.5zM248 444q-4 -102 28 -161q59 -106 197 -101q121 6 207 78t125 186q-307 20 -557 -2zM429 1339q9 43 45 73t89 30t76 -31q25 -29 15.5 -72t-45.5 -72.5t-89 -29.5t-76.5 29.5t-14.5 72.5z M746.5 1360q9.5 43 45 72.5t89 29.5t75.5 -30q25 -29 16 -72t-45 -73t-89.5 -30t-77 30t-14 73z" />
<glyph unicode="&#x4dc;" horiz-adv-x="1828" d="M-52 82q1 41 34 76q274 287 700 579q-92 72 -183 175.5t-147 179.5l-141 198q-20 31 -10 73t48 70.5t80 26.5t62 -35q137 -197 247 -327.5t239 -225.5q53 252 84 486q6 43 40.5 75.5t77.5 37t70 -23.5t22 -69q-33 -240 -94 -522q303 193 723 586q35 31 78 32t67.5 -28 t16.5 -71t-43 -72q-385 -367 -670 -558q260 -285 451 -583q23 -33 9.5 -75t-52.5 -69.5t-80 -23.5t-59 37q-190 297 -457 583q-18 -20 -43 -30q-63 -279 -94 -478q-8 -43 -42 -74.5t-78 -33.5t-69.5 25.5t-19.5 70.5q31 188 102 510q-430 -289 -692 -565q-35 -35 -78 -42 t-71.5 18.5t-27.5 66.5zM797.5 1597q9.5 43 45.5 73t89 30t76 -31q25 -29 15.5 -72t-45.5 -72.5t-89 -29.5t-77 29.5t-14.5 72.5zM1201 1595q9 43 45 73t89.5 30t75.5 -31q25 -29 15.5 -72t-46.5 -72.5t-90 -29.5t-75.5 29.5t-13.5 72.5z" />
<glyph unicode="&#x4dd;" horiz-adv-x="1427" d="M-55.5 51q-14.5 37 3 80t58.5 66q125 72 214 143.5t183 175.5q-92 168 -258 383q-25 31 -17.5 74t45.5 74.5t81 33.5t70 -26q182 -240 284 -430q33 178 54 354q4 41 38.5 74.5t77.5 39t73 -21.5t26 -74q-16 -147 -50 -342q276 229 519 408q43 27 83.5 20.5t59 -42 t3.5 -78.5t-58 -70q-211 -160 -447 -352q115 -215 273 -361q31 -29 27.5 -71.5t-37 -77.5t-78 -40t-72.5 21q-178 162 -318 414l-61 -322q-6 -43 -43 -74.5t-81 -33.5t-68.5 28.5t-16.5 73.5q14 84 59 322q-115 -133 -226.5 -224.5t-258.5 -175.5q-43 -25 -85 -15.5 t-56.5 46.5zM534.5 1257q8.5 43 45 73t90 30t73.5 -31q25 -29 17 -72t-45 -72.5t-90.5 -29.5t-76 29.5t-14 72.5zM838.5 1266q9.5 43 45.5 72.5t89 29.5t76 -31q25 -29 15.5 -71.5t-45.5 -72.5t-89 -30t-77 30t-14.5 73z" />
<glyph unicode="&#x4de;" horiz-adv-x="1204" d="M31 322q-14 37 5 77.5t60 63t80 11.5t53 -46q27 -72 58 -111q31 -37 88 -63q188 -88 340 -14q129 61 184 200q55 133 0 219q-33 49 -98 66q-72 -6 -156 -2q-12 0 -22 4q-37 2 -59.5 26.5t-18.5 59.5q0 43 32.5 77t75.5 40q111 16 195 4q47 6 76 22q25 12 34 31 q25 55 17 121q-8 102 -89 135t-218 -2q-84 -23 -138 -55q-53 -35 -116 -103q-33 -35 -76 -42t-72.5 17.5t-27.5 66.5t32 77q88 96 176 152q88 53 211 84q205 53 342 -2q166 -68 185 -271q10 -125 -41 -239q-31 -57 -84 -101q12 -16 22 -30q53 -80 56 -187q0 -104 -45 -209 q-43 -106 -126 -196t-192 -144q-252 -119 -522 7q-86 41 -135 102q-49 59 -86 154zM584.5 1638q9.5 43 45.5 73t89 30t76 -31q25 -29 15.5 -72t-45.5 -72.5t-89 -29.5t-77 29.5t-14.5 72.5zM929 1649q9 43 45 72.5t89 29.5t76 -31q25 -29 15.5 -71.5t-45.5 -72.5t-89 -30 t-76.5 30t-14.5 73z" />
<glyph unicode="&#x4df;" horiz-adv-x="1050" d="M2.5 233.5q11.5 42.5 48.5 71.5t80 27t66 -33q10 -20 22 -36.5t17.5 -24t11.5 -13.5q14 -16 63 -30q86 -27 240 18q147 43 194 115q16 23 0 69q-23 55 -59 72q-6 2 -24 2q-61 4 -66 4q-2 0 -4 2l-4 -2q-41 -12 -75 8.5t-38 60.5t24.5 77.5t71.5 50.5q145 41 174 106 q20 49 -26 99q-25 29 -64 41t-90 9t-114.5 -42t-122.5 -109q-31 -37 -74 -45t-75 14.5t-30.5 64.5t31.5 77q94 111 200.5 172t201 70.5t173.5 -15t132 -82.5q53 -55 69.5 -135t-20.5 -164q-27 -59 -78 -110q57 -47 84 -123q51 -137 -27 -258q-102 -152 -346 -226 q-213 -63 -358 -18q-86 27 -127 70q-8 6 -70 92q-23 31 -11.5 73.5zM371.5 1319q9.5 43 45.5 72.5t89 29.5t76 -30q25 -29 15.5 -72t-45.5 -72.5t-89 -29.5t-77 29.5t-14.5 72.5zM722 1315q9 43 46 72.5t90 29.5t74 -31q25 -29 15.5 -71.5t-45.5 -72.5t-89 -30t-76.5 30 t-14.5 73z" />
<glyph unicode="&#x4e0;" horiz-adv-x="1165" d="M12 309q-4 41 22.5 78t71 50.5t77 -6t38.5 -60.5q0 -2 2 -70q0 -23 4 -31q25 -59 140 -65q129 -4 275 65.5t210 175.5q70 121 14 265q-27 74 -84 88q-53 14 -168 -11q-37 -8 -63 7q-29 16 -37 47q-14 29 -5 63.5t38 61.5q139 127 338 286q-102 -6 -533 -18 q-45 -2 -68.5 27.5t-17.5 71.5t43 73t78 33q584 18 780 37q59 6 84 -43l2 -4q25 -31 13.5 -73t-47.5 -71l-355 -287q6 0 13 -2q133 -37 188 -180q88 -231 -39 -442q-104 -178 -326 -287q-199 -94 -387 -86q-219 8 -280 162q-16 35 -19 88q-2 8 -1 19.5t1 19.5t-2 18z" />
<glyph unicode="&#x4e1;" horiz-adv-x="993" d="M-49 -106q-6 39 19.5 77.5t68.5 54t78 -1t43 -57.5q25 -45 51 -73q31 -35 104 -44q133 -18 228 58q86 70 119 188q35 123 -12.5 215t-164.5 103q-27 4 -217 -23q-43 -4 -71.5 21.5t-26.5 66.5q2 18 10 37q12 39 47 68l379 293q-250 -2 -411 12q-43 4 -63.5 36.5 t-7.5 74.5t51 70t79 24q141 -12 326.5 -13.5t328.5 2.5q41 0 65.5 -29.5t14.5 -72.5q-4 -18 -14 -37q-12 -43 -53 -70q-145 -98 -353 -258q135 -20 214 -106t96.5 -196.5t-15.5 -229.5q-55 -201 -211 -324q-180 -143 -405 -114q-137 18 -207 96q-57 63 -90 152z" />
<glyph unicode="&#x4e2;" horiz-adv-x="1515" d="M117 100q16 96 43 285q31 201 51 313q18 102 68 326q47 213 67 336q6 43 42 74.5t78 33.5t67.5 -26.5t19.5 -69.5q-18 -119 -70 -348q-49 -223 -65 -317q-14 -78 -64 -406q74 57 135.5 107.5t133.5 130.5l112 125l264 321l41 47l39 49l185 271l30 47q18 33 50 50t63 15 q45 2 70.5 -26.5t17.5 -69.5q-8 -55 -30.5 -192.5t-31 -193.5t-31 -173t-36.5 -172q-18 -70 -68.5 -254t-72.5 -291q-8 -43 -46 -72.5t-80 -29.5t-64.5 30.5t-14.5 71.5q23 109 74 285q51 199 67 268q35 137 66 324l-189 -230l-114 -137l-107 -125q-68 -78 -118 -121 t-120.5 -106.5t-146.5 -120.5t-162 -113q-33 -23 -68.5 -20.5t-56.5 24.5q-37 29 -28 80zM601 1554q7 43 43 74t79 33q375 14 467 16q43 0 67.5 -28.5t15.5 -71.5t-45 -73.5t-79 -30.5q-90 -2 -461 -17q-45 -2 -69.5 26.5t-17.5 71.5z" />
<glyph unicode="&#x4e3;" horiz-adv-x="1177" d="M109 86q10 371 116 907q8 43 44 74t78 31t66.5 -30t16.5 -71q-74 -379 -96 -639l219 220q82 82 188.5 202.5t167.5 214.5l2 2q12 35 43 58.5t66 27.5q43 4 70.5 -23.5t21.5 -68.5q-47 -412 -178 -895q-10 -43 -48 -70.5t-80 -25.5t-63.5 34t-9.5 75q80 313 117 516 q-80 -90 -174 -187l-213 -213l-164 -176q-27 -27 -59 -35q-14 -6 -27 -8q-45 -8 -74.5 15.5t-29.5 64.5zM386 1282q5 43 40 75t78 36l123 8q68 6 74 7t44.5 3t50 2t78.5 2l140 4q41 2 65.5 -27.5t17.5 -71.5t-43 -72.5t-79 -33.5l-137 -4q-66 -2 -77 -2t-48 -2t-43 -2 t-70 -4q-25 -4 -123 -12q-45 -4 -70.5 23.5t-20.5 70.5z" />
<glyph unicode="&#x4e4;" horiz-adv-x="1546" d="M119 109q10 111 33.5 236.5t60.5 281.5q35 147 49 223q20 113 47 285q33 201 37 229q6 41 42 72.5t78 34t67.5 -26.5t19.5 -72q-4 -25 -37 -229q-29 -184 -49 -289q-16 -88 -59 -272q-41 -186 -56 -256q621 528 963 1044q2 2 4 6q10 37 42 63.5t69 33.5q45 4 71.5 -22 t24.5 -69q-51 -526 -269 -1292q-12 -41 -50 -68.5t-79 -24.5t-62.5 34.5t-8.5 74.5q147 518 211 883q-381 -475 -985 -962q-37 -29 -79 -29t-67 31q-14 18 -14 45q-4 16 -4 35zM728 1559q9 43 45 72.5t89 29.5t76 -31q25 -29 15.5 -71.5t-45.5 -72.5t-89 -30t-76.5 30 t-14.5 73zM1041.5 1559q9.5 43 45 72.5t89 29.5t75.5 -31q25 -29 15.5 -71.5t-45 -72.5t-89 -30t-77 30t-14 73z" />
<glyph unicode="&#x4e5;" horiz-adv-x="1175" d="M61 94q10 104 33 230.5t39.5 201t56 245.5t49 214t46.5 71.5t80 28.5t65.5 -30.5t11.5 -73.5q-10 -49 -51 -225t-50 -220t-40 -208q125 117 342 352l295 317q8 8 18 15q37 33 80 35t67.5 -28t18.5 -71q-29 -152 -94 -435.5t-90 -410.5q-8 -43 -44 -73.5t-79 -30.5 t-67.5 28.5t-14.5 71.5q12 66 119 537l-203 -219q-68 -72 -190.5 -188.5t-231.5 -200.5q-29 -23 -63.5 -26t-57.5 11q-49 25 -45 82zM484.5 1245q9.5 43 45 73t89 30t75.5 -31q25 -29 15.5 -72t-45 -72.5t-89 -29.5t-77 29.5t-14 72.5zM789.5 1245q9.5 43 45 73t89 30 t75.5 -31q25 -29 16 -72t-45 -72.5t-89.5 -29.5t-77 29.5t-14 72.5z" />
<glyph unicode="&#x4e6;" horiz-adv-x="1619" d="M103.5 475q-13.5 119 20.5 249t109 251q70 119 186 222t243 177q158 94 274 113q35 6 73 7t83 -4t66.5 -8t71.5 -13.5t52 -10.5q51 -8 64 -57q127 -66 192.5 -199t63 -288.5t-59.5 -309.5q-51 -137 -140 -252.5t-211 -204t-289 -128t-347 -15.5q-137 18 -236.5 86 t-150.5 167t-64.5 218zM316.5 667.5q-15.5 -116.5 10 -214t104.5 -164t192 -80.5q141 -20 264 7.5t211 91t150.5 146.5t97.5 181q78 209 25.5 384t-210.5 218q-18 4 -35.5 5t-46.5 3l-55 4q-41 6 -63 39q-16 0 -31 -2q-74 -12 -189 -80q-106 -61 -194 -141 q-88 -82 -141 -164q-74 -117 -89.5 -233.5zM759 1636q9 43 45 73t89 30t76 -31q25 -29 15.5 -72t-45.5 -72.5t-89 -29.5t-76.5 29.5t-14.5 72.5zM1129.5 1649q9.5 43 45 72.5t89 29.5t75.5 -31q25 -29 16 -71.5t-45 -72.5t-89.5 -30t-77 30t-14 73z" />
<glyph unicode="&#x4e7;" horiz-adv-x="1085" d="M53 512q23 133 78 240.5t150.5 197.5t214.5 125q43 12 98 10q2 0 33 -4h22q33 0 53 -16q111 -18 188 -77.5t110.5 -141.5t35.5 -174q2 -113 -24 -209q-59 -213 -226 -346q-190 -152 -426 -113q-129 20 -207.5 102t-99 185.5t-0.5 220.5zM262.5 530.5 q-24.5 -135.5 20.5 -221.5t153 -104q137 -23 240 59q96 78 135 213q43 160 -10 266.5t-193 120.5q-20 2 -35 15h-4l-12 2h-16q-18 0 -25 -2q-88 -25 -158.5 -119t-95 -229.5zM388 1284q9 43 45 72.5t89 29.5t76 -30q25 -29 15.5 -72t-45.5 -72.5t-89 -29.5t-76.5 29.5 t-14.5 72.5zM728 1280q9 43 45 72.5t89 29.5t76 -30q25 -29 15.5 -72t-45.5 -72.5t-89 -29.5t-76.5 29.5t-14.5 72.5z" />
<glyph unicode="&#x4e8;" horiz-adv-x="1669" d="M107.5 529.5q-7.5 115.5 21.5 223t86 218.5q78 145 196.5 257.5t271.5 182.5t326 71t361 -81q18 -8 31 -23q152 -109 207 -342q31 -135 21.5 -269t-68.5 -265q-49 -102 -123 -188.5t-159 -147t-183.5 -101t-196.5 -58t-193.5 -14.5t-179.5 27q-135 39 -229 117 t-138 177.5t-51.5 215zM315 623q-2 -143 74 -252t232 -154q100 -31 212.5 -18.5t215 53.5t189.5 121t136 182q16 33 27 72q-123 0 -361.5 -4.5t-364.5 -5.5t-360 6zM356 827q238 -6 355.5 -5t357.5 5t356 4q-6 53 -20 123q-29 111 -84 185.5t-133 97.5q-16 4 -30.5 5t-41 2 t-55.5 3q-35 4 -53 29q-199 12 -359 -93.5t-252 -275.5q-27 -49 -41 -80z" />
<glyph unicode="&#x4e9;" horiz-adv-x="1161" d="M47 459q12 123 67.5 246.5t159 229t238.5 146.5q45 12 102 13q4 0 32 -1t32 1q29 2 55 -13q209 -8 308.5 -145t76.5 -324q-12 -102 -59 -200.5t-121 -183.5t-185.5 -145t-240.5 -79q-250 -31 -375 117q-109 127 -90 338zM260 459q-2 -117 53 -183q68 -80 213 -59 q123 14 211 84t135 172q-98 0 -301.5 -7t-310.5 -7zM317 670q100 0 296 6t288 8q-14 96 -92 148.5t-215 31.5q-35 -6 -64 15q-66 -23 -121 -77t-92 -132z" />
<glyph unicode="&#x4ea;" horiz-adv-x="1669" d="M109.5 533.5q-7.5 115.5 22.5 233.5t89 228q78 145 193.5 248t269.5 172.5t327 70.5t359 -81q18 -8 31 -23q154 -109 213 -321q31 -135 19.5 -279.5t-72.5 -275.5q-49 -102 -122 -188.5t-159 -146.5t-184.5 -101t-195.5 -58.5t-192.5 -14.5t-181.5 28q-135 39 -229 116.5 t-137 177t-50.5 215zM317 592q6 -131 82 -229.5t222 -141.5q100 -31 213.5 -18.5t215 53.5t189.5 121t137 182q8 20 17 45q-186 0 -545 -6t-531 -6zM344 797q178 0 538.5 6t542.5 6q2 88 -16 170q-27 111 -85 175.5t-136 86.5q-14 4 -29.5 5t-42 2t-55.5 3q-33 4 -53 29 q-197 12 -354.5 -83t-252.5 -265q-35 -66 -57 -135zM716 1624q9 43 45 72.5t99.5 29.5t83.5 -30q27 -29 17.5 -72t-46 -72.5t-100 -29.5t-86 29.5t-13.5 72.5zM1113 1638q9 43 45 73t99.5 30t85.5 -31q25 -29 16 -72t-45 -72.5t-99.5 -29.5t-87 29.5t-14.5 72.5z" />
<glyph unicode="&#x4eb;" horiz-adv-x="1161" d="M45 455q12 125 66.5 248.5t160 229t240.5 146.5q43 12 100 13q4 0 32 -1t32 1q31 2 55 -13q209 -10 309.5 -146t77.5 -325q-12 -102 -59 -200.5t-122 -183.5t-187.5 -145.5t-239.5 -78.5q-250 -31 -375 117q-111 127 -90 338zM260 455q-6 -119 51 -185q70 -76 215 -57 q119 14 209 84t133 172q-98 0 -299.5 -7t-308.5 -7zM315 668q102 0 297 5t289 7q-14 98 -92 149.5t-217 32.5q-37 -6 -64 12q-63 -20 -119.5 -75.5t-93.5 -130.5zM395 1321q0 61 54.5 110.5t121.5 49.5q45 0 71 -25.5t26 -69.5q0 -68 -52.5 -116.5t-113.5 -48.5 q-45 0 -76 28.5t-31 71.5zM739 1321q0 55 47.5 107.5t112.5 52.5q53 0 80 -24.5t27 -67.5q0 -72 -46.5 -119t-115.5 -47q-49 0 -77 28.5t-28 69.5z" />
<glyph unicode="&#x4ec;" horiz-adv-x="1411" d="M82 377q0 2 4 35q4 14 2 20q6 43 39 77t76 39t71.5 -20.5t24.5 -66.5q-2 -18 -6 -41q0 -2 -1 -13.5t-3 -17.5q-4 -18 -2 -22q20 -80 106 -125t212 -40t234.5 57t164.5 136q72 106 112 242q-225 0 -360 -4q-43 -2 -67.5 27.5t-17.5 71.5t43 73t77 33q137 4 360 4 q8 170 -59 274q-63 106 -199.5 135t-281 -26.5t-232.5 -173.5q-29 -39 -72 -51.5t-76.5 8t-38 60.5t24.5 77q82 111 197.5 187.5t239.5 106t244 23.5t221.5 -62.5t160.5 -152.5q102 -170 74 -432q29 -29 18 -76q-8 -43 -43 -71q-51 -199 -155 -359q-98 -145 -265.5 -225 t-339.5 -88q-174 -6 -311 63q-137 72 -174 222q-10 39 -2 96zM560 1616q9 43 45 72.5t99.5 29.5t86.5 -30q25 -29 15.5 -72t-45.5 -73t-99.5 -30t-87 30t-14.5 73zM931 1647q9 43 45 72.5t89 29.5t76 -31q25 -29 15.5 -71.5t-45.5 -72.5t-89 -30t-76.5 30t-14.5 73z" />
<glyph unicode="&#x4ed;" horiz-adv-x="1112" d="M25 282q12 42 50 69.5t79 24.5t63 -34q10 -18 25.5 -42t19.5 -31t14.5 -18t20.5 -17.5t29 -14.5q49 -23 119.5 -20.5t132.5 26.5q131 51 188 191q-180 0 -301 -4q-43 -2 -67.5 27.5t-17.5 71.5t43 72.5t77 32.5q119 4 293 5q-8 51 -25 98q-51 145 -168 172 q-129 31 -305 -115q-35 -31 -78 -31t-66.5 30t-14.5 73t46 72q272 225 506 172q100 -25 171 -97.5t110 -173.5q33 -92 32 -203q35 -6 52.5 -34.5t9.5 -65.5q-6 -33 -31.5 -59.5t-58.5 -36.5q-39 -127 -127 -228.5t-228 -156.5q-102 -39 -211.5 -42t-197.5 36 q-35 14 -58.5 29.5t-41 36t-26.5 32.5t-25.5 40t-24.5 38q-20 33 -8 75zM362.5 1286q8.5 43 45 73t90 30t73.5 -31q25 -29 17 -72t-45 -72.5t-90.5 -29.5t-76 29.5t-14 72.5zM736 1294q9 43 45 73t89.5 30t75.5 -31q25 -29 15.5 -72t-45 -72.5t-89 -29.5t-77 29.5 t-14.5 72.5z" />
<glyph unicode="&#x4ee;" horiz-adv-x="1247" d="M12 7q2 42 33 75q35 35 76 41q213 33 399 211q-184 420 -293 993q-8 39 16.5 79t66.5 56.5t79 1t45 -54.5q92 -514 250 -891l47 66q102 147 236 393q211 414 217 426q23 41 65.5 58.5t79.5 3t46 -53.5t-13 -78q-10 -20 -213 -418q-145 -268 -252 -419 q-354 -508 -786 -574q-43 -8 -72 17.5t-27 67.5zM523 1561q9 43 45 72.5t79 29.5q176 0 432 6q41 0 65.5 -28.5t16.5 -70.5t-43 -73t-80 -33q-254 -6 -434 -6q-43 0 -66.5 30t-14.5 73z" />
<glyph unicode="&#x4ef;" horiz-adv-x="909" d="M-151 -344q-1 41 28 77t74 46l55 12q27 4 39 6t25 6q31 10 80 52q29 25 114 170l10 16l-4 12q-135 485 -118 912q0 41 30.5 75.5t74.5 43t73.5 -15.5t27.5 -67q-10 -328 72 -679l27 53q125 242 313 641q18 41 60 62.5t80 10t52.5 -48t-8.5 -77.5q-176 -379 -315 -648 q-121 -233 -197 -362q-113 -188 -178 -242q-90 -74 -166 -100q-8 -2 -145 -33q-43 -8 -73 14.5t-31 63.5zM328.5 1327q11.5 43 48.5 70.5t80 25.5q55 -4 105 -7t58.5 -4t36.5 -1h203q43 0 66.5 -29.5t14.5 -72.5t-45 -73t-79 -30h-207q-4 0 -209 13q-43 2 -63.5 33.5 t-9 74.5z" />
<glyph unicode="&#x4f0;" horiz-adv-x="1245" d="M10 7q2 42 33 75q35 35 76 41q213 33 399 211q-184 420 -293 989q-8 39 15.5 79t66.5 56.5t79 1t44 -54.5q94 -510 252 -887l47 66q102 147 236 393q211 414 217 426q23 41 65.5 58.5t79.5 3t46 -53.5t-13 -78q-10 -20 -213 -418q-145 -268 -252 -419 q-354 -508 -786 -574q-43 -8 -72 17.5t-27 67.5zM587 1604q9 43 46 72.5t90 29.5t74 -31q25 -29 15.5 -71.5t-45.5 -72.5t-89 -30t-76.5 30t-14.5 73zM916.5 1608q9.5 43 45 72.5t89 29.5t75.5 -31q25 -29 16 -71.5t-45 -72.5t-89.5 -30t-77 30t-14 73z" />
<glyph unicode="&#x4f1;" horiz-adv-x="909" d="M-156 -365q0 41 29 77t72 46l57 13q27 4 39 6t25 6q31 10 79 51q29 25 115 170l10 16q-2 6 -4 13q-135 485 -116 928q0 41 31.5 75.5t74.5 42.5t72.5 -15.5t29.5 -66.5q-14 -344 68 -696l27 53q125 242 317 658q18 41 59 62.5t80 10t52.5 -48.5t-7.5 -78 q-180 -395 -319 -663q-121 -233 -199 -363q-111 -188 -178 -241q-88 -74 -164 -101q-8 -2 -145 -32q-43 -8 -74 14t-31 63zM315.5 1286q8.5 43 45 73t90 30t73.5 -31q25 -29 16.5 -72t-45 -72.5t-90 -29.5t-76 29.5t-14 72.5zM632 1276q9 43 46 72.5t90 29.5t74 -30 q25 -29 15.5 -72t-45.5 -72.5t-89 -29.5t-76.5 29.5t-14.5 72.5z" />
<glyph unicode="&#x4f2;" horiz-adv-x="1247" d="M12 7q2 42 33 75q35 35 76 41q213 33 399 211q-184 420 -293 993q-8 39 16.5 79t66.5 56.5t79 1t45 -54.5q92 -514 250 -891l47 66q102 147 236 393q211 418 219 430q23 41 64.5 58.5t78.5 3t46 -53.5t-13 -78q-10 -20 -213 -422q-145 -268 -252 -419 q-354 -508 -786 -574q-43 -8 -72 17.5t-27 67.5zM535.5 1622q9.5 43 45 72.5t78.5 29.5q176 0 433 7q41 0 65.5 -29t16 -71t-43 -72.5t-77.5 -32.5q-256 -6 -437 -6q-43 0 -66.5 29.5t-14 72.5z" />
<glyph unicode="&#x4f3;" horiz-adv-x="909" d="M-156 -365q0 41 29 77t72 46l57 13q27 4 39 6t25 6q31 10 79 51q29 25 115 170l10 16q-2 6 -4 13q-135 485 -114 932q0 41 30.5 75.5t74.5 43t73.5 -15.5t27.5 -67q-14 -348 68 -700l27 53q125 242 317 662q18 41 60 62.5t80 10t52.5 -48t-8.5 -77.5q-180 -399 -319 -668 q-121 -233 -199 -363q-111 -188 -178 -241q-88 -74 -164 -101q-8 -2 -145 -32q-43 -8 -74 14t-31 63z" />
<glyph unicode="&#x4f4;" horiz-adv-x="1306" d="M162 870q2 45 10 99q8 51 25.5 110.5t32 107.5t34.5 111l29 80q14 43 52 69t80 20.5t60.5 -38t6.5 -75.5q-10 -25 -31 -88l-37 -115q-10 -33 -24.5 -82t-21.5 -88t-7 -74q-6 -176 225 -192q160 -12 365 47q12 72 120 606q10 41 46 71.5t78 30.5t66.5 -29.5t14.5 -72.5 q-111 -545 -119 -594q10 -14 15 -35q14 -61 -43 -108q-53 -289 -86 -522q-8 -43 -42 -75t-77 -35t-68.5 24.5t-21.5 68.5q31 209 76 459q-213 -53 -383 -41q-76 6 -140.5 27.5t-121 61.5t-87 109.5t-26.5 161.5zM582.5 1618q9.5 43 45.5 72.5t89 29.5t76 -30 q25 -29 15.5 -72t-45.5 -72.5t-89 -29.5t-77 29.5t-14.5 72.5zM910.5 1618q9.5 43 45 72.5t89 29.5t75.5 -30q25 -29 15.5 -72t-45 -72.5t-89 -29.5t-77 29.5t-14 72.5z" />
<glyph unicode="&#x4f5;" horiz-adv-x="1095" d="M103.5 624.5q-1.5 30.5 3 63.5t9.5 59.5t17 63.5l25 94q6 18 18 50t17 38q14 43 53 67.5t80 18.5t58 -39.5t3 -74.5q-2 -10 -8 -27q-33 -109 -44 -141.5t-19.5 -74.5t-2.5 -69q23 -80 174 -96q143 -16 258 33q39 233 72 395q8 43 44 74t79 31t67.5 -29t14.5 -72 q-31 -158 -59 -319q14 -10 22 -25q23 -33 9.5 -75t-50.5 -68l-12 -10q-41 -236 -78 -394q-10 -43 -47 -71.5t-80 -28.5t-64.5 30.5t-13.5 73.5q29 121 56 273q-139 -37 -281 -23q-115 12 -202 63.5t-111 151.5q-6 27 -7.5 57.5zM367.5 1253q9.5 43 45.5 73t89 30t76 -31 q25 -29 15.5 -72t-45.5 -72.5t-89 -29.5t-77 29.5t-14.5 72.5zM709.5 1251q9.5 43 45.5 73t89 30t76 -31q25 -29 15.5 -72t-45.5 -72.5t-89 -29.5t-77 29.5t-14.5 72.5z" />
<glyph unicode="&#x4f6;" horiz-adv-x="1241" d="M80 90q106 360 162 653q8 39 27.5 174.5t41.5 233.5q27 115 64 211q14 37 47 61q35 33 76 37q264 23 807 2q43 0 66.5 -30.5t14 -72.5t-46 -72t-77.5 -30q-496 20 -717 5q-33 -129 -43 -176.5t-26.5 -161t-29.5 -176.5q-45 -246 -124 -529q59 18 90 19q49 4 79.5 -20.5 t40.5 -70.5q6 -45 -12 -141q-6 -27 -31 -125q-6 -18 -34 -127q-10 -43 -48 -70.5t-81 -25.5t-63.5 34t-10.5 75q31 109 35 127q25 90 28 108l2 14q-63 -20 -118 -28q-25 -10 -49 -8q-41 4 -61.5 36.5t-8.5 73.5z" />
<glyph unicode="&#x4f7;" horiz-adv-x="888" d="M55 80q8 53 90 440q61 289 82 447q8 66 70 98q35 27 74 27q72 2 240.5 -1.5t258.5 -3.5q43 0 67 -29.5t14.5 -72.5t-45.5 -72.5t-79 -29.5q-12 0 -405 6q-27 -158 -72 -369q-59 -276 -69 -332h14q23 4 43 0q35 -8 51.5 -36.5t7.5 -65.5q-2 -16 -10 -31l-98 -233 q-16 -41 -57.5 -64.5t-80 -15.5t-55 44t-0.5 77l51 119h-8q-43 -2 -67.5 26.5t-16.5 71.5z" />
<glyph unicode="&#x4f8;" horiz-adv-x="1822" d="M168 90q6 213 72 506q-29 10 -42.5 34.5t-9.5 57.5q6 37 35 66.5t66 40.5q100 397 133 571q8 43 44 73.5t79 33t66.5 -27.5t17.5 -71q-35 -186 -131 -557q131 16 204 21q279 16 420 -80q63 -45 94 -99.5t33 -138.5q6 -182 -143 -315q-113 -100 -297 -156 q-147 -43 -316 -55t-255 8q-47 6 -60 47q-10 18 -10 41zM381 197q207 -12 405 47q131 39 197 98q59 53 55 129q0 43 -12 64.5t-47 46.5q-94 66 -305 51q-70 -4 -199 -21l-26 -2q-55 -242 -68 -413zM912.5 1536q9.5 43 46 72.5t100 29.5t84.5 -30q25 -29 15.5 -72 t-45.5 -72.5t-99.5 -29.5t-87 29.5t-14 72.5zM1252.5 1538q9.5 43 45 72.5t89 29.5t75.5 -30q25 -29 15.5 -72t-45 -72.5t-89 -29.5t-77 29.5t-14 72.5zM1356 88q18 199 61 403.5t110.5 474t94.5 402.5q10 43 46 72.5t79 29.5t66.5 -29.5t13.5 -72.5q-31 -152 -97.5 -416 t-107.5 -455.5t-57 -383.5q-4 -43 -37 -76t-77 -38t-71.5 20.5t-23.5 68.5z" />
<glyph unicode="&#x4f9;" horiz-adv-x="1470" d="M98 68q-4 330 121 919q8 43 45 73t80 30t65.5 -30t14.5 -73q-41 -193 -62 -305l56 6q94 10 149 14q195 10 310 -55q74 -43 103.5 -98t27.5 -148q-2 -160 -136 -264q-96 -76 -254 -108q-164 -35 -376 -23q-18 -12 -39 -16q-41 -8 -73 14.5t-32 63.5zM307 209 q178 -8 309 20q98 20 146 58q35 27 37 73q0 47 -9.5 65.5t-46.5 41.5q-66 39 -208 31q-47 -2 -136 -13l-67 -8q-20 -143 -25 -268zM647 1286q8 43 45 73t90.5 30t73.5 -31q25 -29 16.5 -72t-45 -72.5t-90 -29.5t-76 29.5t-14.5 72.5zM977 1286q8 43 45 73t90 30t74 -31 q25 -29 16.5 -72t-45.5 -72.5t-90 -29.5t-75.5 29.5t-14.5 72.5zM1051 90q14 78 69.5 373t87.5 495q6 41 41 74t77 35t69.5 -25.5t19.5 -70.5q-33 -201 -88 -499t-70 -374q-8 -43 -42.5 -73.5t-78.5 -32.5t-69 26.5t-16 71.5z" />
<glyph unicode="&#x4fe;" horiz-adv-x="1271" d="M-24 83q1 42 36 77q57 61 176 178l174 174l134 143q-182 -2 -283 0q-43 0 -65.5 31t-13.5 74t46 71.5t80 28.5q92 -2 227 0l-38 86q-29 66 -43 90l-37 76q-25 49 -45.5 96t-47.5 82q-23 31 -12.5 73t47.5 71.5t79 27.5t65 -32q41 -51 80 -119l59 -119l57 -150l54 -116 l8 -21l51 56q260 313 428 477q35 33 78 37t69.5 -24t22.5 -70t-39 -74q-164 -172 -401 -447q123 -2 223 -12q41 -4 61.5 -37t8 -75t-51.5 -69.5t-82 -23.5q-111 10 -250 14q150 -315 269 -493q20 -33 7 -75t-51 -69.5t-79 -23.5t-62 37q-121 180 -278 506l-137 -150 l-174 -174q-117 -117 -176 -178q-31 -33 -75 -40t-72 18.5t-27 67.5z" />
<glyph unicode="&#x4ff;" horiz-adv-x="1034" d="M-7 104q9 43 48 76q154 127 289 269h-154q-45 0 -69.5 30.5t-14.5 74.5t47 74.5t82 30.5h94q-72 154 -139 244q-20 33 -9 77t49 73.5t82 27.5t67 -34q76 -109 188 -347q94 115 262 332q29 39 74 51.5t78.5 -8t37 -63.5t-25.5 -80l-209 -268h92q45 0 69.5 -31t15.5 -75 t-47 -74.5t-83 -30.5h-139q53 -90 182 -279q20 -33 9 -76t-50 -72.5t-81 -27.5t-66 37q-133 193 -191 295q-162 -168 -325 -303q-37 -29 -81 -29t-67.5 31.5t-14.5 74.5z" />
<glyph unicode="&#x2000;" horiz-adv-x="927" />
<glyph unicode="&#x2001;" horiz-adv-x="1855" />
<glyph unicode="&#x2002;" horiz-adv-x="927" />
<glyph unicode="&#x2003;" horiz-adv-x="1855" />
<glyph unicode="&#x2004;" horiz-adv-x="618" />
<glyph unicode="&#x2005;" horiz-adv-x="463" />
<glyph unicode="&#x2006;" horiz-adv-x="309" />
<glyph unicode="&#x2007;" horiz-adv-x="309" />
<glyph unicode="&#x2008;" horiz-adv-x="231" />
<glyph unicode="&#x2009;" horiz-adv-x="371" />
<glyph unicode="&#x200a;" horiz-adv-x="103" />
<glyph unicode="&#x2010;" d="M108.5 558q6.5 42 40 74t76.5 36q63 4 182 8t162 6t70 -26.5t19.5 -70.5t-43 -74t-76.5 -34q-45 -2 -161 -6t-179 -8q-45 -2 -71 25.5t-19.5 69.5z" />
<glyph unicode="&#x2011;" d="M108.5 558q6.5 42 40 74t76.5 36q63 4 182 8t162 6t70 -26.5t19.5 -70.5t-43 -74t-76.5 -34q-45 -2 -161 -6t-179 -8q-45 -2 -71 25.5t-19.5 69.5z" />
<glyph unicode="&#x2012;" d="M108.5 558q6.5 42 40 74t76.5 36q63 4 182 8t162 6t70 -26.5t19.5 -70.5t-43 -74t-76.5 -34q-45 -2 -161 -6t-179 -8q-45 -2 -71 25.5t-19.5 69.5z" />
<glyph unicode="&#x2013;" horiz-adv-x="1349" d="M106.5 553q8.5 35 37 57.5t63.5 22.5t487 2q305 2 496 -17q31 -4 47 -29.5t6 -59t-41 -55t-63 -19.5q-180 18 -477 16q-453 -4 -494 -2q-35 0 -52.5 24.5t-9 59.5z" />
<glyph unicode="&#x2014;" horiz-adv-x="1783" d="M87 556q9 34 39 56.5t64 20.5q258 -18 719 -6q549 14 736 10q33 0 51 -24.5t10 -58.5t-37 -57.5t-63 -23.5q-182 4 -727 -10q-459 -12 -736 6q-33 2 -49 27.5t-7 59.5z" />
<glyph unicode="&#x2018;" horiz-adv-x="548" d="M324 1503q-8 33 16.5 70t60.5 49q37 14 70 -1t41 -50q12 -76 66 -346q8 -37 -13.5 -74t-60.5 -53q-37 -14 -71 1t-40 48z" />
<glyph unicode="&#x2019;" horiz-adv-x="378" d="M177 1151q-5 37 20 74l213 346q20 35 59 50t72 1q33 -12 41 -49t-13 -70l-221 -356q-23 -33 -62.5 -48.5t-72.5 -0.5q-31 16 -36 53z" />
<glyph unicode="&#x201a;" horiz-adv-x="444" d="M-40 -166q1 33 26 62q47 55 66.5 98t31.5 119q6 35 34.5 59.5t62.5 26.5t53.5 -21.5t15.5 -56.5q-16 -100 -47 -168t-103 -148q-25 -29 -58.5 -35t-58 12.5t-23.5 51.5z" />
<glyph unicode="&#x201c;" horiz-adv-x="866" d="M322 1497q-8 31 16 68t61 50t70 -2.5t41 -49.5q16 -100 65 -346q8 -37 -13 -74t-59 -51.5t-72 0t-40 49.5zM641 1503q-8 33 16.5 70t61.5 50t69.5 -2t40.5 -50q16 -100 66 -346q8 -37 -13.5 -74t-59.5 -52.5t-71.5 0t-39.5 48.5z" />
<glyph unicode="&#x201d;" horiz-adv-x="868" d="M250 1157q-6 37 18 74q154 246 213 346q23 35 62 50t70.5 2t41 -50t-13.5 -70l-221 -356q-20 -33 -60.5 -48t-72 0t-37.5 52zM566 1149q-5 37 18 74q154 246 213 346q23 35 61.5 50t70.5 2t41 -50t-12 -68l-221 -356q-23 -35 -62.5 -49.5t-71.5 0t-37 51.5z" />
<glyph unicode="&#x201e;" horiz-adv-x="724" d="M-51 -250q-6 31 12 62q27 45 41 89t29.5 109.5t34.5 116.5q10 33 41.5 54.5t64.5 17.5t48.5 -31t4.5 -62q-10 -25 -28.5 -97t-40 -135.5t-56.5 -119.5q-18 -33 -52 -46t-63.5 -1t-35.5 43zM228 -219q-1 33 24 61q55 68 73.5 115t36.5 156q6 35 35 59.5t63 26.5t53 -21.5 t15 -56.5q-20 -127 -47.5 -200t-107.5 -165q-25 -29 -58.5 -37t-59.5 10.5t-27 51.5z" />
<glyph unicode="&#x2026;" horiz-adv-x="1581" d="M1 105q9 42 46 73t79 30t67 -30q27 -31 17.5 -73t-46.5 -72.5t-80 -30.5t-67.5 30.5t-15.5 72.5zM595 105q9 42 46 73t79 30t66 -30q27 -31 18 -73t-46 -72.5t-80 -30.5t-67.5 30.5t-15.5 72.5zM1189 105q9 42 46 73t79 30t66 -30q27 -31 18 -73t-46 -72.5t-80 -30.5 t-67.5 30.5t-15.5 72.5z" />
<glyph unicode="&#x202f;" horiz-adv-x="371" />
<glyph unicode="&#x2039;" horiz-adv-x="585" d="M125 578q27 51 115 124q113 90 163 140q27 25 62 27.5t56.5 -19t17.5 -55t-31 -60.5q-59 -55 -178 -149q-39 -33 -51 -47q2 -10 12 -27q23 -43 115 -162q20 -23 12 -57.5t-37 -58t-63.5 -23.5t-51.5 25q-98 123 -129 178q-45 88 -12 164z" />
<glyph unicode="&#x203a;" horiz-adv-x="626" d="M73 317.5q7 34.5 36 57.5l122 94q74 55 97 76l12 10l-18 16q-94 82 -152 146q-20 25 -15 58.5t34.5 58t63.5 26.5t54 -20q49 -59 139 -135l48 -46q29 -35 28 -73q0 -47 -37 -94q-23 -27 -65 -64l-101 -76q-74 -57 -120 -96q-29 -23 -64 -23t-52 25t-10 59.5z" />
<glyph unicode="&#x205f;" horiz-adv-x="463" />
<glyph unicode="&#x20ac;" horiz-adv-x="1550" d="M147.5 610q10.5 43 46 72t78.5 29h31q12 45 27 90h-47q-43 0 -66.5 29.5t-14.5 72.5t45 73t79 30h84q70 147 157 262q141 180 307 252q199 86 400 4q123 -51 185.5 -147.5t88.5 -235.5q8 -39 -16.5 -79t-67.5 -55.5t-78.5 1t-42.5 55.5q-23 109 -63 172q-41 63 -121 96 q-125 51 -235 4q-100 -43 -197 -168q-57 -72 -104 -161q213 2 407 6q43 0 67.5 -29t15.5 -72t-45 -73.5t-79 -30.5q-211 -4 -452 -6q-16 -47 -29 -92q154 2 481 14q43 2 67.5 -26.5t17.5 -71.5t-43 -74t-79 -33q-315 -12 -475 -14q-8 -170 37 -238q61 -92 240 -61 q86 14 168 53t135 86q31 29 50 50.5t27.5 34.5t34.5 58l48 82q25 39 66.5 56.5t77.5 2t45 -54t-13 -77.5q-14 -23 -44 -76t-44.5 -73.5t-47 -59.5t-77.5 -78q-84 -76 -200 -130t-232 -75q-129 -23 -242 6t-176 121q-78 121 -60 375h-45q-43 2 -65.5 31.5t-12 72.5z" />
<glyph unicode="&#x2122;" horiz-adv-x="1748" d="M285.5 1387.5q9.5 33.5 40 56t61.5 20.5q170 -10 473 2q35 2 54.5 -21.5t14.5 -57t-34 -58t-61 -26.5q-98 -4 -166 -7q-59 -242 -90 -503q-6 -35 -33 -60.5t-61.5 -29t-55 18t-18.5 54.5q33 270 92 520q-84 0 -158 4q-33 2 -50.5 28t-8 59.5zM901 778q8 39 47 260.5 t68 337.5q-2 41 28 74q27 27 62 32t57 -16q129 -115 213 -286l103 94q125 115 174 170q27 29 61.5 34t57.5 -14q20 -16 22 -43q8 -20 0 -45q-31 -109 -53 -295q-33 -256 -45 -317q-8 -35 -37 -58.5t-63.5 -23.5t-53 23.5t-10.5 58.5q16 80 43 301l14 111l-12 -11 q-119 -111 -172 -164q-12 -18 -35 -30q-33 -18 -63.5 -10t-42.5 36q-57 133 -117 217q-16 -72 -42 -216t-38 -216q-8 -35 -37 -59.5t-62.5 -24.5t-53 23.5t-13.5 56.5z" />
<glyph unicode="&#x25fc;" horiz-adv-x="1085" d="M0 0v1085h1085v-1085h-1085z" />
</font>
</defs>
</svg>
